<mxfile host="app.diagrams.net" modified="2024-03-03T13:14:33.670Z" agent="Mozilla/5.0 (Windows NT 10.0; Win64; x64) AppleWebKit/537.36 (KHTML, like Gecko) Chrome/122.0.0.0 Safari/537.36" etag="m2TaUkfodZ3TB9VejvqA" version="24.0.0" type="github">
  <diagram name="第 1 页" id="n26k5p6YSny27c0PJpww">
    <mxGraphModel dx="1767" dy="898" grid="1" gridSize="10" guides="1" tooltips="1" connect="1" arrows="1" fold="1" page="1" pageScale="1" pageWidth="827" pageHeight="1169" math="0" shadow="0">
      <root>
        <mxCell id="0" />
        <mxCell id="1" parent="0" />
        <mxCell id="hNrlFAxdRpLn2Tmce5fF-1" value="" style="shape=image;verticalLabelPosition=bottom;labelBackgroundColor=default;verticalAlign=top;aspect=fixed;imageAspect=0;image=data:image/png,iVBORw0KGgoAAAANSUhEUgAABDAAAAOpCAYAAADsWtcTAAAAAXNSR0IArs4c6QAAAARnQU1BAACxjwv8YQUAAAAJcEhZcwAAEnQAABJ0Ad5mH3gAAP+lSURBVHhe7P0JnBzlmef71p175nzm3HvPdM+5M3NqznS3h2nPneG0uw3tdjdq29O22hty40UGY0RjbMus8gYCAxY0i4VYLGMWATYIbLAl1gKEKIFBBRhBSUJIAgQSIChZSKIkClGgrSRVSe+NJ+KNzDfeeCMzMiuzMuOt37c/T5uKiIzljahSPf+KjOzYvXu3oiiKoiiKoiiKoiiKaufq2Lp1q6IoiqIoiqIoiqIoimrn6lAAAAAAAABtjgADAAAAAAC0PQIMAAAAAADQ9ggwAACFdPDAvqD2UBRFUQ0sAGhnBBgAgEIY2dOn9g4sVLv+cIXauf4ctePV71MURVENrx+onW9coPZs/qXa/97T6uDILv1TGABajwADQGEN735F7d3WFfySdWPY1O7qu4TKqN0bfxr+Mrp34CE1MrRBj2AxjAy9qfZsucXxSzZFURTV9HrtLLVv++/0T2QAaC0CDACFs/+9Z4Km/CL3L1pUrpJAY3jn83pE29f+95Y695+iKIoa29r95tXqwP539E9nAGgNAgwAhXFw+H21e9Mc5y9WVH011P8bPbrtZ9+7Pc593vn6jPCOjL3b7lV7BxZQFEVRDayhrfMz/62Vt5Yc2P+2/ikNAGOPAANAIRzY16929V2c+QuV3FEgv3BR7gqfG/H6j53jJ39VkwdithO5O8TeTzmG4R2r9RIAgGY6OLJTyXOH7J/FuzdeFcw9EC0EAGOMAANA+zu4Pwwo7F+ihrbeoUaG/qAXQh4ju19Ve7bMTY2lTGsfB9XON/4lsX9D/b/V8wAAY2lkz3q1640LEz+T9w48qOcCwNgiwADQ9iSoMH9xkjsJhnet1XNRj/3vL0uMqdS+7Yv13NaSh8WZ+7Vny816DgCgFUb2vJH4uSzF8zAAtAIBBoC2NjK0MflL02tnhNMwevJ2DHNsd67/kTp4YI+e2zr2W4UO7N+u5wAAWmXf9kcTP5v5ZBIArUCAAaCt2XdfyCeQoHH2vv1AYnzlwZmtJG8JMvdHHtQJAGgPO9efVfr5HD0LAwDGFgEGgLa2843zS78s7dowS09Foxwc2a12vPbD8i+kb16r57TG/sElpX2RGt79ip4DAGi1PW/9KvEzWp5ZBABjiQADQNs6sHdL4hclHhrWHPKMCXOc1cERPWfs7X2nO7EvB4cH9RwAQKvxMxpAqxFgAGhb8qBO8xel4R2r9Bw00r53Hk6McyufOTG07e7EvvBRfQDQPvYPPpX4GX1g72Y9BwDGBgEGgLa1//3liV+U5CnoaLz97/Umx7mFH01LgAEA7YsAA0CrEWAAaFupAGNog56DRtr/3lJrnAkwAABpBBgAWo0AA0DbIsAYGwQYY2Wreuysf6NOOCqqixdu1dPb18s3yL4eqx7bpicU2erLS2N/wll3qrf15DFhbvuoy9XLenJbSexjUDcs0zPQSu32PUiAAaDVCDAAtC0CjLFR3ABjmbrNbLjsGusmNa9td6qLg/0jwGgFHSK16NqIxrMNAwx9Td62Ovoy3E8CjLZAgAEASQQYANoWAcbYKPodGG8vPDYMLOLmKxLf7dCGzXeBAoxWefmGZp03AgyX6HuoTe8MGRNyXbT4+OXnQgFCIwIMAK1GgAGgbRFgjA0/AwwR36HRZo0ZAUZl4fgQYIylcR9ghG+fae3xF+WuFwIMAK1GgAGgbRFgjA1/A4xqd2fE5WqWKyxjPitAGg4dSMTTqgYTmQGG/ZYYR0Nlbcve96hBjqcnj0HGIDnf/FrK3J65L+Vt5H99LD2OF8dfO5q15PqiSoxTnuc02Mskwgq9P/K6xHLJcYyvGykZN/Nre9lYcpmgHCFJdHzpccrzWvu4Lj4rfs2x6v751uv1uFTd79T1FFV5zO3zZ50P8/X2mFYMidLrtb9/K4+JcX2G063vndR1kb4Oo7FI74dU+nsludxtq+2vw40kxyN1/Pb3t94H5zmQa8T9PRhr7PjkR4ABoNUIMAC0LQKMseFzgFFqqEq/sOvGw/hlP91U5llGTwuayIuN5SruS0w3LMkAQzcYFfYzvUy8D+YygXj9wb5F+xG9rrS91PzyNLuxiY7Hap5qeL29f6WvZXlr2ZLwnKUbtvhc2ttMBxzGa1P7FY9rcN7saalgQY+bLFvahj4H1pi7xinzmrGm5XqtPg772OXr0tttXOMhwun2sSVF+2Avk+8aFNF5LX8vuNcX0+s11hEdb3kM8o5nvNzFxts/omnJ78Hwtfb2jOPK3N94TEvXuvW9ZF+ToexxK58b+5pLj0nMNRaNHp9aEGAAaDUCDABtiwBjbHgdYOgGpNQYuBoOu/HLs0zAbroirubF4liXqyFJ70e07vTrrMYrPuasfbDHRKvUACX2K/fr082uc302O4QIucc1uU3XMvaY6WXsMXM2onnDCndTn33NVB6jkPXafNt0j1H4Wnv9lmj9ecbEfQ6j40ov6+Rabzgt3n7+8Yz2JeO8lV6vx8Vcn2zP+Np5/CK+1rO+l5xjlD4PrjELp5WWceyjln5to8enNgQYAFqNAANA22p1gDE4MKj/K8NAv+of1v/dAEODg2pwcEh/NXbGU4DhaiTsX+jzLCNcDb/Iml7iaDScr3EsZ3Pua7XXZcx37UMt60+/PhqzxHJhw2ePrcW5jLvpSu5fnsbM3eS7G9E82wxkjneOaybna6NtmmOb0fCmjkOWqzLegfT6M869cIxV1WvekLneWA3j6V5X1nKyj+7tuo4/lLkvmvO6SV9j1cenhgCjCeNTCwIMAK1GgAGgbbUywOifP0V1dnSqKfP79BRbv+o6oVN1fHCq6tqkJ6UMqp4LJqmpmesw9at5x3SojmPmBf8V2DBPTT1prlpbJUNphPH0FpJyI+OoGpYRWU1J1WbF0YBEr3GXuZx736wGpVrTlTHftd/OBqiG14fTamrkAuE5y2i6nBUvm6cxK2aAES9X2r9aXmcfq0N0TDnOvShggBHS601eMxHX8Ycy90UjwCDAADDmCDAAtK3W3oHRp+ZJQNExQc1ckb4rYvDBaaqzo0NNmLVKZd8zYaxjabU7K5IBRv+i6WpiZ/B15yQ1c0lzU4zx9BBP9y/0SXmWEVlNSdVmxdGA5GkAXfvl3NdqTVfGfNc+1LJ+9zHoxixYPqrKxxiqFGBUbLryLFPQAEPofYwr6/ya+yf/nbWcKXpNjnMvihpglOj5xutcxx/K3BeNAIMAA8CYI8AA0LZa/gyMTV1qSmenmnhJbzKkGOhW0zo7VOcJ81TVeyvCdXSojiNmqt6depqTdQeG2NClph0hIcZU1VWa2Hj+Bhhxo2I0Ds6Gw5JnmUDUlNjNQUaDbHI0IO5GI8nVBDn3oVrTlTHftX7nftX4+sz9yBKOfx3jOpplnOfc3eilxySjIXSMU3qM8r5WlkuObbZonRcvXBYca+VrKhYdk7X+jO8D1zXhOveZqn5/5R9P5/WZer2cc2sZva54H5zHLzKu9ZJK141xjbn306SvS/uYA+nXNnp8akOAAaDVCDAAtK2xDzD6VPeVs9Vso6afMV3NtKcdJXdVHKomn52cPvtBd5wxtGSGOryjWuDhCDDEzrWqZzV3YFQS/ZJuNxG6IUj98u6eLg1Y+fV5lombtqBSjYq9LxZnU6SbikQTlWy8Us2Ibp5Sx1it6cqY72pCnQ1QDa+Pl432s1wVxyerwY2P12y8ZP1mGJG1TOlrfW4bGmC4p7nGI+8YZ7/WKvs4tNKyGfNt0fLWeXaOlXtMXPubLev7q/x13jFxXp+pfYy2l7hew/NdXpd7PYGMa71Mb8sYI/fYZ31/x19nXJcB1741dnxqQ4ABoNUIMAC0rbEPMHrVzI4O1VFvXdKr12MbUr0XTFSTr12lBoP/673VCj7CmqGmHBas47ApakZqXlTd6/XqGqy4AUbcFGRUheat1GTocjUo1ZYJ58s2rCY9u9mJGzez7IYmOT/ZUFvzpQEpbTtqUux9ljLXkZrvarzkNU8kjymsYHu5Xy/bDPct3RRGTVWy0bIltmM2WtZYO9cThxj2Mqnpxr6Z84LtRftoLlvejjkv3RQbrzGvv9S2a3htIByPVMMZXf/O602PUyoEsqXGU8rVGJcrsT3X6619d0tf66njqDgm6e/98uvNefq8pfbTvi6T+yPrSl3rQTnH09pPWca8RsqvSe9zYn2JfQz272XH2JrXQCPHpwYEGABajQADQNtqWYCRGURkqeV1+k4LM/jIWTOX6lU0WNHvwGiVqMGpvQEYL9xNdyBs1NLBBjJUGK/KY8y1icYjwADQagQYANqWnwGGW99Nk6Kg4hjrLSRjgACjPgQYlei/aLua6/AvxwQYuWWOV/YYZwYbwCgRYABoNQIMAOrg8HtqZM8bav/7z6q9A91qz5Zb1e43r2157dowM/GLUrECDPt5GnNVb9ajLDbMU5Pl9W0SYOzaMCv83z1v/WrMy9wPKQKM4nK/VaRCsIEM0S3/7rdYpIMNrks0EwEGgFYjwADGqYMjO4NfRJaEQYH5y0g7V7ECDD2tVJPVvE16VkJf9JaSI6aoKZ8J/vcrM9TMk6aqueuqfexq42QFGO1QbRlgpN5Pn+NZA+NU1EwnK9WIozrHNZcMKcxnOBBeoHkIMAC0GgEGMA7Jbfo7X/9x4peQItSYBRgnzVE9j/fUUHPU1FSAUdY/f3JmgBG9deRwNWPJ2ijI+MwUNfVT8iknE9SMR5v76SMxAgwAQB4EGABajQADGGf2vHVr4pePItWYBRj1Vo0BxtDSmWpC8LoJweuGzI9R3blWzT1BQoxONemqVcG85qoWYOx8/dyml7k9swgwAKB9EGAAaDUCDGAcyQov9r7zcNjEDu9apw7s61cHD4zd2xcqadlDPM/rVoODg1b1q/5N9rS4utWMWgOMDfPUlM7gNUfMVL07ZYIRYIQL9Knu700Ig5EJ3+sOvmoeO8DgIZ4AABcCDACtRoABjBND2+5K/NIhtavvEjW8q33fLT32AUYwThJIhIGCaVB1n3aIETakuV8XSQUYG7rVtCM6VEfnFDWvdEh2gCEGVe8lUYjRedRstSpj/aNFgDEa5rMH8j0LI3ouBJ/C4WI+M6PZz8oYy22VnmHBw0tRcAQYAFqNAAMYBw7sf0ftXH924pcOueui3Y1tgNGvus6epmY/2Be9ZWPFHDXxMxPVnBXhzNIdE50nzEvfDbFzlZpzzCQ1c6n7zpVEgDHQo2ZIeNExwVreFWCIIbXqqkmqU+7waNInlBBgNED4iRAEGA2hm/0xedjnWG2LAAOeIMAA0GoEGMA4sO+dRxK/cMidF0UwpgHG+rlqUkeHOvzKVdHXS2eGdz7MXBp9KfrmTwmDhOiZFaY+NU+eWZG4o6KsHGAMqp6z5Y6KQ9TUu+0YJCvAEENq1bUzVVeTDp8AowFqCDBQRcEDjJdvIJyCvwgwALQaAQbgu4PDateGmYlfOEb2vK5ntrexDDD6bpVPA5mo5q7XExwBhgQJPWcfqqbeulZFnw+ySs05bpqa83i/UgPdalrimRZlybeQDKq1a1xPtKgUYDQXAUYDEGA0TpEDjHB9BBjwFwEGgFYjwAA8J8+4MH/ZGNp6h57T/sYuwFilZh/WoTqOnFt+e4gzwLAM9ajpwTKds6K7NuJPFbHfZrL22olGgJGFAEPUFmAsU7cFzWf4HAO5NV83o+HXQUVhgrFMUK5G9e2Fx5bmh3XWneptPa8s+awLqURYEQYY0rhayyXeMmDuS7nJLT+LIZpmPpvhhKMuV66n1Nj7bB5Xcn3J/fnFjdax6v1Lrq9SA54cTylzHMz1yPQ8600db9VQwdgHOVeJ826OV+V9DenXyvTq4155fcnXRyXHkBiD1FtI7HUmx8heZ2r/gTFGgAGg1QgwAM/Zzen+99yflNGOxirAGHxwWvjWkKn3RfdVhHSAMWOJ/tpl9Wx1eLDM9EfLbyhZddUE1dE5Uc0On50xqHpnTYyeXxHUId+ap/qGw8Uc+lX3GRPVxDO6CTCMfclzB0apySsFD2bTXm5E40Yy0QSm7pyIGspk86zXZzSf0TaNZlMHGBefZU9LN+LRfljNfNy0B68v7UvcmFtNb+r1rrs/UuszjiueZwcE4XR3YBLR42AEPNG+2K/R2wq2Xd6GbtStcCg+d/b4u8bNFo/DxWfp7ZdCJPlCr8ccO9dxp8ZJuPY15/oS+2ByvF5PK78+vm6j4wmPr+pYA2OLAANAqxFgAJ6zn38xsucNPaf9jU2AIc+XmKIOPWK20k+/iGyapyZ3yKd/zFRdS9eq/sTHpg6qvtVdauZR8tyLaarbyD0ktOgfkP/tU13fOiQMLuSZGf1LZ6qJ8haTD05S067tUr3r+hPry1vux4SOjh8BhtU0usKDzAbWfG06rHAGBOE0o5l0bc/R8ItUACH0vtlhRXRsZtPqaoQd24nXZ207UmG/rO3bwv1JjY3dsLsCANdxu44l4BzLtGh97uWcYxxIjWfGuNvnPPf6nOMh0sfqWmc4TY9buG77nDrPJzB2CDAAtBoBBuA5uyE8eGCPntP+xvQhnikSbExWh+i7J5zVOVHNeDSRXhj61NwjrQd+9veo2ccdWrojo+Yy3+LSQH4EGNZfpq0GNJLRMCekm/us5jXBub3aAwy7Gc9quOtdriS1v7KvVY7RpYZxTh131j5W23et0nlxXhOBevch9/pqCDCy1lmixzY9vkDrEGAAaDUCDMBze7bcUvpFY1ffRXpqMbQ2wNCG3HdCSFW7G2Jo/Vp34BCss39dr+p5vKem6t3QjPsvxnuAoUMG3SiWqs0DjNT+hpVeLjsEsMZCls/z132jqTaLAENPaGSAEdKv00WQgVYjwADQagQYgOd2v3lt6RcN+e8iaYsAYxwYvwGGK2BIT6vUKJeMcYBRrbnPs5y5H/LfVdfpOsZc4xxJHXfO8CBLpfPiT4ARKwdthBhoJQIMAK1GgAF4jgAD1YzfAMPVaOtpZujgXJfFuUwTAoyMcCAlVwgQrevihcuC/XQHASbXfkfT6gwwso5Fj+VoAoyseanx1OOUtQ/xceVeX/g61z6lj7XS/gtZt2tcq40L0EwEGABajQAD8BwBBqrhDoxywBCtKzmt/NfvZLP58g3G12MWYMSvt5aV7ZtNeK4AI+t4M9jHGDf/5rRQ3gCjvP3y64PXyqeXBNNGE2A498E1Js5j0K9NjEnO9TmvA+EaEz0tcX7lmom+Dscmtb2s4wXGBgEGgFYjwAA8R4CBagobYBjNZ1ylxlE3kmGVmsC4YZTSTaO1Dnl9HBC4Q4xyRY1renp5e+a8oPF8Ob2/smwpRIjL2K45L9EUm8dX4TVxpRtqTR9/5nxLYt3hNstjmhi7UpWbc3Oe2fQn91eWd5ynBHN+peXS58Y8zvJ2JRSwl619fbHE8bjObyKESB9LeZ2V5gGtQYABoNUIMADPEWCgmqLfgYFRCAMMV7MOAGkEGABajQAD8BwBBqohwBi/wrsDzLcpAEAFBBgAWo0AA/AcAQaqIcAYn6K3NnD3BYD8CDAAtBoBBuC5IgcYwztfTPyiJF+j8fZtfywxzgf2te4pgQQYzWY+x4HwAkBtCDAAtBoBBuC5IgcYI0MbE78o7Xu3R89BIw1tvSMxzgcP7NVzxt7egQXJfRnZqecAAFpt3/bfJX5GH9g/oOcAwNggwAA8V+QAQx0cVjte+2Fx978gdr5xfmmMd22Ypae2xr53nyjti9TI3k16DgCg1VJ3yR3cr+cAwNggwAA8V+gAI7Bny82JX5aGd6/Tc9AI+weXJMZX7oBopeFdLyf2Z987j+g5AIBW29V3Uenn866+S/RUABg7BBiA54oeYAzvWF3a//AXpj9cqdTBfXouRuPAvq1q5+vnJsa3He542Ln+R+Xz3XexngoAaKX9O1Ym/r3Y+3aXngMAY4cAA/Bc0QMMsXvTnMQvTXs2/0IdHNmt56IeB/a+FYZB5rgObb1Lz22toa3zE/u1d+AhPQcA0AoHD+wJ32Jo/mwe2bNezwWAsUOAAXjOhwAjfJjna2cmfnHatWFm+DGrqN2+dx9P3OUQjedP2uaBmfJQOHPfpOTJ9wCAsXfwwD61Z8tNiZ/Je976lZ4LAGOLAAPwnA8BhhjesSrxy1NcO1+foYb6f6v2DixU+7YvpjJq79sPhL9w7lx/VnocXztTjQz9QY90e9j3zsOp/dy77V51cPh9vQQAoNnkuUT23Xo715+tDuzr10sAwNgiwAA850uAIYZ3rkndOUCNrnZtuDS8w6UdSTCV2ufXzlR73vq12v/e08H18KIa2f0KRVEU1cCSZ13s2/6o2r3xqvTP4KCGd76gf0oDwNgjwAA851OAIQ7s2xY0trcnfpmi6it5AJu8r7mdyXM5XPtOURRFjXG9dmZ4NyQAtBIBBuA53wKM2MjQhvBtI7v+cFnwS9UPk79kUe56bXr4F7V9238XfgJJUewbfFLtfP3H7mOiKIqiml57Nt8Y/Lv7pv6pDACtQ4ABeM7XAMN2cGSHOrD/HSqjDo7s0iNVUAf3h8FL1i3NFEVRVGNLnpkkz07iLSMA2gkBBuC58RJgYPyQB3nKQ0flGRjDO1ZTFEVRjazdr6gD+96Sn7bRD10AaCMEGIDnCDAAAAAA+IAAA/AcAQYAAAAAHxBgAJ4jwAAAAADgAwIMwHMEGAAAAAB8QIABeI4AAwAAAIAPCDAAzxFgAAAAAPABAQbgOQIMAAAAAD4gwAA8R4ABAAAAwAcEGIDnCDAAAAAA+IAAA/AcAQYAAAAAHxBgAJ4jwAAAAADgAwIMwHMEGAAAAAB8QIABeI4AAwAAAIAPCDAAzxFgAAAAAPABAQbgOQIMAAAAAD4gwAA8R4ABAAAAwAcEGIDnCDAAAAAA+IAAA/AcAQYAAAAAHxBgAJ4jwAAAAADgAwIMwHMEGAAAAAB8QIABeI4AAwAAAIAPCDAAzxFgAAAAAPABAQbgOQIMAAAAAD4gwAA8R4ABAAAAwAcEGIDnCDAAAAAA+IAAA/AcAQYAAAAAHxBgAJ4jwAAAAADgAwIMwHMEGAAAAAB8QIABeI4AAwAAAIAPCDAAzxFgAAAAAPABAQbgOQIMAAAAAD4gwAA8R4ABAAAAwAcEGIDnCDAAAAAA+IAAA/AcAQYAAAAAHxBgAJ4jwAAAAADgAwIMwHMEGAAAAAB8QIABeI4AAwAAAIAPCDAAzxFgAAAAAPABAQbgOQIMAAAAAD4gwAA8R4ABAAAAwAcEGIDnCDAAAAAA+IAAA/Cc1wHGvp1KvbVcqTceUmrtfKVe+jVFjW29/Bul1i9QatPvg2+2bfrCBAAAQDMQYACe8zLAeK9PqRduVurxMyiqvWrFz5TatlpfqAAAAGgkAgzAc94FGK/e624cKaqd6vlfKLXvfX3RAgAAoBEIMADPeRNgjOwLmsJfuptFqSemK7VkBkWNbT35I/f1KLV0plLvb9QXMAAAAEaLAAPwnDcBxppb0w3ic1crtaVXqb38pRsttH+3Um8/Hz0Tw75Gl16q1L4dekEAAACMBgEG4DkvAoy+RenGcNNTeibQRravU+rpC5LX6gs36ZkAAAAYDQIMwHOFDzD2Dir1xJnJhnDb83om0Ibk00iWnJ+8Zt9+Uc8EAABAvQgwAM8VPsCQj6g0G8ENv9MzgDb2ztrkdbuywG/fAgAAaBMEGIDnCh9gLLus3AQ+c5FSB0f0DKDNvXhLMsQYGtQzAAAAUA8CDMBzhQ4wdm9NNoCv3qNnAAXQvyJ5/b61TM8AAABAPQgwAM8VOsB497VkA7j1OT0DKICh7cnrl7c/AQAAjAoBBuC5QgcY/c8lG8B31+sZQAEcGE5ev69wBxEAAMBoEGAAnit2gPFssgF8f4OeARSE+Qk66+7UEwEAAFAPAgzAcwQYQAsRYAAAADQMAQbgOQIMoIUIMAAAABqGAAPwHAEG0EIEGAAAAA1DgAF4jgADaCECDAAAgIYhwAA8R4ABtBABBgAAQMMQYACeI8AAWogAAwAAoGEIMADPEWAALUSAAQAA0DAEGIDnCDDaxZAaGtb/mWlQ9a0f1P/dBqrub2MMDgzp//IQAQYAAEDDEGAAniPAqMPSmaqz81A1dX6fnmDYME9N7uhQnbNW6Qn5DD06PVznzCVZzfqQ6jn7ENXRMUHNXq0ntdQqNfuwDnXIEbNVb2KX+1X3GRPVxM/MCZaoweAqNeeSLpUcUX3MnVPUvIxT2zd/qpp661rVRrFObQgwAAAAGoYAA/AcAUbtVl15uOromKjmrtcTDIMPTgvmdajpj9Zy10Cfmntkh+o4bKYVBlg2zFNTOoPljgiW26mn2TZFAYrsg10zl8oC/WreMe75qbqkN1yl0+rZ6vBgmc7zelRyl+P1B/uop+QxtHSmmhCsb0KwzcT64kDohHlWuFF+TccRM1TPgJ6oDS6dq2ZfOXvUNXdpk6MRAgwAAICGIcAAPEeAUavozoOOI+dGDfXOQTU4WK6eCzqD5n2SmrM6OT1RVvggjfjhHZ1q2oO6WR5Yq3oe73HW3DMOVRPPmOec17OiXw0N9atV9vQbpoaBRCLA+MwM1WUvV6ouNeMzlQKMIdVznhzn4Y67QaoEGAN9qs8ZvgypVbMmBK/rVFOsO1v6bpqUnh6HORl3Z/TPnxwe82hr8vx+vcYmIcAAAABoGAIMwHMEGLUZenyG6jQa295L3I1vxUoEA7rhjwMRsXSm+3XV6ph5wdoc9PoSAUbWsiG9TFaAMdClpsr2zH0uqRBg7OxVM48I5n1wqup2brwveG2nmnhBj/WWkFVqznHT1bw15alrb5gUnIcJwTFl3LIy5AiOaqlFM8IxI8AAAAAoDgIMwHMEGLUYVF3fkuZ8qurSb1kYXGfcuTB/RviWhs7T5hp3MzhqXbkRD5990XF4uRGX5jn6L4Nu7E+ap9bW8+DMBgcY8R0RMx53hQdZAUZwDCfIXRvJt4kMbVqVHJtHjf+uUl3zu6xpq1R/Rp5Rq/itQAQYAAAAxUGAAXiOAKMG6+eqSUFTm9X81/78i1Vq9hESeHTr0EI3/x+crnqMt1n0zZ8S3vUx4SrrsZj9azPejmFxBRidh6qJn5GHbbrrUHl7hivAGOhW02Rex4yMZ1y4AoxB1XuJvD0k/SyLRr3VI6rJat4mveKSIdU7a5KackmXWmU9J6OSeL8IMAAAAIqDAAPwHAFGXkEjfIk8vDNolJ0BhnxihjTR01R3+hYKp+hOhqDp1rsdPQvDCiqyHmKpH9bZeUJXal/6bpoY7adViQDjsClqRvywytNkPzrUpNPih1fOUFPkOR+pACN+ToWsL+shnXaAYYQXnwqmWYFLHBTMWGS9haPGWnuTrMcRYAyvVXOPOzQMgOSukYknzVE9m6oHTPF+RWPWRAQYAAAADUOAAXguV4AxvDtYcGvQi65XalvQXL/5RNBYP9L6WnPL2AUY5qd76ABj1bWOuxY6DlETjGlZNf3u36ppsi7jTogJHwy+Nj+JJH5mRManjjgfbhkIn8vhCCiiZnxQ9d4aTLu1t/xWlcQdGkIv86D1hIv4DpSw8gQYfar7e9nhhWhUUBCtx3UHRmRoU4+ac9JEHWR0qEOOmam6jGdq2AgwAAAAiocAA/BcxQBj22qlnv9lMiRo52pagCF3V8jzGzpVp4QUrgDjQ9HzHQ45wphWoaY/+ILqOm2imnzajDBkmCYfoxqsv/T2k2H9zAj7UzbMTz0Z6FEz/kfwusQyOkA42/h4U/2pJmuz3kKRCjBc5Dkc0T6GY1A1wJikJh0VjUnnCXPV2oy3uiSCgv5uNd0xVpVq+oPR/SfVAoyYBBmzS3dkBOfruGDfHDdkEGAAAAAUDwEG4DlngPFW0LWtDP7bDAeKUE0KMIaWzIje2jGrS82V5tzxFpJVV8nbSyaquev1hFro50qUn4WxSs3+UNRg563yW0n61NzPBF/Psp6XodX6qSnxMyCiuz061KSbeqy3iNjiACOqCd/rTr71pZK8AcanygFEvc+oGFzfrWYfc6iacrf79QQYAAAAxUOAAXguFWDIWzPMUKBI1ZQAY0h1fy9olg+boXp36uY8FWCsUrPlmRGHzQ7+q1b67o7OaarbuENi1VWTwreiTD5tevQ8isOmqJnzu8M7KeacJM37DNUd3onRr7r13SHTHpT4o1fNlMb+prXlOzXCim4ziAKMqWqO+ekdN0wNm/WpNxjTHp8TflRqGBDs7I7e7hJ+bKr5FhHLcL/quXKyOkSW7Zigps1fW74LpEH6Zb8+Jcd7iJp8ZY/qr+dTWTIMbepV867sUmuD/ybAAAAAKB4CDMBzZoCx//mLk4FAXKtvUGrtfKX6Fim1+RmlBl6KnofR6npjYXI/m3UHxuMz1cwl0opnBBjx8zGOnKYfglmp5qpe49EL/XfLJ4zE4YNLeptRCGEECAPdaubZ89RaWUV/l5oSBgh2RcunXiucbyHRQUh4h8OQ6rlgqn6bijvA6H98tposz/Cwttcw/T1q9jGHhOs+5JjZqieZINVtaGCt6r51upqi3wLU8ZXoYal9t0uA0almroiWaxoCDAAAgIYhwAA8FwcY+1b8MBkGxCV3ZLSrsf4Y1WoBRq4yntOwYZ6aIs+TOGqm6n68W827draacdpkNfGYueFdABG9TePTRpwhRGyoX60y764IKrpjYzQBhikZYAyu7lIzdbDQ0TlRTZ/freZ8pcL+1SMOZY6QO0dGn1zEocXUI/R+S31wkpp25TzVsy4KkqJxqv5MjVEjwAAAAGgYAgzAcxJg7Fz3fXXg90YQIPXsT5Xav0sv1abaJcCoakj1zpJPwOhUE2f1lt5WET03QzfQYXWqQz81UU2+pKf8CSE6SDA/0rRigOFgLh/9d41vIUkwAwz9oFE5rjP0HSBWwOEyNKCPbrBXzXXepWLVeVPCZ5DkusPF/HQVw9CGVarLvNNC6oMT1NRLyqGFiQADAACgeAgwAM9JgLF35Q+SQYBUEbRLgLFzlerOvDPAHV6IodXdat6iHtW7rr/0jIqUDdHdHWaQUHOAcUF5n6PX5q9qd2DIJ5ysSixSLcCQZ34E8z84VXW/UONDOz84wT3frDO69bkZUoPretS8K6epSWZo0XmomnL2XNW9bjBxLmwEGAAAAMVDgAF4TgKMA0ust4+8U34DQ1triwAjaMjPOzRsjuXZDN3rzb/mDwWN8IRgXjq8qGRosNxcD94nd0ccrmav1hMCrgCj/77patqV3aovtZHkPkcf/Ton+bDRjI9RHXLucLWAIu/86aon74DEb9Ex7kKpbFB1nybb0NV5qJp02hzVtbo/5zmIXz9Ndbtu52gkAgwAAICGIcAAPLf3lSuSIUCRmqg2egtJ+SGW8dspBnV40aEmBI13ZuM8NKj61/Wq7vlz1PRvTVQTwnXoxnmoV810fLqJK8CI3o4yRXXZOxbvs/EMjZRUgCF3SRyiOo5wfarKaAMM/ZaYWj6xpeYAQ6nBB6erSafNVvOW9qmhmj+pRH+qTOfM/PtYLwIMAACAhiHAADy376VLkyHAW8v0nAJot2dgJD5GNKrM8GJnj5phvrUhfP7FVDX92nmqW5pu1ae6vxfdvWF/QokrwHBNi6xSM+VBoZWaf8cdGEOPTg/ftjH1PvsWhLwBRsYdFuvmqIlyvKd1O59V4VRHgFG/QbX2JvlkmA7VeV5Pzjs2RoEAAwAAoGEIMADP7X/+kmQI8J58iGRBtOtDPPt71MyjonCi81PT1bw1rla9X3WdNlVNv7UrfAZG4i4B4/WuACT6iM+JavYSeXbGoBoMlp8hdwzo/ZK3oITTg+p7cHr4AMxJt/ap/sfnJB54KXd8hM+N0J/GccgR8R0gRh02U/UmdqBagCFhSrTvhxwzPbG92VdOL33UajoYMQwF+25uc8XM8Bg6ZzXwfoihHjW989Dk8zOCKh1/5xTV1eznXwgCDAAAgIYhwAA8N7zywmQIMNz0vzk3TrsGGKFBtXb+dDVR7n7o6FSTrl2V46/5Q6r3ykn6Do5D1OSs12zqij5+NVwurk415e4wvogekmnOO2Km6t0Z7P18CT6secaDMSefNqMUNsy9r0f13DQtvBNBwo+y6gGGPNR0znH6wZt2yUM0r3R/UkhM7v5IvS44vhmPN/La7FPzwo97teuQ8HkZvQN6sWYjwAAAAGgYAgzAcyPPnl9qoA4+dbaeWhAtCDC6zwia/dInXeQgd1McMzX/X/M3zFNTj5mteqptYGCt6jU+CrXXeHjo0IZe4+NQV6n+uO8fHoruzNipv65qlZod7PucJWbcoMfAfhBoI63vNu7akJqj5i3NPeJ1qHVcGogAAwAAoGEIMADPHVh6XqmBCv+7SMY8wAAajAADAACgYQgwAM8RYAAtRIABAADQMAQYgOcIMIAWIsAAAABoGAIMwHMEGEALEWAAAAA0DAEG4DkCDKCFCDAAAAAahgAD8BwBBtBCBBgAAAANQ4ABeI4AA2ghAgwAAICGIcAAPFfoAOPt58vNn9Q7a/UMoACG9ySv3/UP6BkAAACoBwEG4LlCBxjvbUg2gFuW6hlAAex6K3n9bnxczwAAAEA9CDAAzxU6wNi3M9kAvniLngEUwB8WJ6/fgTV6BgAAAOpBgAF4rtABhlh9fbIJ3LlFzwDa3NJZ5ev2ybOVOnhAzwAAAEA9CDAAzxU+wNi0pNwESnEXBoqg7+Hkdbt2vp4BAACAehFgAJ4rfIAhll+ZbAZ5GCLa2eZnkter1O5teiYAAADqRYABeM6LAOPtF5LNoJTcibFjk14AaAP7dij12v3pa1XuxgAAAMCoEWAAnvMiwBAbe5JNYVzP/0KpTb9Xattqpba/QlFjW/Jgzs1PK/XS7Uo9+aP09fnyb/UFDAAAgNEiwAA8502AIeRjKM3mkKLauV65S1+4AAAAaAQCDMBzXgUYQv7i/ezsZKNIUe1US85X6s0n9QULAACARiHAADznXYAR27JUqRduSjaOFNXKeu5qpf7wqFIj+/RFCgAAgEYiwAA8522AERvZq9TOLUq9s06pt5+nqLEtuSPo/Y1K7XtfX5AAAABoFgIMwHPeBxgAAAAAxgUCDMBzBBgAAAAAfECAAXiOAAMAAACADwgwAM8RYAAAAADwAQEG4DkCDAAAAAA+IMAAPEeAAQAAAMAHBBiA5wgwAAAAAPiAAAPwHAEGAAAAAB8QYACeI8AAAAAA4AMCDMBzBBgAAAAAfECAAXiOAAMAAACADwgwAM8RYAAAAADwAQEG4DkCDAAAAAA+IMAAPEeAAQAAAMAHBBiA5wgwAAAAAPiAAAPwHAEGAAAAAB8QYACeI8AAAAAA4AMCDMBzBBgAAAAAfECAAXiOAAMAAACADwgwAM8RYAAAAADwAQEG4DkCDAAAAAA+IMAAPEeAAQAAAMAHBBiA5wgwAAAAAPiAAAPwHAEGAAAAAB8QYACeI8AAAAAA4AMCDMBzBBgAAAAAfECAAXiOAAMAAACADwgwAM8RYAAAAADwAQEG4DkCDAAAAAA+IMAAPEeAAQAAAMAHBBiA5wgwAAAAAPiAAAPwHAEGAAAAAB8QYACeI8AAAAAA4AMCDMBzBBgAAAAAfECAAXiOAAMAAACADwgwAM8RYAAAAADwAQEG4DkCDAAAAAA+IMAAPEeAAQAAAMAHBBiA5wgwAAAAAPiAAAPwHAEGAAAAAB8QYACeI8AAAAAA4AMCDMBzBBgAmuXg68+rA7+/R408dJMauXs2RVEU1arqulqN/O42dWBZtzr4zhb9UxrwDwEG4DkCDAANtXePGln8W7X/im+q/RcfQ1EURbVhDd98rjrw8lL9gxvwBwEG4DkCDACNcmDN0wQXFEVRBarhebOU2v2+/ikOFB8BBuA5AgwAjXDgqS7nL8el+um3KYqiqFbVrH92/2wOanjO99XB/g36pzlQbAQYgOcIMACM1oFVPelfii87QY08cZc6uOV1pUaG9ZIAgJYZ2qUOvNyrRu6anfqZPXxD8LtgMB8oOgIMwHMEGABG4+DWP6R+ER655yqldu/QSwAA2s3B11am3vI3ctdP9VyguAgwAM8RYAAYjZF7f578BXjB9XoOAKCdHdy2Ue2//BuJn+EHX1ul5wLFRIABeI4AA0C95D3T5i++wzdO13MAAEVwYN3y5M/x2y/Wc4BiIsAAPEeAAaBeB566N/GLr3wKCQCgWIZ/e2niZ7naxaeSoLgIMADPjZsAY/++6D35FFWEKojhWy8o/9J72Ql6KgCgSA6sfCwRYBxYs0TPAYqHAAPwnK8BxsG3N6kDS+4LGqzz1f4rv5X4h5mi2r5mTlHD10xTIwt/oQ68skJf1e1n+OrTS/s8fPsleioAoEgODmxO/Bt04JkFeg5QPAQYgOd8CzAO7tiuRrpvTvxDTFFFr+Gbzw3fp9xu9s88rrSPI/dfp6cCAAplaHfi35yRR36tZwDFQ4ABeM6nAONg34tq+KqTE/8IU5RPNfLYb/XV3h72X/y18r4t/IWeCgAolJH9pZ/l4c/zh2/RM4DiIcAAPOdLgHHg1ecS//iWatbxauSuK9VI91w10jOfotq/HvuNGrnvWjV8wxnOa7qd7nQgwAAADxBgwCMEGIDnfAgw5HkX+6/4ZuIfX7kT48CzjwQzD+qlgOI5uHm9GrnzysS1LTXy5N16idYabwHGyqv/lZr6J19VD72lJ7S9XnX9n8g+t26/izdmsX710Knx2P0rdf4D/Xp64K356nyZfnWvnpDTykvT62qiaOzLdf1KPQOwEWDAIwQYgOd8CDCG51+W+Id3+NcXqoPvv6PnAsUnD6Q1r3Gpg1vW67mtU0uA8dYDX000U1Jj1cg1Suub8bipvlTV0otGYz8OAgwdEDjr1Pmqrl3QYUXRAozonMfXSRRkjVWAEX+vE5gUCAEGPEKAAXiu6AGGfEKD+Y/u8PU/VGrPTj0X8MfIE3cmrnV5a1Sr1X4Hhr4joN5mcryLG+cam8OxCTAkXKktWGkOV8gT34lSx/65Aoy2p8eg1oClIYw7VxqxfRn/lhzHOEOAAY8QYACeK3qAMXL3zxL/6MqzMABfDd90TuJ6Pzi4Tc9pDQKMsSVBxPkPzI/GsIambkwCjPDugnYNMOIxqOOuAAKM2sh4Bd/fD4V33oz+egjv4CHAaD4CDHiEAAPwXKEDjAMH1P5Ljy/9gzt86wV6BuCnAy8uSfySeWD5w3pOazQ3wIj/ah6Xoxky7kiIKtmkl58BINONvwwHJY1scr75tZS5PXNfytvI//pYch/kdefn/mu17IO5nazm0Bq3YL1ZAUbc1JfKOC/mvLB5t96eUQ4C7GOK57vGzD6n8XqsdWTsh1T1ICFelzU+zrdvZO2PwQowEvuTOmfpsYjXZ14bqWOw3/pir9e+zit8/6TOaVjmua98zObrZXrF/XaQ5cPl9DElxzM5PqV55vHFx5b63pbK+p6MqtJxJMcl/b0gUmOXGGdj38Ppye1HY2Odf+f3dPoaMcfVPd7mttzXdamq/hzJQIABjxBgAJ4rcoBx8K03Ev/gHnj6fj0H8NRe67P675+jZ7RG8wIMvVzpl3H9S3/idfYy+pd/e91xA3rqV3WDE72u1Byk5pen2c1A1OBYzU8Nr7f3r/S1LF+t8ZBGJX6tszkUcaNjNDmlBsfa79Q6rHEJxeP+1cT+RU1Wcn3R2KRDFdeYRa9PLyvTze2nXpt53Ka4QXQ3eqmm0Bz3+FyaY+Ca5nptvN1K4+Ral31MqWWibVU+T7b0vkRyHnO8DTnv4fSs9dnkdfHxOrYVc57H+Fozv38bfRzlafbPibzXabRccnq0nFT6Wk3uj+sY8x6LY3/C5dLXV+XvjwwEGPAIAQbguSIHGAdeTT7/4sC65XoO4K/hq08rXfPDv7lET22NZgUYrmYi3fREzYD5S370Oqtx1b/UZ24znm81SdnNi7VfuV+fblSc68sg66vWhLkbw3hfXPttTnM1i3qaPaaZx2Ivl3GMmQ2suZyjsXM2gDb3Pkf7Ud5m1ti7m0S7mXTsm+uYwmmV1uU+nsQ+6NeY65X59jlO0utNjF0NxxwfnzWGVcnxGsfivO5E5vkPlk+MRYOOwxrf9Otd11rAce7t6yikl0u+Puc1Ekjtj/OacxxfuD7zOGS8HOOdBwEGPEKAAXiu0AHG808k/sE9uOlVPQfw1/DN55au+eFf/khPbY1mBRjpRiSQ8Uu9ydnYVHtd3mYhUMv6s5qpxHKpBiSLvDa5L9H6k6917l8ga3pShQYydb7S06NtWOcs4N62o7mTcbS/znlekvS+mcvodZnby1pPan+d+5He/1xjnFqXYxwCyXXFxxNUle+bMv0aa725jzljv6qR9Seac92w2+dwtAHGaI8j3zkWOc+z8/Xp43G+VtjjkbE/6ePW+2ftY10IMOARAgzAcwQYQLGMnwDDXeYv9VFDYC+Tp7kw5G4WMhqQGl4fTjOO3bWMi/s4o0qPR7pBck83GmOzXA1k6nxlNWd5msqIfezytfOv2s6qNGau46q+/Vhqf53nN2dja0uty2hAU5VcV7R+Pa/K909pDBrc+FdU6XzZ+0uAkVR3gBGJpuuq5ZyZCDDgEQIMwHMEGECxeBtgyC/t+pfvrF/UTa5mIH9zYaihWahl/e5jsJvryscYiV6TbPZEeiyzGqT09ArNYtVpIj092kb6eLL2KTlucizWa6udt0x636qMbdY1ltpf537kbGxtqXWl11OVbnbT58Skx8Bab+5jrmO/wnU4lo+2aY0LAUbSKAOMWLT+9PHmQoABjxBgAJ4jwACKxdsAQ36J1794Z/6ib3D9Mu9sljKbE62GZiF/85L9+sz9yBKu3920pI7X2Ri6xsXV2LnOTVYYkNXYpfcz+1waDZ5x7stc+5hH1j4nZe1X6rw5z69j3zLGPiG1rnSTmyKvseZnjXWZXq81drmPueaxj7bnPHY9Lonxc45VheuvwceRfn3G8TrOvXPbzmvEcW4zrpHUOiutzzw+x/dNOAaVrqcsBBjwCAEG4DkCDKBYfA0wwl+8S7+M6+USzYj8Al/+JT/1S79uDvI1F4aM+elmyLFNUcPr42Wj/SxXpaY3OS6W+JgrjVuwjHwKQ3K/081VtL/JaeWmKShjH6Jlk+PgHJtA1nQRzbtUXX91pfnW2DqatiRHo+fkaFpd59J5fl0Nb7zd5LGsNI/Nta7UOQzIcvF5CF9jr9Peti3r+yznMTuPr4LwGLLGW68rMT+9fxWvvwYfh+uadE2L9il5XM7r2blt1767prn2MX0Nx98Lif1JjXv0uuR+5ESAAY8QYACeI8AAiqWoAUb5F/AK5fwlvlzJRt+aL6/VjUTcYJSaIqPMdaTmuxoqec2j8XqNCraX+/WyTUcjKqJxSTZJkbjxi8vVXJkVr8N6nYxL3CTHX4vSWEUl+1g6R6Xj0GNsr0Mvn5Q8H+f/+gbnmCXE+5Bo6CzWdmtaNizX2MYqXWPpebKue1Ljbp6X9GuiZtK9rtKmrHNh73Pqe6fCGDi/zxLLVzpm9+srNcT2dZhY1nE+SttyXE/mtkvLJcam8lhXPo7ymJrzKu5vYtzs70fjteY+ll5j7l/l713n+FrXRLiMsX/xa1I/B+zvsbwIMOARAgzAcwQYQLEU+w6M8StsNFzNRdiopION9qCbsEqhAYDiI8CARwgwAM8RYADFQoBRRDoIcAUY4V9VCTAAtBABBjxCgAF4jgADKBYCjGKKblu3385QIdhoCwQYwLhAgAGPEGAAniPAaDPD+n+baXhQDe7U/z3eDA+pwcHg+If013Xq3zSo/2vsEWAUV/q5FRnvf28HqecXtOtdIgBGjQADHiHAADxHgNFOVqnZh3WoQ46YrXoTDXa/6j5jopr4mTnBEvkNrpijZt7dp7/Sdvao6R/sUJ0nzFPWHK1PzTtpqpq7pnUNelMtnak6OjrU5PnuprH3ko5g/kyV/ffwoeBcdKqOzmmqe0BPGmMEGACAhiLAgEcIMADPEWDkoJvedE1W8zbJAr1qpnN+urIa59Dq2erwYJnO83qCNtnUr+YdI6+v1FjbhoJmfELwmglq5tLk2vpunxxM71RT5tsRRvyaDjUh2IdkhDGoem+drWZfOdqaq3pbmY2MOsAIBOdpQrCOwy/ptc7T2CDAAAA0FAEGPEKAAXiOACOHgbWq5/GeRHVdMDFodK0A46Q5qeXKNUdNrdA4S3jQc15nsM7D1ezVelJJlQBjoE/1ud4SMrRKzTwieF3nFDVvg54W6lNzj0xP75s/RXUG++i+OyPeh9FWPGb1iO9EqVDXVrlHpREBhhpU3acdqiZf0q36xuItPxYCDABAQxFgwCMEGIDnCDDq0z9f7mKwAoxLKrW90TKZAcZAVxhwdBw5t0J44GisdwbrlZDig1NVt2vVG+apyZ0T1YzHrdseVs9RU86Yp9bGk4fXqjlHdaqOI4JtZDwfY0ieHTGK6j5PjqFZAcYEdUjVcxCoNcDYFIyfrLeWqrYPo0SAUVD6mRJt+8yLBogeVKqfmdG2Dyatl36gaepBrB5JXKPx8UZVnOu2V10fX4P2c1tq+R4MP944WId313EGAgx4hAAD8BwBRn0aHWD03TQpWF+nmvG4600JWQFGn5p3gty10aEmlN7OMKT6V1h3fzxqfZ1Vj3apefdZ01b0N+htEnLXghzDaAKMCnTQcPhVq9Tg0rmOt67oOk3GOVjuhBl62lzV+/icUhAy4YOyj4eoCfrrOYt61Vx7HdXqQffTRRqlqAFGorl1lseNoRjzACPZgEZlNHSph3Q2avx1A9nExi99LRnHFTeepWrUcbVvgJEaj3o/NcZ1jerxzH3dpsZ/FPszCtGYEGDkRoABjxBgAJ4jwKiPM8D44IRSI5yu6A4BZ4Ax0K2mdUrjPMMKKGKuAGOw9LyK5Fs+GvVWD13HzAvWaJG7Po6aombet0oN5n4LRbxfow0wBtXaRb3pu1T080OmPTioz411HJkV7M+S7lL4ME3eWtMxSU3TX3ev1+tvI8W+A0M3t6mGRqb78ykXK69uo2Op0ojJJ6Nc39COvPkBRig+rozmOPzEl3HQfEafbGOGKg0e/xoCjGhfrGu/RUGAM8DIsvLSMQwW2xQBBjxCgAF4jgAjjyHVc7bd+EpZAcaR00qN8IwTDg/mH66mnKf/Kn/lNDUpWCYdYAypVbOiICL72Qt2gGGEF58KpiXe8hEvO0N1O97Gkb/WqrlfCdbjCjDWzFVTPhTd+dHROVFNvbZH9Ve9TcMVwjiEd1JkhxxDS2eGQcXk25MRRv/dU4J1T1RzqwUODXkGRmv5GWDIX7c9CTDCho0Ao/kNa6U7Ijy6nipyj3VDw5u8AYa+uyF9LUXnaawDgvwBRmv2r+0QYMAjBBiA56oFGAcH31YHXu5VB55+IGxQhn91gdr/028n/qFrl2pegKGb71RAETfafapbphtvHUjeoSGiZeYutZ5FsX5uGGzkDzCC9XwvK7wQOYOCqvR6XAFGaEj1y4NJP6WDjI5D1ORLusrP1EhpTIAh2+29QMZ+UiKs6L0gWHdnjmOuM8Co+LaUoFLntYkSAcb1P0h8DwxfffqYlLnNuEYXYBhcb22Im/C4zObMXt5et/1as6nJnKf3M67S9qzpQZkNW/QX6GRJY2ROTzdKlddpvj1ApiffLpCjQashwKhnW+ll3E11+jiN4ME8D/I685zmuFbM8QrJ+qzXpc6NuX/Vtp+4TuzAJA5SypU4xxnHYu5PYv8T20q+Ji1rrB3s7xPrODKvUb0/lRv8SmGSQ+59ia655LlzbcO6toLxiK7L8jXrPL7UfgQVjPcL5jWdGtsq59u+lqzzmRrHms53ExFgwCMEGIDnsgKMg6+tVCMPXK/2z/rnxD9q7VzNCzCiOywm3lQOKIY2rVI9j6/KvPMgHWC49OmmvlN1hm8hyWrA4+Z/kpokD9qU8OKEuWqt82GbyaCg/8HpjrezVKrp+mGg1QKMmAQZs8t3ZHQcoqbcujaYamtUgBHY2atmHBasq/TA01Vqtnx9dvzxs4Oq98rJ6tDS14Y6A4xqb0vJWl8zVAowWlkNCzC0qOEwmpXwF32reQkbEKOxjpuBUtORbvDC9Sa2rxuS1D5F08vNZXq5qEmqsk8xvW/JBsbRgFZY7vxTv2pMzzmWqTFJkvFIBgD5txWHF+XljOYusT37ON1jHp2bYLt6unN8E+z1RuR15vjZzWw8JnbwUW37qWvSeRyufXIfb9xAl/cjeq39dfJaSIr2qfIy6e04xkS4rj3n9WjTx2wfn0ut+xKcj9KyzmtZb9s8L3obuY4vc4z1equeR9dy+rwY11JpWmKfotfWcr6bhgADHiHAADxnBxgH396UaJCKVE0LMIZ61PSgSZ1yt+uXirgxz18zl0avjB7c2aEm3dRTpblPbmPC97p1415d7gCjFEBUC12yDKq+RbPV5A9NUV3O1zcwwAgMLZkRvpVkwlWrEs+/iK26Su5S6VTTH7UijFwBxjQ19/F54QM/D9EPZs0MpPTDQwkwagww7HI2PnrZcJ40DlYz4mwmomnlBsD+Om6Wkk2xs4EKt59cLmxAzEbFFVa4pglH8+TebtzomNs2x6Is6/UJzqavTLZlNpP5t+Ua/4Bje879dDSy0XHb+1OZe6xc20qPp90oVtt+aluOYxC5x8p+vR47e0wqj4ded/C6sFLnOWPb8Xk2l3c1+K5ptirXWFnt+2KvM+85iJazrgPnsbivBec+5T7fObevv67tfDcJAQY8QoABeC4RYDw2XQ3fcEbiH7FU/ewkNXzTOWr41xe1vub8MLFvTQswdJM6Y5H9nAhpjnVj/pkZqsv49I6uCyYGDe9ENeNu4xM97p6hJgbrCQOMnd1qWvDf0V0EFZr74X7Vc+Xk6CNCOyaoafNddzeMgqz/2qlqotwB8sHJavbjFX5JrdmQ6l86T82+e23w3xnHqMc2Dmfc5Qo05LkkErpMUJOOkreUTFPd5rs44rs0DpuRfJtNRoAxNLBW9cyfrabKR9LG2/3gBDVVP2ujCAHG8G8vHdOKtxtXo+/ACMVNjKNpcDYYOTibaVdjEzQrFZs24WpowmnW+oVjG6lmTEvvo/tYncdii8cwY5zSDVPebWWNf3q68zhrGI+K7HMgX1e9vtz7Xm379vzM8U9dFzkDjHg52be83yMx43sl33ly7JPr+8A1zVblGisb5b4E8p4D53TnOqN9Sh9fel/zn+/0foZS2x/F+W40Agx4hAAD8FwcYBx86Ltq+GfHJ/4Bkxq+9rvqwLrl6uA7W5Tav1e/qj2M2UM8V8xUnXFTa1b49grdmFtvtXA2vLrZje7ACBrwC6aqeRvkv93Nvbw1Y3L4sZ5xVbl7oUbl9R+iJl/Zo/pzf6JIJUNqcF23mnv2FHVo+LaYoLkPQ4A+NU8eCto5U62KFtSC5c1QaM3cYIwmq7lrjGlBOUObnT1qut5G53npt4sMPjgtPG/hXRoxR4CxalZ890lcU9XcdclnWrRtgOHNQzyzRU2D3WSLrGYoKX59suwmxG6g5OvsRsWuxL6Fyzhe62ieshrmdKPkPtbMhspUpbmUfUiObd5tZY1/enp0nO7KMx6VJbcn68hsRu2y9r3a9u35meNfd4ARSVyztTa28fku7WfWecoZGrimpehtVN3XUe5LIO85cE53rjPap8xrxtjX/Oc7vZ+hjGMa1fluFAIMeIQAA/BcHGCMXP+NxD9e4T9gd/1UL9WexizAkL/OG3dX9DzepWZ8Jmh0RxVgmJIBxuDqLjXzmEOiZrpzopo+v1vNkea/gQFG9KkdQXP/rTmqx/69rWZxaDFVTTACl0Pkoafze9TaAVlGf1JLtWdqhGPkuuPCbdWsQ8NtHX5BryPk6FNzw49FNdbnCDD675uupl05T/VuGFI9FZ+BQYBha3qAIb/wBw2Eu7HMaobKXA1HriZEtmvvo6vZzJzmWL+jeclqmNP76D7WzGMx6e1mjZPsQ7KBzrutrPFPT886Tlve5Wzl18m27fFw7ad736tt356f61oK1RZglOj52d8vruO198t9rM59cjXYrmkpel1Vz90o9yWQ9xw4pzvXGe1T+vjS+5r/fKf3M1RtLKue7yYiwIBHCDAAz4XPvVgwLfEPl5Q8xLPdjd3HqNrM0EL/d61vIUkwA4w+Ne8EuSOgU008Y57+VI9kwOEyNBDdMVDt0zLiij5FpUNNOs093yznJ2wMD6m+1V2JOy3C0OKIqWpmKbQwNSHA0OFBtO0JwbimI4yhJXOSb4up8yGe0fQZ6fEnwCjty6gDDPnlPtVkxg2AqwHMaAoNriYimuZoQuJ9C/ZBGhW7yXA1L9G0+gOMrIYovd/pZkpkNlQJ7tdGZAzt1+fdVsb46+PM1fhZnE1fHnED+YB9DQVcTaNjH0W17afmOxpXkXesouWM18t+OZfJ2Cd9HJW3n/V94jjPFcYqs+nWUseSEGwr3M4o9yWQ9xxEy1nXnHOd0bbTx+fYp9zn27Gfwt6+fF3L+W4mAgx4hAAD8JwEGCM3fyv5D9e9P9dz21vrAgz9dojwAY9xuJC/qt2BIXd8rEr8LlUtwJDnQQTzPzhV/fa22h7aecgRjnlWTX9Q78zQoFqrH25phhadH5qipt/ardYOVHo6R6MDjH7VFQY9k9TcJV1qmuzPEcH4OD+ZxVBXgCHbCqYfNtt6+0uAAKO0L6MNMMJf3EvNQtToJBoF3TwkGg09LdX46K9TjUW8vN3YaGHTceql6vqgUg2E3bzoZiTV0GQ0OZWap+qNm2O5gKtxcomWy2i88jSTAde24vWW91XOm3zygv16vc5EYxYtW7XpyyVev2PcU8ejm+jEtEi17afnuxrySuNX5foJpznGxFpXmd5Wte07rknX+XRee87r0S0aH/t6jMao9PrR7EsgfQ7ic29MC7Yhn16Sb53u8+Wenv98O68le/vh17Wc7yYiwIBHCDAAzx144my1/9JjE/9wHXx3q57b3loXYOhmXAcY3WcEjf4Z3cF/lWW95WDI2eNXCyjyzp+ueiplCIZo/1xhSoZB/dBRXZ0fmqSmXdulVm3KucH49ad1K8f9HDXrmz8l8XwLeUtM+HVwTiruUT0Bhv4UmvLHtBpSAUZwLk44VE25qrchx+lS1AAjbuAqVvCLe/SLf7nCX/Z101Mu45f+1DxHgxnPk8ZANxHpRisQryujgUjsW9jExM1TsiFLLHf1Q8l9CKvCPgaVbu7M+eXXmvPsRs/mGn/7NfVsK/kaGVPzeMwxrnCcpXNiVCpYqSzaD6thjCWukWifSucocU0YZW4/dY0lx8B5zaZYx29dP/H2Uueg6jgY69Dl3H7qGCtfg1P/5Dx1U2paxviaHGNlXs+hivuSHk9zDMx55fVaYyDn1NyPat+DiX2+VN1jb9/6WVHxfDuuJed1Xvf5bhICDHiEAAPw3MiC7yf/0Xrybj2n/bU6wOiclfp7fEk6wFir5h7ZqTqdDfxoAwwdqLjuEMhQc4AR7HX3GZNKz4qomf6o00pjltfQ0plqghxv+AkusfiOjMPVjCUV9q+OACMaq04143HHel0BhpwrV9jRIMW+AwMA0HYIMOARAgzAcyN3n574R+vAi0v0nPbXsgCjv0tNqdAEC9cdGH03TQob7Nmr9YSSvAFGxh0W6+aEz9ao5e6G2gOMURhcq+bq53o4Q4AaDK2erSbJ20U6p+hPcDFsmKcmy0fBLqkwCktmhMedO8AY6NZvT8kIh1IBRvVwa7QIMAAADUWAAY8QYACeG/7NKYl/tA72l/+m3e7GMsAYKn2kZ79adUP8F/lBtfZu84GXM9S0Y/SzI8JnTHSqQz81MfG8iLBSz4GoFmBIY62fWXHMdGN7UtNLH7U69b7sxl3234wOVs2Sh3h2qpkr9IQGGHp0uur8UPnZGVFNUIfo4+48ocs67hqtmxuFFxkP7EwZDs6V8WBV+fSYmUdF5yVx3EPxuV2r5prnYWccvFTYng4wDp8VvXVlaM0cNSn4esrdozrSiggwAAANRYABjxBgAJ4bvmVq+R+tS45R6sABPaf9jV2A0afmysem6kY8asbnhW9fiP5ib80zmvipZ8dBwxw1b1GP6rpE7sKw70SoHmConavUnOMODZ/zYG+vo/NQNeXKSs9c0A/5TL1uRu5nZuQid0DY25D6oDwvoxHPhBhU3adNzBdehFap2Yel9yc+dyX6bSWl+XIny2CvmvmpKOyYMr9SqLdWzTkiuf6OzmmqO/UpLI1DgAEAaCgCDHiEAAPw3PAN3yz/ozX7eD21GMbyDozBNcZf8peuVYPDekb81/u8PfVAl5p2zEzVtS4ZYIQPAv3MnNzPsKhV34PmXRtBXTtP9TbvJoHSuAzF49QSQ6p/hXHegupdl7wTJTTQq+bqcZkzv1f1633umz9VTb11bXp522Cf6i1to1f1jT6pqYgAAwDQUAQY8AgBBuC54eu+UfoHS/67SFr3EE+gdQgwAAANRYABjxBgAJ4jwACKhQADANBQBBjwCAEG4DkCDKBYihlg9KuHTv1XauqfRHX9Sj25nbw1X52v92/qn1yq2nEXGyI+zqszn7jj0KuuL41Nm56/Rll5aXiM5z/QzPfYtavk92lyDOJ5Hn9vjGcEGPAIAQbgOQIMoFgKfQeGbg7HpgHWTfep89VbekoeK6/2vEmrK8DQqp6/ZAOcrgKMazMCjEQ4JvVV9VAtF+VY0/tLgDGOEGDAIwQYgOcIMIBiIcDISW+r1mbR+wBjNPKev4wQIBpbz+/gsDnGrO2vMWeAAa8RYMAjBBiA5wgwgGIhwMhHmsTrH6i9ESPAqGCUAUb5r/htfgdCAzmvp3B8CDDQRggw4BECDMBzXgUYb76i5wD+Gr7pnPL3bCEDDGlerbcaxG/zSN1qr5s8a3rVxipcXl6rt5P1NhLHes2G860HvlqaF1a8Ht2gx1Vu6JPPikg0qea25O0b5jqyjt+x39H+GWW8FcTcX9knc1k5tsTxpN5CYu+7I6jQ+1x/gBHImJc51iFj32S/rXGK9ie5/85t2+NrBSn2eAl7TJP7WT2IcQYYTpXHv7zdaJuJ60CPVXLfzG2a6za+L+Jp9nWmx6k0holxi9drrDN8vbX/rrcopa7vr5a+rnpNobkIMOARAgzAc0UOMA6uX5X4B/fAy0v1HMBfw1edXP6enXepntoa9QYY5weNS6nxi5uaUsOTFTpE0/M0OmEjp9cXNXWORjPerrGdcgOYDh5SDXE43dEkVjmOsPGUxk1Pj7Yp64leXz6+6Gtzu6lj0fuWHBP9OtlG+Fq9H6X9svdTpPe1vF+GRgQYmeOePEeuxr/UtJdeq/dbphnLxufRNS7mcUfnInl+3OfbHtPytNTrbXosKi+Xc/zjsQuqdGzx+oOqum+5vv8CzjGIxz+5T/G5O//UfONv76N8LctXvabQXAQY8AgBBuC5QgcYWzck/8F9/A49B/DTwR3bk9f8ghv0nNao9y0kdmMUN0FxU2V/HQqbKquhc4qawVJD5GrQAs5tlBpiczvp5jIkx2Ks07k+fbxmcxY34amGTe+nvWxiuXB95r7ZTaHQzWvmWOn51niE+2VO081uteNx0svZ5zmit18aT/f+uJroaOzc+5TYlrMBj86jOS06Z9Y4OV9r73PEfQ2lRcvJvku5z0uu8Xdey65rNh4ra1sZ5yV1HM4xcK8zPrbkNeE4p6lrJ+P7Cq1BgAGPEGAAnitygCH2/3Rqef9/cbaeCvjpwMrHSte71IHVT+g5rdGwZ2CkpqcbIGmU7IbKSZqvRFNUQ4MXyG7Sks3kyqvtrx3rczSCWdst72dQuZs6V/OfEQiUVJuvuc5V1vmz6eXc50tvPz7GjGbZtZ/OsXPuU75jdJ1X9/641+d8fSbj/KbW7+A6Lue+uYMA575lnT97esY5yfu94RyvcBuO7xkCjPZAgAGPEGAAnit6gDHywPWJf3TluRiAr4avOT1xvavd7+s5rdG8AMNulqRJy9coRq9zV/b6y5zT7YZOvrYar0rbNRvBrO3GooZQvzbV3OnG0K5EY12tec+Yr8+BXYlzlXX+bHo5Z5Oux7IVAUZibEtlXVfO/am0vnzXZVk5yHCNrV2JZZz7VpAAQ08rr9M9pmgRAgx4hAAD8FzRAwx5cKf5j+7+y7+hDm7bqOcC/hh58MbEtS5ft1ozA4xEEyX/nesvtdIUORpKva6qzXAgz3Rp2vI0dy55lys1tKXjzm4Kq08zOea7xj/vNBe9nD1GIXteRrPs2k/n2Dn3Kf1aV6PtbL6d++MeU3fzniT7nDo2ext5x9q5b0UJMAJ6vbKtsOz5aB0CDHiEAAPwXNEDDDFy/3WJf3iHr5mmDm5cp+cCxTfy0C8T17jUwXe36rmt06xnYMTChilozFYG81NNoIus3xl0xH/1Ljdf7m2mlyspNXmyTHpf8zSzIjPAkObO2YTqZV1NZdwQJhrBjOaxpJbmPkdT7ZJxnsvja26rcrNrrmM0AYbrtdE065y5xjljH6ufc328VY4t9/g7901vo4YAwz4vqWWd23GPoXsMXOPl/r5BmyDAgEcIMADP+RBgqD071fD1ZyT+8ZUaeeTX6uDAZr0QUDDD+9WBF5eo4RvOTF3b8iyMdlBvgOFqllJNnnAtnylq5OymKxY3hKX58XaNxk+WkU9ocAYMuik7/+pLg3Lsa9y0JV6bbtoqBhjWcYbLlrZlN4W6cU1ME+5mu8wx3w4B4rExpwlnWOCQ0ShHx55+vasJdo2Tc+yc+5Q+xtQ2sq4tZ/PuHlN3854U7XOVY8s7/s59qz3ASEyPt2Uem3M7jv0OuMeg0njJOsxyfC9g7BFgwCMEGIDnvAgwAgffekPtn/2dxD/ApeO6/odq+PaL1chdP6Wo9q87rlDDN52j9v/kWOf1PNIzT1/1rZc/wDCa7bBh0Q1OXM67JoR+ndUIpRgNX7opMretK96e9Tpp2MwmK28DXpbelqspLZWz6cyeX25ApaKmMd4nGSNXg2geQ2nZUpUbz8S8cLvlc3T9Sut8STnPmWOsE1WhWU0cW1Dm+h1jVxpX83Wl68Tc33ib1r7JsqX1yji49v1StTg1puVjqHStmFLj7hi7yuNfaR3mfpfPp3PfwrFyHKtzXXEFx2ufm6DOf+Ch1DVRHoP0+If7kzpuvb1q399oPgIMeIQAA/CcLwGGOLi9Xw3fMiPxjzBF+VQHVvxOX+3toeY7MGoWNTjZgQGA3HQQMfbfT1Gg4dquO9jAmCPAgEcIMADP+RRgxA70LlT7r/xW4h9jiipyjdx7dVs+nHb/rOPL+9h1tZ7aQGHDVeGv9gDya1WAoe90cW03vLOEAKP1du9I/pvz6G/0DKB4CDAAz/kYYIRGhtWBtcvUyIIbwrsywo+f/OlUimr/mj1VDf/iLDU871J1oPfBtn6Oy/C13y3//Pj1hXpqg7Tsr8WAp1r2PZXxVpEKwQbGlgTk8c9yqQNLH9JzgOIhwAA8522AAaDphm+/JPFLr9q3V8+pn/nefRoboBEcz7YY8+dOOJ6jYjyzA611YOnCxM9y+QMQUFQEGIDnCDAA1OvAsoeSv/Q++7CeAwAoiuGbzy3/LL/ka0rt36fnAMVDgAF4jgADQL3kwbmlX3qlfnayUrve03MBAO1OHg5t/hyXT8MCiowAA/AcAQaA0Rjpnpv45Xf4tzOD34hH9FwAQLs6uH514ue31MHNr+m5QDERYACeI8AAMBoH39+u9l/57cQvwMNzzwt+CV6vlwAAtJsDzz6S+LktNfLQTXouUFwEGIDnCDAAjNbB9asSvwTHJR+teuDFp9TBrX9Qatf7Su2mKIqiWlEHB99WB998VR14qiv8pCv757U8lBnwAQEG4DkCDACNIEHF/ou/Vvp5QlEURRWjhn/zkyjoADxAgAF4jgADQKMc3PRq8mn2FEVRVFvXyKK5+ic44AcCDMBzBBgAGu3AqsVqeO6PE78kUxRFUW1Sl/2zGum6Rh3s79M/tQF/EGAAniPAANAs8p7rAy/3qgPLutXI43dQFEVRLaoDv79HHVi5WB18/Xn9ExrwEwEG4DkCDAAAAAA+IMAAPEeAAQAAAMAHBBiA5wgwAAAAAPiAAAPwHAEGAAAAAB8QYACeI8AAAAAA4AMCDMBzBBgAAAAAfECAAXiOAAMAAACADwgwAM8RYAAAAADwAQEG4DkCDAAAAAA+IMAAPEeAAQAAAMAHBBiA5wgwAAAAAPiAAAPwHAEGAAAAAB8QYACeI8AAAAAA4AMCDMBzBBgAAAAAfECAAXiOAAMAAACADwgwAM8RYAAAAADwAQEG4DkCDAAAAAA+IMAAPEeAAQAAAMAHBBiA5wgwAAAAAPiAAAPwHAEGAAAAAB8QYACeI8AAAAAA4AMCDMBzBBgAAAAAfECAAXiOAAMAAACADwgwAM8RYAAAAADwAQEG4DkCDAAAAAA+IMAAPEeAAQAAAMAHBBiA5wgwAAAAAPiAAAPwHAEGAAAAAB8QYACeI8AAAAAA4AMCDMBzBBgAAAAAfECAAXiOAAMAAACADwgwAM8RYAAAAADwAQEG4DkCDAAAAAA+IMAAPEeAAQAAAMAHBBiA5wgwAAAAAPiAAAPwHAEGAAAAAB8QYACeI8AAAAAA4AMCDMBzBBgAAAAAfECAAXiOAAMAAACADwgwAM8RYAAAAADwAQEG4DkCDAAAAAA+IMAAPEeAAQAAAOQzvHuPeuuJXvXGnQvVS9f+yut67df3qk0PP6l2bNikj779EWAAniPAAAAAACp76/Fe9eQ3z1Lz/3TCuKxHJn1LrbvpDj0a7YsAA/AcAQYAAADgNrTtHfXUd85xNvXjsR765NfV5kef0qPTfggwAM8RYAAAAABpb694QT34saOdjfx4r1duvlOPUnshwAA8R4ABAAAAJO3o26TuO3xSqnHvOe576pW5d4bhxs6NW9TuLdu8re0vvqI2PrhY9f7g4tQ4SL0+7wE9Wu2DAAPwHAEGAAAAkPTol05KNOtdhx2p3lz0hJ47/rz3Wp968sTpiTGRevvZ5/US7YEAA/AcAQYAAABQ9uqv7kk06Qv+/qtqR9+beu74tuysSxNj88Q3ztRz2gMBBuA5AgwAAACg7P6/OSrRpL/97At6DsSjXzk5MT7yCS3tggAD8BwBBgAAABDpf2p5ojlfMeOneg5iWxY/kxyjH7fPGBFgAJ4jwAAAAAAiz13480Rz/s7ql/UcmBb+w9dKY/TA331ZT209AgzAcwQYAAAAQOT33z671Jh3ffhIPRW2FT++sjROUiN79+k5rUWAAXiOAAMAAACIPPKFb5Wa8kWfPUFPhW3NNbcmAoydb27Rc1qLAAPwHAEGAAAAEOn+xymlpvyxr5yip8L2ytw7EwHG++s36DmtRYABeI4AAwAAAIgQYORDgAGgJQgwAAAAgMiYBRhb7lfn/9Gfqq/FdeL9als44231yInGdKNueTZcIBK//orn9ISxRYABoCUIMAAAAIBI3QGGHUhIlUIJ23PqlmD++fe8HX617Z6TS8uuucJ4XbjOk9Uji64lwMiJAAPwHAEGAAAAEKknwAgDCDtgCIRhhAQQ9vMtn5VAwjHdCjZKwuXT628lAgwALUGAAQAAAERqDjB0uJAKHUL67SD2nRgEGE1DgAF4jgADAAAAiNQaYGTeZaEl786IAgr5OlFXPKfXY9e1ao28zAow4nWGVXoLibHuMDCxtuV8q4m9P3p7ORBgAGgJAgwAAACMJ3u2DqjBl9erbUtXqW29KxO1YMLkGgKM+IGbFRp/1x0aDbkDQ4cPVjARhRsnq/NPLO+T+y0u9usz7hbJQIABoCUIMAAAAOCr/Tt2qnU3zVdLTjlPPfjxoxNNd7WqHmDoEKBS06/Dh0TQ0PQAo/qycdCR2AfndtwIMAC0BAEGAAAAfLTyoqvVXf/tk4lGu5YqboBhrzu9bPSWFevOEf3JJqntOxBgAGgJAgwAAAD4ZPdb29TDn/9GosFe9NkT1MqLr1FvLnoifPvI0MC7eumk2p6B0b5vIckXYLiLAANA2yLAAAAAgC+Gd+9RCz9xTKmxfnzKD9Q7q1/Wc6tr7kM8tXa9A6MGBBgAWoIAAwAAAL5YdtalpaZ65YU/11Pzq/ljVCu+7aKZH6M6ugDDvVx+BBgAWoIAAwAAAD54d80rpYZ6ycnn6am1qTnACDjvsghk3Z2RtXwchtihRDMCjNK0xF0YErjkCzUIMAC0BAEGAAAAfPDUd84Jm+muw44M30pSj3oCjFAcPphlBxGl0CBZEkw4n0lxxbz08ifer5aklpXQIb3u8p0c5jw7sEi+JhWqZCDAANASBBgAAAAouuFde9QdH/hY2Ey/fMNv9NTa1R1gjDMEGABaggADAAAARbd58dOlZnr3lq16au0IMPIhwADQEgQYAAAAKLpVM68LG+muv/q8nlIfAox8CDAAtAQBBgAAAIru9986O2ykF39tmp5Sn0e/dFKpKe+eeJyeCtuLP7u5NE5Su7ckPmelZQgwAM8RYAAAAKDoFh99WthILzmlvk8ficmnl8RN+b1/8Rk9FbblP7qsNE5SB0dG9JzWIsAAPEeAAQAAgKJ7+PPfCBvp5edcpqfU54Urf5lozLc+vULPgen+j/xTaYy6J07RU1uPAAPwHAEGAAAAik6aaGmmn/uXq/SU+gysXFNqzKWePnWGnoPYG3c/lBij1Zder+e0HgEG4DkCDAAAABRdowIMseizJyQa9D8seEzPwdDAu2rhJ45JjI+EPu2CAAPwHAEGAAAAiq6RAcbGBx9LNOh3HvIJ9daTy/Tc8Wvf4PvqieN/mBibpT+8RM9tDwQYgOcIMAAAAFB0jQwwxJJTfpxo1KVennObnjv+bHr4SfXQp76eGA/5yNqdf9ikl2gPBBiA5wgwAAAAUHSNDjBGhvaqh4/8ZqJhl7r/b45Sy8+5XK3/7f1q82NL1FtPLPW2+u5ZFH5c6iOT0uMgteXxXj1a7YMAA/AcAQYAAACKrtEBhtizbUA9ftz3E007NUHd839/Wm363VN6lNoLAQbgOQIMAAAAFF0zAozY6lnXp5r48Vq///aP1HuvvKFHpv0QYACeI8AAAABA0TUzwBA7/7A5/LjQeDvjqe790GdV7w8uVlt6ntGj0b4IMADP+Rxg7Nk6oNbPeyD4x2aO6v3+Reqp75xDUdQ4qqdPm6FWXvhzte6m+eq9V9v3r0XV7N+5W/3hgUfV85ffqJae+RPnsVIURbV7yXMjXrxqbtM+zaPZAYZp95at6p1VL6lNj/ze69q2dJXa0femPupiIMAAPOdjgCE/bO2PeKIoilr0uRPUhvt/p39StL/3XtsQhq+uY6Eoiipy3fMXn1HPX3aD2r9zl/6JN3pjGWCgfRFgAJ7zLcB49tzLU/9IUhRFmfX4cd9Xe/rf1j812tNL19ya2m+KoijfSt6asPHBx/RPvtEhwIAgwAA850uAIQn+4xWeEn3nn/9Pdd9hk4pdf/GxoD4e/PeR6XntUh/+nLrvf/xNtK+17udfTgxe/1n3vGol4yLblXW45jejZJtyvK55PpSMpYxpXHmuvb/6jHv6WJdcR4d+VN3953/r/HkgtWDC5PD233a07MyZzn2WuuMD8r3lOGaKoqg2L9fPtLhevu42/ROwfgQYEAQYgOd8CTCemvqj1D+Gj331VPXGXQ+poXfe1UsV2Mb7lfpV8CNZat4fK/Xy1XpGm3n4k/Xt5/bV5dfIsdZiyTfL25Qai7FZ/oPaj1HsG9T/0UAy5qsv0l/kkGcf5HzIsZnjKrXgsGiey+oLo2WW/7A5x2mSfcjahky/57+U9nn/L/6fatOP/g/1zJfTYcaDHz9aDb29Xb+wPay8+JrUfj70yWPVq7fcFT5ADgCK6sDwsNr+wrrwORh3//eJqZ91b9z9kF6yPgQYEMG//gB85kOA8cIVv0j9I/jabV16rlap4RkNWWctzWM9ZBuuZlKatP4n9EJtYP2v0vsoJU1vpf3cuSF9fHnHNA4S7JJQwybXgDT7o70O5Fjs7fV8ufp641CgkQFLHBpIVQoXYvE+yLnKIsch6zKPzyx5vR0y2WOSZ1/qFR+D6xwLORfmvhjVf9F/Vvd9OPlL85PfOFO/sPX67lmU2DcpeXAnAPhm77vvqSWn/Dj1M++9V/v0ErUjwIAI/sUH4LOiBxi7Nven/vF7c5HVLMcNjzRVtTav0lxXEt9xIM1UPY2x7Fu112U16XFJw1ZtP7PUs8/C/iu7/LeMsWv/4nL9ZV6+zmqWq41pVmASl9ngxteATK/WXMt+ZgUulY5TplcKaszjlOumlnPmuk5cQYrsQ1ZAIq837kzIDF1k3Mx1ZpWMk7DXa1a1IEpeW8v3jn3OzXMszEAno3bM/jeq6//+eOJnxqaHn9QraC2508Lcr7W/mKfnAICflv7wksTPPXlwcb0IMCCCf+0B+KzoAYZ9u/VL11h/WZaGx2w4awkxpDmS12Y1u3ajV2tAIn/FlvVLM5vF1aRmVdwsyj5UatBjEoxI45ln2ZisOw5tzP1ecmJ6f1xlN/nxurJKxtTV6FcLL+KKm2MzPJDKOq/mOXXdpVBtf6VcQY0rhJJ9yHM3huynLGteX/K/Ms1eZ1yucMJ1Z4Ksw7ybIu+4xiXHVeGOh7Bkv11jbZ4X89iyZO3byz+P5tfwvbLlvD9O/Nx49CsnR+toodfveDCxT/J5+wAwHjz0qa8nfv7V+7HXBBgQwb/0AHxW9ABj4f/8WukfvAf+9kvq4IEDek4gq+GpFBjEpCkyX2M3s3Z4EVeeRkxI42q+Tv5ybJP1ZP1l21WyjrgpzGrQY+bY2E1sFllf3HCa26wlZJn3R+VAImsM7ZL9M0OPWpvsrEY/T/Mu+xjL8df9Usk4xccp23AtE5dcj1l3Y8ThRbxsfH3lCVLM46s21jK/lvMoteDD6e+TSmWGNfF1as6Pj82l2jmX8C7rPLsquA6fOuGU0s8Oqd1vbdMba42nvnNOYn/ef62GO3QAoMA2dD2c+Pn38g2/0XNqQ4ABEfwrD8BnRQ4w5Bd88x+8FTN+qucEqjU8ZmNqy3pt/BrXX9PNqtSIiaxm0mzSRbW/bJslzaTdFNoNeiyrUa10N4DdSJtVS+MY/7W8lsZXSoIPOb5aw4s8JeustF45D9VCCLt6vhQdZ6VxM0uWscc/67W1jLeU7Itr+mhKzoeMSS37Eo+JK7yIy/W906Rz3ndPd+Lnxxt3LdQbbI27/vwfSvuy+JjT9VQA8N/B4ZHw0+Lin4E9x07Tc2rTigBjaGC7f1Xwh98H/8oD8FmRA4ytS1aU/rGT2nD/76IZ9t0NWeUKMao1qnnviMgKMbLCCylpBuPX1Nq0SSiR1RTKumLVGmrXmORtwquVhCyinoZUzovsh2teI6oRxxfXPR+IzmOlRt1V5t0p8tpa7r4Z65JzWOux5R0T83unnmulWkkAGdj5wmOJnx8vXXNrOL0V5JNQzH15/rIb9BwAGB8e++pppZ+BCz9xjJ5am7EIMOQ5a8umz1QP/N2X1B3/5WOlffat7jzkE+HHjT97zuVq86NL9NEXQ/AvffNsXb5aPTvzWrXoa6epe/7n0Wrehz9HUZRV8z8ySS2YdKLqOfkc9eqdD6qhd9/T30GNUeQAw77lcGvvysoBgavMhr1RjXpcZiMm/5vntv/47QS17Ic0ZNWOWxrBPM2jVLMaSBnfesZY7tZo9LlpZsV30tRyB42UjLXIe55aVfK8k2p3IdklY1LLcclyeYPIWioO0YLraeS2f5f4+bHix8YdXGPs3ZdeTezLq7ferecAwPjw9OkXlH4Gykes1qOZAcbGBxerRZ87obSP461+98XvqM2PPqVHo70F/9o33obuHnXfZ6aoX/77D1MUVUctu/Aqtfe99/V31OgUOcDouzt5C/jArce6m5ZqJc1VMxrk+G0dtTakteyH/GU7b6Ncy1/0ZX/luQKuefWUNLz1jLE0y0UKL+JnmdTyvAypPG+vaIeSa7rWUEvOfTscV3wXiPHWF/Pnx/JzLo/OQQtsf2FdYl9en/eAngMA48PSM8qfRiJvJ6lHswKMlRddXdq38V4vXPlLPSrtK/gXv7F+/4OLnA0ZRVG11e3/45Nq0+PP6O+s+nkVYFzyv6eblmolzVg7hRe1Vju/zSAueUuF3FVS6zg8/A/FCi9kf0WtDX69bzkZ66rnuRfx90E7HJcElda5MX9+LD/xyOj8tQABBoDxrl0DjKdPO7+0X2Yt+uwJwT7/RD1/+Y3qhZ/e5FWtnnW96v3hxeqhicc5j335jy7To9Oegn/hG+PgyIha+OXvOBsxiqLqr1fmj+4X3XEdYEgzI81VUcOLopSMc63jIGNY61tpWlnxX/clcHHNr1TymiJcK7WeRxkTObY8b51qdsnbkBzBkvnzY/lX/mvp+RhjrTABxpb71fl/9Kfqa1c8pyfkUM9roNZcEYyZjJuuW57VM1CfZ68Nx/H8e97WE+rDeWmedgwwJJyI9ymuJaf+OHzb33gx8Nwa9eQ3z0qNw8tzbtNLtJ/gX/jG6DnlXGfzRVHU6Out3vp/MRyXAYY0VrW+Jz9vFeWv6WNV8taIWp9LEje+RRq/et+GFIdo7X6s0tjXeh4lNKj1Nc0oeRuSI7yQMn9+hAGGTJdlx1htAcbb6pETk01Usq5Va/SSDVeUACPeZpVq1+Zz2z0nB/sXn8fn1C1tvK/NEB2/+5x97cT7VV0feNyAAGO8n5dma7cA4+1nny/tT1zrfjlfzx1/1vz8ltR4DL7yup7bXoJ/yUfvpbl3OJsuiqIaU3dN+LL+bqvduAsw4ua4GU1jM9ddxJLxkObRNS+r4nCpSOMnz7uo55zL2IhaH/Y51lXPcy/qCa6aUbLvFT6y1/z5UQowpMY4xKjrDoyMhiz+C/G4bqxkbMxG1zFWMk6j/Wt8c+iAatzfsRIFBMnAQk9rZkiXifNSOxmz/Oeq3QKMJ79xZml/pF66ZuzD7Xaz+tI5iTF5Ztq/6DntJfhXfHQO7N+vfvOhTzubLoqiGlcv3vgb/V1Xm0IHGHfck/hBWjXAiAMG0ejb2gkv0iXNo2t6pZJms0jjJ8+9qOecy9iIdmjyK5Vc17U+90LuQmqHUCbHvps/P3wJMMp3aJysHtmiJ403MjZmo+kYK/lrOgFGO3MFGOW7M8Y+oOO81Cz8vitmgPH+6xtL+yL16JdP1nMQj3FcQwPb9Zz2EfwrPjprf32Ps9miKKqxdeffHqW/62pT6ABj9kmJH6IVAwwzvGhG0yiNkiC8qL+kaWz3uxHMkmuqnvAifptRu4cXUnJd13p8Euq4po91yZ0xVYIX8+dHcd5ComUGGIGMefat+a7Xpm7f1w1bYrrVxGU9F6DSa8pBS7nsgCGeLutL7leN4UzmWMV/0Q9KGuXEW0+Mxiv1lhRz+9Y6zK+lHA1vrvEqVca2dJmNvD1m5nbk2Mvzo3Um9kMHBcl9cDef9n6a41pep2wjeY6jfXUHE2nu5eJtm8ct8u2TMd08p3KOrHNsvt5ed1SNOy+x1Hbsa0dfx875xjzZRnJd+jwmXm/uv6HCNuzjSG7DXF/6e1vKPme2dgow5K0i8b5Ivdn9uJ6D1+cvSIzNG3cu1HPaR/Av+eg8cvz3nc0WRVGNr4HnX9bfefkVOsA48wOJH6KZAUazw4u44SlCQ9quJW+nKNr4yVtdat3n+FoswrFKAFBroNQu4YW8hSXHXSPmz48wwGhBeCEaHmDEzZjR/EXNhtFk6NenGy2jaU1tQzdqdlOT2o7Z+KZfU2pwEs2pa7lo2vknmndL6OWqNsCGSmMViMfm/Ph293D5eKzS+xU2oM7G2lhHaZpjjCuOV9Zf+h3jo89z8rjsMbPWZzTqpf3S4+M81xnHWek6Ku1XsA/RdL1P4brd601zLxc1/8nmu6Z9sq6B6FzKeStvx7WNZp+X1HVgX7P2MVXYRuJ1xvku76PeduK6C9SwjTzfk+lru7J2CjCemXZBaV/u+C8fUyN79+k52LPtndLYSK348ZV6TvsI/oUfnVs/cISz0aIoqvG15pfz9HdefoUOML7/HxI/RDMDjLgpqfBe+LpLmjw1pAYfOsE9v01q6PoONRiUa17Lq4jhRb0PqJTQQ64Z17xWlVwb9jQJANptP/OWhCg5P17Y/Pmx/LRvRz8nWqDhAUaqodBfJ5ov3cRUXCaaVm4E08ukmnlpehKNjGO9rgYzkGpE49c6GyO7wayg4ljF68uaH42TOc/VmMXrSB5TPePlbpSzjjlqts190dvMahzjhjaxfndDm7lu12vtY5LlrPNWG8e5r9BQ590n+xw7wwrnss08L65jiKZF15PjeAKZ23Aul9zH9H6PbhuucYimuY7XrZ0CjMVHn1bal4WfOEZPRazrrz5fGp+npp6jp7aP4F/4+u17f4ezyaIoqjm17OKr9XdffoUNMLavzhdgSCMmJMSw54224ocw3vExNamjQx1yZIcaci3XBjXvox2qI6h+x7yWljwLotYHfba66n1ApVyDNVyHgz8Iztkfdaipp1rzLuxQE/+iQ00P5iemV6m+73aoOedb02d1qEnBNiZ8xbh25S0u8X7+okPN/LsO1X21ntfuJfueM7yQMn9+LD/n8uj7uQWaHmBUbN50g5GxTJKj0dL7kW7eY+nXZDV96WDDsb1A5uuz5Aow8q8vu1mz11HPeLkb5XQjGUlv1z1mJZWa82pNaZ7rSOS6lqrRx5EoRzM8yn1yjmulMWrGeak6Xnm/D9zLOfex7u+1vMvF0xznLEM7BRjd/1h+zsNjXzlFT0Wse+Jx5fH56ql6avsI/oWv3+D6Dc4mi6Ko5tQT087X3335FTbA6H+ieoAht+vX+/GW1Ur+yiuCRrZvatBodnSoGT9yLFelwmAheO2oq0o4YQYY/UED3BPsa55ae517fZl1fbCtIzvUbLtRdpU0m824K6aZFexz7+nW2NvnIDh253xHzbvKWr9RXR+Plpl7hTVPr3+yHWxUqXl/H7zuj4L//Wlyeu8Xo/XNjM+ZhBf6+yV8TTBvSnCN2+Fc99eC89yA6tPr6w/Gderxwf/ektxOM8v8+eFVgKEbIjvASDaDcekGo2oTJbKaMD1dV7IxT7/G1eyE2jTAiOaXjy8qV7Nmr6Oe8Wr/ACM5DnEZ+5brWqpGH0e8T3HwYx/XKPepUAGGs6pvo6YAw1nVt+G6/qNp6bHJQoBRHAQYFEU1rMZVgCF3YFzwidIPUKmBR2+LAgt5QGJM/rtB4cVQ0GyGjf3MP1c9jy5QPb/5Ufj1zL8Kmrz/FDSaRuOfVf03JdcZBxjTHI1d3pryZ8E6zAAj2M/JVoNrBhi1hCalpjZHDZ7VoSYGDfKUbzrekqCr74wONT1ozCf8n+VtHPLnQeN6ZNAQm421PgZzX8zq/M/Ba74SNN/mnQFVXuOqWo4vDMSW/0ANzkqf1xl/EawvPgc6YJj6DT3/ms+WrpVSBfNkmcwA44qO8K6ejmCsUmNZJcDoswOPuIJtTQnOT0cw3r2/MKYH/z09nr6i/CkwvcH4ynYSd2cYNVP2rwHVG6/zlg7V9elgWrAfXVbIkqvq+D43f354FWDY8/I0lHmWqdSEhXSTFyxTKYRwNTuhrKYqR7NUUaWxClRaX3ZjVn1afePV/gFG5WskkHe5ivRxlPbJNVaBUe5ToQKMzOso5l6upgCjzm1kf08QYPiIAIOiqIbVuAowAn13d5d+gEoNrLT+maznEyIqVH/QMLoasFrKbljjMKHUxNVRZjgRTtONfFaAEU+rWLpJztvgDwXLTQiWz2p2h4Kmf1rQmIZviTi+Q6164NTwmRyDQaM697MdqjN4bbi9C63X/bhDHa7nxWMnz/NYFRybhCWyvtI+6uOe8IWgiTca9LjRLo39TcHrvxlts6YAo8IDKhPja46dvN1EQjVr+XiZrABj1dei+c67evRrXQFGXzBNjmvicel5UuF4/sdgu1bIIW9XmXL6Z1X/o/qhnVd3qOnB+er8+/IdEnbFz1Wpt+Z+JDoO+9rPulOkGWX+/Fg+5ePR3Vot0NgAI270amhqQ/UtI81RoqHUy5T3y7HeVPMUydv0uZqlikYRYLiav2iaq1mz11HPeLkb5ax9TO+fe8xKKjXn1QKMauuO5Q0VKtLbMvdJr7em441l7JPr/FYco6acl2rH4D4/ae71OI8x9T04um24xiGaZm23AgKMtGgM5fylz010XtPX3lggwKAoqmFFgGH9M9ngB0P2T/vXQcP1j2pu9/XOhqxSrQ0aZlfD6kWAEf8F/8+Cxts1P2hEw7/8B/PDv6wv/0Hqr+Xdn4q213l0eVpcM4LprrEb/G40vbRdfdzdwXiby6UCDF2zg9fVFGBUKGeAceWHo/DCdWeAXsYZYMTj+VcZ4YF+rR1gxCGS3fyvNe/8kDrL+lpK7iqSO0XMacH4dtnLzkpuczQl4y/Hkbr247tParle6yzz50fpY1Tl54Z5F9cYaGSAEf1SmxUOWMvLOoxGJGuZ8tfp5iXcntnMhM1ftabX1Sy5lsvfLFU0igAjNU+vy92s2esYxXilGknHWDgbbfeYlVRqzq1tuo4pmlb5OnJvI5Z1fDb3cvH2ze2NZp+czX2lcW3Seck6htLX8XVnbyexP+5tOI9Rry/xc2IU28i+VuzviWxeBBj63IfjGFfVa70a9/dndF7zj28jEWBQFNWwIsAw/nluwrMV+q89Imi4PpH5V/NKFd+9kSfAyPOX7dQ6zGZPN/JjFWDEzwCZFPyva/5ceYtNMH960Axnfbyl3AFwSLBc4m0kurICCLlLYIqeF965oY/bboizXi9j0swA45CPHK4m/uX/Ej5wM1VyN4pjn6RWHRfNm3xSel5Yev2JACMOiYLp9jE16q0eYX0lue6wgm1PPaxDzflRcO3a8ypUvF+u8C4OtBp1frLK/PlRCjCkxvhOjNoCDP3LrP1Lcqkq/MUzblDicvxiXWoQrWWiX5bNin9x1g2NUXFTlP2aiD3fbN5S+2Eclzkv2STa0vuW3AfXfHv8rPGWxq3UpMi60uso75M5L15v9niljzmoxDlKn3uzAXW93hyf1Pkordtcb3l8Mse5wnWUPud2mKaP33HtxfIfh3EuM/fJ9f0SnAtHo1naT3NesJ61TT4vsdRy9hil9tn9PWHPM89Jab/M8bIDi3h6WPm2Yc4rH1tyXFzHbCp6gBGPQfJ6j8c/+bOvNnocK3zPjDUCDIqiGlYEGPqfUmk+jCalIbX+V6r/pn8Mmqp/3fQAI0/DaS7f6gBjbtCQy7Kph01KBa8P3x4id0nIWzDqeE5BZoBhzJtyenpeXJVen1Xymsxjv6lDTdfrTFQ8vpf+cfj1pE//b8nnlAQ1Q389WzfoqX0Kvo6DCPsOi1Lpc1Oab4QXUx3jEB7/RzrUWkcQFtZT56jBm//IPc+o8E4YR4DRf0ZwrP8x2n5H8L8zvxssn+NBnOF+ZVyT4SewBPM7XYFJA8v8+VEKMOQOoTFW1x0YAOCRQgcYOhByhzSjDSAIMGoV/EtePwIMihrbamaAIb9gb/rdU+qNOxeqtTf8Rr141dyW1++/c07pB6hUGGDIrd81fIxirpKP+dy5Qb+FJGjUZyYbuzxVy1tIwsbuH6xb93XNCabby7c0wDDuguixHlAqteroaF7HV/5cDdX5PJJKAUQ8L7y7w5oXV6XXZ5W8JvPY9fhO+pQOI+KAQsZXHvTZe7ma/c3/S3UbgU5q/IN58rre4NoorTeoniOjfZXKE2AMXRzsR4XwQio8/qxzL816zu+XcD1ZgcItwbn+brBPcZAR7FO1TxSpuF/BcYXPPvmL7GdwNKLMnx8SYIzc+r+pddfOUS9dc+uY1orzrkjsCwEGgPGmyAFGtbsskndnGHdhhaGEdVeW9facdIBhLl/epn1nknnnjXm3jMm+q6baXTIxAgyKohpWjQwwhnftCUOChz55bOmHVLtXGGD06IcQNqrkLQ/6YaBj9RDPSo1i/MkQowowgqbSFbIk6oxoO1UDjAv1HRbWPsUVH9/hJ/5fqXl5KxyPoFIBhBGeOO/+0JX5+golr8k8dh0gmNsMP5r2J/9WDckzLxxBTeocOSp+YGlnzjswDj9MP/MiqBnVAhy97VXHG29j+es/VhMP+/8k39riqPi5JpWuy1JJkBHsd+mOjOBYsvbN3K/UfH0NyzpcwVijyvz5IQHGsi9+MDGtVUWAAWC8sQMM82dirXXnf/2EeuBvv5S7XOuIq3qAEb9Vxh0ShBx3aEThwcnq/BPTb8VJvg3FfQdG/PpEaKLfAnT+iSeX1xG/Lajac0v0PtpvgXEhwKAoqmHVqABj/W/uU/d+6LOJH+BFqIF7g+N3NCl114IPh3dexA1pHGCMyR0YzQwwdAOcp6oGGPG6zO0bNe/vovmZzXiOCscjKHvsSg/xzNh2XFmvr1TymqxjHwoacllfl/kRrnLnhYQXt36g1HjnrfBcxg/uDKpHh0fVAoywguVnX+xYJqNKAcZf/Rs18SP/IRVWxDUhDiDi/au1bgleNzVY16HBNjMCiLwBRi3nrdYyf370fuUjia9bWQQYAMabRgYYjazqAUb157qUnjlihAjusEKvKxE21B5g2GFFdDeGGbDk344LAQZFUQ2r0QYYe39+glpyyo8TP7iLVAOX/O/OJqWukoZU7rww7ujIeo5Fnqr5GRjNDDCuC5pkx9tTEvWNaDujDjA+Fs1vaIARNMRrvxs0x9Lw/7n7wZ9m5Qkw4mUqVTwW8bmUTzsJA6qb/60a7HtKDT4cXCt67Cd+MTmeM/4ieE1QXca0rmAZWY+cy7XHR/8dvhVGj6lrzAZnBsscGs3vPCx4bXAu7WWqllzbcmeRa15wPF3BNXaIrD/Yzrxge87l6qlbguM8I3rYp3xdMcAIKuvTZxpZ5s+Px796fOLrVhYBBoDxxg4wHjjiKzWX3Hkhr1/4D8eqF356U93V9eEjS/vS3ADDCiAaFGDYbwVJBRh5l8tAgEFRVMNqtAHGE5/8dOkHklmLPneCevbcK9Srt96ttj6zUg0NbNevbq3UQzwbFWBIgycPArU+hrXIAUb4oM0KzWKqdBM9qgBj3r8tHd/hx1nzdMXHY5c5Tq5wofM/d6hpVZ6xEFeeAMP+5BdpnmcEzbY5bUhvq/RcD6vC8XaMvVTqHAUVXxPhubyiQ00NxiL8FA9XgBFsf95ny2/XSc2vpeRhqo7pa4P1haFQUNOD/x50LFNzBWPWFxyPPLRUQhHZ7xk/juaFAcXfZ1+TYx1g9H7/IrX7rW0tqS09zyT2hQADwHhT3GdgjO4tJK0MMMJQJVUEGM4mi6Ko5tRoAow1X/186YdRXAs/cYx6s/txvWT7aVqAsfF+pVZfmJoeN5xFfIhnpVDEWbUGGB+xHrZ4zwfC/y01+0fq5txVQZM7R3/UaqdjuTwBRKWq5/XymqxjH5ylz8eM/7fqWfBL1TPrb9XEYPlRBRhm6TEN13FTsB1524cEC8G0Q4J19OjX1RVgZHwSTHyeJn0huFaD69WeX1MZocWher+lDv274Hvnu8Fxy1tK9DhlXpPx/KDGKsBYfs7l+ifL2ONTSACMd+PnIZ6RdrwDIy8CDIqiGlb1BhjvnzO59IMorhdn36SXaF9NCTDW/yoqx7y44RxN5Q4wqlRNAYb+euI39dd5SjfRVQMM10M85Q4W/d9DQaNf+hjVeL6jeo+N1uFqytstwAgrvktHrhVzvOOxrvEtJIl1GwHGUPDf4YM6/2OHmh28xp6feF1cN3WoQf3cib4fRJ92EtYJ/07NPq780a5mTdMB0pQvpOfZZX66irnNtcH+mXdaSB16WIeaE4cW5vJ6nPIEGGP2EE8CjDGU4y+WLVStGYH/omsgqvxNXnxdu17X3td8OyhygFE5EKghgBirAMO5nfwIMCiKaljVG2CsOPIzpR9EUo/807f13PbW8ABDPi5VHsTomhdUHGDMOL3chOatuFnNHWBkNHb1vIUkfuhkpY8aTZVukqsGGFU+RlVq9p9X2f6CD6tefQdAYQIMM+j6aTTe4fJG4523KgUY8nW/3PFTYX6qrugI7wg59LiO8kM7//J/iR7cKf/tqPihnYce6p5v1pwL9XZ+Eaz/u8F5/XgytDjkr4JzHuxbXzA/tW9xxeOUFWC04mNUz75E/2QZe7UFGMkmKaqiNdvt3cw1OsAwm+Gw6mwaxh/dZJWqwvUSP2MgrkaMcb1/pXa+jgCjmkIHGAHXXRYi6+dJawOM8v4mlpXvoxzfOwQYFEU1rOoNMO794MdKP4jm/9nfq8G16/Xc9tb3i5+U9zuoUQUY8lBD+Yu64/b6uOIAo55GOuu1rgAjfB5DVvMXTJe3pJjTUgHG1UFTGTR+038QfR2HHjXtt26SqwYYQYXP1wiWzfo0jNJdBH8U7IP9wE15q8mCw0r76GrKR/sshNEGIKmS4EKulfhrc6yssY8rdY6kbgnGxvw6Lr2+zIAi5/zSHTdyt8g9/yW9nFE1XyNxwKDrkD8Pjj/Yn7V5HyqqX5/1bJT+06P1dmYFHA0q8+fH8hMm6p8sY6+uOzAc76lGu3E0HvU2xeNY2GideHI4blkf8bjmCvk4ynSTNioNDTBQTdEDjJA+96UgTSoVCNjBnHmtmPOuVUt0yGDWLd3ubaSCUuPnjjkv8T1kB39WSJKFAIOiqIZVPQHG9gu/XvohJPVsC2+jrlXD7sCIPy61QnghNVYBRq3lbI7juqlDzZDnEPxVjX/JNpty13yj+qZGy04K/tc1X2rwwqDh1n/lnxw0pd1BAzs4/0NB/aUa/Gn52R52Uz74o3KjPP2M5Lw8NfTj8usnn+RepqaKwwvzWonHKr4zwVGpczQrGK/gvEyzgo6wcgYUWfPja8257oyqJ+SS55ZMD8557tDCqPgjcKec7p7f9fFofi0fEVtPmT8/ln/lvyq1/Af6p8vYIsDwlLORjUINzlt+YYBxxf1RGOT667CMc9B4PeL4K/OoEGCMKS8CjHGCAIOiqIZVPQHGum99sfRDSGrb0lV6TvtrSIAhdwBIeLHgMPd8o5oZYJQ+krOOmvuRYB0ZAUZf0LTL+uNwoX/avw6/zlt5Agy5K2S6hCR/FjTClZ5XcEswPxiHacG+HvrH5W3IJ4pM/pTxgEdZNhinzLdi5PmrvG7yXZUZDFQrCS8cQVd8t0Cl68IVMs2V5064ng2SFVDEzxbR87OeadL96Wh+2PwbzyOpVHXdpVNvXd2hZui3Fc11PU8jmDYpmNfxd/8vdyjXwDJ/foQBhkyX8zzGmh5g2H9lczSB8e3EpUr8Jc74q6BMT/yVURpGa779F0Zze6nXRsp/IYxuiU7+NdHRlCbWE5T+C738d+qv9Paypduu7f2cZ3yddcu3sXy1v1bW0sjWfI7scQq+XmSsw9i3zL++igrbNbcnr3Nt35YaI/s4chynLVxnsFy07vS1INNljKPjdFwr9jZdywRS11zW+at2DPbrEtdfeduJc9foa76ACDCKgwCDoqiGVT0BxrNfKn/WtdTOjY7fSNpUKsC4+q9TDUrFih/E+PAn3fOtikOI0VRWgDHqcgUYP+1QUyRYCKpH3pISHO9g0Py6HsyYqk9F680VYAQVv01kQtAIZ37aSFwy7vKXbte8dizZX/lkmn2DUdB1ixEgBc34HDmHMsbB113mGH6xQ03+i+i5EeGncQQ18dDyQ0/jSgUVmQGGDk7icCdY39RgG+Z5m/EP+R6aKm9TMr+O73joCo7HnD6a6vtm9NaSxDM0jOOfcLT7Wpn38f+H6vjj/zX9dqNKpT/1ptYyf36UAgwZZ/m5MIaaGmDo5UoNjqsps5fRjb297qiBlFv1dXMVvq7cyKbml6alGyxnsxnvW9CY2fubbBLt/St/LdtzN3Pu95HH083XxMeRaNBzjlGS3mbidQ45zlE8juVp5XUnxybjOFP7H8ix3dJxSrNcmh5Ns7cR7aNxTvX6S6/Ltb20cL1yjM7l5XijbTqvKcdxu85vHB6Ul9PHaG8vzzFkHNfYX/PF0k4BxqLPnlDal0e+8C09FbEHP350aXwWf22anto+gn/J60eAQVFjW/UEGEs++9nSDyGpg8Mjek77G9UdGHF4seSb7vmOigOMPJ/UYNeMv49em3kHxs3/NnFXRS2VdQdG+Bd+2V+5TV/eJmPNr1i6ic4bYEgN/jhoUIOmetJxwX875pfq5Z+7p7djxddJHF7INP2QTBmfuKbosCF+3oZZ5oMxp8fXxPHBOf9RsLycIwk/zDtXXAGGfPxp/N9ByaeLTNJvybFLHqI5b5bxWkfFzy1JVPC6hj4wM7geUtsISu64mfldR3hxS4fqkrtHPvi/qq5awgu5tqu8/SurzJ8fpQBDStYn53yMNC/AcDezqUYqbJjMhk6/zvrLcrqJTornJ5sp3Qha66rUzFVdNtWUZjTtFlfjGu1fcj+cy+Uco7RyI+weuzznKOP4nOOVsWzOMUufF73/1nLpMXKd52hatM2820sLtxWu17EOGQO9zfS6MsYita+ufQ+kvsdyHoM+L/a5dh5rk6/5ImmnAOOJE84o7cv9f3OUnorYXf/tk6Xxeea7/6Knto/gX/H6jZsA49wlaseuvWpEavWd7mXqrpPUutf0gAZ2dJ3kWCa7FnZt1q9Uavfii5zL1FSXLVaDa/uCekGtO90xf6yrtD99auPPJ7mXGU2dfp/aqtc/+NB17mXaqOoJMHo+8Y+lH0L3/Y+P66nFMKoAQ/6ivvpC97yM6g+aRmlCu+v4K3XWa3unBs3s1L8cVeMYrcMRGgRN4HT5K7c04XU2eDXX9UHzfGSwP1nBh4z5WO3LaCsOL4QVdMlHhsafMNNrhAXhA1iDqnoXii55FoQ8E2St+dDWC3XYET/DotbwKUeF14wRsMn10xfst2vZhpR++GylcZG34kz99v+p+m9xz3eWjE2Ot39llfnzIxFgSGDkRYDhbszcjbzJ3RxVe517vnsfKjVzVRu/8NiT2wmXqdbMudYfrMveXvXxETU2kPp8RWUed55zlNFgO6dn7FeqAc57beRcLuPcleXdXlq4jH6dvbx8HR9T+prKGjdrjLL2PTV9dGPRkmu+QNopwFh+9qzSvkjt6HtTz8E7z7+cGJvVM6/Tc9pH8K94/cZNgHH+crVPH7N67T73MnXW/NkvqNLfw99brpY6lsmu69TWXfq1w31q3dGuZWqs+X16hTvUlvMd86U+epJ69PRzVc+oaprqcq3brtL+BL9rLvlZefrx96ktS25TD5vL1lNNPLfNqHoCjN8d8anSD6Huv/6knloMfb+6MfFDNHeAIe9xl3LNG8uSBlk+utU1r1Elt9ZX+QSKMSt528goms0xrQrhxZjWKO4uKFzVGrTJ8vLpQa55Ocv8+VEKMOR7cow1PcBwltkM6YbOXsZqjqo1m+757qZvVM2cXme1xjLNbu7l6/TxuI8j3xhVFQcZpdflOUdZx+eabh+jlhVgOMs8dve28zbtZXm3lxZuq7T9aD3RduRYy9dF1nWSHjdrjLL2PTU95zHkvo4DTb/mi6OdAoyNCxeX9kXq5etu03Ow+tI5ibHp//1yPad9BP+S168QAcZHz1XrlyxRSz/qmJe3mtbk/kxt2a7Xq/aqgRtru8Pg4QXluy8Szf1oKk+AYY5H3frUOte67XIFGMffpwb36onbXlAvHG+9ppYaDwHG3xkBxuH/oKcWQ98Vxyd+iOYKMOJPkXDNG8uS5mss3krRLuGFNIU9X3bPa7cyw4tWBl3tFD41u+o51gY8R8X8+REGGC0IL0SjAwxp+KJGNU+T42p43U2wu7Evc89378PomrmAXrbUQOZt5MxGXtZhN/qB9HHkH6OEcB+t/Q4kjyfPOcpaxjU9Y7+yAoyq4+ZeLjVGGeeuLO/20sJtGa8Lx0+OT7ZpT3c0/eltWmOUte+p6TmPIWN9LbvmC6KdAozhPUPqjg98rLQ/d//3iWpooNSUjVtyJ0o8JlL3/uXn9Jz2EvwLX7+2DzA++jO1cYvudLcvrz/EaFKTu/SJHXqlkfAtKlVrnXpJXn+00cSLva5l3TVwa3pfSlWEAOPT15XPq9g7oDZedmz6tbrmf/lMfdfHmWqhfQ0QYLS1vjvuSfwgrRpgSHMijWmr/6ItDbI0xs3cD9lGu9ztIHcRFOWhne0UXhTlbpXRVj3XqnwvN+D7x/z5sfzEz0fnvQUaHWBI8xM1qjmabGdTpqdZr2ufAEOOK3s/Kivvj+yva/zSx5F/jBLCc5Tez+Tx5DlHGcvEDW1iv9zLRsdkBhh5tivc5y/fGJnybi8t3Ja5Xj2ut1yRfHil+zpxbdPe14x9T32P5TyGpgQYsu16r/liaKcAQzx/2Q2l/ZF6/PjWfMx2uzgwPKJ+96XvJMbk5Tm367ntJfgXvn7tHmDMv2iJ2m02+fWGGE1ocudfVG8III3/SWrdWvPAajM4371PYdUYYIy8tkStv2tR7tpa+hchZ4BxuyPACGuaemmNGQDtVYN3navmm6/VtXRJvJzjmAgw2lpNz8CQhsd8EGOraizCC6lmHafsv2t6Vsnyjb7TpJ6GN0/JeuPwopVBV7OOr12r1reByPMpcn5yULUyf34sP+fy6Ny3QGMDjKgZKzV2erlEcyZNU6kJSzdlUfOUnCbSTWuSe767ORxdM1duyJNlrS9DuL4Tr1W3GG8/MKWPI/8YJbgCBtcxVj1H5eMtvy5qaM+X/bLGNl62dA3E+2FOEzm2m3X+XOc6vY+BYBulr3NtLy1cb2L7ep+s8+28pvQ2zeN27Xt8PsvLBduQ8XUcT9Vj0OOdeF3AuX81LBuPb7Lc13ARtVuAsX/nLnXfYZNK+yTVc+x31a5N/XqJ8eP91/+gfnfU1MRYLPzEMXpu+wn+ha9fEd5CkgoKttURYphN7toGNLnmWyCCxnvHE+5m3103q2fn9xnPzVin+krzFqu+Beay7lr1Pcc+xVVjgFHrW1fKDyzNGWBU3Nax6tklA3puNJ8AI21cBBjxbeHtEF70P9H8/bA+saKl1ei7GGQM5Xy65o2mzPBi54bWhRdSo3yuQ6Gq1mOVO1MaeDeP+fOjOAGGbqZTjUyyEo2qbpLK891NlPnaUrMUNmZxw2iWuY70/HJDZs4LXhM3gEbJsqVAIC6jITTnlfYt1fTqcbEabSdXEypS42QsU3WMMjjWmTg3sWrnKJBsYKUB12ObOmbrGrHPobm/Fbabbpjd88zmO/Uae2xyHGeZdV0Z6wqvidJxp6+/xJjk3GbyGpRlrGtXL5e9Ptf3ZjCvHa75Ami3AEO89XhvaZ/Mev7yG9XAc2vUwQMH9JL+kTsuti1brVZefI1zDN5e8YJesv0E/8LXrygP8XzYbPgDI68tUj1miHH0z9RLjka/VIvLr891x8HPK3wayPF3qoH39MoC5ab7WPX0Q5vVyN4+tf7k7GdhJAOZvWrrbL3s8bepLfK2iu3L1bOfTr8udxUqwJCapJY+slntWJH9QE8CDM8DjDi8aOWDGKXGKrxowidW1F2N/sQRGcNmPDdExkxCC9Hqu3TGU3ghQVut10eD34pk/vwo3B0Y41bUVLpCAHeT5zPdYHvSwCLL+Ljm2zHAEPLzON4vV93/kX9SD/ztl7yq+w7/gvNYw/qzv1d/eOBRPTrtKfgXvn5FCTCk0iHGfeWG12xiGyGrEbbCi8x92Bs0964HU1rPvTDvOEgcX863ypQb+/zCt59UChWMj5zd8cis5LygGh9gZNSnTyo974IAw6MA49Zjkw1KHF7U+HGpDa/4r/sNuu29ECWNeCODABnDZrz1RsIL8+MyG3mOZJ9d07NqPH3iiBxrrQ/tbPSdN8H5MX9+EGAUhP7rt6uZC/9qTYAB34yTa75dAwzR/9Sz6oG/+3Jp/8ZrPfTJr4d3nrS74F/4+hUpwAj/Um817LsX6wZ7LAKMz9+ZCB8S4YWuRAjhDDEmqYUXLVKDEoJISGHNM4/PtX67mhJgVAkcag4wzq0WMByrHj59llp1+yK1cVmf2rF9rxoZloXLYQUBRnEDjDe7H0/8YN3S80z57RPS7IpWPohRKg4vmn0HiNxa3y7NrzSnjQ4CmnH3ih1eNPIc1fPWCNd0H0vOZ63nsgnhzr5XkwHoqp9cqy+EsSfvLzb35eXr2/PBaO0h47b5Ck2evwgwxofxcc3//ttnl34Gdn34SD21Ns0KMMTBAwfVS9f+SnVZz8UYD3X/R7+o1v1yvh6J9hf8K1+/YgUYUtPU+vgdEttr+PjNKk25vYy7EZ6knl6wOQwoUm9hMZYpNdvDA2rL7JOMeXeqgfiTRFbfp7qcbxOZpta9plOSbcvVqqNdy5Rr4UV3pt/+siJ+psReNbjYmhdU+PyMsQww/v19qtR+9C1WT//8PrV+8Qtq8M0dasQIhFwGb4/WQYBR3ABj4LkXEz9g1//2gagh3Xh/tIAEB47GZcwqDi9afQfIaEqOwTU9q2T5Rv6lPB7DRn8Eqx1eNPKtKfW8dWa83Hkh1Q7PaAnO0bsvv5b4+dHKX87kYXHmvjTjl2+/6MY9UfbDQ3023o9/PPL/nD/yhW+VfgYu+uwJemptmhlgmLY+/Zx6cfZNavnZs9ST3zjTv/rmWWr5jy5TL/5srnp7+fP6qIsj+Fe+fsULMII6/j418NqS2h7k2ZAAQ2qSenr2dVXujJim1i1Z7ghXjEa+UqN99H1q67I7MwKSHDXaZ2A0IMAIP/Z05p1q/YLlamDtQOKtP9WM7Nqhdr+2Tm1ZUH5YKQFGcQOMve8MlvZd6vffOlvPCUjT28qmMG68W30HyGir1tv8G/mMgmYFQHZ4IYGXa7l6So6/1rtPihxe1Bpw1RNeNHp8ZB8C8pc08+fHlsVPh9NbZcHfTy7ty4MfP1pPBQD/7XpzS+Ln8TPf/Rc9pzZjFWCgvQX/0tevkAFGPVVq6kcZYJx+n9q6tk8N1lVGI79rwDE/by1Wz7r2La4WBhirlu3Qb//IYe9etW9LnxpYslitv/k61fPtk5yfQCJFgFHcAEP0fP27pf2XevelV6MZrfwrb9x4N7IxbkXVOobytolGNZvNCoDi56LEGhl0ybqLfLdNrSVBkGt6VrXD25zkutLh1YK//2rp58bd/31iOK2VnrvgZ4mfZRsffEzPAQC/rZ55XeLn34b7f6fn1IYAAyL4175+BBhG5WmEzWVapvJbN+bftVkvN/YBRs8j5Y9ELTEDjV3r1Eunn1l6OGfeIsAodoDx2m1dpf2XKt2FIZ8qUWuD1YiKG+9GNsatKAkvatl/Wb5Rz6ho1hja4YU0srXeYZJVsm55TodrXiOrXa4p+d6qdewaNdajKTlHgeevuDHxc2PZWbPC6a20tXdlYp+6/3GK2v/+Tj0XAPwkb1Ewf/bd8xefUcN7hvTc2hBgQAT/2tePAMOoPI1wAe7AqNjsx9WkAOOX1y1XO17rU1sXL1Lrfj5L9Rx/bDD9Z2pL/Mkt79kPLrXqoyephY5ngxBgFDvAEPJeyfgYEv9wSYM6lndixI23hCdFDi/kOGp5G4Q0s416aGc8ho0MF6Ts8EI0ap/l+OWcN7tBl7FxTc8q2a9mXIey3lqfSdIO3w/y9p7Aq7fenfh5IbXzD3E431pPnzojsV/yULvh3Xv0XADwy7trXlULJpTfPie19obf6Lm1I8CACP7Fr994DDDCT+FwLdP0RjjnMzBGWS0NMJx1kup7U7+kymuWPhHs+/AONXjXLNVlTvcowOj+zJFqx6vfr7ve7/2hPthi2fTI7xP/+Ek9eeJ09c6ql6IFpHl1NTSNLvnrrjTejf60jLGuWp9jUesnblQqCS9EIz/FxBVeNOoTR6SZl3PeyGd/uKrWIE72qxnXoYQojXzg6VjVPR9QuzeuVyt+/NPUz4o1V9+qL4rWe+/VN9Td/2NiYv8koN38WGufzwEAjfba7fepu/7bJxM/7x798kl6bn0IMCCCf/XrV7wA4yL19LnyV33XvOwy39rgT4Bxklp6a/pTRjbGn2KS8Skk62/9mVqYM8BwjVXtAUbO13xvidqtlwqDinPL87wKMD47PgMMIZ8gYP4jGFfPsd9V634xT22Y+Tm15bx/17z6zcXhx7humfUR9/yi1I0nqi0X/Il7nqsu/u/u6fVUPIayD6759VS8TrNkmmvZWuuC/6y2PHSf2nLvL9zzG1VXHVnbOZH9uvZo97zRlKxXjrWWfWlxbTzr/6tePeU/qSXf+I664798LPXzYdmZM/VPkPbhCmSlHvmnb6s1P79F9d3Tnb6mKYqi2r0WP61en79Arbzw5+GDiu2fcfcd/oVR3w1HgAExvgKM2S+Eb8PYt3aRetr5MaTuKjfADQwwan47yejeQrL19nOtfTDemlELeRtHpQCjyt0q9QQY1e8KCY5lu14kIPtkPtCTOzDKVeQAQ7xy852pfxApiqJctWLGT/VPjvbz5kM9qb9MUhRF+Vpyp9ngy6UmoG4EGBDjKsB4dll8d0EgaFbn5wwRdpjNcZ97mcG+csiRChiW3ad67P0xG+cxkH47R3MCjPJDQPeqrbPN7UVVT4Bh3gEzcKM9f1IiYFLbg/2zHvLpU4Dx8Bf+SQ3c872aakfvGeUQY+kZ+mCLa8viZ8K/VNr/OFIURUnd/zdHqdd+fa/+idG+3l3zSvhWONcxUBRF+VLPnnu5Gt5Vvk96NAgwIMZRgJFs2AdunjR2IYLr4ZPmtrdvTgYezqrjDgwjVEkHGO7KFTBUCDASYYHxNo646gkwfnl7+a6OHQtOSsybf+O68rhk3KHhU4BRz0M8dy4/qxRgyH/74o27HgofgHfHB9K3jVMUNf7qsa+eGj4c7sD+vJ/H3R42/e4p1fu9i8In87uOi6Ioqmi14O8nhx8dvf3FV/RPusYgwIAYPwHG6cYzEobXqZfkr/TnLlE7du1VI1XK5lqmYr25RD1t70+FEMBddTwDo+ZtTFLr46wgGKMXnMsElble4/UZAUVdAYaxvZEVN5enHx+MSen07FWD86clX6eLAMPPACM2MrRXvfdan+pf8qzaHDQCYXU/rDb/5K/V5nP+j2TN+BO1ueu28nJSvzgtvZzUZZ+I5svyM/7UvUxWzflGtC3XPFdd/dXkPpW2m7EOWX72ke55rpJjyTrORpSMtWt/Z38+fVx2LbjXfa5kDGX+ry8qT5P1y9f2OqRkefP19VaefZ57VuVjrbYv8lrzOpTrVV7vWjYueY0sJ8vfdYPafOF/dy9Xa8XXnpyHavtQb8n5dZ3j0VYwzlse71Xvvvya2ru9nlsK28+OvjfVtqWrytcGRVFUgWrguRfVrk1v6Z9ojTdWAca2ZavDB0A/e96V6vdTfzTm9dR3zgnfBvnStb9SAyvX6L1CbNwEGObbENSa25zLOMsMPkKbVd/xjuVqrbYMMIy7VIYH1MaLJjmWCSpzvTerrbv0jPdeUC+cfq7qOf1MtdB4S0ddAYZ57G8uVgtl2qevSzz3QoIN87kXZhFg+B1gZLI/YjX++E4X+XQR8yMs40+ekKr14yHjT8SQj92U9biWMSvelovsr70OWf/G+5PTKpUcl+yLWP+r5HE2ou75QHn/5X/j/a10XDZZzvykEzlvpni/s85fLeMhJfvsml7vPsu+2a+TfbbXH5dcby5yHFnnx/Wa1Re6l5WSMaz26Tyu45V9yBqfeirehlQjrz3zugMAjAvNDjBevv52df9HjirdSdIuteCIr6hX5t6l9xLBbwH1K06Aca7auE3vdCD9HIXsWrgg/bTcSs1y7qopXJimXlhRfjtIpbsNEjWakEQMD6gtrhAja71mGFCSDA3qCzCM8yd3hnw0+dDOkS1LUs+9MIsAY5wGGDFp4io1v7E4cDCXrfXjJKWhNUmDVamJdDW+Npkv+yXLx+uXaZWaV7PkGEzy2kZ9JGjWuMr6qx2XixxTVoiQtT6ZXkvIFO+zlNmo57lGXKThl3JxhRgyrRK5Du2PVJVxySL7bC8vxxKHVlnXX6UAQKZnXV9ybuPrsVrZYyr/LdNcy0rlXa9UVggEAPBWswKMrc+sVA9+7Kup4KDdqvvTx6t3Vr+s93r8Cn4LqF9hAgzzLopdL6hVrmWcdZERfAyo3Vv0fwb/vfF7ruVrqLzhwkfPVevXpt/GEoYYd52bCFK6Pm1+ROwk1fNQOXyxnx3hLP0pLUlB03+Z9dGzGfv++8Xlu1z2vecODeoLMD6sVq0oj8G+94zxcDy00y4CjHEeYIi4mcvDXjbvXQtZjbdwBSG1NMyyXmlE7fW7ml2z7DsZTNIA2g2jfC37lPcv8NWa8XpkjWEl9h00lcpsfGVbcZjTjGMR5vVTyzbiAKHSOTTJNRZvxw6tZLsyPa68154sY15fcn0IGbc8YYNrG1l3y8RjkyeYk3MGABh3mhFgvHHnwlRQYFbXX30+/AjYsax7//Jzzn2RuvOQj6uNCxfrvR+fgt8E6leUAMN8+0jiGQpVKvGAyL5F6mGzwX9zsXrY8ZrclSfA+PR1auMWV3gR26t2P1L+yNBSkz+8V40knmHm/kQQu8qNvlIDi43GPmj8t15n3PFx9M/US3ctUuuDeukiHYx81Hj7iNqstpbuGHGEBvVUcC5S9vapdTnezkOAQYAxatWaemkIqzXedpPdyIY567b/PMGN2fjGDacci/mWDle1WxMp+1wpzJHKupOh2X/Nl3GtZ7zkddWuK5Oc76xjNIMUV7BQSfxa83XVQoxK17cd6NnLyvVsfq+YVenOEQCA1xodYPT/fnkqIJBaPXNO+ByMkb3lbmisyTPetj69InwYqr1/d/zZ34/rZ2MEvw3UrxgBhnkXRb5GPix5m4L9qSX/fprqe1NPCEjwUPdbSaoEGPNPvlMNGNvft2Zd+S6SvuWJt1DsW3On6vmo++0uYiRozKuHLeY49al1wfq6LkuGGAM3Z79t5WFz28H+VAwN6qmTFyefRVIhvJj/5WmJ524QYBBgNERWw2Y3dpVIgynraEbzL/tn/vU6q5F1kde63gaR9dfwvHcFtELWPttv7xmP5DptZHCW9T2RZxvxW7uy3n4Tf6/Y62522AQAaFuNDDCGd+1R9/31PyWCgcVHn6Z2bNikl2gf773yhnpk0jcT+7rwH76m544/wW8D9StEgPG95NtHnnUtk6pJibsREh+Daq5P5XwWhatcdzGENUn13LrOCA6U2r3sNvWw/RBPeYil8VwP9V6fWn/dIrU18VGqL6iNN89SXeZ2s+oy4+6SYP1xMPPw/L7Ex5Q6Q4yjzU8DiUKC6gFG8JrhHWpwyX1q6ZczHhaqq+uyYMwTN6LsVQPXuZeVCrc9vFfte225eul7EmicqXocDxQNiwADtbKfKVBrQ9jsvx5Lkyr72Cj2X8OL8Bdw+24X/mrfXOb3RC3hXLU7hOSc1btuAIB3GhlgPH/FLxKBQM/Xv6fntCe5G+R3/zQ1sc/y0eHjUfAbQf2KEGA8u6zc+Y4su865TLImqZ67zKY9aJZvTDbYS58wwo2gQU+8vWI09elZav1ac9171Y4Fs3SYYAUYMu2js1Rfn9nZB8svuS28GyO17oo1Sb1k3IUU3W1SnpcIc1KhzTS17jVjjNfeF35KSK4AQy+RCIgSdax6dvFm41wY1txZClnsWrdWLxPsa9U7bggwUA8JLaShquUuhyKTUET+Gl7L3SatJs2v3ClSpH0uMgkaGhmcmeT7Ta4/AMC41qgAQ96eccchHy8FAXf9t0+qPVuNT6xsU++/vrG0z1JdH/68njO+eB5gXGc8lyFoZi9zLWOWHV4EF/ia2xyNcrJpTwYN9VSw3RuXJ+8y2DugNiYenukIMMKSJn8g2eTv3ay23Jh8wGfFOn6xKkUUzrtUrJCib5HqCadb4cbwZrVev62jaoBxtLFNV3Bw/G1qy5vmgMh2l6uB0l0nWcGI+Ykzm1Xf0a5ljCLAQL3GW1MsgUARb9/nLQcAAHhBPoVDGveVF1oPq67Rxod6EkHAS9c08O2VTbZ65nWJfe9/6lk9Z/zwOsCYf7Px4Meqnz5yrHp2iZW8VfqEC+ujPMW+tYvU0592LFuh5p/saNTfXKKeTa0nK8CISt5msSO5GiVvK+mbXS3ImKReWFN+4e7FFzmWCUof70hwjNEdHpPU0wvMuyOSd2ZUDTCM4CD5YNVj1dN39al91kNIdy++LnwrzML5fXpaQM5P6XVx3aYG4tdm3tlhFAEGAAAA0PZ+98XvhE378rNn6Sn1Wf6jyxIhwI43Nuo57U8+RtXcdwk0xhuPA4yT1Hqj16346SPy13770z7eW6deqvYJF/IcCivEUPJch7uqP3di/sk3q77E20UCFV9bOcAI66PnqpdWW+sUuwbUwEM3q987wpX55ierDPepdZXuWPj0sXrf7PBCpR5oWjXAuL18cvY9MSuYNkktvGiRGjQeXBraO6C2JN6iYz5sNL3dxEfmrs0RSBBgAAAAAG3viRPOCJv2Jaecp6fUJ16P1P1/c5SeWhzylpd4/5/57r/oqeOHxwHGz9T61+ImOutZCK6/9gfyhBdxffRn7o863bVZbb09HUZ0fc8RXARG3lyuXji50sMscwQYurrOvU9tte7qiO3b0qe23Kzvskh89KlSux/JuPsiUdPUC8uSd6q4PuXkaeM5IclnakhNKn/ka2Dw9mDa0cG+WGGQ+06UD6v5FxmhQ2DfivJzPxZ2lT8NZfcj56ZemyzrLTBrbnMs015FgAEAAIDxSJp1adoXfe4EPaU+iz57QikAeOQL39JTi+PBjx9d2v/Fx5yup44fnj8DQzfza4NGODH9WPX7m5erHUbzHhvZsiT7bSOZFTT1S6znUMTe029d+UK6QQ+916c25npeRf4AI6pJqmf2YjWY2uYOteUiCRSs53jI2y2qHXfqoaEVxutG4+078haQ14xPR0kEPpvV+viuj+ODY5RZOZ7hkfx0lMCugWDdm40wyrjz49wlwbneq0Z27aiwH8ErFpifBtOeRYABAACA8WjNVXPDpv2OD3wsfBBnvbr/MXoYqNRjXzlFTy2O7onHlfd/cvH2f7S8DzCclfgo1NhetUM/Z8H5mhyVfg5FHBZE8xNNd9Cku+7QyK5aA4y4ordmDGyLdqz0lovE3RfJ/XTWiTpcMIz0LVZPZ4Ye6WeEuNhvAZl/8kU5P0Vlklr6RIWnBSceRmqMXZa9Vd4+0yZFgAEAAIDxaOszK0uN+x8WPKan1o4Ao9jGZ4ARVCJMkLeMVHz7Rg310XPVC0s2q5Fh++NGpYKm+5F1NQYXcdUbYJSr63sXJd7qEb8VI/UcCWcl326xb82dqbeNpEo+Fnb1gNoX3v1g1fbNamuOZ4VUrujTW1IPL00FMj9TW+xna5i296n1Zzfo/De5CDAAAAAwHo3s3Vf6+NPHvnqqnlo7AoxiG7cBhjS/Lyzrq+3jRmupj05q8HrvVANx87/6Tsf8emqSWnrjbdWDiFLJXQ+b1eCoPjK2GXWsenjmnWr9XYuCulMt/XI6jJj/5TNVz+nnWnWmWljz24VaWwQYAAAAGK+W/vCSUvP+1hNL9dTaEGAU2zgOMCiqeEWAAQAAgPFqx4ZNpeb93r/4TPh1rQgwio0Ag6IKVAQYAAAAGM/W/PyWUgN/74c+qwaee1HPyYcAo9gIMCiqQEWAAQAAgPHuyRPPLDXxUk9840y1+bElem5lBBjFRoBBUQUqAgwAAABAqXW/nF9q5OOSt5UsO+tS9eJVczOr67BJpeUJMIqHAIOiClQEGAAAAEBk6O131POX36ju/cvPlZr6WooAo3gIMCiqQEWAAQAAAKRtfWalWn3pnPAjVhf+z6+Fd2OYYYWrCDCKhwCDogpUBBgAAABA/XgGRrERYFBUgYoAAwAAAKgfAUaxEWBQVIGKAAMAAACoHwFGsRFgUFSBigADAAAAqF+tAca2e05WX/ujP1W3PKsnBNZc8afBtJPVI1v0BPWcuiVY5msn3q+26SnOaVvuV+fLtCue0xPc66+EAGMUCDAoamyLAAMAAACoHwFGsRFgUFSBigADAAAAqB9vISk2AgyKKlARYAAAAAD1I8AoNgIMiipQEWAAAAAA9SPAKDYCDIoqUBFgAAAAAPV77OjTSgHAwk8co6cWR9dffb60/7//9o/01PFjVAHGrv63nU0WRVHNqafPuUx/9+VHgAEAAABEnj79glIAcMchH1cH9u3Xc9rf0NvbS/su9ex5V+o548eoAgx18KD65X84zNloURTV+Fr187n6my8/AgwAAAAgsvYX8xIhwJuLntBz2t8bdy5M7Pvr8xfoOePH6AKMwD3/82hno0VRVOOrb+Fi/Z2XHwEGAAAAEHl//YZECPDY5FP1nPa36DP/nNj3Pdve0XPGj1EHGMt/co2z0aIoqrF183/6iBqp4xY3AgwAAACg7Il/PiMRBLw85zY9p309f/mNiX1++vTan43ng1EHGG+vWuNstiiKamw9ftqP9XddbQgwAAAAgLJty1YnwgCpV+beqee2n5eu/XVqf999+TU9d3wZdYAhnvzevzgbLoqiGlfvvvqG/o6rDQEGAAAAkLT60jmpUOCZaReowXWv6yVa753nX1ZPfeec1H6+dM2v9BLjT0MCjB0bt6jbD/2Us+miKGr0teKy6/V3W+0IMAAAAIC0Jaf8OBUOSD0y6Vtq+dmXqRdn36TWXH3rmNYLP/2lWnbWpWrRZ09w7tuy6TP13o9PDQkwxKbHn3E2XhRFja56Tj1Pf5fVhwADAAAAcHvugp85g4J2rOcvu0Hv9fjVsABDbPzd79Wv//wTziaMoqja66kzL9HfXfUjwAAAAACybbj/d6r7H6c4Q4N2KLkjpEgf99pMDQ0whLxP/3cnnuFsxiiKyle3HzpRrfnlPP1dNToEGAAAAEB1Gx98TPX+4GJ131//kzNIGMt64KNfVMumX0pwYWl4gBF7s+dp9cR3L1C3/f/+wdmgURSVrgVfOFGtvvoWNbJ3r/5OGj0CDAAAAKA2Bw8cUHv63x772joQbPyg3gvYmhZgmN7ve1O9tXSl+sPDT1IUZdWbjy1R76x5RQ0NvKu/YxqLAAMAAACAD8YkwADQOgQYAAAAAHxAgAF4jgADAAAAgA8IMADPEWAAAAAA8AEBBuA5AgwAAAAAPiDAADxHgAEAAADABwQYgOcIMAAAAAD4gAAD8BwBBgAAAAAfEGAAniPAAAAAAOADAgzAcwQYAAAAAHxAgAF4jgADAAAAgA8IMADPEWAAAAAA8AEBBuA5AgwAAAAAPiDAADxHgAEAAADABwQYgOcIMAAAAAD4gAAD8BwBBgAAAAAfEGAAniPAAAAAAOADAgzAcwQYAAAAAHxAgAF4jgADAAAAgA8IMADPEWAAAAAA8AEBBuA5AgwAAAAAPiDAADxHgAEAAADABwQYgOcIMAAAAAD4gAAD8BwBBgAAAAAfEGAAniPAAAAAAOADAgzAcwQYAAAAAHxAgAF4jgADAAAAgA8IMADPEWAAAAAA8AEBBuA5AgwAAAAAPiDAADxHgAEAAADABwQYgOcIMAAAAAD4gAAD8BwBBgAAAAAfEGAAniPAAAAAAOADAgzAcwQYAAAAAHxAgAF4jgADAAAAgA8IMADPEWAAAAAA8AEBBuA5AgwAAAAAPiDAADxHgAEAAADABwQYgOcIMAAAAAD4gAAD8BwBBgAAAAAfEGAAniPAAAAAAOADAgzAcz4HGNufWa5enz1HrfnBeWrV8aeoFZNPpMZhrQzO/Zrvn6dev/JatX3JUnXwwAF9hQAAAMAnBBiA53wMMN6690H17Fe+oZ75h6MoKlXLv3i82nLX/fpqAQAAgC8IMADP+RRg7O3fptZ871xn00pRdr142llqaNMWffUAAACg6AgwAM/5EmDsWv+GWvHVE52N6srjTlJrvnuOWnvuJcWuL349qmlnu+e3Q8m+feaLau0Xjql9P79xqlp70g/c8yrV2RdG4yLb/fq3U/Ml1Fo55WTntfHsl45XO15+RV9FAAAAKDICDMBzPgQYI7t3q9Xf+m6qOe27+hdq9xsb9FIFd+edSk2eXK7rrlNq2zY9s42cemp6P3ft0jMrePzx8mvuuktPzGn69PQ2HXZv2Kj6fn5D6jqR56Psf+99vRQAAACKigAD8JwPAcb6y69ONKQrjv6Wem/Vi3qutnx5vka6VrLOCy5ozrpjElSccEKySZeSabU2+81khyzmfj70kF7Ioa8v/ZrLL883phJW2K+Vcp0TCUmCfdnxu57wrhzzmnn1kp/qhQAAAFBUBBiA54oeYOx46ZVEI7r0c0erXeuDhtgU/3Vf/lJfS9Agy770kv7CQebHf/2vdd0xCVakga9EmnGzObdL7nqQ9dRK9rfatl3kdbJP5mtdIYRdMkb29uRrVziTtbwpK7yIyzwnch7j6cH29ix+Qi3/p+MS1857q63QCwAAAIVCgAF4rugBxvrLr0k0odu6H9VzNLlDIauprUaWlddIAGKTdcTzzXVXarht8b5JAJG1T+ZbK6qV3LUgZB9c+2yT5SU8yLNsTNYdv03EHMtqIYtZcdjiGkO7ZP9cIVK18CIuWb+83hGSvH1N8u0k3IUBAABQbAQYgOeKHmA8++V/LjWgq7/1PT1Vy2pyzcY7i/1a+TpWqfGWRrlaiCGvt9cfhw+mrLeOZFV8N0f8mkrBhL39PG9FkfXb+yPrWbgwOa1SnXJKeeyrhRdmmW9Bsfd9FPXC16eWrp9lR35NbwAAAABFRIABeK7IAcau1/tKzafUxptv13MC1ZrcSiFG1mvj10jY4JofV6UQo1L4YQcOtTT48TMf7IDBFWLINHOZuOS4s8Yk6zW1Vnz3Ra0hRBx8ZD1no87adOSXE9cQn0gCAABQXAQYgOeKHGC8u+y5RPP5zhNPRzPyNseuEKNRjborxKgUXkiZr6mlUf/nf45el7VuGY+Y+SwIVzVzTOK7TGoNIeLja9R+GPXuP30leQ091RvtIwAAAAqHAAPwXJEDjG0PL040n++/+HLtf9k3G/ZGN8gSSMQfdVopYDBLlpG7FFzzsuqWW6qvW8ZF9sG+Q8NVZpBiP0Ok3pIQQsainjGW8WhCeCG184vJAKP/gUXRcQMAAKBwCDAAz/kUYOy46CfOJrViNfGv++raa6MdzRsc1FPy1oo8wUitJftby4M5q5U8J6Pa3R+ukvPSpPBCahcBBgAAgDcIMADPeRVgBM2oq0nNrDi8qPWOhzw1FuFFUerMM+sbBxnDZpwbowgwAAAA/EGAAXhu3AYYcXjRjICB8CJZGR9jWrHkeRljMH4EGAAAAP4gwAA8Ny4DjPiOgGY0yLJueaYG4UVUeZ7PYZeMYT2hRx2VCjBu+Y2+ugAAAFA0BBiA58ZdgNHMgIHwIlnyfI5an6Mhd8aMUXghlQowvvK18ke9AgAAoFAIMADPFTrAuOv+RPNZNcCIAwapRj/4UhrveN2EF1Gdeqp7elaNcXghlQowJn05mvfQQ/oqAwAAQFEQYACeMwOMHcuCBr9Atk0/N9F8Vgwwmh1eyF0XzVj3eCr5tJExHr/MAENKwhQAAAAUBgEG4LmdK84uBxi9Z6iDIwf0nPa37QtfTjSfmQGGeXcE4UV7lnzMagvGLzPAkGd3AAAAoFAIMADP7XzuR0aA8UO1+40/6DntL3eAIQGDuO469/zRlNw1QHgxupJPbWnR+DkDjPhTZAAAAFAoBBiA53atPCcRYAw8vkTPaXMvvZQvwIj/kn7nnel5o63xGF7M+rlS1wQ1916lnnwqqKVKvb5JqbWLy8v8y5XRMnnq0UeUuv+25DbC+nUwtsF52/WiY17jKhVgnDA1OqcAAAAoHAIMwHO7Vp2bCDDe/NV8PafNVQow5G0d8ukXUtu2RUGD1biOuuK/0l9+uXt+UWrOvUqt3aTURqM2Dyo1tL9cI9GhVha8Ll7nmhoDgDW/Tu5TWC0KMO5+INonAAAAFA4BBuC53c//OBFghEHAS+v03Da2bZvadvGsRPO547nVeqahER9p2hM05057lfpVvNxiPc2hx1hXu9XcF/VOBkaM0ELqnW3B/8r0XcE4BsuFd1wE1T2vfAfF2Y513raovKzU6zrQ6FtanvbcSqVeejn679suVGqZhCfB/NJ6WhRgPBDsOwAAAAqJAAPw3O4Xz08FGC+cOl3PbW/bHl6caD5TwYu8FaBhH8l5avLOgpUZb0m5zQgEXl/gXqYIdfbNSvXvj45j1yal5jiWmRxcJ/9S7aNSg/mbZSWD5XXIHTLy1h5zuXAZ4y4OAgwAAADUiAAD8JwrwJB65/fP6CXaV8UAoxnPpuh6Ra88aMZd88PSjbdo5zsvMutUpR58Uakwuwj+35oFSp3uWG5WMP2dYP5IMBZ3X5ieH9fFT4VDoQZXRl+7wgupdgkwbuTTRwAAAIqKAAPwXFaAIdXuz8OoGGA0+hNHpPHevkev3Gy07SpwgHHVgmBQ9V0X214MvnbdXRFMe6Sv/FyMjU+530YS15Jt0XJr743ecnLvPeW3n5hvQWmXAEM+hUSuHR7kCQAAUDgEGIDnEgHGsjMTzZyUvJ1k+9PL1J4/vKlGhuSBCO0jM8BoxkM7X3pJqfXvRusfVYAhdzisVOp9HRSI/cELnrzZsez0YHpfsD5jWfF+sP1fmuGCsc2Q7F8wX14bnzJ5vkVWKDFrnlJrddCwP/jf7mBfSiFDMC9+bsUzwesH9b7Icg8G8+11Jer68GaViuIxaqcAQ+bJw1kBAABQKAQYgOfMAEMe6Ln6xGmJhs6uZ798gnr+Oz9Qa37w45bXqhNOS+xbGGA04qGddkkgIuv9VdBMh+oNME5V6nnd0ctzJeRhmL9dHL0VQ2w0PopU6sFgm0LCgt9eqdS/zAxeo9/Gsj94/cXGslJXPaXvjAh2YGUwf3+wrZUSPqw0godg+izzdRcq1R/Nyk3uunC9rcSueP8lOJGHdj7dWw5DNuv9eVAv204BhtxtI59eAwAAgEIhwAA8lwgwgv/evWGjeuGU9J0YRajwU0ga/dwLeV5DHIqMNsCYEzTxoaA5NkOE0+/Vd0oETf0dxvQ5QaMv0/vMh4GeWg4cnrGfPWFsOxVUzCy/zn64qDzzQj4+dW2wf2HAsEjffXG9Uo8G8+K7OLa9otRcGd9gH+a67hgxK777ItihB860QqVgv8N8IPh/cQjTTgHGwoWyMwAAACgYAgzAc3aAEXt36Qq1/rKr1dLPHZ1o8Nq5dlz0E2eTWndde230l/i4+S4FGDnZAcYKfffFZutOC6lX9R0Ja4LG3Z5nV+ayRoDx6r3WvKDu1ndvDAX/a8+za+5T5bs2hoIxMN8uEh9H36LsOzHiuy/6n1bqVOttK/aDPaXaJcD4zmmyIwAAACggAgzAc1kBRmxv/zY10POU2nTbneq1S69SL552llp+1JRE09cutSNoRl1Nal115plReGHe0THaOzDCJj3gCinij2h1hRt2xctWCjBSb18J6uKleqZx54NdcxYFs3VwIW9dedRxp8XpwbR+vcw7K9MP8SzdUTKo1K/nB+sLxst8Zkf8YM+V15entUuA8Zu7ZEcAAABQQAQYgOeqBRjtLPUQz0YFGKeckg4vpBoVYFSSCDCC7XctDfYlWOGQDgxMtQYYk4N1h4KFfmVMP/3CaDvxszjkjos4uDh7pvFAT13d8jaTleVt7eoz3q5yajlgWf+gUnfEYxZMeyBYV2kfrRAlDjBKd2u0KMB4YJHsCAAAAAqIAAPwHAGGVfIAR3nmhetjWBsVYCy7Ph0KxDUrDk0uVGqjDhQGg/35rTT/ej313oHhDDDm6bslRknu1pC7LG7Uz/mQ4CF+e8ltwbTwUIL/t1HffSFvPzH3rV3uwCDAAAAAKCwCDMBzBBhWycelusILqdEGGBv1dNdbSOy6RgcB8jaMxMM4g8oTYDxpPXdCKustJCuCr+UOj3eC45KHeSYe6BlU+IkhwYofMIKW0ttGgu2UPllFnq1xvVLb31PqNmv7vwy2rfOY8JjmGPOkBmQ6AQYAAADqR4ABeK7QAcYD3Ynmc9QBhnxcqpRrntRoA4z44ZfbgmbenO6qeFupBv7U8qeJVAowXA/xjB+sWekhntLA28+0CAOToOK7Nk4PtpN4NkawTyuC/YyDltMd4Yl8Ckr80an2fl9wAXdgAAAAYNQIMADPFTrAuP7mRPM5qgBDPi61UnghddsoA4z40zdkAfsOhdN/HjTx25S6Rn8919iW+Ukfs+K7KAKVAoyRYF1ZH6O6dp4xPa5gf54MtiX29yk1w5hnBxjxp6C8Y4QWFStYd3zXyPvBa8zjkYelyqe8LAu2vdEMdsYowJhzY+IaIsAAAAAoLgIMwHOFDjAa9RYS+bhUee5F/HGpzpoeNP5xOhA08A9YD/iM6w79UaXi9QXp+T06JAifBxE05/IWjTXBNMkEJDgoNffXh++0CL0TrDNebiioJ/WdFP3BtMT64wAj+H99wYv3B7UyWEYeuBl/JOr+4PWp0CE4lpV6Y/IaO1xJ3YHx82D9eixGguXNj1hNVbCuZ/RzL2Qd5rovvzz9oNRSjUGAceaZatf6vsQ1RIABAABQXAQYgOe8CjC+8S13o1qp5A6AauFFKXSwGU196QGZDvadGHOfUuodHQCIkf1KbV6ZDhZmLQgO0lju/WA/5EGZpedjiGBa6TXGHRiPBsvJHRU6twi3se1FpW4JzrG5DfMjUROfJmKUHWCEZQYTgbXBvpp3VsTLxG+bkdeHn0Ki58m4Z4YXUk0OMORhrcH2d51xVuIaIsAAAAAoLgIMwHNeBRhfO87drGaVNNGuj0stbBkBhutTSKRpN7+eazxYsz/47ziA+JcrlbomKPn67Hl6ncE4mQ/+jMt8OOfgi+VlJBjZGO+MI7yQuy/ir6V+tUipJxcH+6QfErpMhyPylhNzuUaVPHcj+F+egQEAAOAPAgzAc14FGLW8heSUU9onvJBg4VTjrRV1V4UAQzfsiQrvLNmv1ErrmRjmnRWxwZXJZcySO0XkRos1ej1XLC6HGvHHq8bLyrHeeWf567jiB4zaVlyfXna0JeGJvuMmFWAcG0x/6KFgHOOBBAAAQFEQYACeG5cBhjTR8raRrI9LHcvSb2Vwzqu5MgIMCWsSy8V1qlJXGXdGxHXH0vLHqW4MxunJe9OfTGKX/ckjEo7IXR3m6+RYFy5MLhfXNYuNbQb1+otKdTUhvJCxMMY7FWBM+nI0TwKOu+4iyAAAACgQAgzAc4UOMK6ak2g+cwUYcXghnzrimj+WJfviujOi3rpqqR6ZQPxJI/J2jYoPJ62zZN9d0yuVjHkz9qWWsrafGWBIyTESYAAAABQGAQbguUIHGBfPSjSfuQKM5curf1zqWJQEC1l3I9Rcxp0XCbutB2+2sORtI234rJGKAYZcKwAAACgMAgzAc4UOMGp9C4kEFy+95J43ltXQ8CKj5K0SDXmuRgNKPqbWfmhnm1RmgCF3xgAAAKBQCDAAz42bAEPCi2oflzoWJeFFs0MUeetDq48zLjnedni7TkY5AwwZP3nAKwAAAAqFAAPw3LgIMCS8kGcZtPqOhDi8aGa4IM13M9+qUcu+y764PnGkjcoZYMjdMQAAACgcAgzAc94HGHF40ernL0h4MRZ3gLTLnRdSzX6bTAMqFWCcMFVfXQAAACgaAgzAc14FGLfrT96IS8IL0eqPS5XwQt6S0OwQRbbjmt6KavQnjjTpzpJUgHH3A9E1AwAAgMIhwAA8V+QAY/vTyxPN5/YlS6MHRkqzK2/VEK1+/sJYhRdyzK7prSh5AGYjj1eOrUnncfCoZIAx8PhT0XUDAACAwiHAADxX5ABj5yvrE83n5vld0Yz4AYxyB4ajaR2zkvBC3r7S6jtARlO1BiNyzI38xBHZvpzHJr015q1JX05cQ++/oIMvAAAAFA4BBuC5IgcYB4eH1dJPTy41n2u+d66eE2j1x6X6El7U8uBTWV7ugHHNq6dkfXIem/jw1ZePOjYRYIzs3q0vIAAAABQNAQbguSIHGOKVC2YlGtB3l66IZsjbGBwN65hUHF4U4CGWFavWMWzk2zwkvJCHnjbybg6r3jvp1MS1s/ZHF0XXDgAAAAqJAAPwXNEDjO1P9Saa0NUnTlMju3ZHAUIj7wbIW3F40eq3r4y2ag0vZPlGvc0jDi+a+BGsB35+tXp+6vcT187A4t/rqwoAAABFRIABeK7oAYZ4+ewLE43oS2eer/ZtfzeaOZYP8TzllCi8kObbNb8oJSFMLQ/hrHX5ShWHF018C9Dw3feEd1skrpkf/Di6XgAAAFBYBBiA53wIMHa9vkEt+/wxiYb0uWOnqq0PPhItMBZ3Q8SNt1STHjg5JiXHUcudK7J8o8MLCYGaMYannKK23TZfrZxycuJa6Z34ZbVz3WvRtQIAAIDCIsAAPOdDgCHst5LEtWzSserVi65QfVOnqTc//6Xm1BePUW/+/Hr15k23qTePPt69TFHq+2e7p2eVHLtreq0Vj+Gv5qs3v3GSe5k6a8PnvqRe/fq31PIvfN15jQz08NYRAAAAHxBgAJ7zJcAQg8tXqme/9M/OJpWi7Fo26etq+zPL9dUDAACAoiPAADznU4Ah9vZvU69feZ2zYaWouNZfdrUa2vyWvmoAAADgAwIMwHO+BRixXev71Ju/vkO9cMqZqedjUOOvln7uGPXCST9Ub946T+18db2+SgAA+P+3d2/PdlV1/ve59E/ILVXeWNUX7Z1UPTdS5UVTZdXTVFE8ze/Hrx4rP3+t8nRrm+Ch06BBmqYxjYIhthDQqEEaDY2JwQMGaZEAIoktJkACO0ACOyfYkH1Y+zye8Z1zjLXGGHPMueZch73XGvv9qvp2m3kcc861F/v72XPNBSAlBBhA4lINMELy1aoLF9/t1B1fVwv/99V+/d3fq4U3z/jL/fqQWvib/1FcVtaX+fsPFOd1q4f+I99XbF6sHviuPyYpGWfZNmRMf//Z+LxY7bwnH1Ns3iBKzpWM94tf8qfLfsPjCkvWi12rp5/J54fzZB8vn/C2sSwPBQUAAEDyCDCAxG2UACPK/bYN+SrQskb33Ll8vl329tvz6b1844h8I4qQfdX5tg9Zpoxswx2X1IEDzb51xX71q5Djuemm+HK9lozPZY+56rhi5JjkW0pk3YceMhM1Gbscg8yTYwcAAMCGRYABJG5DBxhCml5pfiWkqGIDBzfocJvqOnX//fl6Ltl/bFmpqlDFkvkSqMjybijw5z/njX24zbBkuVDVcTU5Xlk2Nv7nenxwpgQssXMo07tdPwAAACSPAANI3IYPMES3kKCKNM91goKqOw4kRAiDgbLmv4y9s8Ml68vdCu523aoak6wr893l5e4MmW4Dk24l5wYAAABYIwQYQOIIMAZAmvqqj17UuZPC/ZiKhBeDbP5l2+H46gYkEq7IuGR59y6HqmBEKhaoAAAAAENEgAEkjgBjgMI7FqSa3Ekhy8k2htX8y0c37N0iTfcRC1Rke3J84TFX3dkBAAAADAkBBpA4AowBk2DANvKDvpNiECQkGWRAIsdn7xyRkjs9AAAAgHVAgAEkjgBjCKSpl/Bio3yMQkIReS6G+40mAAAAwBojwAASR4AxJBuxkeebQAAAALCOCDCAxBFgAAAAAEgBAQaQOAIMAAAAACkgwAASR4ABAAAAIAUEGEDiCDAAAAAApIAAA0gcAQYAAACAFBBgAIkjwAAAAACQAgIMIHEEGAAAAABSQIABJI4AAwAAAEAKCDCAxBFgAAAAAEgBAQaQOAIMAAAAACkgwAASR4ABAAAAIAUEGEDiCDAAAAAApIAAA0gcAQYAAACAFBBgAIkjwAAAAACQAgIMIHEEGAAAAABSQIABJI4AAwAAAEAKCDCAxBFgAAAAAEgBAQaQOAIMAAAAACkgwAASR4ABAAAAIAUEGEDiCDAAAAAApIAAA0gcAQYAAACAFBBgAIkjwAAAAACQAgIMIHEEGAAAAABSQIABJI4AAwAAAEAKCDCAxBFgAAAAAEgBAQaQOAIMAAAAACkgwAASR4ABAAAAIAUEGEDiCDAAAAAApIAAA0gcAQYAAACAFBBgAIkjwAAAAACQAgIMIHEEGAAAAABSQIABJI4AAwAAAEAKCDCAxBFgAAAAAEgBAQaQuGQDjNVVpc6cUOr3jyn16x8qdeDflXr0WxRFrXXJz578DD53UKnTr+ifzRXzQwoAADBYBBhA4pIMMF55Xqn/vEupH/0LRVGjVo98U6mXnzM/rAAAAINDgAEkLqkAY+Y9pX79g3jTRFHUaNWv9ih16R3zwwsAANA/AgwgcckEGO+ezW9XjzVKPzO3sP/2J+Nd396u1L23KnXwgfj8USgZ2799MR9r03H+6C6lHtHXKjavqp54KN+f7HfP1+PLDLpknztvVuqn98Xnr2U9vjc+vd+S6yHn1Jac4277ekD/vLnr/PBOpX71ff0z+B3/Z9LWI3ofF98yP8QAAAD9IcAAEpdEgLE4r9Rju4vN0Qu/Uuq982ahMfeQbpivvrpT3/qWUufOmZkj5FOfKo5zZsbMrPDEE511/uM/zMSatmwp7rNMnbHUcfvtnf098ED97Q76msl+5fhvummwY/jzn/1zauv665V6ruTjHwcOxNeR14Rs770LSh35dfHnVMKN+VmzEQAAgN4RYACJSyLAePZnfkP003t0k/aGmWlIgzyMhl+22aR57IXsQxrHsDGUadLsD3PfTYQhizvOn+lrVGZioriOBAR1jkvCinBdqdg1kdeAjEX2149Yoy5NerftSuMvyzYJPLpxj78qXLDqjEGmx15vbsn6Ljn2uutcOKPP4bf9n9nDP83nAQAA9IEAA0jc2AcY0gy5jdCPdyg1FQQV9q/78pfqJo2jLCt/OS4j8+1f/5tu25KGsmofQppxtxEMS5rnbo1rjIy3l2beHrc7bglZYmNzK1xHVDW+snzV+MrCC1vuNZH92ulVjb49trLApVujXnb3iGzXXa/pNZPXcHgu3LtW3Cq76yUMwuydESE5fnd7ZSXL2VCwyTpyHO9fVGrfN/yf3TB0BAAAaIgAA0jc2AcYzx70m6DX/tvMMKShDBuoWHMXY5uyWDNrG11323X+Cu+yY5P1ysZk/2Jep+SuBSFjkOa2GwlGpKGts6zlNvDuuLuFLG7Zxj12DsOSfcWa7G7hhS3ZvqzvNu62YsftHofsw1VnvFKyjG3sLfcjJ27VudPEBhVyDPb15V6HWIXhRNXY3dDl/vvjy5SV3HXTdB07rlP6/7s/u9yFAQAA+kSAASRu7AMMeQigbYB+rhspV1mTK41ct6YxXNdtZquaQbfJLCPrhw2tDR9cZR8dKSsJBtzGtiqYCI+v7M4Bl2wvHI+Mu0nI8rd/2zn3dcIAW26IVHZdeyn3uGPbdV8rTfYr58mGGGXPhrAly5bdjWHDC3dZCQDqnjt7fN0CJtmeDdTqlmxTxhKbV1YSeLh++b3Oz+9P7jQTAQAAekOAASRurAMM+aiIbX6k/vtJM0Pr1my6jWmobF27TrdmUJrMshBD1i9rPqXRdTW5q0GWjf1VPnb3SNgU25LjLjsnZes0LduoNwkDpGzw0fSv/XVKxlL2/A6pXpp726g3afDDuzGaBENVFb4mBlH/8382D9g+/3lzYJq9C+PF3/k/wxffzqcDAAD0gAADSNxYBxhvv+Y3P2++lE+v2xzHQoxufy2vW7EQoyq8kHLXqWqow5JmUtYr27acD6tbUxw7J/LwxdiyTcveZdLk2KTs8Q0qRBl22Ua9aYPv3p0SC6NGqSSAaBKw2cBD2J9PuZ5nTvg/w6dfyZcBAADoAQEGkLixDjAm/uQ3PxdON//LvtuwD7pBlgbUNm11G1IZT9Pb8uWuhKpgRErOS90xyDKyrGh6PsvKNrC9nGMJXcYlvLDH2S2sipU956MeXkgA1fROGLl+Inw9/fKA/zP86tF8OQAAgB4QYACJSyrA+PY3/eaoTg3zr/t3323GOcSGVP5q37RRrlMy3iZ/Ye9W0vTKeYjNqyq5LuMSXkiVNerdyn7kZNTDi6bPPJGyd97Ezslm/fPn/gwTYAAAgD4QYACJSyrA+OT/KjZIVTXu4cW4lHykopfzIOdwnMILe82b3p1gP3Iy6q8VCcuajlF+xuRulLJAhwADAAAMEAEGkLgNG2DY8GIYTSPhhV/yF3v5Ws/YvLKSv9qP0/mTEEIa9aaBi23wx+FYZYxN7/aRj0NV3Y0SCzBkP/LcFQAAgIYIMIDEbcgAw94RMIymcVz+mr5WJWFO06ZXzqE0vuNy/mwY1vTZJVKyzji8VuThtr18LKbbOmGA8f17Ouci/FYeAACALggwgMR5AcZ//6OZOiZ6CTDsX8qHFV6My1/T16KksW/6HA1ZZ5zCCym566KXay4Nurxemt6dstYld8M0vbNErnudwCMMMLb+rT9fXgsAAAA1EWAAiZs99tVOgHHkC2bqmPjj7/zmp1uAYQMGqUE/+NJ+BSbhRaeangcJL6RRHqfzJ3eY9HLNZb1hvA4HXb3cDSM/CxJ6xOaF1S3AkP3ab/IBAADoggADSNzsS1/rBBh/2KrU9JSZMwbuvdNvfqoCjGGGF/YjBIQX/ZWEF6Pe0Lslrylprptec/taHPVjtXfDNL1DpMlxdQswpGR7cr4AAAC6IMAAEjf7ym1+gPHWSTNnDHz+//jNT1mAIY3YsMOLcWhIR7nk4xTjdP5sc990zDb0GIdjlUBpkF+lG6s6AYaU/SpWAACACgQYQOJmT97uBxgvPWvmjIG6AYYEDKLpQwhtHTqdr+9qvZzPkyavLLw4vmgWdpz5dXG5ca7v/skcWMQhu9z39Dky00Iv6nm9POhzvauXu0Vs2GXXqzp3oRm9bNN1LLkOZ8z/DtntSsVe5xk93S4z6KobYEjJQ0EBAAAqEGAAiZud2OEHGD+9R6mlBTN3hMlfv+sEGPffny8vzU84r1F9Sjfbbhe+qJvRivDi6p8o1TKLCmkUPxMuk1A96Tyn4NlvxJe57bdKLZtlzj2Tnw8JL/r+K/9P9Xb1dfhubJ6u56cGGxz1GrhIeFEI0fTrqn3uwmPQ+9itx529jkyIYAOMSX3+brNj0MtknPVv1j/Hr5jXqw2SPuMESS09lhvNdK/0eE7OmYX0a/zRHo6zSTUJMKR4HgYAAKhAgAEkbvbNu/0AQ5qIpx81c0dYVYAhDxGUplhKGh75a3nYCPVSe6R51B2g+5iQskb24Zf1TL1v22/JnQax5VKpz/zWHGjYhAdl7wSQ8yEfp+j1rhi3fiTnumy/X9HNvp49qABDxtxL4CKvwbJj7XbusoDDDTD0C/Aud5lIgJGVBDt6cvtOGF02hCs7H3KXyBvv58sM884LW00CDDmHAAAAFQgwgMRFAwypS++YJUaUBBMP7fabn9OvmpmOQT5YM2sedQM4cT7f9qLujGPLScmnVqRJdBv22HLJVFkTHZQ9Hyf31/+miqqSuwqyfrtkv/ZjEYMIMKS572XMVeFFVl3OXfa6cwOMMFgoW9/ccdEkwJCx/lgCITEiAYb96A0AAEAXBBhA4koDDKlRf6DnhG7m3PFeCD7oLx/vGOS3gmTN45xSC4vZ3fWZ/ZHl2n/5/lR1gHGnXu6MHqP9WIVY1P9+UU/3ljWNqPXKT/LG/Zwz8X3d4N3mrBNue1kP+KJeZnd4x4ge4/4X9Pr2gDRZ9oyedqee5y1bVQ0DjNNPdaZl59XhPpehvV3LaaqfPuefuzZZRh+/e85c4bWInas3fut/xMJ7PoTe73Y97aA+n/a0yUdYno9cY/noknyMKZzuVc1zV1oN1q8KMGScckdR+3qMQIBBeAEAABogwAASVxlgSP3Xj/MgY9beVj5CqgKMYXwrSPaxkFWlnvpW5wGdE2HYoEsa22Vd8oyH0gDjG52PorzymFK3fUWpHXuVmjTb/WOkGbbPSph6IX++wRv6/7/gNNb2L+236eY024xe5uB9+t+35mPKuE3up/R+zCAu6nO5+w69rK6D+n/L+st63p66IUbNJvots1jhfOhrdVyvK7wAQ0qP4Vlz7G5TfbMe6102qND/51F9Tu+S0scr25P/LSGHkGdGZPN03ewck3wsKAsu9Pov6Otwl74Gx805WdT7kqDCLus+Q+JJvb1FvdzT+v9fNNcsHLc8K6PWx5dGIMCQj8XYu0RGJcCQj4IRXgAAgAYIMIDEeQHGydv9ZiKsR3WD8+sfKvX8L3Qj9NT611M/8cfnBhiDeLaCW/KX4Hfk4YZLeZOYPXdBs0FFe1ndHEvPNaGbYfl3aYChl8sadt0Eu88zyJ6zodlvOfHKNKrZ3RQvmGl6O/KMh5ZuNrM7MMz+xQv3mGWkvtJ5HoedvlNvQxSOQZcNPCQscaeXVs0m+oJZLHZHir3LoRBg6Cptqm2oULLfyo+Q6PNgsgr1tIQedro+h6+YUOL4Xme6LhsAyJ0y+/VyMs1eMzd0qh1eSDUIIKLVYP1YgCFBgXyNrf33KAQY8qwRCSEBAAAaIMAAEucFGPp/qzdf8huKcSobYNRuHBuUPDT05Lt647ZJ1I2t/ZaRg6aRlfrMY/lf9O200gCjpLY/Y1aINY+2UdWe/kpkvrtMEIxISfPaOtdpcuXbOUTsLhL7MZjYdqLljK2OUQgw7jIBjmwzDHCyu220cCw2AIgGTKYahRdSXc5d19eOXb/kHLhlx19L7DU44IoFGIQXAACgRwQYQOIKAYaYOq/UH3+Tf6Wq21yMekmAMciHdtqSZlQCjKyJdprE2F+zpWGWOxrsv5sGGO1mNNY81mhUm/z1vHJs95mHY2ruQyBLq8vYpCmV61K1z7UOMHrZX+yauyXHKa+V2LzSqnFdK6vB+uH45bkX4c9Lk9dQv1V2B8bPfmbGAAAAUB8BBpC4aIDhOv2KUkcPKXX4p7rh26sbi+8o9eN/85uOUSn5FpJBP/dCGjwbioQBhv0Ihn2oo3z0QBp0946Gqob9Zj3tRd0kziyaux1csebRNqoVjaVtPmNNeVh2bGUBhZ3/x/vi872qaKLl4ze2SR7FAKNSsD8bAMTGb8OLxgFagwAiWg3WdwMM+UaVTzl3D9kahQBDyn4NMgAAQE0EGEDiugYYoyx8iOe3v+k3R/2WfBTAvaMjDDDcZyg89RWltv9W/49FpR6283WVNezffcGEFnr5F37iPFjSNqOx5rFqnqlRCzDk+QpukzyKAcY55wGfhXKfjaGrLMDoObyQKjl3tavB+nb8556NhxdSoxJgSMn55G4MAABQEwEGkLikAoxP/i+/+emnpCGVv/66d3QUAgxd9jkSk79V6im9fPhshLKG3TwjU70aPH/iMxKCiFjz2CDAqNN8VoUJg/oISdjQj1KA8auK/ZVVLMCwr5WyQKBrrUOAcaHi4ayjFGDYkq+jBQAA6IIAA0gcAUak5K6BMLyQigUY7QdBTil1Uf+/8Fsryhp2O/3JoOm132jRa4DRfvhmcCdIrGz48kakuW9vRx/v7nBerCJNdKyhrwowfv56Pi8WKOy3iU947H0EGO1rp6+1+3WpVRUGGLGgq3HVCCD+qOfFjiGrGuvbsuMv3ZauUQsw5CNIfJQEAADUQIABJI4AIyhpluRjI7GvYY0FGO7Xk0po8CN3nq6yhv2N2HTd8Nuv7+w5wNDbmDDbkLtCwvnS0MvHXeR/Zx950Zb1tLCBb/o1qu07R6qaaD02+cpXEQswHnjRzJxSaqc771bnHIfHbgMMbb873ZQNMKLHoc9D6Xj0WJ/U6z7/DX+6G2BIeCHfluGFF3qb9vzLR1PcdUurWwChxyKvo0EEGC/P5otWBRiVIdqAq06AIV/xCgAAUAMBBpA4Aoyg5DkGsfBCmkjbvD4ZPBdBPjoiwo+P3PjTzletyl0F7ld1tu8o0Nt8QTf/T+oGe0o3vi8+lvXv2fQ9ep/u9p50/godjsGt23RzanOQGb2O3f45Gb+e8aizrB37lB777jv0uroO6rHK+st6IOEYoiXNvjO2Z4Om39adehz2YaXS3LvnQx7YKM3/G2bgi3rfMu6n9VjkvLyhx5edS30MPwrudjhu1nlfL3ub3sYOvf8bzTwb0sgBPXmPUjfr87bDBDhS7rma0g37084+ZcZ+5/g/44Qlcyd16X8UXivOR2/qBApS7XMXWf5mfT2eNfPLQgf33MeCIVu3Pap/4M1yLf36s+fIK31uj9uD1Mf/aD93ltSobgGGPGgUAACgJgIMIHFjHWC89Lzf/PQbYMjXpUqF0+1f8V3uxxxsk+w2j7F1RLsJlaZfL2Ob52XdNL5onodhsw2RbdNpnENlDeuNupF+daqzffG+3t/+MFzQ49j/gp7nLLis//cZPe3OGuFF++MGEe1nZ3QZvzws1W7vM3rcb+iFbdBhz8tnvuLchaG551+ChSycMWQdN6SRu0nc8zAZ3Blhz5Xdp5Bz9agTEpVdz9hdCnfq8V6UHepxVAUYVecuJgwwSsekha8Le6dJyD2PTY5xUFUVYMjdUHKHCwAAQE0EGEDixjrA+PWjfvPTT4AhX5caCy+o4ZbcedHTN3esU9mPjchDJWPzbcldEYsT8Xn9ljT2senjWFUBhtwNBQAA0AABBpC4sQ4wBvUREvt1qbF51PBKPh7Q18Mv17hseFEZdH1KqT3PKLWolztY8TGfXiul8EKqLMDgW0cAAEAPCDCAxG34AMOGF+N0F0CvJc1vz1/1OeCSMEACjNi8USwbXshdAbH5tuRjGBf16+k7QzjPo3T9BlWxAEPuygEAAOgBAQaQuA0dYEhT2vdXYA6o5Ktbhx2iyD5i09e65Ly7z70Y9bLhxXoGXSmGF1JhgPGPf8dzLwAAQM8IMIDEbdgAwzaloxBeyFiG3Zxm3/IRmb7WJY14t+dHjFLZ14kEXet5l86oXL9BVxhg/Pag+eEGAABojgADSNyGDDBsUxr9utQ1LhnLsD9KMSp3Xkh4MU4PSrWvk/UOulINL6TCAOPVo+aHGwAAoDkCDCBxSQUY36gRBEgTLX9Nl28dic1fy1qL8EL2Maw7B5pu98CBwY9Frmdser9lwwuxnuHFOD0npJciwAAAAANEgAEkLqkA4/SreeMZa5SkpNmV5xiMwl0AMs5hf5RiLZ6rUbckMBp0EDCscEZCAxterOddOuP2FbO9FAEGAAAYIAIMIHFJBRgXzuQBReyv8ja86PYtEmtR8gDLYYcoEl6MykMfJRAYdBAg2xzG8cm1sdbzWR2jdP2GWTf8b/9nmAADAAD0gQADSNxYBxhvHPebn8mJfPpzz/lNkjSDEl6s57dI2FqL8EJqWMfZ9CMbcpfEoD+uI+dwGM+FcMOL9bxLR85xys+9cOsXj/o/wxJKAgAA9IgAA0jcWAcY598sb37sX8/tswyk1vsv2tIgDztEkeZ3VP5yL2MZ9F0Mcg6H8fwSN7yQaxRbppdqGvjI8qPwzThrUXLOXz/m/wzbEBIAAKAHBBhA4sY6wJh5z29+Du83Mwxpnm14sd5N4VqEF1Kj9MwECRoGOR45h8O4MyIMLwY1ZgnPmoZJG+XOCzk34rmD/s/wpXfy6QAAAD0gwAASN9YBhvjl9zrNz3/8q1Jz02aGY72/LlUa5FG4A6SfanongRzzII93WAGQBCLWIIMuOV8y5ti8smp6jse15Djlm4Dm55T68Y7Oz+/P7zcXAgAAoDcEGEDixj7A+PPTnQZI6g+/NDOM9XwQo5QNL8b5YwHyDJHY9LKSv64P8k4Cew6HGV6IQY1ZGnT5ytjYvLKSdUbp7plhljxIVxz5tf+z+6ff5tMBAAB6RIABJG7sA4yVZaX+U4/bbYRefi6fN8hnGfRS0ngL+caM2PxxqKbfhtHLnQdVZc/hoAOgMLwY1HM15PilQd8oYUTTkkBRnPiD/zO77xtKLS7k8wAAAHpEgAEkbuwDDHHiBb8Zknrhcd0Qza/ft0nYxnu9P77SbzUNXwYZXsi+B30OJWAIw4tBvkbkG3DGObAaZskdLkuLSh09VPx5ffn35mIAAAD0jgADSFwSAYaQwCJsiuSvujL96DNKfXqzUv/j/1mb+tJWpeYuKfXQ3vj8camv60Y8Nr2sdt6l1Cc/EZ/XtOQcXjyn1K9/EZ/fS/1vPbaXj+XXxpb8O7ZsLyVjffq38XmDqr//THz6elTdsfy//0Opz/2tUs/9XKlHvln8OX1enzcAAIABIMAAEpdMgCHk+Rdhc0RR1OjW739ufngBAAD6R4ABJC6pAEPI8y9+/G/xZomiqNGoh7+u1PFnzA8tAADAYBBgAIlLLsAQ8vWM8jn7/bvizRNFUetT++/Jv32kNWN+WAEAAAaHAANIXJIBhuvi20q9fiy/M+PPv8vrwA+U+qf/r3vdfUt8eljb/0Gp536pG7MnlPqXL8aXGVTt+Kd8P3WPoWl9+/b6xz3IknP41IHONZKS4+xnLPZcuduUGtS5C7cvr4E64/2+/jlrMoaH/r3Z60rO5b774/P6KXu8Ta7JE48o9ZL+2ZOfwYtvmR9KAACA4SDAABKXfIBRRr55Qr6RIvZtCVL2W0TkKzGrlpN58nWtoulXfX7+83nF5sVK9nXuXL4v0e3bM2T5Jt+IIV+ZKl9zGZs3zHLPYUzVN5vI+YvNl+kzkb/yy34G8RWn4bVwVb22ZFxWt9eWlH0dNrkuw/gmFHuNZMyx+bGyYwcAAFgjBBhA4jZsgCGkIYs1kGHjJY1wWdAgzaJo+lWfsl/ZrlRVg+6WNI+hshBDtt/060HlWCTEiM0bRMl4DhwoTo8dVyh2LLapFu45LAsvZNqnPuVvo9eqClxE2XUN1yt7DUqFr0NZttv1kaBDyP7vvz++TC/ljluuRbeAxL6+AQAA1hABBpC4DR1giLCBDJtGV9gQSjMuYk15VbmNt9VtG9I0lok197L9m24qTi8rOTZR1nj3W3b7QoISe86rjisUXisbHgkZtwQXZeGFaHpcZWGBve51SDhjt2PDhVB4XFLunRququsTW6fb60COJdx3WGXXSO5AkWOKnaeyYwUAABgiAgwgcRs+wBC2gaxqfi1p5mRZN+iQ9cIGrqrcxttV9pGCqlDFckMM23DWDTGkAQ2PW8ZSdlwyRtl23Y8pyBhCsn6TIMCyQUWsQe527aThrnut7DkPgyU55l50O1Y5H3Zs8v+7HYsbAknJ/y77SIuwr1u7vJQNlarOS91rJOOxrwfZT7fxAwAADAEBBpA4AgxDGsi6TZcs65L16v51v+yv2VbYTMaa/zKy7dj2Y82rW2WBioj9hd5taiVIcOeFFQtH1lu3j1aEAYINF4Z9LLJtCQHq7kOWswFV1TW0ZHl77GHIIP87DDHqBGch2U6djwQBAAAMAQEGkDgCjAHq1sy7H6OoIk2gNI+DbJhlO7HGvc4dBXY8snwsUAnvBrAl08KwZ1T0MuaqOxzWU9PAQJYvW6fqOgMAAIw4AgwgcQQYA1bWGPfy0YNhNMzSnNu/2ss4m+xDmt6y5e1dCu4xd7vbZL2Fd7uMw5jXggRxgwrOAAAA1hABBpA4AowhCJt5+d+j1hCWfdykH+6dGnXvNhkF9s6UcRozAAAACggwgMQRYAyJNPNyp0PTuxxSUOd5DKNmHMcMAAAADwEGkDgCjCHbaOEFAAAAsE4IMIDEEWAAAAAASAEBBpA4AgwAAAAAKSDAABJHgAEAAAAgBQQYQOIIMAAAAACkgAADSBwBBgAAAIAUEGAAiSPAAAAAAJACAgwgcQQYAAAAAFJAgAEkjgADAAAAQAoIMIDEEWAAAAAASAEBBpA4AgwAAAAAKSDAABJHgAEAAAAgBQQYQOIIMAAAAACkgAADSBwBBgAAAIAUEGAAiSPAAAAAAJACAgwgcQQYAAAAAFJAgAEkjgADAAAAQAoIMIDEEWAAAAAASAEBBpA4AgwAAAAAKSDAABJHgAEAAAAgBQQYQOIIMAAAAACkgAADSBwBBgAAAIAUEGAAiSPAAAAAAJACAgwgcQQYAAAAAFJAgAEkjgADAAAAQAoIMIDEEWAAAAAASAEBBpA4AgwAAAAAKSDAABJHgAEAAAAgBQQYQOIIMAAAAACkgAADSBwBBgAAAIAUEGAAiSPAAAAAAJACAgwgcQQYAAAAAFJAgAEkjgADQFJWF9XSzJ/V4ntPq/mLj+k6SFEUNXK18O4htfj+82p5/rR58wIwCAQYQOIIMACkYHn2hJp76179XvbZ9nsaRVHUONTMqa9loYYEsAD6Q4ABJI4AA8A4W11ZUHNvf89rBiiKosaxpl/dphbfe8a8uwHoBQEGkDgCDADjamX+bTXz+r96DQBFUdS41/yFA+ZdDkBTBBhA4ggwAIyj1eVZNXPqn71f+u372MK7T6jl1im1sviuXu4SRVHUyNXKwqRamjmmWuceVpdOfL7wXrbwzi/Mux2AJggwgMQRYAAYR3NnvuP9si8NwOKlP5i5ADA+VpfeV63JH/rvabqWpv9olgBQFwEGkDgCDADjZunSEe+X/OmTX1DLrTfNXAAYT/LREfe9TT4iB6AZAgwgcQQYAMbNzOt3eL/kL02/aOYAwHibe+t+7/1t8b1nzRwAdRBgAIkjwAAwTlYW3vZ+uZ976wEzBwDGn9xN5r/H7TZzANRBgAEkjgADwDhZeOfX3i/3S9N/MnMAIA3u72aXTvyDnrKazwDQFQEGkDgCDADjJHtiv/3FXpdaXTRzACANCxd/7r3PrSxeNHMAdEOAASSOAAPAOJl76772e9b0q18yUwEgHYvvHW6/z0ktz02YOQC6IcAAEkeAAWCczJ35dvs9a+a1r5ipAJCOpUsvtN/npJZnT5g5ALohwAASR4ABYJwQYABIHQEG0DsCDCBxBBgAxslQAoxzD6ntH/+Auj6r29UxM3nDOXq7OQemdo3u1zce29UZ5/YDZ83UIbGvjxE+H0gLAQbQOwIMIHEEGADGSe8BxrNqj23M2+WHFXlTvIYBRhgYZHWtevycma/Oqse3hvM7teeoWSx6bMWqbPRNk263mZ2LUW/YzZgJMJAaAgygdwQYQOIIMACMk14CjPMHrs0a+E7DL0zTv/Uhdd5MGXiAIY1vtOm1wUS4LxtEuCGGZoIOt1G3x5RNyxpsZ1uRhjtbvqIBz7e3huHNIAwhwDi2Kzj3wDogwAB6R4ABJI4AA8A4aRxgVDS54V0Ggw4wyu5iyPcTb5SjQUIkwPACGDlGJ4iJBRjZNggwqmXbI8DA+iPAAHpHgAEkjgADwDhpGmBUhQWhbFkbCEgAYMq/cyNn74BoVyxA8MqEA7FwoZtogFF2F4fWZB/Rsbr7Kn6MxR2Hex7kPOXnu7hch/Nxl8K5do+l+LGYwnUw64b7jQcx1dvz189Lxu9d58L5DLfpv87CbXrj7+V1gA2DAAPoHQEGkDgCDADjpFmAUdHkR+QBxrXe3Qx5ExoEICZQ6DSkeSMbDRjCBjUaRnQxzADDiN+BYfbhhjO2afe2bY5fzl02xpJjd+T7k3Nt9pkdoz3PkX2YY/LOgZ2m9xtei65jjm3PG4Or4pjb6/vXIzs+ZwyF80uAgQoEGEDvCDCAxBFgABgnzQKMWDNbLhpWlDbO7nKxhj3exNu/6Ht/je8mGmBUHFsPzXE0wDD7Dcdqw4fO8ZuxxMKUEvY8+MeUK24/l1+fGiFAMO7a22sQYMS2mU0z1yMPw5xrI2Ot+ToECDCA3hFgAIkjwAAwToYfYARNeCzAKIjdqdAwwLDNuFPtZSIBRjRssQYUYJQ1/sVgo9jgd1O6bS16HbTCOmXXJphee3sNAoyybbaZc+SfJ6AeAgygdwQYQOIIMACMk6F/hCRcNtok2+0GVSPAiIURrmgw4TTD7aoKCwgw1j/AyJj1TBFkoC4CDKB3BBhA4ggwAIyToT/Es2uAUXG3RZ0Ao0u4EB1Dl9CjgABjRAIMqxN4EWKgDgIMoHcEGEDiCDAAjJOmAUZ1868by12d0KFegBFr1s20OgGGlu+nQfO+TgFGMajIFcOHwQYYZfMK56bsOINx195egwCjavxCtu2ft3wbta8hNjQCDKB3BBhA4ggwAIyTxgGGljebxUY8a2CdpjQaHhQCjOLdFvl6/rTYch2mIQ73pUXHsAYBRr7fsCGPHUMsrBhsgBHdXuE6aPY4dXWurVm325hj2ysJbCqP2btWcr7yf4evrXx/zvH2cI2wcRBgAL0jwAASR4ABYJz0EmBknGbXVrt5jcxrN7HuPNsUB8vLsjYk8Rpnb7lIs24a5rA6DbQJEIL55UFGfPliQ+6IHHs41nZAY8rdf/u4S+YX2cbfrWKQEzsW9zg6Y5Kxhss2357lHeuuZwvH7p+b4rF0tlk1T7PnnQADEQQYQO8IMIDEEWAAGCc9BxgAMCYIMIDeEWAAiSPAADBqVpfeVyvzb6nluVf1L+4nvZp949/a71kEGABSRIAB9I4AA0gcAQaA9bS6MqcW3vmFmnvrXjUz8VXvl/ZuRYABIEUEGEDvCDCAxBFgAFgvC+88rqZPftH7Rb1JEWAASBEBBtA7AgwgcQQYANba6tJ7aub1O7xf0HspAgwAKSLAAHpHgAEkjgADwFpaWXxHTb/6Ze+XcymZNvfWfWr+3D618O4htXjpD/qX9ld08QwMABsLAQbQOwIMIHEEGADW0szr/+r9Yi41f/6R7FkYdfAtJABSR4AB9I4AA0gcAQaAtSIP63R/KZ9+7Sa13Dpl5tYzFgHG0dvV9R//gNp+4KyZMGaGPv6z6vGtH9D7uF0dM1PqeVbt0eOSsUntOWomj6tzD6nt7eNpei7Wgnu+r1WPnzOTuxrkdbKvlbrbCl5b5rWcV3COm7zO7bXa9ayZMFwEGEDvCDCAxBFgAFgTq4v+AztPfE4tt143M+trFGB4zUuxhtagE2B00WuAYZjxjX2AYRzb1ce5WAPnD1yrx9ckwDAGeZ1qbyv+2oqe4yavcwIMYGwQYACJI8AAsBYW3n3C+4VcPjbSi+Z3YJQ0y7Yh2fqQOm8mYUwQYKyp8Qow4hqdY72v9Q4fCTCA3hFgAIkjwACwFtyHb1565bNqdWnKzGlmYAGGME3RWv1VFQNCgLGmNlaAkb9fEGAA44sAA0gcAQaAtTB9YmvnveaNO83U5gYaYJTO8z/DX5xv17PVae7yRimvQhNkAxM7f6s0hmb9Y87zECRQ8Z6P0KWhcrfbZd3O+GTM/nFIcxgbf97AdpZx/13a2AbH2r7TxRubOa8Nxp8pa2bDfYbBVLDdOnff+McaruO8TrLpwesmFoxFjq1rc+0cV/H8R85hyTWpPhareAz5esVthturfZ0Kwp+3smtbfM16xxB7bRnhOY7+nIavHym9/Zfd4yxc0/L3Asvdl1T380GAAfSDAANIHAEGgGFbXb7k/TI+f/5RM6e5wQYYneai01SYZqrdqJj1nUYpW8dpZLJ/Rxopr6Ez09r7cf59bFen6cm3da3aHu6vLChwxNa1TabXNNnx6WXz6fkxt8cbG79dRrbfnm7OlXvsot1smn+b7RXOWazJrDP+WGMcTiscQz7WzjrBMccU9hNfxzb427d2jqfqvLvnqxMCxF+fHeZcu/u325MKX6/B9uwY3ddQ8RrYfTjT2k29v25he3WuSVTx5yvfdnA+sm3JOa5+XYnS11a4zcJrRJS9Lsy58fZV8t7g7Cc7lm7HFkGAAfSOAANIHAEGgGFbWZj0fhlffO+wmdPcoAOMvKHoNFmFxkx4jZjZntvIyHz335HGqLjdWENkG6Bg/9FGqyi6bqTJajd+7jRXRWMXrlM8rsj+zDR3e+VNZo3xFxrj2D6DfZhjcptpmV/ZXGfrRI4tuGbhayhXvL7R15bdZtemNn7+Y+es7mutcJ1LAofiPmLbq3Od4rLtu9vK1gvOk9lW+DMQO6fedTdi06pe5+F+osccO75gm9l+3XMi84NrGEOAAfSOAANIHAEGgGFbnjvp/TK+dKlLR1Nh2AFGnUbHrlNosqxIY5Sv42433gzXb7SKoutqhendthedH2+CazfLgdhYa4+/0DjWGZt9Heiq0UDGRZp0rXgORHFMtY8vKn6M0XXD81N6vf1txo8jMr1ke92vU02x9cq2FZkeOyfR81TxOu92rkSt627G1/Q8EGAAvSPAABJHgAFg2Jam/+T9Mr40c9zMaW7YHyGx/46V19SY5iefFzQxscbITGs3MXWbQFGybCi6rlaY3m170fnxBrrYxMWXC8XGWnv8habV7DNa/rXJx2vmdQ0ynNDDLQKMbHuF85JV1XUq4TT5bnnrlW0rMj12TqLnqeJ13u1cCe+1FJZ3ncy6prqeD40AA+gdAQaQOAIMAMO2NP3f3i/joxNgFOfVayZdtjkpNniFJiho1IpNUpNGq6hs7IXp3bZX0diFDXSx6Y0vF4qNtfb4C01rvX167LUoDTFid1vEpm3cAKPb6zEWLhTElqk7TUSmx85J9DxVvM67nStRdr7KdQKxynOiEWAAvSPAABJHgAFg2EY2wDDNT7OmRLYXzDeNULspKW2MujWpTRqtonzdcOyRprvb9ioau7CBLp6veJMfKm8ya4y/0LTW2KccUzR4KLsmseM106LbCcddt+E1Y+/62oif/+jrpXB+4usWrnNJSFC8LiXbC5VszxU7J/m0YD2zrfA1G1u//LUVnKeK13nxZyNyzDWOT/brzy/bvo8AA+gdAQaQOAIMAMM2kgGGaV6KTa9pVLzlZRu2Scq35zUgWSPjLB9tjGwTFVSw//qNVlF7+842o81gt+1VNHZh0xptyk1j5y0r23T+HTvO2uOPNY5l+7Tbyo4p0ugGx9NRDEVi4xPRcxA7X+a8hseXf51ucM0L4uc/dh5j5yc2xuK6kde+3lY+Pn9de10KPwfu+GLXKRQuY89RuJ5ZzhuHXbbGOYmeJ7N+ndd5fLp9bymeVzv2bL/uOpHXYQwBBtA7AgwgcQQYAIZt3QKMdtMTr/JAwDYmnfKaKafJyss2JMX1bNNUaGQyeVOUjaOwzXhTFzbPrmwfMj/YlnuceSPnV+fY4uN/2jSr7jTbCNpGVqrQzMbWiVwTu1738dsG2yn3fBTOod+wumMtrBsTbE/OU3sb2brF8cTH6owjcmyl59AojNvZnns929fRPcfuay4899HjD45J1m+8vS7XKeC9JoPzuueo+5qU4w627W439tr69j8Vpx14sfTnNONt53b1WOFnphhYuPP9a1g8F957SQkCDKB3BBhA4ggwAAzb+t6BMQKypjX+V9es+SkEG73JGym/aR8n4z5+YFAIMIDeEWAAiSPAADBsGz7AyP6iGwswzF+XCTAyBBhAjgAD6B0BBpA4AgwAwzbQAOOt3e3tTL/6JTN11OW3kRc+HlAabPSGAANIw+J7h733zOW5CTMHQDcEGEDiCDAADNsgA4zWuYe9banVRTNnxBWezzDAZj2y7Tqfsx8Z4z5+YMAWLv7ce59bWXzHzAHQDQEGkDgCDADDNsgAY+HdQ/629LYBICWzb97VeZ878Xk9ZTWfAaArAgwgcQQYAIZtkAHGysKkty35SAkApGK59UbwHne/mQOgDgIMIHEEGACGbZABhph94+v+9qb/aOYAwHibe+s+7/1t8f3nzBwAdRBgAIkjwAAwbIMOMCSwcLc3fXKrWm69buYCwHiaP/+o994mYS2AZggwgMQRYAAYtkEHGCL8K+WlVz7HXyoBjKWVxXdV6+09wXua3F3GM36ApggwgMQRYAAYtmEEGKsrLTXz+r9425WafeNOtfDO42p57lXdFJxXq0tTFEVRI1cr82f0e+OfVOvsjwrvY1LyPgagOQIMIHEEGACGbRgBhlhZOKtm39jhbZuiKGrca/7iY+ZdDkBTBBhA4ggwAAzbsAKMzOqyak3+wNs+RVHUONb0azerxfd/b97cAPSCAANIHAEGgGEbaoBhLM+9pubefkBdOrHF2xdFUdSo18ypf1ELF3+h38lW8jc0AD0jwAASR4ABYNjWIsDoWFFLsy9lD/RceOdXun5JURQ1ejX1X2rp0lG1svC2ee8CMAgEGEDiCDAADNvaBhgAAGCjIsAAEkeAAWDYCDAAAMBaIMAAEkeAAWDYCDAAAMBaIMAAEkeAAWDYCDAAAMBaIMAAEkeAAWDYCDAAAMBaIMAAEkeAAWDYCDAAAMBaIMAAEkeAAWDY1jrAWF16Ty233tD7/VO2b4qiqCRKv3euzL+lVlda5t0OQIgAA0gcAQaAYZNfvIcdYKwuT6v5i4+p2Te+7u2LoigqxZo7vUstTj1l3gEBWAQYQOIIMAAM27ADjIV3fqmmT2z19kFRFLURaubUbWrp0gvm3RAAAQaQOAIMAMM2tABjdUnNvf1db9sURVEbsRYu/ty8MQIbGwEGkDgCDADDNqwAY+7Mt73tSk2/+iXVmvxBdmt19gwMvS+Koqgk6tIRtfDub/R7378X3vuk5i/8zLw7AhsXAQaQOAIMAMM2jACjde7H3jal5i8cUKsr82YJAEjXyvzbqvX29wrvg4vvP2uWADYmAgwgcQQYAIZt0AHG8tyr3vakFi/9wcwFgI1D7rpw3wunX7tZqdUVMxfYeAgwgMQRYAAYtkEHGOFHRxam/svMAYCNRz42570nXvyFmQNsPAQYQOIIMAAM2yADjNWlKW9bs29+08wBgI1pZeld/X742fb74szr/2rmABsPAQaQOAIMAMM2yABjcep33rYW33/OzAGAjas1udd7b1xZOGvmABsLAQaQuJQDjJXFi9mt5fPnfqLm3n4gu+2coqh4tSa/r+bP/zR7yv2gH4Q5yABj/tw+b1uryzNmDgBsXEvTf/TeG5emXzRzgI2FAANIXIoBxtLsy2r2dOe4KIpqXq2zP8pCwEEYZIAhYaTdzvTJG81UANjYlluve++zi+/9zswBNhYCDCBxqQUY4S2UFEX1VwtTT5qfrt4NNMA403mA58xrXzFTAWBjW1k8773PLrx7yMwBNhYCDCBxqQQYq8uzevx3ef/xdmv65BeyZoeiqHhdOvH56M+OlHwMqx8EGAAwXAQYQI4AA0hcKgHG3Jl/9/7DnR3P6Z1q8dIf1OpKyywFoIr8Arzw7m/UzMRXCz9PC+/80izVHAHGuDirHt/6AXX9x29Xx8wUAOOBAAPIEWAAiUshwJi/8FPvP9pSi+8dNnMB9KJ17seFn6teg4f1CjDOH7hWN+PSkFfV2jXrxfEE+z56uz9/17NmRtGxXc5yuvYcNTP6QoABjCsCDCBHgAEkbtwDDHnIoPsfbCmevA0MxvyF/d7PlnxMqxfrFWBIk7/9QOerBPOm/1r1+DkzQT2r9nj/HpBzD6ntYfhgwolO0FAWFuTTt2+VsKMsSNDj1vO3dwk5KunxuOcGwHgjwAByBBhA4sY9wJg/73+l4sI7vzJzAAzC3Ol7vJ+xpZnmf5tfzwDDvTOhGGBIWDD4ACPbTzTA8AMJe0eGf/dEHmDsOfBQFlDE7qyQ9bbr+Xt6DjBMSEKAASSDAAPIEWAAiRv3AGNm4pb2+OVz+wAGa3n2ZPtnTKp17mEzp75ReQZGMcAIlH6Ew94t0Slp/vPt2dLbPZaHDu5yVR/HyAOMcDwmwDhq9lkIKGS6rCN3j8TmRz6qsvUhdd7MKxyjnS93jbSnxe8Kcdfxwg93XRmPt61IUGLn9xS+AIghwAByBBhA4sY5wFhZmPT+Yy2f2QcweDMTX2v/nElo2NRYBBjhRzxMkx1r1N1psk2/QS8LHoqy8bjhQsYGGCUBh4wh23Y8wIitkx+3G0rk6xaCBa24rDkeb5zxfefHc63a7iybby9yDJH1AfSOAAPIEWAAiRvnAGN59mXvP9byjSMABq81+f3Oz9qJz5up9Y1+gBFr0mPNfOfuhizokNCj0ITXDDCyJr58LNn2I4GJ7D8PWWIhQsldGYXtNAgwwmDHKA9K4mFFbF8ABocAA8gRYACJG+cAY/H933v/sZZb3QEM3vz5R72ftdXlGTOnntEPMOKNf/QOCC3fjq7C3ROiToCRLxNv6p0Aw26rvR/5tw0XImMuDQvCZesHGGXnIBZsFMIPQYABrAkCDCBHgAEkbrwDjOe8/1gvt06ZOQAGaf7Cz7yftdXlaTOnnrEJMKJVsXyPAYaMo7yhdwMMLQsKzBgkDAhCCAIMAIIAA8gRYACJI8AA0M2GCTAqQgfXsV16G0fLGvPqACMbQ+V+ggDDCRs6Hx8RBBgAOggwgBwBBpA4AgwA3aQfYJjQIXpHhU8a+nYzHn0+RHmAkYUBhenPqj3etDDAMOPeerva0/74iIgEGNFpWiFEqB9gxI8xHmwQYADrhwADyBFgAIkjwADQTfoBhmYada/5l+bbDTVkGS/kMGGF17SXhCGFdUUs7CgGGNGxlYQV9YKFkqBDKy4bO574+rUDDDMttn8AvSHAAHIEGEDiCDAAdDP2AYYNANwqhAmabazbZZrx6HQbXjhlG3Jv+TxMyJv7krLrBeMM75hohxqR44kGHrZix+oto48nsk03dAjHHw0knGqPx51nx2GnEWAAA0OAAeQIMIDEEWAA6CaVOzAAIFUEGECOAANI3NzpXe3/2M2+8W9m6nggwADWBgEGAIw2AgwgR4ABJK41ubf9H7vpk18wU8cDAQawNggwAGC0EWAAOQIMIHHzFw56/8FbWbxg5oy+kQowWpPqyBOH1JHTLTNhOKYmp9Rw9yBaampqSk0161GRMAIMABhtBBhAjgADSNzi1G+9/+AtzfzZzBl9IxVgnN6rrr7sMnX1g5NmQgNm3VufMf8uMXHvVeqyy65Su0+aCWWWTABRo1pLZh2XGc9ltxw2E8q01PEHb1BXfWK3Ok7YkTQCDAAYbQQYQI4AA0jc0qWjwX/wfm3mjL41CzAuHFeHnjhUXQ9vU1fqpv/Km/bF53t1XE2ZTWdqBhhq+pDasukytenTB/31Q8/cqi6TAKJGRfdZO8BQauLBzepyveym6/eqCTNtqOzY2nWr6j5K9IsAAwBGGwEGkCPAABK33HrT+w/etG4IVlfmzdzRtmYBRoNAoF4FTXckwDhy95Xqyo8V64oP6vU/eEV03pb95u6POoHLrs3ZWPoNMMTEg9epTXr5K/Ty/X68ZfKZverWT5jjzM7VJvWhj25Wtz54WE06d4tMPbFNfTibT4CxFggwAGC0EWAAOQIMYANoTf7A+4/e3NvfM3NG25oFGHU+kvHi7qzpv/re4/H5XgVtfiTAmNi/Q+24o1ntfqbyvgyfCWUGEWDIR0kO33KF3t4V6tbne4wwpo+r3Z+4XG/jcnX1LXvVoZcms3M1+dI+te2jm7Kxbrp+n2p/QKd9J8bwA4wjd364t48GDcrUQXXDOgc1BBgYnGfVno9/QF1vas9RMzlw/sC17YYHXkkAAClySURBVGWu3/qQOm+mo5uz6vGtct5uV8fMlA3j6O3Z62X7gbNmwsZCgAHkCDCADWB59oT3Hz2plYVzZu7oGu9nYEyqvdfYuwyCumZvu1GXOw2u/KhuXmP94qm96rq/uFrtaBJcWAMNMLTpw2rbX+p1/mp3Dx8lmVB7r5eQ4sNqy2ORY7mwT23Ozo3TxK9ZgDGhdv9Vj882GZCWfg1sIsBoaxRgmIamvK5Vj4/+W12azLUpCzByphknwGiAAIMAIy8CDGxUBBjABjH31n3ef/iklmZeNHNH09oHGJPq4D8UP7qR1Uc/lH2MYtNfROaZ2vm82UympSafNx/nMM/P2LzL/Pv5yc5HMSSk2HSZ+vBN4cczTNO/6Tq1N3rYXe4aeWzbYAMM3V7fqscpH/m4YX+zQGVq/w3ZubvsE/tKnu2hj/WaD6nr7j7SOQdrFGDYj8esW4Axrc/rR9YiqKk23ndglDV0+fTqBjpRutFb9yaPAGN8jcDr59iucQof5XU8/ECJAAPIEWAAG8TKwqSaOXWb9x8/qbkz92ZBxsrSu2bJ0bEeAUZ218RfXqe2RT7CUVqflm8PKQkLhGnGy+ZnTfQH/aAib6yv0OuUfGTj6A7zjIjqGliA4e7vL3eoI2Zyd/kdDrLell81+PiJF2BMqcN3bG4/N+Pyj2xWtz5Wdh/IlDr+yK1qswmcsvF+8Ap19Y17/W9SmTqotn1EPtJilnHKP2d633ffoK76i/xjLrKtzbfsVfsevFVdl027XN3w/fvMWE1l59Ws1x7z1WrLg/7DXY/fe5X6UBYKBeXcobNW0gwwpAnaiAFGfj4IMNCbEXj9nHtIbR+nu6ey1zoBBrBWCDCADaQsxLA1/do/qdk371Ktcw+r+Ys/X/eae2u3N741CzCaNpBVH9cQQYAx9cxuPwD58ha15Rbn3zfpZl0aWXm4pbvcHQeVbdvlrobsboh7zV0dYQ3wIZ7iyB0f1tu7Uu24c0sWDGx+pOZdGJP71HWyr8uuLrmTpIQd41/vVDtv/FD23IyD+rgOPrhNXWXuBLnu4eJVys+LPE9jtzoy2VKt1pSaeGxbdj69Z2yYO1iO33t1trz7bJPOV89OqYOflpDiCrXtsQm9Lb3O0d3ZHTOX/V871GG97KGbrlQ3mI/FtB88qve977Yr1ZWf3Kn2ybV4ZKfabJ7z4T0IdVr2d1Btk3Uu26YOmv0XnqGyBsIAY2Zie/bA39r16j9668+e+U62zV5qZuKWzjj0trsrDzAs93kL0lBLsGH/7TVqpunulLtNux9dWcPtP+sh346zjNSuZ/NVS3TGkTdr7rjKjsdfRpe7j8L4demxHo4erzv+zr78MfnH0w4jsgazMz36UZ2+Agz/3IbbCa+n9zyNaOMbXBe9zHb7712PdT/GhuOz/Gvl7NPdXnjNql4z3nkvu2bdX0fha6g99pLXz8tdfn7Cf+firy/Lv2a6zHGHY5Mq34c14NdL7WsSvq7y6uy7OL849voIMIAcAQawwUiIMfvG173/CI5LrVmA8bFteeNZt6rCAhEEGJP7t0Q/gtK9drbvfDhymzTE16l9ZUmLeTBppxl3NA4wzMdHPibPvziidsizMD5S8y6M9je8bFGHmvTldoy6rv6+f7dFS28zCwqy8QRe2p3dGeF/zGVC7f1r2daVavdJM8mYfNAEGLGPkNi7ToKvtc3DnE1q2xPBAdkxb9qkrnSDCmGfIXLZFWqn98ktfW5lnRH7CMmo1KACjFze5GzfqhvJrIkw69nmJNJw542O3+B0mp/yBjJjtte1YTFNqYyrvW/bqAaNU2E8Zjl3zO3jDPdr9xNMz8cenLvCmNxtmmbRGVu2jbDJj5zPInMNvHWL0/LjDq9veD0708KxhONr/1uOs+L69zO+cFrn33qMdt1wnyXXKFTvmnWmudcqG0fl2N1r7QrPd/DzUzL22FgL+wx/VrJ/R4KF6D7MNXd/ViqW6/p6ydbt9jPmK55DEXvtRMbaAAEGkCPAADaoxfd/r2ZPf8v7j+Go15oFGJs+FAkPKsp8FKFbgLHtV5PqyCM71d7YL0IXDqodt+xTRy6Yf1eyH3Vp8lEOR8MAo/Wr/K6Lqx7I44K86a/5LIx2gNGwQW8HGDeog4XdHDZ3LcTmxbTUoRtl+eI1qgowJh++Lpu36Tb/LNt1PnxncPbbYy4GJWLi3iuz9a68141dCDCqahgBRny5WLMhig1H3qwEDY1pcvzGpGazEl23pEnNGjt3Wr6PaKPmTdOiTV11M1w8HyI/V+52og1cNBAIxc97Nib3fEQbWnN+g3XzsbjLll3DYHvR8fY6vsh6he1XbDv6Gu2ovGZdXkfZv919ynreGEpeP/Y8lo2t9uureD3stPa5iV5vLbKP6LXUSvcbnO/C+tFrGRmLo8nrv2y8dRBgADkCDGCDW5r+k5o//5+q9fYeNfvm3Wrm1K1q+uSN3n8kR6XG8SMkrQvH1aF7b/CeVxFrlo/cmX9N6Y7KX/Yt08Bfv1dNtD92UFKxRxk0CjDsMyw2q302XGnpprvuXRh9Bxix9WzTf7Xae9pM6uLwLbJ8wwCjJKiw08Ngo3rMeRCUnYsbDzl3ZxBgVFWzACOssEmINU5W2bxikxltQKLNW7xBLajd+MWUN4OFBrTJfkqWLRM9JyUNnK/mOYpuK37NimOJnI9YgxzdR6/jM+u5YzPntLNM3fEXNblmhWXNWMuvTcnrp2S8bXX3X+e1Fbs+IrJu2c9J2eug7uslO0dlxxrIt+GPofQ6Rl9n9RBgADkCDAAja90e4vnXu9XxWBhQVrFv/LhwUN1gHuBo66ob96rDp1pq8qXgIyiP7cgb32t2ZM958Oa5Zb+95OTu7FtN3G2XVfSjEQ0CDPsNIh8OPhLRbvyDj3cUtAOMundLGD0HGPr8PrNX7fj01e1vjnHPR5MAo/0REi9wkLBJPkJyWfEOlC4BRvtceAHZaAYYKwtnlTzIs26FP6tLl16ILlen3DvDhnIHRrQpKZtXbGCjjUm0KavZ/NZt/DJOc+WWN+58mUKD2GQ/XZrM/BwEYwjPSa1GreQcOU22W/624tcsdn2yY3T2ET3m6Hh7H1/Y1BbHVXIts4o0vo4m16zO6yh2XovXPn6+2+ruv8trK5Od38g5iKwbP76K813j9SLy7ZoqO2YjvNaibLv1fi7iCDCAHAEGgJG1bgFG1lA2L7851o3pB69SN9yxVx1+anfW2Nr59m6AxnWNaXzlro5YwOGWeS5HXwFG+7kNsaDgiNohX/+56Tq1r+ouiFO2qY9/rKJUTwHGpNr3Cfk4zyZ15U371PELzn0OPdyBkW1PvspWvg3micn8IZ4v5V97G737JKEAQ4KEJkb1W0h8VQ1Y2bxRCjBiYyyfVmgQa+9Hq2gyY8cfPSe1GrXIOYqtF91W/JrFG0f7GrEVea1E99HP+IImuDCmstdcd02uWXTZts556Yy95PXTbbx191/x2mrLzmd4vrTIumXHV3wdNHm9dOTzK45by5fxx1C63ZLXSh0EGECOAAPAyBrrOzBcprGNzZfnLGy67MNq21Pu3/iF+ejGX0UeVFmHaZa3PWX+7aoVYLR00y8fa7lMXeU9s6HDPhtjk3yUxUwr0sfxMWnQO8/QqKWXAMPeMfGxnSpsnw/flI+hWYChLenx/02+blbZ16ju068PM9/VHvO2aBgxTh8h2XgBRqRRzRTXiTYm0aasbJuBfho/M80/ppIGtGqM4bkrGZOINYz5tOCc1GrUiucodn5tE+lvq35DKtNix+KJjtfso5fxyfYqmt7ar4+IaNNe83Uk/44dY2e9ktdPyfluq/366rId0SDAiF0PUTxH8f0W1o9ct2xbFdcp30ZwPUpe/2XjrYMAA8gRYAAYWesWYFwz3K9RbTuV/zX/wzcF31ih5eHAJrXlV+GcemxjHh1TjQBj4kEJVvQylQGKPBxT7lDYpK57sCLCeOCqvHFv8tDRXgIMe4eDPp8++y0kTQOMljpy2xX6+hzyvoWkVHvM8btN7EdPxuEhnhsvwNAiDUes2Yg2IFXN26ACjML47XGHx1R2nMXzlB+LPy1TMiZROH5z3grnpKSB80XOUbieGUtxWzUbUuFsw63o9pyx5NfAn9Z4fEF559SeO/cYZHtdXjPF14ZWcs3CZbN/h/vzzlfZ66dsulX/9WWnh+ei/e+y1070GCPjqrucFn89u+PNjys8r67oay722u56DqsRYAA5AgwAI2vdAowhfQtJOH/isVuzr/y87LLL1VWf3qkOvmTaZBNsbLp+X7MgxTHxfWnMdYMfO2VdAgz5mtIrZP6m6+Lru6YPqS3ykYrLrlDbflXW5puPm+htXvHlkjBgSi/zSefOiV4CjOdvzUOXa4IA6uRudVW2fHmAUfhGkcxxtVOP+8pdNZvx9pgjoVT74zhXBeGGPZaGzwgZsLENMGwD6FXQ2GmdRqpT0YbEND6d5dxtmebDqfY23PXaDYtt6KTC5ibXbpAL6/rz2o2cd7z5NtvLuU2Rt5xzDMHxZeN3lpV/F8aky28k3ePSJfttb1fGVDxPfhOXi10Tux9vDNm6nW3KMsV1O8fozsuOLxtb8fznywWvleD1FO6r7vjsa8Uu35ZtPxhL5WsuEIxPKnrNKl9HxesTH6edf7t6OnKt2q99V43Xl1W4hsFrxDumXY/5r7ms3PMUvCZ1ucfU6PWiFc5n18DB3797nOG2ouetJgIMIEeAAWBkrVuA8ZfXqW137FA76tan8zsMmgYYljx08ta/yR84uekvrlAfyp6xoBv3Zj2kJ3/mw3VqXywBqQgwpp66VV1pAolbn6l390c78NDr3LC/5E6MC4fUto9KWKOX++DVasvde7MHlh58cKfaps/f5Xr65X93sB1uTD2WfzxFQordhctum/4Pq21PuF2/DUo2qatu25c9C2Tf3ZvVVZ/Yq448ckO278JDR224IWHNSy3Vak1539wysX+LOR9+bfqLq9QNDxzxwxh7Xq+R18Tl6spP7lT75Hkkj+xUm82xX6HPuX9WW+rQl+28Q2qqpccwNRUsM3zjfQcGUC5rIGMNaEmwMQhZUxwJbUqDDaAGAgwgR4ABYGQl/xESx9RLB3WD7zTJmz6krrtlrzp8updW9rjaKc+d2HRr/CMbJQHGhG7y8yDicrX54fKPhMS0P3KSPUDzoJpcMjM8U+r4IzvUDddckQUW9jiv/MQWtfuxiTwMsGMLy7smNsCIzLtwWO34hNm+3rZ888tx6cXt8zHC5TUJKa7K7oQx69ybN9+tl/aqLR+/Sm2+Iw9bOg9J3ad26n3I8t7zQezYs/M+pQ7fsVldYb6J5vKPXK22PHjcDzys6SPZ9uw5ufwj29b8bgwCDKTJ/GU8FmDE7oYYkCw0iQUY5g4FAgz0ggADyBFgABhZaxNgtNTk853GdJs0/h/blv/lvG6Zb/zYvKsz7cjp/C/pU9MtNaUbZGnuvQBjSb5O9bDa98AW8zESvd8PXpU3uRcm1ME7rsvvxJCG9ppb1d5nzFeoOlrP71U77tgdjHWf2nFN/pGWTV/2v/6zLQwwlibUvr/LG/Lqj4JUm3h4cyeY+OgOdSQaYoyJ0/uyj/FsfqTsXBxRO+QjIR9znhHSDl/W93kWvSDAQKryjwiEH8uoCDYGoSQcKQ02gBoIMIAcAQaAkbU2AYa568I23gOqqx/872C75tkHFw6qLeaZGbYu/6sb1M7HjqupsOFvTapDd29uf4RhU/hwypO71ZXOdrz6yA3qYNnpityBkd1B8cHNavdL/X14QT6CctWm+h8/GVWVD0HNmAeDug8mJcBoFwEGRknhmQa6+nkWQR3F5y7oGlZggg2BAAPIEWAAGFlr/xGSwTq+3z4nY7c6eNL+Jb+ljtx5tbr609vU7keOqIk6fWIWZOxUhy6Yf7dNqePe3Remjhbv1vBMHlRb5OGjd/sfMGkNKnMY5zsvjKn9+TMzSu/AOJWHFd5dLgQY7SLAAIDBIsAAcgQYAEbWuAcYGGOtI+pWeSDoBzernc9MqKmplp42pf//pDr+2A51tTzbInjQavWDR0cbAQYAjDYCDCBHgAFgZBFgYF1NHVf77rhBXe1+5OeDV6grr7lB7XjkSOcjP+07L4IKHhY6yggwAGC0EWAAOQIMACOLAANYGykEGOFzDtbumx7MAyHbD4q0/+42Dn+5YT+TIZd/jWf3sQEYNQQYQI4AA8DIIsAA1sa4Bxj+N03kTfr6BRhG9k0UNcZhvlpzbQIMo+7YAIwMAgwgR4ABYGQRYABrY7wDjCF/JWavCDAADBABBpAjwAAwsggwgLVBgDEEBBgABogAA8gRYAAYWQQYwNoY1wAj/+hI55kOeV2rHj9nFgie+VD4mIcwAUJ8fcM0/O2yYYm3buwjJLIt/1kX1299SJ03i2RKA4waY7fc8cnYgmMqbLskwCicT2+szniy6cH4CgFScNyx8wqgNgIMIEeAAWBkLU3/0fuP9dLMn80cAIPUOvew97OmVhfNnHpG8w4M02C3p5vlYk25s272MFB3mSwMcJpvEw64zX/+ANF4gLF9a3Fdb6zRAKPO2Ivyscs+O8vZUMILK2IBRmFaPoYw/Mi3J/voHG9sH9lYqs4rgEYIMIAcAQaAkSV3XLj/sV6c+p2ZA2CQ5t66r/1zNv3ql8zU+kYxwLCNtvdX/0KTnq/rNun5ek4YYYKIznZkHX+75QFGeQAQhhrFMXQbe1E+jmC9WPgR21YY1FSe13AcJYGLu67sM9gWgPoIMIAcAQaAkbW6POP9x3ruzHfMHAADs7qkLp34XPvnbPbNu82M+kYxwIiGCtG7HXzF8MA0516D7qsKMAqBQzg9MqZexx5dTytMrxGGRIMPLRquRO5ksUFHcVkAvSDAAHIEGABG2uzpe7z/YC+33jBzAAyC/BLs/oz18kvx6AYY8Sre7RAuU2y6ve3VCUv6DjDiNbwAw5zHYH+9BhgZc2z5tggygH4QYAA5AgwAI23xvae9/2BLcwNgMFYWJtX0yS96P2MrixfM3PrG5g6MQKwZjzfoHe3Aw9nfcAKM6rHH9B5gxO626O8ODJ+9i4UQA+gVAQaQI8AAMPJmX7/D+4926+x/mDkAeiW/DIc/W/Pn/9PMbWZsnoERiDX8+TRnPWn2Y+GI09hHgwMTEoR3TBTGFQkw6ow9pjD2TCSIKAQYsQDCTOspwJB9BsuY4ywEOgBqIcAAcgQYAEaefPuI+x9tqbnT96jluVfNEgCaWHz/WTX96jbvZ2rm1D+r1ZWWWaKZ9Q0w4o1256/+brDgN9aFZtw09sVp4TZq3DER25b9SIUbFEQCjDpjj8nHocs5F/kxBsFBIcAohhyxbYn6AUZwTIXzCKAJAgwgR4ABYCwsTD3p/Yfb1uyb31QL7/xSLb73TNZEURQVr8Wpp9T8+UfUzKmvFX+WTvxDX8+Xke2721urAMM25155DbdpzJ35/h0AwXxpwG3I4DTp7WbeXU60Q4pObT/worNNadhtGGGqPb7i2GJBiTu/290L2Thl++1jyKsTJARjkbLjCdaRfbXPb7ZMcd34ds0xBNsrhh4AmiDAAHIEGADGxuLUb73/eFMU1X/NTGxXy3OvmZ+y3qxXgAFf9E4QAEkgwAByBBgAxsrS7MvZXRfuf8QpiuqtWpM/VKtL75mfrt4NK8CYfu1mMxV1EGAA6VpZOOu9zxJgYKMiwAAwlhYv/UHNvf2AunRii/cfdIqiqmtm4iuqde5htTw3YX6a+jfIAKM1udfZ1mfNVNRBgAGka3n2hPPe+Pdq8f3fmznAxkKAAWDMrSr52kd5oKc0TRRFxUuecbG6NGV+bgZrkAHG/IUD3raWW2+aOShVeN5E9+dlABgvcseF9944+4qZA2wsBBgAAKAvgwwwZF13WwsXf27mAMDGNXv6W533xhOfU2p1ycwBNhYCDAAA0JdBBhhi+uQXnV/UP69/T3/fzAGAjWdp+o/ee+zcW/eZOcDGQ4ABAAD6MugAY/7iQW97c2f+3cwBgI1FPiY7/eo27z2x3/dYYJwRYAAAgL4MOsBQq4v6F/Z/9LY599ZutboybxYAgPQtt06pmVNfK7wXAhsZAQYAAOjLwAMMbWn6RW+bUvJXyIWpJ/lICYCkrcy/rebPP1J4D5yZ+OpAvvoaGGcEGAAAoC/DCDDEwru/8bbr1sypW7OH2s2d+TZFUVQSNfvmN9TMxPboe970q19Sy3OvmXdHYOMiwAAAAH0ZVoAhlqaPqukTW73tUxRFbaSafePramXhrHlXBDY2AgwAANCXYQYYQm6Zbp37sbcPiqKo1Evuulh495B5JwQgCDAAAEBfhh1gWKtLl9Tie8+oube/277VWj4TTlEUlUSd+ufso3Gtsz/S76t/0u96K/mbH4A2AgwAANCXtQowAADAxkaAAQAA+kKAAQAA1gIBBgAA6AsBBgAAWAsEGAAAoC8EGAAAYC0QYAAAgL4QYAAAgLVAgAEAAPpCgAEAANYCAQYAAOgLAQYAAFgLBBgAAKAvaxVgrCxeVAtT/6XmznxHzbx+h5p+dZuuL1MURVGmZiZuUbNvflO1zj2s34uPmXdPIB0EGAAAoC/DDjBWFi+o1tkHvX1QFEVR3WtmYrtafO+weTcFxh8BBgAA6MswA4zF95/X2/yst32KoiiqWcmda6src+adFRhfBBgAAKAvwwowFt553NuuW7Ov35H9Qj731m6KoijK1Oybd6uZU1+Lvm/OnLpNrS5NmXdYYDwRYAAAgL4MI8BYunTU26bUzMRXs1uhV1daZikAQMzy/OnoR+9mT3/LLAGMJwIMAADQl0EHGBJQTJ/8orfN1tvfkxlmCQBAHUvTf9Lvp1/w3k/nLxwwc4HxQ4ABAAD6MugAY/7Cfm97cls0AKA3y7Mve++pUiuL75i5wHghwAAAAH0ZdIAxffLG9rbkf68uz5g5AIBeLLzzS+99ev7iQTMHGC8EGAAAoC+DDDCWZo5525JfugEA/VpV069+qf3eKg9CBsYRAQYAAOjLIAMM+Wy2u62V+dNmDgCgH63JH3jvr3ytKsYRAQYAAOjLIAOM1uQPnW19zkwFAPRr4d1Dzvvr36uVhUkzBxgfBBgAAKAvgwww5s58u72d6dduNlMBAP1afP957716efaEmQOMDwIMAADQl2EFGDOvfcVMBQD0a/HSC957NQEGxhEBBgAA6AsBBgCMPgIMpIAAAwAA9CWdAOOsenzrB9T1H89rz1EzGQNzbFfn/G4/cNZM3bjy83GtevycmTBwz6o95nwP9jVtf1ZuV8fMFNSxvueNAAMpIMAAAAB9WbcA4+jt7casWH00CGa7axdg+E2mLbfBP3/g2sL8du161izlBwSltfUhdd4sXy0+Lls9n59zD6ntev21DTDCY6l4fYSvK+f8DtrwAwxj4K/p9WjE/YAxrzU4dwNFgAH0iwADAAD0ZX3vwIg1BHZaj83NUJq9eMNig4lwXzaI8Jt804S7AYQJA/Jp+XF3thU5N9nyzZqn2BjttJ5CiCEEGMd21bvW2bi3Xpvtv+z6yra2r2OTORT9vKbleg0xxGnMHMvaBmBpIMBACggwAABAX0YvwND6aXIGHWBk24s0w1VjNE2+P4ZIgKF1/oov58Jt5GPnRrbRf4BRNpZaBh1gZNtrEGDseig/L7GmXLalj+nx7JwSYIjs9UWAkQQCDKSAAAMAAPRFAgv3l+Kl6T+ZOc0NPcAw0ztVFizYQMBZNtasV24vWN9U3kSWjLtSPDSIBwyiyz5MkNCtOW0WYJjpThXG5YQz/kdeYuOs3p6/fl5VjW0eYDxrjqm4P5ku6+fbjc/39ucdvzPWbHowdu88u/Ns+OJOk32Xv/7c4+4cb7i+w7xOw2tReTz29eGV3q43veE5cteV8xHso1YoUfazHRP+fEZe642uaeHYg/neNdDl7i963hqsbwXnzN5RJP+78LMWIMBACggwAABAX5Zbp7xfihff/72Z09ygAgzblHi/0EeauHy54K/32XLyMQJnum0a3Iai5vbyaWGjZxoVr1nqJr5O9FgzQwwwouua8UWaNq/ZtNP0+e1sM3ZsNbdnrlf9OzD09mLbyc5Xfq6iAUbheufjCxtp+xrY7nxsqOwa2WV7ev1Fj6Hu2LVax2NeQ951zsX2Ezue2HLZNGm8neudL1fjOppxh8ddEB5f6Wunh2uardcZa5NrXnXeuq8fjq/zb1k+3FeIAAMpIMAAAAB9WVk46/1SvHDx52ZOc4MJMPJf6v2myyxXCAwiy5Y0SLbJyJuW+tvL1/MblmhD2pXZdrDP8sYvdm6aizVSVU1YOI7CsmXHHjSTtbcXNJNVsm1m+41cPxmXGVPs+PJxu/sx2wiOI3a+4q/JkmOs9frTYg25Fh17cG4ztY4nfoyiuJ/4McbGma8bHHfJ8RSUnB9f5PpqhTE3vKZl+2xyzWPXp/b6hesYP84yBBhIAQEGAADoz+qiunTiH9q/FM+9dZ+Z0VzvAYZbQWOUKWmuYg1ArNkT3vT628ubk1gzXLG+zLPVXsbsMzLWeGNltxXsuyHbXLkV21+0cdby9bs33uH02tvLzkHsmhdl65rzGW5H/m2vedm+fZHXjlYYXyb+eokuW+v1p5Wcx+jYy7bpiR2PmVZ4nUb2U3ZdI8ceHWPp+oHK17zV4Hx7mlzTjibXPHbstdePvNaz7QXjLUOAgRQQYAAAgL7NvrGj/Uvx9Gs3m6nN9X0HhmmCir/Qx5uJaMNSq4Gsv728OQmaNbt+WeMRbdLMOl6F23UF56ZH+fjtcdttFpu5aFOqFZqzskY1mF57e5Gmrky2bvua5ecz358cV2df8X3bYw8quIaF8WXir5fosrVef1rJeYyOPbrNOsdjlim8ziP7KQ0gisceHWPp+oHoz0Yo9rNiyz3f/VzTjibXPHbs9dfPp3WOPb6PMgQYSAEBBgAA6Nv8uZ/4vxjPvWbmNDOIj5DkDULY4JT9om/WdxuWWg1k/e3lzUnQrEXG7YmOwewzaK7KddlHTfn4nbGYsYXjiDalWqE5G5kAw+xDjkP2HU739h15nUSnRcaXib9eosvWev1pJecxet4K26x7PGZa4XUe2U9pAFE89ugYS9cPmGOJLSfnMz/Gsp9PV7/XtKPJNY8de5P17XnKfga7HqOPAAMpIMAAAAB9k8DC/cV45vV/NXOaGegzMLyGIN6YRJuEkgbJbzLqby9fL2jWREUjVmw4hdl2YZ9lYuemuXz8/ljyJswfe7wJK290C41XcMy1t5etV1wuJttm4VrrpneX/wDEYpMZaybj1yM+7tj6JcuWvC4Ky0Yb/pJrXng91T0es73wWmn1zpEWGWdxXW0AAYZsNz/Gsp9PV91zUP5atJpc89ix119fjqt8HN0QYCAFBBgAAGAg3I+RSLXOPWzm1DeYAEMzTY7XiBSauOoGMtYses1Eze1VNT95M+NvIxPZdllzVa7k3FhlQUIgH3/JWLzjijRcsabU7tfbZuzYam4veq7ismPxjtceh3+Oik1msSG2165esxs5Fi26bN3XX+T62mtV9vPQOUd1j6e4nFW3EY8tF5sWvbYx5liKy+XnuH2M9jyGr5/2sfR7TTuaXPO65636NWPG2a7gXJYgwEAKCDAAAMBALLde9345lpo7fY9aWXrXLNFdowCj3eg55fyy7/6i325qnOY5L/cXf9sQ2um2uTUVaeKqt2e52y1vvDrbMFVyLO2KjceILh80QvGm2BUbl3N87rG3t+Efq5QbLLQbxKxZC5ftfu6kYkFFZ7u6osdTfi2zddvrRI7ZzguutYyjfZ6z7RXX7Vxrd54+zsLrRpfdT/a6jpyfGq+/bH/Oz8X2A48Vj8dup+vxGN5yely/Kf7cea/p8OeydFt5RX82Y8caeS3Eynt9FPYXvMa6noMuPwNNrnnk/Sp2fUrX11OysRXOjTkv0de9jwADKSDAAAAAA7Pw7m+8X5Btzb39gFp8//dqZfEds2Rc8zswgMSYRtdrxAETaMReF/Fgo4gAAykgwAAAAAM1f2G/90tyWNMnt6qZU19Ts2/epetur6Zf/VJ7OQIMbEgEGIgxd4vEXhfZXUQEGNggCDAAAMDALc286IURvRQBBjYkAgxElXxUpCLYCBFgIAUEGAAAYChWV+bV/MXH1PTJG71fmusWAQY2lsgzHmo81wAbSeyZHOHDP8sRYCAFBBgAAGDoludPq8X3n8s+XjJ35t7sIyTuL9KxIsAAgMEhwEAKCDAAAMDI4CGeADAcBBhIAQEGAAAYGQQYADAcBBhIAQEGAAAYGQQYEeahjlnV+KYBAIghwEAKCDAAAMDIaBRguI19tOo/3G7dmW8S8MbvhRXmAY9rGGCcP3CtP56sblfHzPz4AwVtOec+dmyR4ls3gOEiwEAKCDAAAMDIaH4Hhv3mBrexFvn0cWiKj+2S8Qdhi236299CMYQA4+jtavuBs+YfLhNMhPtqBxH+ubZBh3uu82My0yRocrdlgid337J8fCwABoUAAykgwAAAACNjcAFG3hSPfIBhmvniOPPj6jT1gw4wwu1b5edTZMFEMIZYgOEFMHKM7teBRgIM2QYBBjBcBBhIAQEGAAAYGYMMMCz3oxDSZNu7A8Im2jbWnXK3afejK2vg/Y9P5NtxlpFym/ao7mPvMMvaQKC97/jHZNxjLIylcJy6bCgRCRe6iQYYZXdxiB72AaB/BBhIAQEGAAAYGcMIMHJ5Q719q/1LvxMICNNUu0143pj7AUEnDOnsrxMWOMvWatIrmvwCM14ZfzuMiB97YdzmbohYwBCOLx5GVCPAAMYDAQZSQIABAABGxrADjPhyNhwIm22zjnP3QrRZLzyvQhTXLYiuV6bkOCPBSz7NXS4WVsSm2TAmfldHmfrnxCDAANYFAQZSQIABAABGRu8BRlhhE14VKJTNKwYbhbsbhGnW/Ya8LBRx9BJghNuLBRgFseNrGGCY/cTObzHAKAlbLAIMYF0QYCAFBBgAAGBkDP0OjFEKMOx+K5exmgQYZrth1QgwondTtMXPtV3HrcpwggADWBcEGEgBAQYAABgZGyvAqDt2UbK9QoARO5byaYUQoTJciI+hOvSIIMAA1gUBBlJAgAEAAEbG+gQYZWFDcZ3BBhjdmn+9//a+awYYsbFEP6pSEmBUns/4GAgwgPFAgIEUEGAAAICRsT4Bhla4kyEeVgw6wBDx507k63e2WbK9wrjD47Tnx50mKs6HDTwKY4+PgQADGA8EGEgBAQYAABgZjQIM0wj7VQwybIPtVrR5to17u9xtmYbfqfY23PXazb0THBTCiYjIsbQDgcI8Z3vuPBtGeMvny7a/6tUNLLzl6p03/1iK50SqPMiILV/j3AAYCAIMpIAAAwAAjIzmd2AAAOogwEAKCDAAAMDIIMAAgOEgwEAKCDAAAMDIaE1+v/ML9onPm6kAgH4tvPsbL8BYmX/LzAHGBwEGAAAYGfPnH/V/wV7o9ghMAEAdrXMPe++vq8vTZg4wPggwAADAyFi6dMT7BVv+YggA6J98LM++t86cutVMBcYLAQYAABgZqysLXoAxM/FVMwcA0KvFqd95763z5//TzAHGCwEGAAAYKa2zP/J+0ZbbngEAvVlZeFtNn/yC97663HrTzAXGCwEGAAAYKSuLF71ftKXmL+w3cwEAda3Mn1Yzp/7Fez9tnX3IzAXGDwEGAAAYOQtT/+X9wi01e3qnWp59xSwBACizujKvFt75pbp0Yov3Pjpz6p/V6vKMWQoYPwQYAABgJM2f2+f94t3+BXziFtV6e0/2Ge75CwcoiqIoU3J3xdyZ70TfO6dPblXLrTfMOywwnggwAADAyMr+ghj5RZyiKIqqXzOv365W5s+Yd1ZgfBFgAACAkbY0+7KaffPu6C/lFEVRVHVlzxBaXTTvqMB4I8AAAABjYWnmJTV/7idq5tTXCp/rpiiKovKafvUf1ezpe9TCu0+qlaV3zTsokAYCDAAAMJZWl2ezh9FRFEVReen/Y94hgTQRYAAAAAAAgJFHgAEAAAAAAEbeZRcvvqMoihpunThxkqIoiqIoiqJGrmK/u1LUqNZli4tLiqKo4VbsPxYURVEURVEUtd4V+92Voka1CDAoag0q9h8LiqIoiqIoilrviv3uSlGjWUvq/wdxbkRxoSZVOwAAAABJRU5ErkJggg==;" parent="1" vertex="1">
          <mxGeometry y="1150" width="1072" height="937" as="geometry" />
        </mxCell>
        <mxCell id="a99usP8DtZGCQz067Mhv-1" value="" style="shape=image;verticalLabelPosition=bottom;labelBackgroundColor=default;verticalAlign=top;aspect=fixed;imageAspect=0;image=data:image/png,iVBORw0KGgoAAAANSUhEUgAABmoAAAOHCAYAAAAnphwVAAAAAXNSR0IArs4c6QAAAARnQU1BAACxjwv8YQUAAAAJcEhZcwAAFiUAABYlAUlSJPAAAP+lSURBVHhe7P17zCRpfd/986fFH/wREVlISKBEFnpkCVvcPztCRiYKsonkZFcPFpZWArQSaFbyaMHGrMk6xjbjxXmCd2bNKRiT3QDZOGCGAby2CTs82A7BZrLmGe9sQgzDws75fLxPfffdVdevrlP1VVdddezqru7q90v+aGe6q6urqqvby/ez1f0iAQAAAAAAAAAAgF5Q1AAAAAAAAAAAAPSEogYAAAAAAAAAAKAnFDUAAAAAAAAAAAA9oagBAAAAAAAAAADoCUUNAAAAAAAAAABATyhqAAAAAAAAAAAAekJRAwAAAAAAAAAA0BOKGgAAAAAAAAAAgJ5Q1AAAAAAAAAAAAPSEogYAAAAAAAAAAKAnFDUAAAAAAAAAAAA9oagBAAAAAAAAAADoCUUNAAAAAAAAAABATyhqAAAAAAAAAAAAekJRAwAAAAAAAAAA0BOKGgAAAAAAAAAAgJ5Q1AAAAAAAAAAAAPSEogYAAAAAAAAAAKAnFDUAAAAAAAAAAAA9oagBAAAAAAAAAADoCUUNAAAAAAAAAABATyhqAAAAAAAAAAAAekJRAwAAAAAAsOq2/667AACAhaKoAQAAAAAAWHHxtU+I6B/+fzMnPvuAWSMAAFgUihoAAAAAAIAVR1EDAMDqoqgBAAAAAABYcbKomSXR2Qd0WUNRAwDAwlHUAAAAAAAArDmKGgAA+kNRAwAAAAAAsOZsUcNXnwEAsHgUNQAAAAAAoBvxfvJ/d0S0d1VMRhfFZPc88ZMcl2jvmognd5PjFZkD1z+uqAEAoD8UNQAAAAAAYDZxJKLxDTHZPUsaJtq/bQ5ivyhqAADoD0UNAAAAAABoLY5GYjK6ECwhSL1Ee1eSAzkxR7QffPUZAAD9oagBAAAAAACtqJJm91yueCDNE+1dTo5of1+FRlEDAEB/KGoAAAAAAEALkfkdmnDxQJonGl8zx3bx+OozAAD6Q1EDAAAAAAAai8a3gmUDmS3xZNsc4cWiqAEAoD8UNQAAAAAAoJk4CpYMZPbor0BbPL76DACA/lDUAAAAAACARuLJVrBkIN1ExGNzpBeHogYAgP5Q1AAAAAAAgEai8Y1gwUC6iSzCFo2vPgMAoD8UNQAAAAAAoJFo70qwYCDdJNq/bY704nBFDQAA/aGoAQAAAAAAjUSjS8GCgXSTaHzTHOnFoagBAKA/FDUAAAAAAKARipr5ps+ihq8+AwBg8ShqAAAAAABAI02KmpOHN8TG4eP5+848IR7cOCCOnTkrrhw9IDYOPiGu+MukOSWOHdwQR06E7pPR9z949FTgPjfHxZGNsvXMmBOHxIbZp+D9NUNRAwDAeqGoAQAAAAAAjXRe1Jw5pZcrLDmqi5orJ6brCy8jky1qVEGU/L1OqkugJAMoavjqMwAAFo+iBgAAAAAANNJJUaNKE6/UUEXHIXEys5yMX9TowiVUqOSSee5AUVN6JY9M3at1kqjtD2yDm8rno6gBAGDdUNQAAAAAAIBGqoqasitVsmVLvStgsuuQj6nzWLckCq3nkDg2l6Jmta+o4avPAABYPIoaAAAAAADQSLdX1OgiJFui+F9zFrqixhYiyZ/d9Z95QhwxpUr+uXVhk7mixnveolDUAACAeaGoAQAAAAAAjbQuagq+GixbyoTiFzU29kqZaTmSli+F5ZBX1LS6oiZcLlWlej91+OozAADWC0UNAAAAAAAQk90zYn/z78X41jfE6PpXxO7lz4qd838kts9+OJetFx4VO8n9oZLBT/EVNeHyRS6fLzQCy555QjyoCpDAb9rYQihXwtQraoq32SZU3pQl+7xV4YoaAADWC0UNAAAAAABrbH/zlNi5+IS4+913NkqjokYVKjpuWSHvc8sOfTXMgWQZvwDJFjXpVTNlV8PYIiezjC1MkvUdfkKcTIuabPGSKWpU6eOXQRQ1AACgOxQ1AAAAAACsIXn1zPbZx4IljMzm939DbL/wwdzVNHWuqEmLFJuCq1PUcuY+XegU/b6LLjr0+vTv2pw8cVyVJZnncaJKkTPHxcnM+ux69PNMr6ihqOGrzwAA6A9FDQAAAAAAa2ay/V1x93u/lilmts/+gRjf/hsRjS6IONoxS4a1/o0aP7IEOXhIHFGFS+ArzDIFjUzVD/XrAiUtatz7nN/HyVyZQ1GjUNQAANAfihoAAAAAANbIZPcFsfn8b6YFzc75T4j9zZPm3no6K2rs15MV3a8KEVmS6GKkrOgo/To0+TzqObKFyfSKnmnBE064qAkvW5xVKGr46jMAABaPogYAAAAAgDURT+6KrR9+YFrSXHzC3NNMF0WNut0UGP6VKfnHlBU109KkugjJFjWl22Zv5zdqAADAnFHUAAAAAACwJvZufn3mkkaapajJXfkSKELkY7IlSFFRY78azS9SdKZfbWZvcwuTadnib2PV3+cdvvoMAID1QlEDAAAAAMCa2H7hg6qk2fz+wyLev2Vuba5dUWNKldxXk/lXp4RKmdBtReubprSoUV+7pn/zpnFRox5ryyG9bbnlc89b9fs603BFDQAA64WiBgAAAACANbB/99vp1TSjq18yt7bT2W/U2JjfqvELlOky+aJGX5kTvpLGJv/c06LGLXGqipns320xkzzWbqO6KsjZZnd/3HVUbK8NRQ0AAOuFogYAAAAAgDWwc/4Tuqj53q+IaHTR3NpOdVFjrnYxcQuLwphyQz0mV+w4V8KY23RRU3KViipP/K9Qs+vR/7T36RKlImabwoVLdn2hq2zyyxSHrz4DAGC9UNQAAAAAALAGtn74e/q3ac7/obmlvSZX1MwWU3iosiRcjuQKFTf+VTDyNnkVjSxxSr4yzc/0ihpb9BQs46wz/7VrSWo+L0UNAADrhaIGAAAAAIA1sHn6vaqo2b38X80t7UV7l4MFA+km0f5tc6QXh68+AwCgPxQ1AAAAAAAMXBztTH+f5vpXzK3tRePrwYKBdJN4smmO9OJQ1AAA0B+KGgAAAAAABi7au5IWNeM7J8yt7ckiIVQwkG4SR3vmSC8OX30GAEB/KGoAAAAAABi4yfbptKiRf55ZvB8sGMjskb//0weuqAEAoD8UNQAAAAAADFznRU0iGt8IFg1ktvTxtWcSRQ0AAP2hqAEAAAAAYODmUdSIeCImu+dzRQNpH/kVdX2hqAEAoD8UNQAAAAAADNxcippEPNkJFg6kRUYX1FfK9YWiBgCA/lDUAAAAAAAwcPMqaqR4sh0uHkj9jC6JOB6bI9oPihoAAPpDUQMAAAAAwMDNs6iR4mhPRHtXwyUEKY38rZ/kCOoD2SOKGgAA+kNRAwAAAADAwM27qLHiaFcVD5PRxWApQXSi0SUR7d9Kjle/V9G4KGoAAOgPRQ0AAAAAAAO3qKImJ46IGyGznChqAADoD0UNAAAAAAAD11tRg5VBUQMAQH8oagAAAAAAGDiKGlShqAEAoD8UNQAAAAAADBxFDapQ1AAA0B+KGgAAAAAABo6iBlUoagAA6A9FDQAAAAAAA0dRgyoUNQAA9IeiBgAAAACAgaOoQRWKGgAA+kNRAwAAAADAwFHUoApFDQAA/aGoAQAAAABg4ChqUMUWNTFFDQAAC0dRAwAAAADAwFHUoApX1AAA0B+KGgAAAAAABm6hRU0ciXiyI+L9uyLav53kVo+5nWzLZrJJe2bjUISiBgCA/lDUAAAAAAAwcIsoauJoJKK9a2Kye3Y5M7qoyiOEUdQAANAfihoAAAAAAAZu3kVNNL4VLkeWMNHeZRHHY7PlsChqAADoD0UNAAAAAAADN8+iZqmvoinMeXUFEKYoagAA6A9FDQAAAAAAAzevoiYa3wiUIKuS80LEE7MnoKgBAKA/FDUAAAAAAAzcPIqaeLIVKD9WK9H4utkbUNQAANAfihoAAAAAAAZuHkXNZHQpWH6sWvgKNI2iBgCA/lDUAAAAAAAwcF0XNXG0Gyw9VjHy69tAUQMAQJ8oagAAAAAAGLiui5po/1aw9FjJjC6YvVpvFDUAAPSHogYAAAAAgIHrvKjZuxouPVY0Io7Mnq0vihoAAPpDUQMAAAAAwMB1XtQM5PdpbEQ8Nnu2vihqAADoD0UNAAAAAAADR1FTnpiihqIGAIAeUdQAAAAAADBwy1PUnBLHDm6IjcPHA/f1F4oaihoAAPpEUQMAAAAAwMAtTVFz5gnx4MaGOHIicF8oZvmNWXLwCXEltG4nFDUUNQAA9ImiBgAAAACAgVuaoubEIbGxcUicDN3XNE1Ln5JQ1EyLmpiiBgCAhaOoAQAAAABg4Pooaq4cPZC/uqVmapUvFDWd4ooaAAD6Q1EDAAAAAMDA9VbU1PjasWyOiyMUNb2gqAEAoD8UNQAAAAAADBxFTXkoaihqAADoE0UNAAAAAAAD17SoiSfbItq7Kia7P1TL+xnfPiHGW/8rV3i4WVRR8+BB/RVrsxQ2FDUUNQAA9ImiBgAAAACAgZPlSllRE+1dFns3vyZ2zv+h2Pzee9Jly7J75Wiw9LDxi5qTh8O/R6Ny+Lh5XIui5ugpMTlxyKzrkDgZWrYiFDUUNQAA9ImiBgAAAACAgSsqavbvfltsn/1QpoCpm1ZFTVrITJO9fZavPjsljh3UxY8qb/zlS0JRQ1EDAECfKGoAAAAAABg4v6iJox2xc+GPMsWLzNYP3i92Ln5K7N14Woxv/63Y3/o/ank/bb76bP5FjYm9uqbB165R1EyLmpiiBgCAhaOoAQAAAABg4GS5YsuY/c3/pQoZt6DZvfhpEe1dMktXi0aXgoWHm96KGhVzdU3g+UKhqOGKGgAA+kRRAwAAAADAwLlFzfaZR9M/b37/N8RkJ/+bNVWWv6hpFooaihoAAPpEUQMAAAAAwMC5RY3N1vO/LeL922aJZloXNfIryUKhqOkdX30GAEB/KGoAAAAAABi4XFHzvV9r9FVnvi6vqMmGoqYvFDUAAPSHogYAAAAAgIHzi5rdK58397TTpqipF4qavvDVZwAA9IeiBgAAAACAgfOLmmh83dzTDkXN8FDUAADQH4oaAAAAAAAGzi1qtn5wyNzaXqdFzYlD2d+rqVvuUNR0iq8+AwCgPxQ1AAAAAAAM3P7m/06Lmp3zf2Ruba9OUbNKERQ1XFEDAECPKGoAAAAAABi48a1vpkXN6PKfmFvbi/auBguPVY2II7Nn64uiBgCA/lDUAAAAAAAwcHs3/3Ja1Fz9U3Nre9H+7WDhsZIZXTR7td746jMAAPpDUQMAAAAAwMDtXf9vaVGzd+Npc2t7cTQKlx4rmGh80+zVeqOoAQCgPxQ1AAAAAAAM3N71rzhFzdfNrbOJ9i4Hi49VSxztmT1ab3z1GQAA/aGoAQAAAABg4OZR1MST7WDxsUqJxjfM3oCiBgCA/lDUAAAAAAAwcPMoaiT5tWGhAmQlMrogv8PN7An46jMAAPpDUQMAAAAAwMDNq6iRovH1cBGyzBldEHE8NnsAiStqAADoD0UNAAAAAAADN8+iRor2b4cLkSVMtHdViHjfbDksihoAAPpDUQMAAAAAwMDNu6iR5I/yL/PVNdHeZRFPtszWwsdXnwEA0B+KGgAAAAAABm4RRc1UJOJoV8STTRHv3+k5d5Pt2OYKmhooagAA6A9FDQAAAAAAA7fYogariK8+AwCgPxQ1AAAAAAAMHEUNqlDUAADQH4oaAAAAAAAGjqIGVfjqMwAA+kNRAwAAAADAwFHUoApFDQAA/aGoAQAAAABg4ChqUIWvPgMAoD8UNQAAAAAADBxFDapQ1AAA0B+KGgAAAAAABo6iBlX46jMAAPpDUQMAAAAAwMBR1KAKV9QAANAfihoAAAAAAAaOogZVKGoAAOgPRQ0AAAAAAAPXT1ETCRHvt0zyWCwUX30GAEB/KGoAAAAAABi4RRU18WRHROPrYjK6ICa7Z2fL6LyI9q4l69wya8c8UdQAANAfihoAAAAAAAZu3kVNHI1EtHclXLh0kdFFVQJhfvjqMwAA+kNRAwAAAADAwM2zqJFXvATLlTkk3r9jnhVdo6gBAKA/FDUAAAAAAAzcvIqaRZY0NpQ188FXnwEA0B+KGgAAAAAABm4uRU28HyxSFpE42jUbga5Q1AAA0B+KGgAAAAAABm4eRU00vh4sURaRaO+y2Qp0ha8+AwCgPxQ1AAAAAAAMXOdFTY9X09hwVU23KGoAAOgPRQ0AAAAAAAPXdVET798NlieLTDS+abYGXaCoAQCgPxQ1AAAAAAAMXNdFTZ9fe2bD1591i6IGAID+UNQAAAAAADBwnRc1e5eD5clic85sDbpAUQMAQH8oagAAAAAAGLjOi5rRpUBxsuhQ1HSJogYAgP5Q1AAAAAAAMHAUNahCUQMAQH8oagAAAAAAGLjeipoTh8TGxiFxMnRfkitHD4iNg0+IK4H7qkNR0yWKGgAA+kNRAwAAAADAwC1lUXPmCfHgxoZ48Oip/H21QlHTJYoaAAD6Q1EDAAAAAMDALWNRc/LwRuZqGnl1TbPShqKmSxQ1AAD0h6IGAAAAAICBW3RRo77SbGMjlyMnzDKqwDkgjp3xH5O9rTwUNV2iqAEAoD8UNQAAAAAADNxyXVFzXBxxSxsn6iqbkt+0yYaipksUNQAA9IeiBgAAAACAgVueouaUOHZwQ2wcPp5dLo0ucYrvd0NR0yWKGgAA+kNRAwAAAADAwNUpaiY7p8Xezb8SOxc+KbbPfVhl8/R708f52bn82UB54iVT1JiSxvkqtLKErrjJhqKmSxQ1AAD0h6IGAAAAAICBKypq4mhH3VdWyBSlWVEjr5Sp//sz6vdqKq+qoajpEkUNAAD9oagBAAAAAGDgQkXN+M63CguarRf+vdg+++HCbL3wqBhd/4tAeeLkzBPiwfQKmbq/O9MkFDVdoqgBAKA/FDUAAAAAAAycX9SMrh7LFDOysBld/YKYbJ82jyhX9Rs1Jw9viI2DT4grud+oMb9BU5EHj57KrC8cipouUdQAANAfihoAAAAAAAbOLWp2zn8yU9LIgkZ+BVoTVUVNmoKipvj3Z/Tv2FDULB5FDQAA/aGoAQAAAABg4Nyixo38+rM2KGqGh6IGAID+UNQAAAAA6EAs4mgk4slWkk1CSJvIq1riiXlPdStU1MjfmGmLomZ4lrqo2b8kxM7fC7H1P4TY/AYhJJStvxFi9zvJm3nTvHEArBKKGgAAAACtxdGeiMY31MA0PEglhDRNtHdZFTdd8oua7bMfNve0Q1EzPEtX1ES7Ir7zFRFffkTE53+VENIk1/5QiN3nzJsJwCqgqAEAAADQSrR/OzA4JYR0FVXYRHvmHTcbv6hp+5VnFkXN8CxVUbP9bRFffF94AE0IqZ8b/1mIuJv/PwJgvihqAAAAADSmr6IJDU4JIV0njnbNO6+9TFHzvV8zt7ZXWdSogmZD5/Bx5z5d1KT3FYSiZvGWpqjZ/Hp44EwIaZcrjwoxuWPeYACWFUUNAAAAgEai8c3AwJQQMs/MemWNW9Rs/fDfmVvbq31FTS5cUbOslqKo2f5WeNBMCJktV2f7uksA80dRAwAAAKC2eLIdGJYSQuadaO+KeRe2M7r8ubSo2T73H8yt7cntCW3nYkNR06Xei5rJDRFfeCg8ZCaEzJ7bXzZvNgDLiKIGAAAAQG3RXtv/ip4QMmviyZZ5Jza3e+m/pEXNzvlPmlvbW4avP5S/4YPu9F3UxLf+JDxcJoR0FrF/3bzjACwbihoAAAAAtcjfyQgNSwkhi8ksV9W4Rc3u5T8xt7YnS6PQNi4y0f4tszXoQq9FTTwW8flfyw2VCSEd585XzJsOwLKhqAEAAABQixyKhoalhJDFRcSReUc203VRk3wiJNtzLrd9i8ysv9uDrF6Lmt3nwkNlQki3ufqYedMBWDYUNQAAAABqifauBoelhJDFJY5G5h3ZTPdFTb/lbTS+ZrYCXem1qLn71fBQmRDSbS68x7zpACwbihoAAAAAtUxG/D4NIX0nnmybd2Qz8yhqpKiXz4VzQsT7ZgvQlT6LmvjW58NDZUJI5xHRpnnnAVgmFDUAAAAAapmMLgYGpoSQRUb+Nkwb8ypq5NePTUbng9s6r8STHfPs6FKvRc3NzwYHyoSQ7iMmt807D8AyoagBAAAAUEujoubEIbGxcUAcO+PdfuYJ8eDBJ8QV97aKnDy8ITYOHw/ed+XoAbHRcH1dRm1bq+c/Lo5sbIgjJ0L3zTOnxLGDG+LBo6emt5W8JvljH3h8MHL/DomTwfsWFHUONtgGeRxC52woatnk2MgUnJs28hx1j1fZ+Vwny1bUSLqsWUCROzqfPBclzbxQ1Kxmrn3658TGgfvEtcB9mTx7n3jnxs+JLz6r/55/3EHxxQMb4p2fPjh9TCDqcerz717xrH+/9xxzT+Xzle1Tvf2db94uHkuO5aK3gaIGWE4UNQAAAABqaTKILSxQzhwXRw42G1QXD7Z12VFYGrjD9EwOiCOHk+0L3jdNZRlh1t+ubMkXNeqYOc+fT7ZEqFo+vF2hoqb4NWlb1OgC65A4Kbe38HVwU7MgaZIOihq1H6Htdc/tM6eKizqz75njVVRi1swyFjVaLKLxzeA2d5FofD15Cr7ubJ4oahpGlQT2c2Fx5YQsStzBvl+4+PenCRY194rHDmyIx56Wt7nFhf3zfapIcD//pus+KK55+5xuS+bYVKd1UbEkRY3a78B++dHH2Q1FDYApihoAAAAAtdQvaiqG+Wp4XTJArxrsmyF50RA9X1Dkt6f8Shx/ef330HPVj7+/BUVN0TYFSoTi5b11ZwqLgtcmVCgkaVXUzFhEuPFf43D5FNrOJF0VNcGSsE7MeZN7vLm98Pwrz/IWNUY8EfH+XfVj/+r3a+TnRqtcEtHe1WRdd0Qcj83KMU+rXdTogbf7eRFO94XKs4/MZ71Fufb0vYHCxRQ1piB55yNvT/7uFRHBoiZ5XLI+/XhneXmbumJGH9d8wRBKw9IhfQ57W9FrGLhyx2aRRY0tn5xSLBRd2hRvkzpfktdH/z18zPQ55SRdvptQ1ADLiaIGAAAAQC1qeBoYHOeSDrx1YZAZNlQlMBQvHsLXLS7y5YK/bPY5FlFGdFzUZO5vUdQkUetTx6DJ6+Ydg85KmnzJobavYN3F54i7rW6mBY5eb34ZefxmKWr0eguKooJirE6WvqjBylr9osYdjushfL4IKBvqt0vVYH4e0c+p921a1Jh9Tof6XhFRVNSYsuCxp+3yb1f/1OWMvU8/pjS54qUiBUVN5rmq1lmzqAlvv3d8SqKKkwM/V6Oo0fuQrlNuv7d8eVFjXkN3n2oWRE1CUQMsJ4oaAAAAALXULWqmA//A/WZ43mRAnR+W6yIhsw4z+A5fcdF1URN4/popKgXktpzMbJO3DQsoakLJH/uSx5vX1j6vfGz49ahOsOQIHAObYKGS2e8aCaw/uN4a0dsf3tY03vGqG4oazMtKFzVymJ0ZZNuBtzvkl7cNo6hxSyddIiT7XnAMqosa8+dH7tPLP3Kvs566RY053pnnr0iTokb9U76eFcldeVK2/TX2zZYkar16+bJ91OdCfp/cMqi8qDHP4e2HvsKmu3OMogZYThQ1AAAAAGqpV9SYqzGCw2095FfDlIrhd2GhYeM9vnygni8XMiVHkuzjy8sMtWxom0JxniMbr0xJkt0mbxuWvqiRz+lsn9qe+s+TjTmHCo9dPsHXv6uiRm5LRTJlS5MCxizb5DhR1GBeVvuKGj+hoiYbPVR338vhQbi/nDt0n97vFSDO8rkioOMrJNKiJndf/aImuLxKjTJDxhYpzvp0uZBPuq4mRU26jBdvn/Ip236/JKmKKVEKX7fw+vRxmO5DeVETeg0oaoB1QVEDAAAAQFO/LXFLD4S3T+cyvv0tMb71zdzg2E1asARKE33fIXHMK0nS+5zHuCXEdAjvlARmwF2U7JA8Xy5kSo4k2UF/cZlRtn9+/OfIZkmKGlOo6OOWXb9M/aImm2BxUjctSp7g83VV1PjrDSxnY8+PWiWNTfoa1NvW7bMfElsv/D/N8/1/mxY1O+c+Zt70wFSmqNn+u9nS0MKLGlOW+ANyfwifKzNUcZAdmPtFTdG60sxY1PhFUCh6v7yhf7CouVc8po5TKPLYmXKiILoAcZZx9ilbSEyX66Oo8YsPFfs6eFevFMfsZ/B1K3nNvXOtvKgJpeJ8ahGKGmA5UdQAAAAAa2qy/T2xe/mPxfYLHxSbz78vHeKWZefyZ4PDYx1zJYRMcGhuhtveoFsPt5O/nziVlhpuCTEdljslQeEQ3ikp0gG4l2S92a8Z8wfy4TLCbueDyX25/QskU6TkMo+ixh6PBkWNTWD9MvmiokZR4z5f0WsQjHl+9Xj5HE9MzyeV7Outti1zf/NkChVzDI4clq+zvq9RUeOe4+7tNaP3p/rxofdl02z98N+ZTwFgKi1qZkx87RNmjfX1VdS4pUC+cCkqG7Lr9B+nC5DuhupVUdtYUh6UFzXTx+n98EsDrzwJFCP2+Z/11te2qHE/o3XMMnJ5fz8D25OJeZ3lejIFkHtf8NiFYrYvtLzzPMXR+9G4qDHrzm3/DKGoAZYTRQ0AAACwZsZ3nhE75z8eHOBWpayoUcXB4eP54bYd1nslRDoIDwyn3RJiuj6nJMiVAXYd+QIkVC6ESpHpNhcsb55Db3PNpM/hPE9ouWTdqiAIHCP12EA5kNmHTBkzW1HTaP9k3H3MvdZF8Y+5E1PUZIsZe+yyZU1nSZ8ze2xy57JM4LXI36/XVSuhY1CS0PuyaShqELJWRU0ghUVN8j4tG6RnHld1Bcgcki9EbJoUNfZ4JcvLH81P97eqqJGP0/vrFz9ti5pMIeEsI3+DJ1dq5LbHi7n/sUfka5Rdty2m/Ne8OCVFTWXkY/XzNCtqzOsSfH3bh6IGWE4UNQAAAMAa2b346fzQ9ge/K3bOf0Ldt3vlT8To2p+K0fWv5LJ7+fOlRc3Jw3qInhluu0NrZ3iviw95e3jgPb0/n+6LGv2Y6f3e8t5gPji8DyT7HF4Cw/78Njn3Vy3fYVHj3p7f14LHO/ep16lov9OYZUPH0ZQmuecout2931lf4fGX++rcnu5j4BjI+9TzqfvcP+ePVTg1jleNc8nN5un3iM3v/krj3P3uu9L3/PbZPzCfCMCU+9VnsmyZJU31UtSoEkAu48Yf2k8LDJXAwDwtaj5t17fIoqZskK/vq1XUqKtV3K9Bs8t55UlJMTLvomb6d+f5q4oa5/G6dJsuq7fvvuwxKo3evlpFTW7fpmlS1KhlWxVD5aGoAZYTRQ0AAACwJnavfD4d1MrIq2r2t54z91abjC4GB8d+0sG3M1jPDc3N4DtbqEyTLm+W08NsZ+jtlg+ZwXmLoia3LWXD9Y6KmkDpENomuYzarsw+5pfPPldXRU1o2aJjo2+X2+B/rVw4ZvnQcTT7Ht7GgseofSw+Pulydt3JOnLblzsG+X1V65TbkDtWRdHrCJ/nfkFYL/Fky7wjm9m99F/S9/7u5T8xtwJTblGzaIsuavTQPnSFRcHQXxUC+jH+MpkrM0xZU2/w3yamLKiKGu7XLWpsQTJdfloQyPuc/e27qEki11u0T36y2+CeE9Pn8re7OPoxoWWn50BZ9HZmt0mvM3S+1N+u5qGoAZYTRQ0AAACwBkbXnkqHtJunHxL7myfNPfU1K2oOZa4ICQ3N1XIVA321jBxw+MP5XFFTcDWJSsHA3Tz3dPhul8kv76aLoib/nN4ycv/UMSwa8mfXnz2WHRU1odvKHu8ez4L9nkavJ3wc9fbn7lPbE3hutX/545TbDrNc0eua31+5HYFCxmyHev2q9jN4DG0oarBc1qeoCQ/c9bC9eOivYgobd7CefZx93or1dJXA9kxTr6j5YlocuMvLPyfLPu0VIU2LGnmcvcxa1GRSWtR4+6+SPMeBe5N9lq+ZWW/pOtwUFzW5zHpFTdV+zxiKGmA5UdQAAAAAA7e//Q/Tkub53xKT7e+ae5ppfEWNc1t4eF8xqJaD9eQxx2xZk5YN5j77d7OcXrdXUqhMywVdkDiDczt0P3hIHCkpZ9yk5VGdBAf5Ttlhnt8vGeRzHDkR2pdQ9HL6OYtKAZu6RY0pUnLbX/B4J7MXNfYYO6+3TKiQCd1mMt0O81xVx8Y/Bu45VrCcPp+KX6PyY0FRg+Wy7kWNLhayA3t5W6Y4sOt1rhTJFTymPKk10J8x5eWSV1QEi5p7xWOP2O0MFBt+YdC0qHGOUy7zLmrUY0P35cuRym1VWVBRo/Yp8NhknblCp2UoaoDlRFEDAAAADNzupSd1SfP9h0U0umBuba67okYOqM0A3BQV+WG1XEYPw+369FDcH7bbIXzxsDxTrGS2yx3gBwqITAE0TWj/Qikc0gcLAWf75f3qcX5Ro7fR30+1PeZ57L4WHYvCokVtw3SbitdT8Hgn5eWEjTn2Rccxd16Y5TPr9Y9PPulrX+P18l+XwtfZf/2KYvahcPuq7i/IKhQ1cbQrov07IhpfF9He1Z5zLdmOm/q4xROzhQgZVlFjhuplw3KvtHjsEX+wny9lbAnjlgn+umR0geI91sasY/Yix+xjZcFg4pUafrESKmpyBUZJMZJfX0UKihp13DJpV9SEyxfzmvrbGXhdc2nyulUVTGn8okb+PbA/5rkpaoBho6gBAAAABizauyTuqh8Sf6ca1M5i9qJGX7UiBy+Z4bQZWE8fkx3AZ9bnlSd6EH9InDRlR2aQb28LDun1c0y3JV9AFBUOhQN8L00eL5fVz623Q29TdVGjnsMrDfRtRduY38/0OKWPOZ4sY7fHfaxM4PFeivY7G72e0uNozwubynXaTF/b+o9J4hYwXnFVuJx/XxqzDSX7p8/dGoWPl2UuauLJZu3Pib4SjW9Q2BQYRlFjBvH2M8AmN1zPlgJqAG4H8UnSgb1zm03ZfW4xoAscGW9g32TgXxK9/jplgIl63iZFjT5GmfLCW4ebpkVNfvnA81UVHur+omIjf3uoVLNR21P4mFDC61FR25V/TL4I8oqa0DnlhKIGGDaKGgAAAGDA3N+mkV+BNotZiho9lM7fPo0z2D5xKFMEhIsRs3xmEG+G/1XD77SYcL/WKl9AhJ+3+HY/ajm/KCgrAHLlhV/UZP+uj2l4XbqsMfvnFjH+fpv79H6bY5o5Ls1Tr6hxXu/g/c2ij8U0ZUVSLu7xUdtTUUZVFTV2fZl9s8c2G7d0q5ulLGriibp6JbS9S5nR+WSTd8zGwxrWFTXDji4VQoP/knilhl1HOPeKL4aKl1mKmlx5UVJ0FCVQZOTLi8CVUEnKShqbOsvkEyoH667DK2oWFIoaYDlR1AAAAAADtn3msBrMbv3wd80t7bUvavzCoVmy66suYzIlhRc70A9uS67QCD9Hfv9M/CtAkmSfR297+DiY/fIKjvTqGBtzv9qGyjKkTpLXxtsXe4xqJ7TNgW3Lr7ek7KiRzLHp5FjMmupzs4ssXVEjS5rRpeC2LnviybbZCUgUNSsSU1bUKWn8q0HqFwKyQAiUDSVFzdIkdBVO0ZU3gehj1uBKpabJlU1zfK6CUNQAy4miBgAAABiwzed/Sw1mdy7+J3NLe5MVHcauQupdhULI8hU1K3UlTSBxtGf2BL0WNbc+FxwoE0K6j5jcMe88AMuEogYAAAAYrEjY36cZXf2Sua29aO9KcNBJCFlc4qjdV3bNo6iJ9+8Gt3GVIj/XoPVa1Nx+KjhQJoR0n+Qdp994AJYKRQ0AAAAwUPH+rXQwu3frr82t7UXjm8FBJyFkcUne2OYd2cw8ihr5Wy+hbVy18Hs1Wp9Fjdj+n8GBMiGk41z5oHnTAVg2FDUAAADAQMkBpB3M7m+eMre2J4eZ/oCTELLAjC6Zd2NzXRc18vddgtu4gonG181erbdei5rJzfBQmRDSbW7PfoU1gPmgqAEAAAAGarJ9Oh3Myj93YTK6GBx0EkLmn3i//e8KZIqaS7P/ZtWgrrAbnTd7td56LWoS8fXHw4NlQkhnEeNz5h0HYNlQ1AAAAAADNY+iJp5shgedhJD5ZnTRvAvbcYua7XP/wdza3tB+syr5cDN7tr76LmrE3gvBwTIhpKPc/GPzZgOwjChqAAAAgIGaR1Ejya8JCg06CSHzSxzN9jsqe9e/kn4ebL3w78yt7UWjS8HtXNXE8djs2frqvaiR7j4dHjATQmbL5UeSN/m2eaMBWEYUNQAAAMBAzauoESIW0d7V4LCTENJ95JVss3KLms3v/Zq5tT2KmuFZiqImEd8+Fh40E0La5eL7kv8ncNa8wwAsK4oaAAAAYKDmV9Ro0fhGcOBJCOkoo/PqR/u74BY1XXwm9FLUnHlCPLhxQBw7E7hP5ZQ4dnBDHDkRuq88FDXLU9Qod78WHjgTQprl6oeE2L9s3lgAlhlFDQAAADBQ8y5qpHiyM7jfqiCk/5wT0fhW8gaLzDttdn5Rs33uw+aeduoUNScPb4iNjZY5+IS44q/zxKHw7TaVRU5xKGqWrKiRxudFfPPJ8PCZEFIe+VVnm39l3kwAVgFFDQAAADBQiyhqUvFYxJMtEe3fFtH4JiGkcW6JeP+O+S2aWL+vOuQXNTLjO98y9zZXu6gpK1aC0VfFhB4n1/fg0VOZ2zKRRc7GIXEydF9FKGqWsKix5HsiOS/E3eP6a9FufYEQEsrtLwux+dfJB/4PzJsHwCqhqAEAAAAGaqFFDYClFipqNk+/V0Sj82aJZhZW1KirZJK/F+TIiePiSOB2N3W+Co2iZomLGgAA1gBFDQAAADBQFDUALLeo2T77ofTPMns3m389zsKvqKn62rMZfp9GhqKGogYAgD5R1AAAAAADRVEDwHKLmr2bXxe7l55M/y6z9YPfEeM7J0Q0vmEeUa5NUaP+HrjiReXwcfO4cFFjv/bsytEDBYWNvLKm3e/TyFDUUNQAANAnihoAAABgoChqAFh+USONrv9FepsbWdpsn/uw2L30X9TjQhld+bwY3/pmsPSwCRY1aSHjLVda1ExLmMKiZobfp5GhqKGoAQCgTxQ1AAAAwEBR1ACwZLliPw9sUSPJK2j8q2vqZufyZ4Olh01nRY3ztWfZosYsG7pCJ5PqAoeihqIGAIA+UdQAAAAAA0VRA8AqKmosWdiM73xLjK5+QWyf/XC6bFkWU9Tov8uvPZP3h6+o0cu0/X0aGYoaihoAAPpEUQMAAAAMFEUNAKuqqGmq9W/UNC5q5NeeJX8viCpnzjwhHpzh92lkKGooagAA6BNFDQAAADBQFDUArNUtarIJXlHjfDWau2yTUNRQ1AAA0CeKGgAAAGCgKGoAWEtT1ASuilFpWtTIciZ5nPxKNHWbv7409a60oaihqAEAoE8UNQAAAMBAUdQAsFb+ihpTzKQJrCcb85VplcvpUNRQ1AAA0CeKGgAAAGCgKGoAWMtQ1NSLV9TYgsYULqGvPtNX1BwSJ+1t6jdr9NU2dpmqUNRQ1AAA0CeKGgAAAGCgKGoAWCtb1HgJFjVnjuvH2Kttkhw5kX1cVShqKGoAAOgTRQ0AAAAwUBQ1AKzeihqnPGmUBkXNNKbkUetwrrCpEYoaihoAAPpEUQMAAAAMFEUNAGvIV9TkU76OUChqKGoAAOgTRQ0AAAAwUBQ1AKw+ippVioj3zZ6tL4oaAAD6Q1EDAAAADBRFDQCr86JmfC1YeKxqhIj1jq0xihoAAPpDUQMAAAAMFEUNAKvroibevxMsPFYx8uogUNQAANAnihoAAABgoChqAFidFzXRXrD0WMVE+7fNXq03ihoAAPpDUQMAAAAMFEUNAKvrokaK9q4Gi49VC79Po1HUAADQH4oaAAAAYKAoagBY8yhq4mgULD5WKVxNM0VRAwBAfyhqAAAAgIGiqAFgzaOokeL9u8ECZBUirwjCFEUNAAD9oagBAAAABoqiBoA1r6JGklelhIqQZU60d0Vuud4BKBQ1AAD0h6IGAAAAGCiKGgDWPIsaKZ5sicnofLAUWbZE45tmq+GiqAEAoD8UNQAAAMBAUdQAsOZd1GiRiPfviGh0KViQ9JrReRGNb4g42jPbCh9FDQAA/aGoAQAAAAaKogaAtZiixhFPRByNkuz2HhGPzUahDEUNAAD9oagBAAAABoqiBoC18KIGK4eiBgCA/lDUAAAAAANFUQPAoqhBFYoaAAD6Q1EDAAAADBRFDQCLogZVKGoAAOgPRQ0AAAAwUBQ1ACyKGlShqAEAoD8UNQAAAMBAUdQAsChqUIWiBgCA/lDUAAAAAANFUQPAoqhBFYoaAAD6Q1EDAAAADBRFDQCLogZVKGoAAOgPRQ0AAAAwUBQ1ACyKGlShqAEAoD8UNQAAAMBAUdQAsChqUIWiBgCA/lDUAAAAAANFUQPAWnhRE09EHI2Sf+y0S7SbrGPfrAyLQFEDAEB/KGoAAACAgaKoAWAtpKiJIxHv3xHR6JKY7J7tJqOLItq/RWmzABQ1AAD0h6IGAAAAGCiKGgDWvIuaeLIlJrvn80VLh5ElEOaHogYAgP5Q1AAAAAADRVEDwJpnURPt3w4WK/NINL5hnhVdo6gBAKA/FDUAAADAQFHUALDmVdTIq1xChco8Q1kzHxQ1AAD0h6IGAAAAGCiKGgDWPIqaOBoFi5RFRH7VGrpFUQMAQH8oagAAAICBoqgBYM2jqIn2rgRLlIVkdMFsBbpCUQMAQH8oagAAAICBoqgBYO1d/+q0qLnxNXNre3G0Fy5QFhiuqukWRQ0AAP2hqAEAAAAGiqIGgDW++Vfp58Ho+p+bW9vr47dp/ETj62Zr0AWKGgAA+kNRAwAAAAwURQ0Aa3z7b6dFzZVj5tb2or1rwfJkoRldNFuDLlDUAADQH4oaAAAAYKAoagBY483/L/082L34hLm1vWh0KVyeLDTnzNagCxQ1AAD0h6IGAAAAGCiKGgDWZPt76efB1g8/YG5tj6JmeChqAADoD0UNAAAAMFAUNQAs9/Pg7nffJaL9m+aedihqhoeiBgCA/lDUAAAAAANFUQPAyhY17xSja18297RTv6g5JY4d3BAPHj0VuK8gJw6JjY1D4mTovkwoarpEUQMAQH8oagAAAICBoqgBYPlFzebp94hofN3c21z9oua4OLKxIY4cfUI8mPxzI5gD4tgZ5zEUNb2gqAEAoD8UNQAAAMBAUdQAsPyiRmbrhQ8KEUdmiWZqFzW50kVfYbNx+Hh2uTOyyDGFDUVNLyhqAADoD0UNAAAAMFAUNQAs9/Ng6/n3pX/ePvthEU82zVL11S1qrhw9IDYOPiGu2NucQubk4Q1x5ET+doqaflDUAADQH4oaAAAAYKAoagBY7ufB+M4Jcfd7v5b+ffP7/1bs3frvZsl66hU1+d+nkeVMejWNW8hQ1PSOogYAgP5Q1AAAAAADRVEDwPI/D2TRsfWD30lvk9l8/n1i9/Ifi/Ht/5Hc/0MRja+ZR+fVKmpU4eIUNW4Zo5bRv1+j7qeo6R1FDQAA/aGoAQAAAAaKogaAFfo8iKMdsXvpyfT2ptm9cjRQnkyjrp5Jixrv6hpT4ugcEicpanpHUQMAQH8oagAAAICBoqgBYJV9HkR7V8Tupc+oK2rsMnVSWtSo4sUpajLFTBL79WemwDlylKKmbxQ1AAD0h6IGAAAAGCiKGgBW3c+DONoVk50fiP3Nvxfj238j9m4cF6Prf5HL7pU/Se7/20B5oqN/i+aJ3G/UqISKGK6o6R1FDQAA/aGoAQAAAAaKogaA1fXnQdVv1Fw5+oQ46X/dmQ1FzVKiqAEAoD8UNQAAAMBAUdQAsBZd1Oi4Rc1xccT96jM3B58QVyhqekdRAwBAfyhqAAAAgIGiqAFg9V/UOLdzRc1SoqgBAKA/FDUAAADAQFHUALAoalCFogYAgP5Q1AAAAAADRVEDwFr6osYNRU0vKGoAAOgPRQ0AAAAwUBQ1AKzlK2q836jJ3U9Rs2gUNQAA9IeiBgCAGcWTLRGNr4vJ6GJggEAIIRUZXRDR3tXks2RTfqLoD5aOUNQAsPouaq4cPeCUM+YrzoKPOauX9cubYChqukRRAwBAfyhqAABoSRY0csAaHhwQQkibnBfx/l3zKTM7ihoAVt9FTfj+abJFzoY4ciK8XDYUNV2iqAEAoD8UNQAAtBCNbwSGBYQQ0k3kVXpdoKgBYHVe1OxdCX5+LTSjC2Zr0AWKGgAA+kNRAwBAQ5Q0hJBFJBpfM5867VHUALA6L2qW4N+HZFmE7lDUAADQH4oaAAAaiPfvBAcFhBAyj0T7t82nTzsUNQCsrj8P4sl28HNrkYmSfy9DdyhqAADoD0UNAAB1xfvBIQEhhMwzcTw2H0LNUdQAsObxeTAZnQ9+bi0q8t/N0B2KGgAA+kNRAwBATdH+reCQgBBC5plofNN8CjVHUQPAmsfnQbx/N/i5tYjM8tmIMIoaAAD6Q1EDAEBN8gdrQ4MCQgiZa0bnzadQcxQ1AKx5fR5Ee1fDn13zzOhS8syx3gB0hqIGAID+UNQAAFAHX3tGCOkxouXXn1HUALDm9nkQRyLauxz87JpLRhdm+kpIFKOoAQCgPxQ1AADUEEej8LCAEEIWkDjaMZ9GzVDUALDm+nmgypprwc+vLiMLobbFNapR1AAA0B+KGgAAaoij3eDAgBBCFpF4sm0+jZqhqAFgLeLzIJ5siWh0Kfg5NlPkVTT7d82zYF4oagAA6A9FDQAANVDUEDJrToljBw+IY2dC99kcF0c2qpZZz1DUAJjVIj8P5JXIsliJxjeSXFNX2zRO8th4/476dzAsBkUNAAD9oagBAKCGTouaE4fExsYhcTJ0X9OceUI8ePAJcSV0Xw85eXhDbNTYnitHD9RabmGRr0nZ9nT2mskiYkM8ePRU4D6TBb+mtV+LwmMgC5iKfVLRy20cPh64z8YsU3P/1flW8Lqo/VpQ6SOf68iJ8H3l0edDncdS1ACYFZ8HqEJRAwBAfyhqAACooVZRIwfsG3JwHIg7eK4x9NdD5sB6kmSHunWH5B2mZPvbFzV6YB3aXzfthuE1UlHUXDlzSu9backwTfGydYqaZBm/0Cg7t9zkzrPAMjLOuusWNcX71OQcrFFMqO2uUbCYYxJeV41SqOSYPnj0uH584L5s9Hba96veFvPcuWWTmOM8PZYUNQAWh88DVKGoAQCgPxQ1AADUsOgratTgNzdk1gPgIyeqSo35XkVw5YwzxPa2sX1R46f+ALuTeEWNHbxXJ3SsT4krJ6YlQHYf9H5VlhqmRFhEAVf+WpSda/YcblYW6mMrH1tSaARjj3XJNtnzsaykKnnv6W0LvabV5+P0seHj4R5nihoAfeDzAFUoagAA6A9FDQAANcxe1JQNvE2c0kMPfQPLJLFDXTnszQx45XA6V+7MMekwfDrYXrWiJnick2Oobq86lqpMCQ31p1HHQ64z3Ve9X7VKjRqFXuvUuEIns41qW/x9LS9aivcxOQYHk/3yj5u3v8XnSPjcmJYfxcWRfr3dYyq3xTyHOZ+D51yN11o/r/wKNF1kUtQAWDZ8HqAKRQ0AAP2hqAEAoIb5XlFjBt5OMSCHuvlBs14uHepmhudy4Fs1SJ5H9KDZbmtpUVNWDuRKkfoD7E4ij6Wz3W5Rc+XoocxxPXnYvHa1hvdJcq9TWYmx+OQLkfw2psvkzl0ZvxgpLkpK4607v1024XMjLT+C26ij1undp8/Z5P1W8roUb0sozv4754i7DooaAH3g8wBVKGoAAOgPRQ0AAIl4sikmuy+I8d2/E6PrX8nn2lNi5/Jnc8PTNskPi/NFjRzkFg5v1SA6Wb4sueKjg9QoJkqLGifVy/Vb1Njo18o9nnq78leXOMvX2K/GJcYck38t/G10ioelL2qeKH3u/HtPJv/+U6nxPlPbkDsmzv5T1ABYInweoApFDQAA/aGoAQCspXj/lti7+XWxffYPxObz70sHF1UJDVB1zLDXG+RmYgbB+WGxPyiWw9tD4phazltHkvCA2hsyzyPytzfkc8ntKCgjqgsYGT2cLl+u/gC7kwSKGrUvyTbkh/7T19rfvitnntD7FnycjN6vwhJDDfb14+369fkyva0yaj/MMS6J3Yb8a+Zto9kmta/BosZ/rZyiwlnOHk8Ve76WrDstNnLPGT43Mu8Dud7Ae8ItSzL3qe3wyrfgvtpkt0Hvm328s//OemctajZP/3qS97aK/fwa3/wr8wkIYB1R1KAKRQ0AAP2hqAEArJXJ9vfE7uXPZoaXTRIaoOZTPnzND4u9okYOiJM/q+Uyw2a93JET06IgnKLhckcxw3X5XMFhfGgQ7kYNwOVy8uumwlemNBlgdxK5Tel26+eW21j2/LZ4CC2jXju1Dn//9Lr945ZP8f7r523wGodKCCfT0sDe5m2jW1gEywt/W8NFjY37fPo4hdedvk/M+TZdX/jYZPYj9xidzHvPnoehyPV425M9TvltmK57fkVN6DOpSShqgPVGUYMqFDUAAPSHogYAsDbkV5i5Q8s2CQ1QcwkOs6fJD8azRc3Jw85g1x0em5QOqBcY9bxpuVF8mx+5zIMH5b4dEkfk8sk/i64eyqf4uM6SzLGWx/LEcXGybJBvB+7JcqH16XiFR+FtoRQM8E0Bkd4u/15xvDPlRC6hUiW7jeo1Tf6ejy1//G2tW9Rkz3t/O3PFRnqffr7gNrnvA/X6ZQuqomORey51DjQraqaZX1HjXylTN/bzi6IGWG8UNahCUQMAQH8oagAAa6GspNn8/m+InfMfF7uXPiNGV45mf5vGpvZv1LhD6uwgOn9/2W2rmexAPRQ5mDbFjDO0zu97/QH2LFHDczvkl8m8VoHY8qZ0H8ui96v6tQ7vf/74hs4xN+56Qs8dep7wc6uESkinjNC3lZ/PaUnhFSnT8kL/PVOqZJYtOTbecfCPV3VR42x7oKiZ7lPJMXLX0WFRw2/UAJgVnweoQlEDAEB/KGoAAIMnixY7mHCze+lJsb/1v81S5eJoNzg8zUUNZqfDXV0EuIPt4sF4frCtb88UCaVxh+X9JB2M20LDxgyo5fGQ+1k0MJ+m/gB7piTbmQ7la2yP3JfZtmn6WqtjZdYpk339A/ufK0Tc2wu2y9svv7gIrrNqfR0VNdOyIvyY7Dni3h8+N7LrM/H2pei8S2939yWzr/72BbZBLq+e3y9q9Drc555ua3hfQqGoATCrhX0exBMR798V0fiamIwuJbmQ5DzJ5FJyfK4nh2ozOWCRPm5LgKIGAID+UNQAAAZtf/sf0qGEzeb3/63Yv3vSLFFP3aJGDmCzA+rpYF79PTTo9pfxbq8zxA0O3OcWvV1uyZCLPzBPH6e3cWmKGhuv0MjdJ/epdHu92MeUpHzf/P0vKT9MGZE/r/RjMs9Tp7jwlskks1/m+XLndHmpUlyoZM/f4nMkfG4E15tErcfcXrqM/1yZ/fKfM78Nah1q+en+u+t1/0xRA6AP8/88iEQ0vhn8DCNlOSfi/TvmGPaLogYAgP5Q1AAABk1eNWOHEjKbz/+muaeZWkVNZrCrh7X+UDs8KNbD2qKiZrqOqsypqEmLgOrnUfsXHK4nSdZzxOxjcDCeSf0BdieRr11ge/TwvaAgcbbRLpemcN+KXms/2f1Xx9Vdf1Gccyt7jL1zSd1eUP64RU3utZdxS5nQOe2sN1DAhN4DoduKz5HwuRFah5+iZYLP5b6fc2WUvw2hY2k/A7LHS2a6HeF9CYWiBsCs5vl5EEcjMRldDH5+kXqJ9q7KA2mOaD8oagAA6A9FDQBgsKK9S+Lud38lHUqowcTO9829zVQXNX4x4wyn7bD6hDMAzzy2aFhbf4gbGojLqAF0xfC6y6gBdGFJMU3xEN6mat/l/cWFUeMEihq1jZXbUPP1SaMf06yokV+TJrelYn8zZYJ+fLBcscupfwbWWXAuqVQWFjLNihp9nP3nM++n4LkbPu6dFzVpsu/t8Osd2CZzfB8sKGt0wvsSCkUNgFnN6/NAlTS753KfW6R5or3L8ojqA9sDihoAAPpDUQMAGKzRtafSgYTM7qXPmHuaq/0bNYUpGTwXDcxzw/aq5Nchf3NDraNigN1VFlbUnDklTgYH/C0jX4PM9ujnLy1UygqNwtRdr31Niwb8s6Z4O3RxUvC8XlETXtYpaoLLu+dq9nVW50/lvofPjeqixtku777i81E/V3qf2h/n7zbeftrX0D6X3q/Q/oT3JRSKGgCzms/nQcyVNB1H/nZNXyhqAADoD0UNAGCwts/8fjqQkBnf/TtzT3OzFjW5gbYd+JqEB/f1h7jlpYEZNi+grFlYUWOij+vsZU1+e6qOmb3KoqhMKIpeb/j1TmLPC/O8triodQ40iP866eOon6v0+dxCwpQRoWXd9aX7qh6rX6v0/hrnSj7mtQml7Bwv2d7QeWuPfX6d9rWfnndqWbOc3Tf/Ndbr88+Xeue5DEUNgFnN4/Mg2r8V/Mwis6XtZ/6sKGoAAOgPRQ0AYLA2v/9v0oGE/PMsZipqSgbE5akY4pr1pkPqDoqPWRMaeIeSL0b81N/e6nWVxCnM/MG6WzaE06Yg0vtVWNTIEuCwty9eqVedivLIKUyC95fFL2rKihEv8tzIvp628KgffdzC54ZblqR/9x6fKV2890+6Pnt7xTmlzw95LPR+yMdPbws9Ri/34NHj2f2uee5S1ACYVeefB3EU/Lwisyfau2IO8mJR1AAA0B+KGgDAIMX7t9JhhMzO+Y+be9rR378e/h/ThBAy78TRjvk0aoaiBoAlh//282B85xlza3vxZCv4eUW6SfIvs+ZILw5FDQAA/aGoAQAM0mTn++kwQmaW36dRkv+xHPof0YQQsoiIeGw+jJqhqAFgycLXfh7s3Thubm0vGt8Ifl6RbiKLsEWjqAEAoD8UNQCAQRrfOZEOI2RGV46ae9rjx3IJIb1kdMF8CjVHUQPAtXn6IfV5sHvlT8wt7ckrdIKfWaSTRPu3zZFeHIoaAAD6Q1EDABik0fWvpMNJGfn3WfGDuYSQPhKNb5pPoeYoagC4tn74iPo82Dn/CXNLe9HoUvAzi3STWT7726KoAQCgPxQ1AIBBmkdRw9efEUL6SNuvPZMoagC4ts9+SH8mfO9XRDS6aG5tp3FRc+KQ2Ng4JE46t105ekBsHHxCXHFuIzoUNQAArBeKGgDAIM2lqEnE+3eD/2OaEELmkVm/+oaiBoBr7+ZfTf/d6OqXzK3tzF7UnBLHDm6IjcPHs8sV5rg4srEhHjx6KnCfzsnDyfp6L370dh45EbqvfihqAABYLxQ1AIBBmldRI/HjuYSQRSQaXzefOu1R1ABwyR+o33z+feozYfP7D4t4/5a5p7mZi5ozT4gHmxQagSty8qkoc8xzbrRMvW2lqAEAAM1R1AAABmmeRY0k/8dz6H9UE0JIF5GFcBcoagD4Rte+nH4u7F76jLm1ueqiRl8xk5YmXtGivvassnixMVffuMXJwSfEMXkFjXtbUexVNk3LIRu17RQ1AABgfihqAACDNO+iRpL/VepkdDH4P64JIaRVRueTz5ZN8ykzO4oaAL5odCHz70i7Vz5v7mlmtqImULwEkpYd8rGFX2kmi5FQ4RMoTDorauptfzj1yimKGgAA1gtFDQBgkBZR1FjxZFv91+8TNbA4l/sf2oQQUprRBRHtXTMFTaw/WDpCUQMgZP/uydy/J0Wj8+beemYqagqvUAldjSJvOyCOnXFvy0b9No33WzfBK3a4oqYURQ0AAP2hqAEADNIiixoAWFYUNQCK+GWNzPa5j4jx3b8T0d5lEUd7Zsmw9kXN9GqU3G/JqCLFK2Xk4w4fUuXH9KoU77G5xxWUJX5RY/7urncaZ31FRY16vH+FTLuyyQ9FDQAA64WiBgAwSBQ1AEBRA6CcLGu2zz6W+XcmN5vff1hsvfDBZJkP57L1wqNi5/JngyWDTkFRY0oPFe8qmGmZ49yWxlufF3lVjb1PXU0T+qq0YFETKFD82wuLmmSb1O/klJREtgw6eEgcOxHe9lAoagAAWC8UNQCAQaKoAQCKGgD17G+eEjsXn8j8u1OdtClqjskS5fDxYJlSWLCoBIoaW4JUxhQpXRc1JtmvXnOLmvJyqSwUNQAArBeKGgDAIFHUAABFDYBmJrtnxPjOieTfm/5c7F78tNg+86jY/P6/yfw7lZtWV9TY+3MliV4+d5VNmqKiJlC0FGVORU02BV+71jAUNQAArBeKGgDAIFHUAABFDYD5af8bNdn702LGL1FszO3ZK2RkknUVFS1F8Z+j6PH+7ZmiRhcx+e1pkqKvd5uGogYAgPVCUQMAGCSKGgCgqAEwP/WLmuO6kAkVFKoA0YWI+vqwwq89kym6oqa69EjTSVFTErP+umVMWShqAABYLxQ1AIBBoqgBAIoaAPNTXdQ4V57Iq2ZyV9ToqILGLFdehASKmoJ1FiZY1EyfP5uGRU1aOpmvPjsq192+rKGoAQBgvVDUAAAGiaIGAChqAMxPZVHjlyIFpcqVowd0MVJ6NY2MW9QcF0fk8nKdlY9zEixqZr+iRpdNdt+c36gpWn+NUNQAALBeKGoAAINEUQMAFDUA5qf6ihovgaLGXk0z/Xq0slLDFDUHdbEjixBV8tjfuKkTv6ipm6Kixqwvuw1OUeP8vdF2JqGoAQBgvVDUAAAGiaIGAChqAMzPTEWNKT5yV9gU3a5iCo+0BNHFTaPSpbOiRj93sLzJFTU69sqhzFe3lYSiBgCA9UJRAwAYJIoaAKCoATA/bYuaY6awKCtL0q9Dc69C8csSs758oVMSewVMy6jnDl5F4yZc1Njoq4iqvw6NogYAgPVCUQMAGCSKGgCgqAEwP42Lmk7T4moama6/+iyY8qKmbihqAABYLxQ1AIBBoqgBAIoaAPMT7V0OFgykm0T7t8yRXhyKGgAA+kNRAwAYJIoaAKCoATA/0fh6sGAg3SSebJojvTgUNQAA9IeiBgAwSBQ1AEBRA2B+4sndYMFAukkc7ZkjvTgUNQAA9IeiBgAwSBQ1AEBRA2CO4v1gwUA6yOiSOciLRVEDAEB/KGoAAINEUQMAFDUA5ouvP5tP+vjaM4miBgCA/lDUAAAGiaIGAChqAMyZuqrmXK5oIO0T7V0xB3fxKGoAAOgPRQ0AYJAoagCAogbA/MWT7WDhQFpkdEGVX32hqAEAoD8UNQCAQaKoAQCKGgCLEU+2wsUDqZ/RRRFHe+aI9oOiBgCA/lDUAAAGiaIGAChqACyOLBnk13YFSwhSmmh8Qx5AcyT7Q1EDAEB/KGoAAINEUQMAFDUAFi+e7IhofF19jVeolCAmo4vJcbrZ+1U0LooaAAD6Q1EDABgkihoAoKgB0LdYNjfEjzwuS4iiBgCA/lDUAAAGiaIGAChqAAD1UdQAANAfihoAwCBR1AAARQ0ArJXtv5spFDUAAPSHogYAMEgUNQBAUQMA6yS+9gldtMwaihoAABaOogYAMEgUNQBAUQMA64SiBgCA1UVRAwAYJIoaAKCoAYC1Evg6s9YBAAALRVEDABgkihoAoKgBAAAAgFVAUQMAGCSKGgCgqAEAAACAVUBRAwAYJIoaAKCoAQAAAIBVQFEDABgkihoAoKgBAAAAgFVAUQMAGCSKGgCgqAEAAACAVUBRAwAYJIoaAKCoAQAAAIBVQFEDABgkihoAoKgBAAAAgFVAUQMAGCSKGgCgqAEAAACAVUBRAwAYJIoaAKCoAQAAAIBVQFEDABgkihoAoKgBMBVH4yS7SXYIIWSO2U0+cPbNJ88ATG4m/+My+Xeo3f9FCFnpfEeI8Tn5ptbv7SVEUQMAGCSKGgCgqAHWXTzZEdHeNTHZPZfkLCGELC6j8yIa3xBxtGc+kVbI/nUR3/5TEV9+RMTnf5UQMqi8W8TXH9flzZKhqAEADBJFDQBQ1ABrK94X0d7V8PCUEEIWnGh803w4rYC7xwODXULIIHPjPwkRbZo3f/8oagAAg0RRAwAUNcA6iqOR4AoaQsiyJdq7LD+gzCfVcopvPhke5hJChptLh4QYXzKfAv2iqAEADBJFDQBQ1ADrJo7HgpKGELKsifaumE+r5RPf/Gx4iEsIGX5kWbMEV9ZQ1AAABomiBgAoaoB1I4egoeEoIYQsS5bya9C2vhke3hJC1ic3PmU+EPpDUQMAGCSKGgCgqAHWSTzZCg5FCSFk2RJHe+aTaxlEIr74vvDglhCyVhG7/8d8LvSDogYAMEgUNQBAUQOsE66mIYSsSpbqqpqtvwkObAkha5ier6qhqAEADBJFDQBQ1ABrI54Eh6GEELKUGV0wH179i68/Hh7YEkLWLxceMp8M/aCoAQAMEkUNAFDUAOsijnbDw1BCCFnSyIJ5GcSX3h8e2BJC1jJifN58OiweRQ0AYJAoagCAogZYF/FkMzgIJYSQZU0cj80nWL9Cg1pCyPpG7P5v8+mweBQ1AIBBoqgBAIoaYF1Q1BBCVi1xtGc+wfoVGtQSQtY3YudZ8+mweBQ1AIBBoqgBAIoaYF30UtSceUI8uLEhjpwI3Jfk5OENsXHwCXElcB8hhFDUkIXl6XvFxiNvD99ncu3TP1e5zNrl2fvEOw/cJ66F7rORx7ZqmRULRQ0AAB2jqAEAihpgXTQtalSJcvh44L7j4khJ+eKmvIipvx6VE4fERnD5U+LYwQbrGVJMERZ+nYpz5egB8eDRU8H7bOoso6OPf2jZ4nOoh7Q8Vl1FHs/SUlJt3yFxMnRfLvqYd19y6vdkvdd9MaGoWd7I0uKdnz4YvM+mzjI6B8UXD2wEl332keRcryxHih+vSoKNe8Wz/u1eriXLvXPj58QXnw3fr6LWtSEeezpwX+uUbHswcvmK7WywTlU+BUuUt4vH6uyrLGqqljPL1N/HWZJsd8tSqPhY5ENRAwBAxyhqAICiBlgXzYqashKlZsFiB+OhyAGzKV7COSCOncmur3DQfea4OHY4uS95XOk2lW1PRboogVRpEdiv9jHDerWNzdarjqV8XFFpYY9VrSJgFYqapsfKXb5FAvssj0VZAVJZ5Dixr988yskm69bndN1yqV0oaoqiB/H2nFvMADwbNdSWz19UopjhfL3Bd3GxUKuoUc9VUF7ULGpkqgf15rjXvKqmXlFVv1SxCW1n9jj56yx6jrLnrlnUyNQ4xmr7Co+tfi57PmeS7JN6bOg+L2pbn5VFTfJ3+1ymXAtFLz89dyhqAADoEUUNAFDUAOuiUVGjSpSiAWydosYZ3gevFND3q3WYUqD2+oL31xgaq+dxh/SBdeb2u+FVPwUp3LZQeVSz2NADdbk/plRoeHVFcVlTvj69LzNmlvLGFnwN1tH8WJnlGm+nPl/yj5O3lxdE6rjWeb7QOZNLjecKPq5GvGOn1tXw3GuSVSlq6g6Smwzja8UMoTtfb80UlzWm0CgYetc9XqVJnjN9/kDSY9KgqLGFgXpsyYA/mEB5I/ezuuhoXtRkttPcpo5p3aLGlmihpK9Zg6LGvt7y+cvWHUpRMWKOf/756xwvU/zI7Qm+/s6+UdQAALAcKGoAgKIGWBf1i5pAgZFJdXmhBuPp8DYwHJfDdufvlf8Vf1qgmHXJAUzNpOusNeAOZ6aiRm17YHBut8cdzoduC8WUFdPXSL8mZUVWKHLIfiR5LrdAmpYa2WWLU3y+1C4fasWeRwfqHSObVsfKPFfjbc8WNWkZFkxyPpttK45f7pn1FxUjNc+fTl8X85yzlplFWaWixh0c2wLBHTL7y3QSMxTvfL0NosqIR96eGYTr/a/6ei43xcP3bAERilMSuLeXFi3FxY3c9vx2+NtXp8SQy5jnaVr6+AmUB+oYO/vcqKgx0a9TuMQIbkeSwn1O9vGdyfP721m+XW7kfWZbSs/rOsc+idye5Lg9S1EDAMBqoKgBAIoaYF3ULmqcwWvj//JeDZDlMNkb9Mt1esWMP9g9efhQ8pjw8Hze/9V+t4WCm7KBvx66Z4+DLaICV9/Y5IoHkxoD8/LioCxlxc0Cihp3n2uWESqtj1U3RY2NPA6lxZDanpLXXMWsu3C58HOHkntd1POHXuPQOZrPPN+fq1HUyAFztpTQA/DsMDlcAMyYHooau2/NU1bcFA/wq4saO3QvWIc/qA8O7qvir7tGWSCfp9bQv3jf/RQde7kd6jgF7nPjP4c9tuGCwt/HmgWJl/pFjS1KkveJ3N6i17zp6+csP90WihoAAJYORQ0AUNQA66JuUaOGrhtlw9l6w9tp6dAkoSG0GUA7g+CqAiB3hU7llQvVKR20F6VwAF6UiqKmqHiwqSwgitK2mJDpqKiR215n2G/2sXK9Mx0r/3iUn8vT5wiVJfI2eQ4UHye1raX7btbbMv4+6tflULt1ho67OtZNzvP6icbXRLx/u/+cezDJO4MD21DsQL14qK0HxZljGxxM+8t5A2q/qDF/L16nXV/ToqJO9BC+cMBemuIBfmVRkw7iC9bhD/abDvpV/HVXlxbyHCgqJLIpLy+6Seg5pvuwLEWNjFre3xb/vA5ErzOwfooaAABWA0UNAFDUAKtsf/OU2Ev+/WX73Icz/05TlK0Xfj84DE1jh+BJiof9zYqawkG5HzXszRcU6VUg7iC7YFkdM1Rv8F/4NyoUGkRte4PtKCshggWaKSMyt9UtMjLxi4keIre7o6Jm9mPlH4+ic9m/PVDUyOdV+1W0jurzT92frOOkei8EzvvC90P4vZp7PnUc2l9RU3+55tl+4d8HP8sWnfF3f15EZ94RHNiGUlXUqIFxrjzwl/cH43oInSkt/KImiX7uoqtX9DqbFxV1Eti+BWQ62A+XALnhe6ioyRQB02NXvG772oSf0x6LeqVG0ToCUdvubV/b4+2sK1hQOAWGvi1U1NjzScfep89BvxyR9033tXjbA8+T2xY33vGzr6VdN0UNAACrgaIGAChqgFUTRzuqnNk8/d7Mv8fUSVVRowfC+jdAioeuzYoaO8CpF3/YbAbfMpkhftk26PvCBZGzvpppP3z2h/1VMduWW95uc9GAPrSN9tgXlVl+mmxrm9fVpKyI6aSo6epY+cdD/71NUSPfU/p+b1m7H1Vx1qVLy6J9C73Wenv8fQ4XNd7zOql+DxQdn9kz6KImMxA2A293cB0YTsv1Zgb6ZiidHVIXDbTnHT0wDw/f/ZhlzTnWKJnj5g7pvYG9SW74HipqbDLHT78m4XVPB/3qtcytT95f8By5hLc7HKdgcB6nt6FmzLFwj0uwoMidS+5z+8lvlz0PsoXMdJv1e8Ss35zHhdvrbUt2e0PHz9keihoAAFYDRQ0AUNQAqyQanQ8WNPK27bMfFruXnkz+feYvgtm9+iX1z9AwVCX9r+rDw91pqu63aTi8DQyb1UA5ue1Y4MqU3LDZRq2n6GuY6m67TJNlQ6m5/96QPPN85r7CdRSWDyZV96fR2xo8nnWSnjuB+0xCr1f5b+YUrM8eL39bOz1W/vEoei392/U5kz4uc1wK1qGWCZUs+cy3qAkd72bv9dxr0kH2rv2ZKqb7zuQHbxHRC3UKCB09hC4aaoeiB8f5oia5rWzgb5bRQ+qyQfoikh3QN443jA8lO/RPkh6jQMxyueF73aLGueIkf2z9Qb933OVj/YG/Wl9gOyvjbqtbSpS/3rljlYl5rXLPJWOeL/d6lD1f0fHwS5T89mcLliTO65O+dt62VBc1Tpz1UdQAALDEKGoAgKIGWBXjO9/K/HuLLGdGV7+gyps6Kn+j5sQhM0T2hrNmgF2Z3JDWDG9DyxbGHTafEicPH1LD49BXiBUNrdUQuvDKDDNIb5DqIXVRiob7JbHHus6VJTKZcqE85aVInZQUMYWD/mkKizUbuY6Zr6gpSYNjlS8eil5L/3avqCl97+hzN3RuF6Xta+jvc+Vr0Tj+8eoucbRnPsH6FRrUlqW6qCkYlPuD9cxw3x2am5ih+Ds/fZ8aPMvlip9z9tj9ap/APtjkioF86pQP/sA+9xhncO8up5Jug3l97ONy2+aWFt6ySeRxKiwOvKjtqzo2ToJlg79cjWPpJlhQ5I5TyfM596ntS9flPyb7GmWXNQkVK97+qO1Nj3f4dU9DUQMAwGqgqAEAihpgFfhX0uxc+KT6CrQmKouaNKGiJvRf608THvw2LCpKnic4zDYD++wQWm978XN6+1aaJsuG0nD/TewwvtbzNiofipMWAG0H7ZVFTY1jMcSipnRZHfneqXuO6Ncp8B4pfO+EzuHpdjQqfkqPt3+8ussgixo1GE6OV2YgrAfH7rDfjRow29fCXcauK0la1tQcNHcdu89F+1CZynKhYiDfZVHztLctVaVF5n65HWX7MY08Zu/89NvNdsvXr2C7nKRlgnu8nPOgPOH1BwuKqn3OxN7nLZN7Tb3XKPSap8/rrMtbLvuahl535zVw9kM+Ti8XXnfwOBSEogYAgI5R1AAARQ2wCrZ+8Dvp+1R+vVkbfRU14WFRURoUNaHBt9rWssLADNIbpH0J0nJ4bQqFWsP7RuVDUWy58ITa3lbrWpOixp4Tfqb7Va+oUe8XdbzK1+uf810WNe5tentCj7fbV361lLtv4fvbZ4hFTfg+PTiuKjl0YeMMz82A3g6p7br9smL+sdt/nxqah/a7MqGhfSbhIsa/375/9HKBxziD+9xgvmAbcmWPO+h3lpve5xYc4ajnVut0tlE9f8Vj7fa7RYq73e6f3WXcP3ux542KOR65Y1NQbuTuS5cPraPqNUwS2s7M8/nrCK1Tb4+6LV2fu43hfclvb3EoagAA6BhFDQAstqiJo7EaFkf7t0Q0vknI6mf/dnJObyUn9745y7vnfuWZ/B2athZf1DgpG+TXWH+4qMnfrrajdNgfGlwXpcmy4ZRuj9zvon2q+7yNyodwMkP6ysKlIJWPm/1YpumxqMkXEf7tej/9bdPHeJrKbSjYVntuNE1mPQWvlV233Zf0uUrfTzYdvr5e1qaoUcPi5Hi7ZYC8zR8aq6GzMyA3j/OH1nW/RqurZAqkzFC9QSofly8D9PNmkxnYh9bpFAG5Aia0fHC7wsWEilx/ncItfW29oqHqOJj7H3vEKRXcx7h/dkuP3J+zx626UHH22V2Xf1/pbaH1esmtO0nR/qn7A+sMrcPsc+65nfVR1AAA0COKGgBYTFETT7ZFtHc5OIQhZCiJ9q6KONo1Z3133KtpovENc2tziytqzLB6xrhDX7+QSaO2zQ6d9fOW/1f9zbdtpuFzZvtC94WG6Mnz1hqOJykY6NeNLhC87Svb5qJUFTVt1lkUs8+LLWrqxpxf5nG2oNHPGSp78s+jC5Lwscq+z5yofQu9R733cpLC95KMPf9Uyt/zmXT5+npZ1aLGFgjBQb4aDCf3p8P8t4vHDtybxL0tiRosuwNpf8Bvl/GGz3b9/qBaRQ/Pw/e1i97X7HaGtr0yuQG8l8p15gf2wcG7Wo/e/+qixhwvv3gp2Ra5zuIiIrS+QNFgXsPi9Xjb7m63+2dnXzN/9pI7TsHXwilecuty7lN/1/uUO/Zmv4LvC5uS7ZTR55tO0fHJv+52e36u9LhS1AAA0COKGgCYd1ETi2h8PTh8IWSokVfadEX+No19f7b9yjOr1ytqytZRY/2lw2WbWsPi/OC6OE2WLUrRlRg66VULTsqLJi9qn9tsoykUSl+TBtviFTWh/eriOPrr1KlZKDQ6Vt0UNdmEi5orJ9xypGx/Ss7HwveQ/xj9d/91zb5eyeuY2abqAka9/+uWiw2zakWNGvSmx84mP9DPLueUBvLvzqDYHUpn7zODZ/c+d7itht369uxQvMuipmJdZhvKyoZMvHIgdCxLB/y5wkNvX+750yIgvLx6LlOAZAb3pmSw2xLeL7nO/OstY/cnvw/+dmRvLyuE7LY89mnn2HVQ1Kh15wqLaRmTXd5up/OYzHM5x1XGL738FG6nfR5zX/p6+Mvmj6c+VtnHhV4//ziUhaIGAICOUdQAwDyLmlhEe1eCgxdChp5o75p5H8xm7+Zfpu/P/c1T5tZ2ZitqzIClLAVDbTsELhyQFw6Zp0mLmsx/8V8zyXbZKxtmSttBdI39a51G5YPMtPCoLmGmy1auv+qKmmVIo2NVVgzVSO2ixol7boceX3YeFd4XeC+b8zjznih47+p4x8J/H5jtrn8ONsuqXlEz7EwH8+Gyws102fKSJYlX1DRPdkAfLhtk3OLADvnNdqoSYXp/5Tb7UfsQLg6KC4Dsdueiigu9LX5xlz7GPXbun9sUNWq58OuQKYfMsZke5+lrXX1eFEcXWtnt1LfZ58kub7cpfa0y55F9Lb39Vsvkt5OiBgCAHlHUAMD8ippofC04dCFkXTLL15RZ8ioa+/6Mox1zazuLvqIm/a/0S4fASWqsPy1qAvctf8ygu+o4tIk6dvWG5HYwX/sqmTT6fCh9nqEWNY1fM3Osgo+rKGpsTPGRXa5ie4reQ+r2+b4u87yaRoaiZrlih+LNB/E1yo/MgL1N3MLjYLKt99Zfl3xuf0BvCpL6uVf/wH/VFSO5VBQ1dVJ67JxiqqCEcAuKa8k+PFZ7W+S6wyVI/vgURW63s41JpseioGjx45ZL8s9qX/RjC4+reox5zZznrlvOiZ3Z/uOZWVDUAAAGiaIGAOZT1NQfCBMy7MjfZ5rF9tkPq/fm1gv/3tzSXjzZCm4jWUTMAH9lyybSa1R5U15m2mS/xizJPApCE13+1duuthHxvvkE61doUEsIWd+IvefNp8PiUdQAAAaJogYA5lPUTEYXggMXQtYt0eiSeVe0Y4sa+c9Zyf8yPbSNhBCynDlnPr36F1/9g+CwlhCynhHRpvl0WDyKGgDAIFHUAIBQwxD7OTjrb2BI8WTHG7QQst6Jo5F5dzS3efq96r3ZRVEjTUbng9tICCHLlmjvqvnk6l9858+Dw1pCyBrmymHzydAPihoAwCBR1ACAEPH+7fRzcO/mX5lb24vGN4MDF0LWNfH+HfPuaM6+N7sqanh/EkJWJbN+dWSnxhfDA1tCyNpFbM7+v5dmQVEDABgkihoAkCJx93u/oj8Hr37B3NZetHclOHAhZF0Tja+bd0dz9t9Ruipq5O89yK8TCm0nIYQsS6K9y+ZDa3nENz8bHNoSQtYolw7JTwP9odATihoAwCBR1ACAtvX8b6vPwZ0LnzS3tDcZXQoOXQhZ18jysi377yidFTWJeLIZ3E5CCFmWzPKVkXMTbYv48iPh4S0hZC0idp41Hwj9oagBAAwSRQ0AaNtnDqvPwc3v/4a5pb3J6GJw6ELIumbZihop2r8d3FZCCOk7S/WVZ769MyK++G+DA1xCyLAjNv/SfBD0i6IGADBIFDUAoI2uPZV+Fu5v/x9zazv9FDXHxZGNDfHg0VPe7afEsYMHxLEz7m3lOXl4Q2wcPh6878rRA2Lj4BPiSuC+TE4cEhsbh8TJ0H1zjT4OR06E7luynHlCPLgxfW3Cx1a+fqHXdZqy18uPWjY5PhvO84Yjj6Pz+nnb2jTLWNRI8f7d4PYSQkgvGZ0XcbRjPqGW2PiC+jHx0CCXEDLMiK2/NR8A/aOoAQAMEkUNAGjR3qXkc1D/Ts3u5c+aW9upLGpUiWEH5i3jD+YLB+mnxMnDB5LH1C9Nigf/RWVQILmiRhcOwX2x8UqKaakQSlFpMK+iRq83vC11k30N/GImXNRU70/u9VLngv/cOtP1nBJXSkoXtc6Dyfamy5jXr2Yh5GdZixopjvaS7bsW3G5CCFlUovFN+YFkPplWxN3jIr74W8GhLiFkILnxGSH2l+s3syhqAACDRFEDAFO7l55Un4Xy68+i0QVza3OzX1FjSoE6V66YlF/poofshcP+ksG+illvUXESXG9BUVNU8oS2v7AwKr0SZV5FTXX08al71Un+eARfQ7Wv5SVbuKhpf/WLfu0CjzcFY5tju8xFTSreV79dE41vqOKGEELmk6v6n+PrItq/Zb7mrN8f5p7Z7ndEfOcrIr75n0V8/ZMivvaHyT//IyFkJfOEiG99Xoitv0n+R81N8yZfLhQ1AIBBoqgBgKn97X9IPw83n/8tMdk+be5pZtaiRg3sG1wB4w79i8qU4uSfJ1iQBIb3peVQ10WNu75lLGpM2VX7ee0+nNCPC742yb7rc8G/Tx6Hgit85HGYqajR6y16nfT51eTc1FmJogYAAABLj6IGADBIFDUAkDW69qfpZ+Lm6YfE/ubfm3vqm6moaTNkV48pGp43vzonX9QEhvfBYkKXMbnyIMmDR49nixpvP1e7qCkvoUIJFR5FxyDdl4LXOfd6ecenfsy5knnt/ZjXuMH5JENRAwAAgC5Q1AAABomiBgDydi9/LvPZuH32D8T4zglzb7X2RY0ZlFcOy7MJDf1tpldkFBU5OuErN5x425MrB/xUXVEzoKJGH3+Z8mM8jX2ds8vnj4G3L7ljqhMuauw2lSTzXE0KGFvI1d1fihoAAAB0g6IGADBIFDUAELZ78dOZz0eZrR/8jtg5/wl13+6VP1FX38jPTT+7lz8vdi5/NjiwLoscuNsrT2oXNelQPjA0N/cdOZotNqb3TR/jlgTTwb9TrqiSQD5POLliZF2KGrldyXOflNtQs7goKnZyxyBZ94MHD0yPmXkuv0gJFzXe6x1aLo0pjgLrLovdjzpXEo3v/J3YOfeRVknffz98xLw7AQAAsK4oagAAgyQHiu4QUv4dAKCN7zwjds5/PPM5WTdNixo1pHfKEfVnW7SUlA5FQ387fNdD9FBJIv9+XFwJlB3Tgb5f1ISKiIJiJLd8B0WNvX9Zihq1HXof1TaoPzuvn7+8jH1M4Hhm90Ouxyxn1qXuD6xXH6dD07LFOz7Z5fzHV2xvVdRzVT9+dPWp4PukSTZPv9e8MwEAALCuKGoAAINEUQMA1Sbb3xO7l/9YbL3wQbH5/G9mPjeL0qSoyQ/oncG3HYSn9zspHPqbdfhlhlynWtYpTEzcbagsajJFgFOM2G0N5eAhccSuK13HdJuzx0DHLRYy92ee33/sgoqa0Dak+5M//mmS46i2zTme+rHOsbKxr5fzumRfN/s8Ms7r722bTbio8e73t6EwgX0rCUUNAAAAukBRAwAYJIoaAGghnoh4/5aY7J4Rk+3TuYxvf0uMb30zN6wOJTvgl/GKmsxy3qA+MPTPDu+dYbpTovgljUxhWZCkdlHjry9TvDilj/y7U0CEl1/iosYcS/c59PFzX8fpcv5+qTjHM7fvmddT7o/8sz5+6XM6xyBXwKj79ON1+eL8uaSoySSzDaH7mhU1+9vfE3s3/6pV7L+jbJ/5ffMGBAAAwLqiqAEADBJFDQB0bzK6GBxW+wkO9wuKGh1dQuQekw7Vzf1y6O+VGeXrdcoCWy6o5ZxyxR3cZ9YdLkZ0QZB/flvU6H2f7kuurEjiFguZksHbt+xj51zUmOPjrz/8WuroY+E9xjmeuX3PlCSmoFG/M1Syfvd1zTxexp433nJlkevwXg+bsn0tSrR3xbw7mkuLmrMfNrcAAABgXVHUAAAGiaIGALpXXdSY0iQ47C4vVGT04N95rBnMH0luT69YyRU1djnvNi+2VMg9vzv8V+u2zx8qRuz+yYSfTz7PkcN+oZBfRm+Hd0x6Kmp0QRFed2V5oY6f81jneJYXNdPnLTon/KJGLR9YNn1taxwff51uKvc1EIoaAAAAdIGiBgAwSBQ1ANC9qqJGDcELrlaoU9Tk4g32VUJFTZLS55brSe47lg70nXW6z2GWKyxGnOcOD/XlY5LbQtsdilpfYJuCmVNRo7a1uORqXF44+64eW1LU2P1PSzgv2VJFnz+hZafL6WNUfA6WH0OKGgAAAPSFogYAMEgUNQDQvbpffRbOfIoaOaTXg3ez/tyQXg7n9fJ2oK8H8n45YR5fNch31q/W52yfvD/3dWoyapv9AsA9Hva5iwuTUMmgtqfJ8WyRxuVF7aJG7/ORul995r3uhcuVRC1XWOJU3x/KShQ1u8+J+NZREV/9kIgvvV/EF38ryW+I+MKvJ3//bUIIWa3Izy75GXbxfcnfk8+0q48ln3GfE2Ln782HHgCsJooaAMAgUdQAQPeWqag5clgWCP76bOFhH5MtNzIDfbnuUOminjP5c25gH7oaQz6fKQ/cMsbf7kBRkz5f7raiK0wCRU2yXnlbo2PaMDMXNXL7MtH3ua9FUeE0Xab83HHXVRS9LSVFmHqNqtfjZ6mLmu3/KeLLHxDx+V8lhJD1yKX3C7H1P8yHIACsFooaAMAgUdQAQPeWoqixRUpJeZCWIMmybukRHujrAiRbzNjCZzrYV48tutrCDPnTEsXf7szf/TIpG/d5ckVH8PnN9jcsGOpm5qImsM352/Ux0a+VPT4y5vj7x9NLeVGTfy1lcsdWpuj1LcmyFjXxzc+Gh5iEELIOufFp+UmoPxABYEVQ1AArLNq7LPa3viP2N/+ekNVMcv7K83geKGoAoHvLUNSUD+XLk31seIDvJi0pAlfEpDElTfYqGLds0MmUEJ2XKqGrfbrJLEVN8P6iY1l2jNtGbcs8jvc0y1jUxDc+FR5cEkLIOuX6J8ynIgCsBooaYMVMRufE7uXPis3v/0ZmCE3IKmfz+feJ0dVjIhpfN2f67ChqAKB7k9Gl4LB6faOLl/BXlZF1yLIVNfGdPwsPLAkhZB1z66j5dASA5UdRA6yQ0dUvZgbPhAwxezf/X3PGz4aiBgC6F+1dDQ6rCVnXzPIfmdh/R+msqBmfCw8qCSFkjSNG3zMfkgCw3ChqgFUQ74vtcx/NDJ0JGXLkVWOzoqgBgO5F+7eDw2pC1jXx/h3z7mjO/jtKV0VNfPO/BoeUhBCy1rn+uPmUBIDlRlEDrICd85/IDJwJWYfIr0KbBUUNAHQvjkbBYTUh65o42jPvjua2fvA76t9ROitqLrw3PKQkhJA1j4i2zSclACwvihpgye1d/2+ZYTMh65T9uyfNO6E5ihoAmI9o73JwYE3IumWW36eRZEEj/x2lk6Jm74fB4SQhhJBfFWL3f5sPSwBYXhQ1wBKLJ3eT//H2K5lhMyHrlK0X/p15NzRHUQMA8xFPdoJDa0LWLXG0a94V7diiRl5ZM7PtZ4LDSUIIIb8qxOZfmw9LAFheFDXAEtu7cTwzaCZkHbO/9b/MO6IZihoAmJ9o/1ZwcE3IumSW36axRle/kP57SjS+YW5tafO/B4eThBBCflWIO//NfFgCwPKiqAGW2PbZD2UGzYSsY3avfN68I5qhqAGA+ZKD5dAAm5ChRxaVXRjf+Vb67ynyzzOhqCGk+zx9r9jYuFc8G7ovybVP/5x456cPBu8jyxWKGgCrgKIGWGKbp9+TGTQTso7ZPnPEvCOaoagBgPmTVxWEBtmEDDXyq4m7IsvO9N93zs34OzUUNbUiB+sbB+4T1wL3hXNQfPHARskwXt+/8cjbA/cFUjb4rygF0lQuZ7Zp4+fEF58N3T+vvF08trEhHnu66X02Vcd6vnn2keSY+edGjaKm6XFWz1PjfAktV6cYqn2OP3ufeGfymoTXp1+vOttZ/XxmXXXO7TmGogbAKqCoAZZUPNnKDJkJWddsPv+b5l3RDEUNACxGHI/N1TXnckNtQgaR0fnkHL8pm0lz1nfH/k6NzGT7tLm1hWUsaswgeENl0aVBON0XNUnMfpaXECYdFDVV+6DuT473OxsUSM2Pi4nc5vRx2TJGFg3pcVPHqGrf/GNtB/zVSY995pwrSeC4tClq6hZ17rpnKWr0/nnvJW8b/dey6LUN7q+NWme992zV/qj7zflYVTLZtD4fS0JRA2AVUNQASyrev50ZMhOyrtn8/m+Yd0UzFDUAsHhxtCfiyXaSTUIGkORcTs7pedrfPJX+u8rWC/8+eb4dc09DVUVN3QF2jaKgaeygdjFFTf3hfmEyQ+f25UFweF02+K8sBXRKB+NuaRQa6hfkWrKs2q+SgXso1549qIfq6nG2qJmWF/J+tVytwXv4WJcXYCXLmGNRWA54xztYXIRKEHmcKuMed72NdjuKX7/svhQtl9vO0DY69wf/ntlWG7vN5vULLuMfT/8186K2zay35vkt0/Z8LAtFDYBVQFEDLCmKGkJ0KGoAAMCQuVfVyK9Aa1XW1Cpq3CGpHgpnBr65ZbqJHgwvqqgpjz+0Lo45Pl7SgbQ8VqEhctUxlMPqouevGGQXDtjtdqjnzg7N9WPqvqbZQqF5skXDNGWDf7ltRcdaD+vbFjXZQkMu552D3vF2l1d/drZFJbnv2Trnj3odps9VXIxMo495dl+KiprcOebth3+OV/1dxd3mwvNQb589P4LHyLlfryf72mRfk6pkn2/WUNQAWAUUNcCSoqghRIeiBgAADJksZjZPvzf9d5atH/xO869Bqypq5NA0M/TVQ9Ds0FTeFhrQzhY9qF61osam4IqBZ5NjlbvdFBKPJOsv2Ney56+1bV4JkL09NNQ221R3nwuH9KGYc6gs8pzzi4Uk4X31j3WN9ZvkihpzPEpLAm9fgyWCt0xmu+VzpO8peT44t6evkd4H93UpLGDMssGixuxPbt/l/aYQKY2zX8Fjn25zwfmukt+XwvPFbFPudbGvaXD/Aylaf4tQ1ABYBRQ1wJKiqCFEh6IGAAAMXTQ6nylrZOTVNeM7J9RvQFVq/Bs1ZmDqD2ydqIGuXCZNuGzxl/OHvPr+6WP95f1hrr0/PCyuG7N/DRJ+vpLBtRxuO8evztUCat8KltH7XT6UDj7eDMXfeSB7XNMcuFeVSlXbpmKH/nUH6WlMIZQ81n891XHxzp1wWREuaoLrSx9bskzBcUqX9UqA4seEXhP9vLKoUcvLgiP4eFnmZG8L77tMdl+Kl2sW/5wJnkO2qPl00f7KmH123guhbdTnccn5+EhyPqp/1ti31udjPhQ1AFYBRQ2wpChqCNGhqAEAAOtAXlnjfg2aG1niyOKmKKMXfl1MfnBfcEAZjh665ga2Nua/4J8OZc0g3ls+N/RVg9XsUF4Pbt3bwuvKLp8dCDdPeIAfjl8QFN1ntlset1rJHgcZvW/hQbgaegce40YuI7fF/jN0vIui1l/0epvobajejmzsufRz06s+7GA9vRIku750+9N1yPivQ/g1VNtYMrjPn2823nnXuqgx68ltg7f+JNPjWZ3Hns7ub3Y/9X3psQluV73k3rMy6RU1+u/PPhI6fv7roffX/iaRvL3s/M6m6BhmMz1+Tc7HcChqAKwCihpgSVHUEKJDUQMAANaJ/NqzosKmKNvffavYP/1/BweU4djhesHg3gzY3SF5aACeH5rL9WYHtf7jgoPizuMPlcuih8b54qDqviQNB+bp4Dmw//a+4m2e7pNcNt2mtAyZJre9tbZTr18+Nv+6FkSt1y5rt286hJev9Ts//fZ0kK8fNx3sZ9fnH2u9Pne/yqLXZ547cL8btax3TNQ++69L7riZ9Reev9N9z9+nU3xss+esv5z79/Q9ZI9/rej3YPD9lylq5Osv37P++ZLdvuljvNczsE3pfSb1PgNanI8loagBsAooaoAlRVFDiA5FDQAAWEfyCpv9zVNidPULqrixcf/9xqbzoiYQNVwNFTVmmOou6ybzuNzge15pNuSXCe+DLQ/kD9v72109lPejB87mq58yx97Z3qL1OcdOrifdXjUwn27b9D65TnN7neOulnFfp+xrnUtuGb0Peigvj830vsygPVMKuHGPtbxfri+/XGZdLZIeH++YqPX67we1jHldkm15TBYYtQqG0P7pFG+/e/zyy7nlRukx8PbLj34/2n1y425z6NzObt90e/SymaImPUbOffJ1N7e7+zJdvxf3/HL/HFq2RihqAKwCihpgSVHUEKJDUQMAAFBhDr9Rkx1S2/jDUjPQtfcHhsdpUaN+/0IuV1EYdJLsULk8tiDwixp33wLbrAqHus8h4zyPeWx6vGx5UfIbIUUD9sc+LR+bLRyaFzVmX9PXz/97edLXuGiQ7g7vg9sSONYFhU5pSZFLyXngbYdar9lG9ef0GLvbat43FcmcS8H3kRe1P9ltze2ns73Fx8A5x3L36QRLktCxzp3fge2z25/GnMPp+vX2qMfI9Znbq4ua2c7HUChqAKwCihpgSa1VUfOdwG1d5OQD4twzD4iroftImqvJMTr3zMHgfSqn+j2OFDUAAAAVOi5q7BDWHXCXDuPNUDcd1jrLTAsGM8RN/lw2SO4m9QbqbjLblA6u3cF303V6ZYQ/DDcDfLnu6eA6Owwvinx90u3NHHud6faabQiWI07U/d5rG7rNTeB5s3Gez9n3XMkQPNb29vw2F5cUSSq3SUc9h3dM1Hr990PVcatRjASfx9n+6d+zr32942QKDG//QrHrrV3UJMkek6JzU29Derva38Bzy+cw66osakLnXui2BqGoAbAKKGqAJbUWRc0z94kP/MuXiBf95GvF104G7p8xX3vXi8SLXvRPxeN/Hb6/bp773ZeLH/2xl4uHngiXGc99/DXi9a94lXj86/n72uc+8ejPvFw8+PF3BO5z8p37xZP3v1y84t43iudC91fmHeLxf5kcp3/5RnE6eP87xenD/7ST49g2FDUAAAAVOi1qwveVFjU2ZlDuDq6zj7OD5fYD13opGiqHUjZsD9+n96lhiRAY+sv16K/6mj5H6TpM5DLpNqljni0C9H3yGJjbA889jXm9A89ZvS3m9fSWyQ/izXIHkv0tfF28Yy23Wa5DbXvy2JIUv84l54F3TNS++u+H0uMmU3bumISexzle079ntzV/7O397nLu87t/dpfJrjf/2iQpKGr0Y83thcvo502PsX3d/PtqFzV6e0PnXfX5WByKGgCrgKIGWFKLKWreLN73IllmdJR3vTnwHGV5QBy978XqsT/aumgoTjdFjSkyStZz9XOvFT8t97/Twkm/Nvccrihqkjz3QVmkvFi8+fD9wfuneSA5Ji8TP/3We5xjTVEDAACw8hZQ1KghqTeolbelA1oVPZh1h6m61HAeZ8qc4kFtFzH70CDhYbs7/Da3meIgt7y6PTTIlskfFxt9fJwyoHAgPo1+LXT0V59N/z7dNnkMzHpLCge9rqIyQh/H7GvsJHgs9GPCxyd5rsLXPXus1XGRx6tk2yu3r+x+b73qOPjbVvrcMoHzw0/oeZzzwP978e3muR651zk/3Od3/+zud/YYNCtqnFQUNfrcS+5Pv+JwGvXcNYuamc7HklDUAFgFFDXAklpoUfOzrxYfeOh1M+TV4ucDRc3Vv75PPPWZN5Xn469Vj339ff9cPBm638kz33K3vTq6qPnH4s0PhLbZzxvE154JrOev3yjukfv2i78gzvn3pTkovvHulyXPJQunXygsPJqlflFz97v3i8fvfbl48PBbKr6e7AHxtXe/XPyo3M5/8TrxDVUquUXNQfUVZ36e+V1d1Hz0z/L3lX5lWkehqAEAAKjQtKipKEv0sHQ6lJWD1ccekQNYd1BrBrTuMNms1x2k+uuS0eWE91jvvtLhd2WaDHTdAXf9+/R+6bzzgN7mwucrGnKb8sJ/nFq399q4z6ee026TWne2CJgO683tBYWDPtaB7XKjHhte5tqzB6fb5Q7hQ4N2s6/FQ3j3WOs/q+NSsO06Va9z/fMgdMzLn1um7Nwx8dahnqdVUWOSWV/+mE1fe7vf2WOgXh9/P4vOTzeZZfRzuedjeozl9qXrd15H+Xj3HPG3wd4+w/lYFooaAKuAogZYUgstakqvhLlfHJVFxsfLrtYIr0dfiSHLkm7yvs+5z1kdXdTUTfiKked+75Xq/rd99IHcfdncJx79V68RT3b29WeBouab94gHf+bl4vWh/LPAbSbZr087KL7x8CtVWfOin32DeM4tamwp1SivFV9L1z2fUNQAAABUqF3U6KGtO2BVyQ2Es8up4a8a1Oq/p0NZ5zabsvtyA2p1e3YQroe1FcPvytQf0JcP28vuk/GOZ2iwniQ4dLfHJ/gYs96S9aXbpNaTLQJy2xsoHOxxrnOM9LLZx2eTHdzn1mn21X7NW3i/nGPt7lNg26epep2918cm8PzqNVpgUaP+qbYnVDqY4xk6Tmp95rGP3Oc8v7st7nHJHqNgSaKOd52CJHQs9POmr4FcLlTUOI8JbUO352M+FDUAVgFFDbCklqeoab+M/cqs8JUY9aOv6Ghb1NR//vzVKPeLj/5Mso6X/pR46lTT4sdLyVeLTXNQnP6CvYLon4u3JY97/S//gv77F94hrpoiRf5eTqiQyeWf/SNVyOSvyjkovvabrxVHVal0v3j858z2nXqH+IZzBZPNk7/88mQfXi4e+lD+vqc+85aSK426CUUNAABAhcZffTbQuEPs1nEHwAWDeOd5pvc5pYA7YFfLekPw0pLGpGSZpkWNP9i2JUGdobiNfkzBMN9uq407hPf3wxy7/HNPj7V6Lm/5sth12WG/m9xrVxD1nGVFTY3tyKTgtc3sWyZ6/6frcI61/9xeEaL30f1zRVHjritNeVETPD4q+nnT11Nuq7d9/mvtr0v9PdkGf7my6MdUlEtOKGoArAKKGmBJDamomfW3TeyVOW2LmrbPL3975ieS5/2Jh+5Tf3/u4/7XpTXI7725RqFhfw8nEOeKl0zx8h338V5Cyzs592dvFA/+7Eum6w8sI8Nv1AAAACw5ipqO45QudhjsDssLhvA6ZuCuBtHu8Ny7v3QdJqbk8MsGOaRObzNFzRfTAbwdXrv7MF2+zdUINnbInw7UnYLG3Ua1nNx/e8z8fTW36/W425lsl9mfdPvUskXbmy0hmsW8DulzO+up/Vr3ndD5NY0tQNxCI31t3GXVMXdKD+d1naaoFNHbkDl2yfq/mD63ee28ddrlOz0fS0JRA2AVUNQAS2rxRY35c9O4j/WLmo+/Rrz+Z14jjn7Tfc7m0et5uXj0C/n7rgaujLE5+oDcxuorasK/6/KAePIX9T7W+52YbjLdn3vEQ/K5f/ct5u8HveLlAfHUL79cvOLeN4rn0rLmoPjau14mXvGLbxDPyN+fKSpqvvkm8egv6d+qedFLXyJe8dLknxQ1AAAAq2vrb4LDSULmFlNmFJUEdjBfOEQvLWAI6TZi8+vmwxIAlhdFDdZSPLkrJrsviP27/5/Yu/E1sXv5v4rtsx9erpw5khkyzyduwfKAeCb3tVYy+iu4XvRL/zxwX5KvyN9uCRQ13wn/MP1s8X+4vuQKlNopKCC+9Dp1NY1cJlN0nHqHeOo3Xy3e9rtvyS6fy0Hx1DteLF71L14tHv+zNj+4r49psCQ6+Rbx0V+UV8K8WLz+l9/kXKlzUDxz+NXip+V2/2TyvF/xnvdb94nH3/FK8Qq1X8lj73+jeOaZ+6e/USOXefqe3NVAD937j5Pl/7F48wPZ22WOPu2sf06RRc3m6fe2irue7XMfNp8AAAAAA7P7neBwkhBCyK8KsfP35sMSAJYXRQ3WSCTGd06InXMfywxv1zvhK2GyabnM516rSo5u4/9wvS1qflw8GiqRKvLoL8nHhoqabAGULUvuEx/4v5Lb/6/XiW9kHuMnOSbySpVk2578Vuj+qoSLmnN/9gbxtlfI9b5MHPjo/Zn7bK5+JbyM/Qq5V/zL14mn0quczL7aoqbh69b06+jaRBY1odubhqIGAAAMVrQZHE4SQgj5VSEmN82HJQAsL4oarIW9G0+LrR/+XnB4u96ZY1HzrbcEy5FcPvRT4vXysT/zU+LJ0P2Z+D9cbwsVv8Cpl6LfsLn6xGvU14L96M++Um2bX5Z842F9hckHvpR9XCb2ipxf/IWWP7afL2qeO/wqfTXMK35cfNS/WsbPt94kHvpnL06288Xi59Orf94ivvYZ/wodr6j5zjvEU+/+cfFo2b4tOBQ1AAAA1eJrHw8OKAkhZK1z9SPmUxIAlhtFDQZv5+ITwaEtkQmVMPeJR3/m5eo3YXReZsqBlzm3JflN/QP7xeupGfM7KmW/kVKcORQ1p5J9kVfMvPRV4snPFfzGiylhfuIh9xhk89zvvjxZ94vE2z4qvxouvEx5TFHz0C+Ix9/14+KnfzE5Pn/9C+Jtv/QG8ehb5XaXR22z/Iq0+5NjI3+vJvgcOvp3cUzxc/JN4kF5JdBPvlZ841R+2T5CUQMAAFDD7qnwkJIQQtY4Yvvb5kMSAJYbRQ0Grayk2frhI2Ln/B+J0dUvivHtb4rJ9umlyv7dvw9ud7cJFSzmtp99de73SHReLX6+6DElRc033v1i8aM/9vL8lRrLVtR8937x0Z99kbjng/cX/xh/5def2e1q87VnB8W5r7xJPP7Qj+vfmlF5ifj5d01/i+a5j4delyTveo2455/ox+S3ueg3iPJ5/IGXiRf9k1eJD3w8fH82/lVO3UcWNeObf9U4u5eezKxH/h0AAGDI4hufCQ4qCSFkLXP9P5pPRwBYfhQ1GKyikkb+Rs1k5/tmqeUV798Obn+3KSlqCkuXNo95QBy9TxYIrxJPpr+NYtJJUfNT4qi6KqRZjj4gH5v/6rNzX7pPPCf/XFjUvFN846GSrz975h5xQO5T4GvP7O/E+NHPoUsi9/bXP/Rmce472XWEcu7P3igeVF919hJxz0NvEqdzjzGvUedpV5I1iSxq2hhd/0pmPfLvAAAAgxaPRHzl0fDAkhBC1imXPyDE5I75cASA5UdRg0Hav/vtzIBWZvP0rye3nzRLLL9hFTX36R/WD12BYoual/6j7Fer+cl81ZqNLWpmSb6oSVNS1Mgf3Ze/YxP6+rNzH3+1Wnfoa89Of/w1wf178OPyOQ6Krz38avGBw28Wz518kzqmwefO5AHxtYf+qfp6uh/9Z68Rj5f8do3+irPinP7C6/TVUjL/5DXi6NfDy5175h3i9Dftnyt+K6eDUNQAAAA0MLkt4qsfCg8uCSFkHXLl94XYv2I+FAFgNVDUYJB2LvzHzIBWZtUMqqh5+g3qR/l/NHR/J0XNK8WB0FeBVeSAunqlZVEj9zlYPh0UT72jYr21oo9paVHzrWSZfyGvonmx+Pl3v3mmryA7/cmfEq9Xv03zU+Lo596g9vunk9frqrfcuS/pK3d+InDfvEJRAwAA0Fx8+4vhASYhhAw5t47KgYr5JASA1UFRg8GZjM5lhrMy+1vPmXtXR+9FTVVCjwkVMUme+71Xqsf86ANvyg/3bVHT6qvPDorTX2j/Oynyt2Ce+sx94nTRj+aXFjW2kPG+/uzUm8RDsvBotT9uyouaq195g3jbK5LneekrxQe+kL9yRydZx4+9Srzv4/cXlyrfuk88/taXqdfnFb/4BvHMSX37cx+UX9H2YvHmw/erv5/70i+I9/3Ll+jX/qX/SLz5XfeI52p8JVsXoagBAABoaf+yiG//qYivfDA80CSEkCHkymER3/kzIcaXzIcfAKweihoMzujalzPD2Z3zf2TuWS29FzU/++rgVSgfeOjV+uuxahc15of35f0vepl43+e8r8qaqai5Xzz+jteJp9LfvXlAfON3ku279436N2ZM5NUiP/9j/nMny/7ea8TrvWUzKS1qpl9x9vrf1WWGzNXP/JT6SrTSK2Fqpbioufq516ZXvzz1rex92ZjX5ZcDr8sz94uj5ivT1Gvz1nu8sut+8eQvymLmJeKnf1IXND/6Y68SH/jkW2r9Zk6XoagBAADoQqR/r2FymxBChpHorvl8A4DVR1GDwdk+8/uZ4ewqXk0j9VfUPCCe+cybxFNfKbpKI3R/cVFjfzz/J375deJ9P5ks89JXice/7iwzQ1Fz+kOv0r8TkzyvvWIk+CP/3/oF8Tb5HN6P+3/jYXklyYvFmz9UUKpUFDV3T94vnvm6W/4cFE89IL+KbNavPZMpKGq+dY84oEqa14qvmatfCmO2/ycenn5t3Lmv3CMeve+VpqB5sXj9/a/Wxz9Yst0vjpqrbdRXoqWF2GJDUQMAAAAAAIAho6jB4Gye/vXMcDYa3zD3rJb+ipo2KVjP198o3ixLhZe+WhyVV36kf3+5eOij9+vSpG1RYwuLl75GPOUWFl96nfiJZH3Zr1l7QBy9L1n2Ra8UH33aWfbkm8SD7valy5tUFTV+OvvaM5lwUaOLL6+IKsrnXquKLFVEfec+8YF/Jo+BzIvFq/7V68TRp2XZFnjtTt4vvvHRN4gH33VPsh8PiGd+78fTYudV/+q14vHP3S+uLvCqGooaAAAAAAAADBlFDQZFljLuYLbtgHcZLLSoecXLwj/gXzsv04P8zLA/Wbe8gsb5nROZ9LdVzPPe869eqYqVF/3MT4kn5ZU6oXzyjeJR89VrT/6ZvIJFFi/6R/TzV8OYr1p76U+Jp5zfnrFfSfYTD02vLpFJr/hJtr3o93N0WXKfeDS4707MV4SFj+drml2RYq4C8ouabzwsrxhKbn/4zeK5Zx4Q5wpy+ktvFAfU8Z+WU1c/81rxtne9UXwtsx1vFg/Jbf6lfy6e/L3XiLfZfZBxC6dvvkk8+ksvV8dQ3/8S8dM/8+PiwYd/QTxT9Bs/HYWiBgAAAAAAAENGUYNBmWx/NzOY3T5zxNyzela7qJE/tG9+1yT0GzDfeYf42uHXZkuBWnmNKl/OffzHVWEQXHcS/fVnLxHv+5x7e7KvL32J+Pm3/oL3GPsbOt7VNjJNi5rS1CtqbBGj82Lx0Ge83/SxVyWly5TlJeJtH5qWZKHI37tRRZnJj/7YK8WBh96ovtouV1zJfOst4mha6LxYHPh40VfkdReKGgAAAAAAAAwZRQ0GZXz7m5nB7O6lJ809q2flv/rs5JvEQz9b43dUToWvCDn3zP3iG/aKmi/db26zpYX8Oq7XiSfd37px8613iOdCz1vwdV3nPvMG8fiXAoVD068+6yDnPvcGdeWQzKMffUu4LEmO2TOfc644CubN4pnQ17n5Oflm8dBP/iPxZnmlzV97pVBVTjVcvmUoagAAAAAAADBkFDUYlCENZhdT1BCy/KGoAQAAAAAAwJBR1GBQKGoIGV4oaoB5iZP/mxBCSDjyMwIAAADAQlDUYFAoaggZXihqgO7E0UhE45tiMrooJrtnCSGkPMlnhfzMiKNd8ykCAAAAYB4oajAoFDWEDC8UNUAH4n0Rja+FB7GEEFIj0d5VEcdj86ECAAAAoEsUNRgUihpChheKGmA28iqaye653NCVEELaJJ7smE8XAAAAAF2hqMGgUNQQMrxQ1ADtxdGeoKQhhHQdvgoNAAAA6BZFDQZlUEVNvJfZF0LWNVs/fMS8K5qhqAGEiEaXgkNWQgiZKaMLsgk2nzQAAAAAZkVRg0EZ2mB26/nfzuwPIeuYnfOfMO+IZihqsO7i/TvhASshhHSQaHzTfNoAAAAAmBVFDQZlaIPZ3UufyewPIeuYvRtfM++IZihqsO7kf/EeGq4SQkhX4aoaAAAAoBsUNRiUoQ1m9zdPZfaHkHVMNL5m3hHNUNRgncnfjwgNVQkhpMvEky3zqQMAAABgFhQ1GJQhDma3zxzJ7BMh65Tdy//FvBOao6jBOuNrzwghiwhffwYAAAB0g6IGgzLEwexk53RmnwhZl2w+/2/VsLktihqss2h8IzhUJYSQLhPtXTWfOgAAAABmQVGDQRnqYHZ8639k9ouQdcj+9j+Yd0A7FDVYZ9H4enCoSgghXSbau2I+dQAAAADMgqIGgzLkwez49t9m9o2QoUZeSTNrSSNR1GCdUdQQQhYRihoAAACgGxQ1GJShD2aj0Xmxc+GTmX0kZEjZvfTkTF935qKowTpbWFFz4mHx1n/9I+L9x74dvj+Yb4uvvvse8dWzofts6ixj82XxqWQbPnXCv12uo+m2zTGtjlV3ee4jPyLe+pEvB+9Tkdv37o+JS6H7ctHHtv7y80rRaz/NpWP31NpOtdy/flg8F7hPRb1+Jfc3ydmPifcn2y3PB5uifVCvm7v96rEdbUcHoagBAAAAukFRg0FZl8GsLGz2rv83sXP+E2LrB4fE5vO/Jbae/21CVi8//IA6j/duPN35sIeiButsMUWNHpLrQXOTwbEZ8pcMp/XQvG6psQpFTcNjFRjkN0nRsSgrNCqLHCf29SlbX7cxxy9XuHRV1Oj1lJ4rNYoae1wqU7fgKnhO9Vo1OI/m+R6gqAEAAAC6QVGDQWEwC8Di8wDrrHZRY67ycFN3qDsdFpshes0hv05JWVM6XJ4+bpbMMrjW+92spGh8rMwxaFyEmNczfEzLBvsNSq1aJVLdq6HqpOyYdVTUBAqRuqVLnddIvv6Fx1Yez9C+1TrOoXivc9tzqWYoagAAAIBuUNRgUBjMArD4PMA6q1XUmKF+ZoAcui2Q3BUVrYbBcsj+cPIYd0htipi6VxyoFA3rG5QPdWL28f3v9va9Iq2OVdvhulfU2FIpmOQYP1dVRuReB1OaFL0+ZrublXblUftQeD7kX/vSfU7jlhn6PMkcs9D2B8qcfJLtyW3rt5N1yuMceqwtHv37zHFOkj8His734pQfw9lCUQMAAAB0g6IGg8JgFoDF5wHWWa2iRg3V/SsfKgbxSXLFg40aZJddSWGH0i1SOmQuGlx3V9To4b/et8L9D6T1seqoqNHJFhHByMdVDvJteVBUVpj7OyxpCo+DLYT8BJ5bvQZl+5bZ95ISRB3bqqKm6JzT6/Vv1+eHv067jo+Z490swW1vez7VCEUNAAAA0A2KGgwKg1kAFp8HWGftf6PGDNsLBtuVJUVVAVGUmQbJRcP1ZkWN3Lc6y1YeA5OZjpV/PIqKCRVnHWqd3nOqx8oyoLiEUNtaWrCY86Jlqo5VUdR2tSrppilfR/bx6XEoPd5+vKJFPTbwuvpFj/8am0yv6Cnat+p9zke/Fzot0UwoagAAAIBuUNRgUBjMArD4PMDQRHuXxN6t/y52LvxHsfXCB8XW878tNk+/J3Oeu9k5/4fBwWppzKA/X1iYQa83gNZlhDeULlxHSQqG1ouM3JduipoOjpV/PIqG//7tgaImLR8KB/zVhZb96iz9VWmBq0r8EiJNm1LBpk7RVr1+tf9FRY05zvKY6QSOcUmK1h3+qjG5P3b95hyZQzlWdCxKj8MMoagBAAAAukFRg0FhMAvA4vMAQxBHO2Lv5l+KrR8+kjmf66RxUWOG1kWlQWjIGywfVMyQue5g2DxHvYF+uwG2SslgXO7LzEVNV8fKPx7q74HH+rfnihpdCOi/e6WGWbYq7jHR+7CgoqbWOZFdv/6KurpxtzdcCqn9dc4Z9ff0ddLPHT5n5H3u6+WtX+5b5Xuj6Ni1PKaFr9FsoagBAAAAukFRg0FhMAvA4vMAq25/85TYPP3ezHnsZvP53xRbL/x7sX32w7lsnTksdq98PjhYzSUzsPfKgNzgP5vi8qHe/WlqDeVLUjmEDg3izVUN6b57KRik630KbGuXx8o/Hn4hY+Pf7m9D5rgUDPjlMpWlgY7exsBxLjz+LUsFmaJ9zmSG9TtR+xU8BuYcMfdlllP7XLV9NuEiqDx639LzsXYKtqnR9tYPRQ0AAADQDYoaDAqDWQAWnwdYZaNrT2XOX5nts38gxre/KaLRebNUsba/UaMH8T9S+7csMuVC4P5pKkqROikrEwqLApvqQbnclzqDdHuMmpYD9Y9Vko6KmvT1DMUcz+lvoph1lKR0fSWZd1FT73lKiqrA88jjYs8H+2e1/+pYmfPZOW7NruYJJ7tt3ZRQaShqAAAAgKVGUYNBYTALwOLzAKtq/+63M+fu1g9/T0x2njf31tO2qJHRA+d6A91G5UNhpiVO66F0ZVFTPfSW+zK0oiab0DHQx77uvuh9WIIrasx+2tRbf/H+u+uark8vnytjapZa05j1JHn/u23RE1quXtRrUFZaFoWiBgAAAFhqFDUYFAazACw+D7CKovE1sXn6Pel5u3PxCRFHe+be+mYpapoUEY3Kh6LYcuGYHMyXlS0lKSwKbKoLA7kvy13UTIuEbJoWNbackMdrWiIE45UKeh8WWdRUPTa7fvva1EqtssMtsvSf65wj02SPuXyse6VOm6h9bF3UtHx/lYSiBgAAAOgGRQ0GhcEsAIvPA6yinQuPp+fszrmPJbfE+o6G6hQ1auAb+K/7F3tFjSkKzHbMbQhddnVGw9gyoGn50OhYBYuawGP924NFjX/VSPU2FG2r3femaXqsdPS5UV5qNCmCGixrjn9oX/IpOJ6Z19AteSoKn0bPHU5oH1u/typCUQMAAAB0g6IGg8JgFoDF5wFWTTy5m56vm9//NyKORuae5moXNf6Q2Qz66349U6PyIRdT0njDY1UUNR0oVxQ1eju7uZpAF1nNy4dGxyoz5G+QTFFjCxr7nKGiIl+G6P0LHyt1X+jcKDz+TYqUfKrPhcD6zbHLFyGzbYt+/YqPjRt9DN3XOl/OVO9bNvb8+dRHkn+++56CfSyKORdqvq+bhKIGAAAA6AZFDQaFwSwAi88DrJrx7b+dnq/XnjK3tlP3q8/0QDmbJoPs1kVNRSGUH3RXxCsK8vvVYhvdlF3lMI9Sq5Oixk+o1Pi2uGRfC5vC8qCk6JhTUaOPQ9kxK1q/vj372pRvi3vO5AoQtX9mO9w/u8uky4WOYcFVNHb5snPInntmGXUemfXXPqfank81QlEDAAAAdIOiBoPCYBaAxecBVs3u5T9Oz9dodMHc2s4sv1HTJI2LmrTwqD9crnMFQ3FRsDxpU9TY4qBpwgP5itLElgZJgldqlB3jwvtmLGqSqAKlsMhosv7Qsvq24mOWxByXzP252+zVS0XnYEFRY6LPDW8/7evhlT5uUaNvs89dvH51DAsLuNlCUQMAAAB0g6IGg8JgFoDF5wFWzdYPH1Hn6ubp95pb2lu+osYOxBuUOjZ2YF1WxBQWBcuTNkVNvQLCSahUSFOz1Aiuo+Krs4qOv7q9xWvuJnQsMkVWyevuF16Nygp7zhas36y7qBzJpryocZNe2VNwrPNFjXefv59tz6WaoagBAAAAukFRg0FhMAvA4vMAq+bud9+lztWdi//J3NJeNL4ZHKoS0ipq2F+vCEvLApvCq2EaxJRH9UqR2aPLkhoFkzoudYqo+kVNp2lUJrVLtHfNfOoAAAAAmAVFDQaFwSwAi88DrJI42nXO1T83t7YX798NDlUJIaTLRPu3zKcOAAAAgFlQ1GBQGMwCsPg8wCqJ92+l5+rejePm1vbiaBQcqhJCSJeJJzvmUwcAAADALChqMCgMZgFYfB5glUR7l9Nzde/mX5lbZzMZXQoOVgkhpJOMzptPGwAAAACzoqjBoDCYBWDxeYBVEu1dSs/VroqaeLIZHq4SQkgHiffvmE8bAAAAALOiqMGgMJgFYPF5gFUyj6JGivauBgeshBAyS+RVgAAAAAC6Q1GDQWEwC8Di8wCrZF5FjYgnfAUaIaTbjC6IOB6bDxkAAAAAXaCowaAwmAVg8XmAVTK3okaK95P1XwkPXAkhpEGi0SVKGgAAAGAOKGowKAxmAVh8HmCVzLWoMaL928HBKyGE1Em0fyv5JIn1BwoAAACATlHUYFAYzAKw+DzAKllEUaPEkYgnmyIaX9NfiTa6QAgh0+yeS/55Xv1ZXj0Tja+rzwz5NYoAAAAA5oeiBoPCYBaAxecBVsnCihoAAAAAALB0KGowKAxmAVh8HmCVUNQAAAAAALC+KGowKAxmAVh8HmCVUNQAAAAAALC+KGowKAxmAVh8HmCVUNQAAAAAALC+KGowKAxmAVh8HmCVUNQAAAAAALC+KGowKAxmAVh8HmCVUNQAAAAAALC+KGowKAxmAVh8HmCVUNQAAAAAALC+KGowKAxmAVh8HmCVUNQAAAAAALC+KGowKAxmAVh8HmCVUNQAAAAAALC+KGowKAxmAVh8HmCVUNQAAAAAALC+KGowKAxmAVh8HgxAPBbxZFNE45si2rvWf8Y3RLx/V8TJdnVtkUVNHO0l+3FH7U9wPwkhhPSf8XUR7d9OPrN3zKc3AAAAhoyiBoPCYBaAxefB6oqjkYj2rorJ7tmljdy+ONo1Wzy7RRQ18WQ7eZ7Lwf0hhBCyxBmdVwU7AAAAhouiBoPCYBaAxefBapKDqOCQakkj/2vnLsy7qJFXJYW2nxBCyOpElu3yalMAAAAMD0UNBoXBLACLz4PVE+3fCg6mlj2yBJnVPIuaaHwtuN2EEEJWMKMLc/kKTgAAAPSLogaDwmAWgMXnwWqRv/0SHEitSGb9Spp5FTVcSUMIIcNLNLqUfMLH+oMeAAAAg0BRg0FhMAvA4vNghcT7wUHUqiWO2v8XzvMoauQPUIe2kxBCyOonGt8yn/YAAAAYAooaDAqDWQAWnwerYyhXfUTjG2aPmptHURPtXQluJyGEkGFExBPziQ8AAIBVR1GDQWEwC8Di82B1THbP54ZPq5q2X0XTdVEjf78gtH2EEEKGE/m1oQAAABgGihoMCoNZABafB6shjkbB4dOqJo52zZ4103lRM9kMbh8hhJDhJNq7aj71AQAAsOooajAoDGYBWHwerIZ4shUcPq1q2v7XzV0XNUP5OjlCCCElGV0wn/oAAABYdRQ1GBQGswAsPg9WQ7x/Jzx8WtFE+7fNnjXTfVFzPbh9hBBChpRz5lMfAAAAq46iBoPCYBaAxefBaqCo0ShqCCGENA9FDQAAwFBQ1GBQGMwCsPg8WA31i5ovi0/96x8RnzoRuk/n0rF7xFuTZd5/7NvB+xeRVSxq1HF798fEpcB9k91vi6++u99jareh7LVvF31OyXNmmofFc4Fln/tI8X36vLtHfPVs/r58Quex3r+3fuTLzm0VOfFw4fZkU/2+yUWtu+7+rFtavFYdRp5r834vqnO97v7Jc2Wex6L2eV4SbxvLP+/CKXv/+2mz/tlCUQMAADAUFDUYFAazACw+D1ZD7aLm7MfE+8uGx+r+HxHvf7ccmtcd7LUYYldkFYua8sFsRVGjBqlyiOnl3R8Tz6kCI3BfJg2Gn43Kg1AJk0/+tf+yeM6/zZxb4fOk6eA+cM6Vrr8gtQfYiyhqzDFInqdROhlmm9fZXZc5nsHnLE2N49n42HQb/T6wr2fz417nPGhS1FxKjoc61nb5os+DgmS3R7+W7mfNpeS19G8rWjYcs1yyff750eg9UfU56CRX1Jjnq/PYdqGoAQAAGAqKGgwKg1kAFp8Hq6F2UVM6mHaH5fUHapOz3zZlQneD19UraqqOV93jmS8E/IFlboBZ+prmIwfI9Yed+e1pHr2O0IC53mDa2Te5nNr3/Hapwbh7XIqiBr5mnc6x08N758+ZIXuL41C6TyZ1tnfuMa9PZn/bxT2G+raS175u5nSM8tvqpVURMU2TokbFnC/592aDz2KT0HMH97fmPha9t9TtJcdQP6dcpiry/3dk91M91n/OGV+T8lDUAAAADAVFDQaFwSwAi8+D1VBZ1JgBV35AZodsekiWGYw1HIpVDj4bZOWKmspjtciipv1wPL99LQqKXMLrmA6Ti4+Nf06pv6vH+Oust896eef50mNnzn8z3L509sv672n52OI4qHX3d9VI3RQN4dukzmdAnWUWE/2aF72mufdZIHpfpudXkxSd75mrVlTkudfsPAofY30Ou89b67UoPY/N+84rhWzqHEP92VmzqEnS5fmaDUUNAADAUFDUYFAYzAKw+DxYDfWuqCkaiJshdWD4pQd5dYeERetvnpUrasx/DZ9LekzrHpt8IaBfg8C6M5lh8J2WeKF1tCgocgmvIy1qckXTNP4gWf8X/F6SY6yu6LLHWq7P/HlaBmW3IR0C2+dOh8XT584s1+Y4lA64lyQVBWPTobj/euVSWWguS/TrPctn2fTcC99fHv38uXPdT9FrU3Cc1evjbFPl62s+10pfL/Nc9Y5V2fuoXlEzv3OIogYAAGAoKGowKAxmAVh8HqyGWkWNGnD5g2MzEHz3PWr4lRsEJst/6iNy+Fpn4GwKnw6G06tW1ISGstlBoxlCfuRh8f7SwXd+kOkPLHMDzJKiozJm6Fn8+JoD44Lo/QgPZ/Ux+1hpgaX2Nd02uR57bjnr9M5r9Rj1WriDX28b7GOO6WP3Vf+Y5hLeBx173jdLeF2LTe5c8tJtUdPwOLUuOWaP3o+65UM4sxU1Tpzi0b29/LUzx7r0+fU5XbiP5rOh1jGwnyO556v3muvncN+vZftXZ9/ahKIGAABgKChqMCgMZgFYfB70LxpfE/tb/0uM7/xPsXfzL8Ve8hqMrv9FJrtXvyhGV/80MHxyYgd+6eCvYlDnRpUBFQVMOvSffYi2fe4/iM0f/E7zPP++9FzdPvtYcqz+20wZXTkmdi9/LriN04SPoxo0psfBH1iWFyPuEN8fWOYGmG2LmvT1KntsWUFRN+F1ZAbZclsC50xmXzMD6+k65TLTY+8Oe/Wf9fPK5QPnb/DYhba37DhkB8zVKVvXIlO93V0WNWpdyX7XOU6dlRyB2O0o/JxyP8dUWry3ktTeB3UOmucKHGt1TKveG6FUfS6o+ws+08021T+nZfR5Xf7/J+q/j8r2r3LfW4WiBgAAYCgoajAoDGYBWHwe9GN/+/+I3ct/LDaf/63M8S/L5vPvDwyfpkkHh3IIlw659HBsOpRMkhuA1Rssp0NaNeisKHUqsvWDQ8F97CM75/8wuI1p7KA1M0z1h+Du3wMDzdxw2CRZpz6ugfsyaThMtttcOezsolQIryMzyDb77w+G3YGs/PP0/oLtcs+90j+7x86NOY6541N2HKoLj2zy66r3Gpen/vObmONQ9tpmSo3ayZ+Lej3J61fzONUuOWZI+DnM52F6pZf9raLy4xRK031wz3X39qL1FC0/Tdl5afYz9Pga50VZ7LlsH195bqfbkN3e0v1T78+Gn3mVoagBAAAYCooaDAqDWQAWnweLNb79P8TWD96fOeZ1U17UOMPhQFGTDuWc++SAUN9eNqS2sQNOOVB0/xxatjqrVNTI4/T+d/tDRf+YZYeQ6TFyy5rg4/IDy9wAs+HQUg1+5YC01utT57Wvil5HbkAr426D2o/s8Sge1rrrnO57Znn3uLhFjVlWRh+LomPnvmZlx8F/bavS4JiqfWiy7gYpOCZu1PEJHv9w1PH3juf0GNtzvmZm+PyoE7Vdmecw26f2N/ua6v3Kvg72tlmSW5851s3XXXAOF302mPOq/Bwsed+GUus8qf8+co9HbtnAZ8XsoagBAAAYCooaDAqDWQAWnweLEUc7YufCJzPHWmbnwh+JvRtPi/3tf1C/vxJPtswjsip/o6boKgLzX46ngzM5ADPDMTnI1LfXGCz7g7NZB2k7P0z26VbjTLa/mx47+RVxoWWaZLLzA7G/9b/D2yiTDrvlMfL33x2Qhof5+WFx9bEuHWCWZjp49bejOO72NBi0Z7YvvE/5fTe3OY8N7ataxjxPdj+yz5NZv3qd/IG1PR76So/S87tgH3TCr21xytblxmxfq9e6RuZQ1OSSeR/UP06hc6Pr+M+hz6uSbVX7Um+79Lp06p4X7d/XZTHv2cw2tzuvyl4TdV9gfbULJ/XY7DGnqAEAAEBbFDUYFAazACw+DxZj++wfZI7z7uX/KqL9m+beapVFjRs55EoHYGaQlxua6eGbHiZXDZZDw8DQbfUT7d82e9aMLLPsMdy7+Vfm1vai8fXg9qWRx9LsozxedsiYH2pmh5DFqR7itxro2iFz4+Gm3B77mHr7kN++8D4FB7+mULTLZtZl9kE/v79O73zz1qMfmy1qpkPkZP9OeMt7UduqlrXJl3DZ+6tT9Fw2evu6HkY7WURRk0nd90DBudFxps9hX7/8a5rbVv+8CkS9bsl69fq9Irwk+fdNR/G2WZ/Lzc8r+bjwa+e990pT9vmWPealx0O9n7t+b1DUAAAADAVFDQaFwSwAi8+D+Rtd+3J6fDe//2/EZPsfzD31zVrUpIMz5z45mNO3l5cHhQPlGoPgoqxMUeNG7a8c9rrlhk3B4DcX/1jrv4cG/X7Khp9qmTZD4MxrWG8f8gPW8PkzHZRnb7eD7rJl/HWq5Zzn9P+eL2rMa3TMuV3ua/KY59T5nDzeyadOhPdBp+5ra1O2LhMzXM+vs8Zj68Y8R9m6csexZsKPq3+cil/37mKfY9ZtdeOe+9N9MOdaxedg0fvGPxf91DoXzPn/VXNuN92v8vPOfMbM/Hplj3n+eDjJvZ+7CEUNAADAUFDUYFAYzAKw+DyYr2jvSnJc36WO7ebp9yR/v2zuaaZxUWMHfea/+E7/LuMMGvVgrmRIVzhQ1ikdtpVkJYuaJGo4K49hbmhZd/Brj3Xx8LPeMTWPl9tS9NrVSWYgWm8figbO/jZMB9nZ290UL+Os0x/aqr9nB+P+Nqn1yr/XHviWDaq7jnntQq/x2W+nRdLs26L3qez1TI9T4L6yhB+XPScrM/Pgvzzl51+9c92Nv8+Z9dcoxeq+b6Zpck7qZVsf19L3iXldC9ar9ss+dzDhz5eyz7my+9qHogYAAGAoKGowKAxmAVh8HsyX/Ioze2z3N0+ZW5urLGrUoM0ZjqVDLj0cS4d9cjlznxw06tuLBoJm+Fc6+Csf4hVl1Yua/LGqM/g1x8q8RkUD2OohZXY9sww0s8PsOvtQf+CcXXc4xcsUnJPmPPdvz2yTWsYUOaUDaDdF74EkagifHTa726z2IXc8iq+wUNtacQVG8XnWLPlta3Z/OEWfC/XOH5ni113GHOPG25VNneeoV9SE9ze//qLjojM9R/Vzl1/FJVN1v0n62Z+co+bP9fbLRj9P8WPK7y/9vCp5/xU/Lv8e6yYUNQAAAENBUYNBYTALwOLzYH7iyaa4+71fVcd164cfMLe2M4+vPps+JjQQ1LcVDuAyqRr05bOKRY0esMuhY+h4VQx+zQC1cuiapHTwaYeY6f3mdZJpPNj096NiH0zy2xc6HlWDcpmy58uvUx//0DH01/Nl8VX755JBcTbhfUiP90eS/bXFilqnU7QErqZQ+x56XnMe1Hmv6HWEtqlB1LaVlEL+vtRJ4blc7/yRKT839GtRZz1FsedK8b41ONcLtqVoH/Trln/e6TbZxxWdczYV95vzLv9amHO21utqli35nC9+3zn3Fz2+5P1X+LgaVye1C0UNAADAUFDUYFAYzAKw+DyYn/Htv0mP6/j235pb25lrUeMPxuwAsGR4l4t9TM2yYNWKGj2sdAefTYahRdGD2HR4W5nkuU4mx7lkuBl+nB+9zflBqd2nGsk8rmQ/ys6H0oGsN6T2CwVTFqQpOldLBsXZhIfi4cJFLzsd3pvjltlXf5kkjV6jbMLHqF7KSxG7j80SLjj0cagqP8LHy0npeVEd972q/9xuXeHX3ru/Yh/c++22TI9PyfvGSW7bnXO//FhP38/B5ew21vgMKHseu1/FCR/DouOnbi96P88UihoAAIChoKjBoDCYBWDxeTA/u1c+nx7XONoxt7Yzc1FzbDoktkO3zIA2XT4wYK4dM3isMWRbpaJGH6eiQiY82MymTlGw6Mjt9vdJ70vVa58vePTrHiw5nEFs5nyzKRp0F6yzcWYqaoq3wR8m549Jksz7sH2e+8g9yWtSdJxqZMbio35Kzh+nXNApej/ZwX/b90zgvM49d3XqfP7553d59LGpe34F70+LvubHZlqm6Mfa92IX50Tw3LfJvP/0MXCPc+7553quUtQAAAAMBUUNBoXBLACLz4P52Tn/cXVMN5//LXNLe/H+3cDgaXWzPEXNjeD2pVGDw7ZDY0KWJKasaFfALjbNChAymJiSZn7nKEUNAADAUFDUYFAYzAKw+DyYn+0zv6+O6fbZD5lb2osn24HB0+omnmyZPWum86Jm/3Zw+wghhAwn0eiS+dQHAADAqqOowaAwmAVg8XkwP/JKGnlMdy78kbllBvF+cPi0qomjPbNjzXRd1AytACOEEJKPvHoSAAAAw0BRg0FhMAvA4vNgfjZPv0cd091L/9ncMhv5XwSHBlArl9FFs0fNdV3UCBGHt5EQQshgIkt5AAAADANFDQaFwSwAi8+D+bn7vV9Vx3T30pPmltnEk83gAGrVEu/fMXvUXPdFTbLO8c3gdhJCCBlAZviPAwAAALB8KGowKAxmAVh8HsxP10WNFO1dDg+iViUzDszmUdSIeJJs27n8thJCCFn5tP1NNAAAACwnihoMCoNZABafB/Mzj6JG/rZLaBC1KomjkdmTduZS1CT4rRpCCBle5BWTAAAAGBaKGgwKg1kAFp8H8zOPokaKo93gQGrZ08VvBMyrqJGG8tVyhBBCZElzw3y6AwAAYEgoajAoDGYBWHwezM+8ihopjsYi2rsSHE4tW+TXtc16JY01z6JGiqMd9fVsof0ghBCyGpnlt9AAAACw3ChqMCgMZgFYfB7MzzyLGkt+9/6yFjZyu+RVKl2ad1Fjxft3RTS6FNwvQgghS5jRBf1VZ/G++SQHAADAEFHUYFAYzAKw+DyYn0UUNak4UletyCtC4kmPkc8vr55JtmceFlXUpOKJPq6hfSWEENJ/ot3ks3psPrQBAAAwdBQ1GBQGswAsPg/mZ6FFzZpYeFEDAAAAAACWBkUNBoXBLACLz4P5oajpHkUNAAAAAADri6IGg8JgFoDF58H8UNR0j6IGAAAAAID1RVGDQWEwC8Di82B+KGq6R1EDAAAAAMD6oqjBoDCYBWDxeTA/FDXdo6gBAAAAAGB9UdRgUBjMArD4PJgfipruUdQAAAAAALC+KGowKAxmAVh8HswPRU33KGoAAAAAAFhfFDUYFAazACw+D+aHoqZ7FDUAAAAAAKwvihoMCoNZABafB/NDUdM9ihoAAAAAANYXRQ0GhcEsAIvPg/mhqOnewouaOEr+by/JLiEDyCg5p/fNyQ0AAAAAq4eiBoPCYBaAxefB/FDUdG9RRU082Uye67KY7J4lZHgZXRTR/i15opszHgAAAABWA0UNBoXBLACLz4P5oajp3ryLGnnVwWR0KTzcJmSAiffvmrMfAAAAAJYfRQ0GhcEsAIvPg/mhqOnePIuaeLIVHGQTMvRE45vmXQAAAAAAy42iBoPCYBaAxefB/FDUdG9eRU082Q4OsAlZl6ivQgMAAACAJUdRg0FhMAvA4vNgfihqujeXoiaeiMnu+dzgmpB1iywsAQAAAGCZUdRgUBjMArAW/nkQT9TvgMgfa48nd3uMfP7tZFv2zIZ1j6Kme/MoauTXPoWG1oSsXUaXzLsCAAAAAJYTRQ0GhaIGgLWozwP5+x/R3pXwcLDvjC7or/2JJ2Zru0FR071o72p6ru7d/Lq5dRZxcg6cy58ThKxp4smOeW8AAAAAwPKhqMGgUNQAsOb+eRCPl7egCUReadMVipruyauh0nP12p+bW9uTQ+nQeUDIuiYa3zDvDgAAAABYPhQ1GBSKGgDWPD8P4mgkVvG3P7r6UW2KmnmIp+fqlc+b29qL9m8HzwFC1jXR3mXz7gAAAACA5UNRg0GhqAFgze3zIN4Xq/wD7fH+HbMj7VHUzMfm6feo47pz/j+YW9qTVw+EXn9C1jfnzbsDAAAAAJYPRQ0GhaIGgDWvzwP5WyLhIeDqRF4RNAuKmvnYPvOoOq6bp389+Vusb2wpGl8PvvaErG/OmXcHAAAAACwfihoMCkUNAGsenwdD+d2PaO+a2aN2KGrmY3Tty+n5ur/1f8yt7VDUEOKHogYAAADA8qKowaBQ1ACw9m79dfbz4NqXzT3tyYIjPABcvcivcGuLomY+9re+k56vO+c/YW5tZ6ai5uzHxPv/9Y+IT50I3Fc3ah33iK+eDdxXI8995EfEW//1w+I5/z613sDtq5ATD4u3vvtj4lLovkb5svhU6euj7y9/Lncd3xZfffePiPcf+7a3jBdzXrxV5iNfDi+TSc31LiwUNQAAAACWF0UNBoWiBoDlDr1ldi//V3NPW3Fg8Le6iSebZr+ao6iZkzgSW8//dnrOTrb/wdzRXN9FjSpaWpcSxQP+Syc+Jj6V3BcscdzIUsSWCo3Svlyapqgo0be7+6ULqap421RVgql9r9qPkqKm8Ng5x/zst2u8tg2LGnPeza/YoagBAAAAsLwoajAoFDUArGjvUubzYOfC4+aeduJoLzD4W93IH5tvi6Jmfsa3/yY9Zze//7CIJ1vmnmZ6LWo6eXxZ0WCKkLKrOlTZ4JY5bjGhc+nYPdkypfJ566Ri22TRdCJUROhSI/e4UOmS2zc3/nr03/OvRVVR08VVSw2LGplZz53SUNQAAAAAWF4UNRgUihoAlixW3M+D7bMfNve0E0e7gcHf6ibau2r2rDmKmnmKk3P1Q+l5u/XD301eq8vmvvq6KGrCV1WYOAWHKjxCy9RKvhhRV5nIoqHOdmTilAuFV4VUZbaiJnglUcF+ZAuM+kVNrmByEyibwl8j101RM9trL1Pw+hft30yhqAEAAACwvChqMCgUNQBcWz/43cxnwixXkVDUTFHUzJe8imbz+d9Kz9vN0+8Re8n/P4ujHbNEtd6uqJnlsSq6QJjf11+1uMqjburue6B8qVPUFH9N2nRdcpncvpntyt4+/ytqptubL2NKM/M5VBSKGgAAAADLi6IGg0JRA8C1c/4PM58Jezf/X3NPc82LmrKBcL1hcel/OT9jKGqWW7R/U2yfeTRz/m6efkjsXvx0ch7/pZjsnE5ewyuF5U1fRU3oagh1m19AFEWVBO57wy0UQjEFh1MszH6VR7t9r/d+1fuTPx4Fnwm50kQvl26feq1MESKXLXj+/OtitsOPXMa8BmWpPD5qWx5Wvyf0/o88nKTm669iXtNGj6kTihoAAAAAy4uiBoNCUQPANb7zPzOfCVsv/D9CxGNzbzO1iho1NLVD1ezgVQ1x08GjHJJW/1fm/uB3+l+oV6TGgJOiZjWMrj2VHO9fy5zHdSOLytBrX5m2RY0a8OfP6/pFjS1dsoVF6ePNtlaVntMUFCIzp956dYlkPiPk8cp8JgQer46pW9R4nx3p/fr5P/UR+XfzORDI9DXVzxd8jc06vxoqntxiyL09E7MtJ6bHRL6GTc6neqVX01DUAAAAAFheFDUYFIoaABnxvvqND/dzYefifzJ3NlOvqPm2/q/R1YAxO6RUt8n75XK54Ws4waKmYuBddyhOUbM64sldMbryebH1g/dnzuWqlBY1puAIDfNrJzNI1+d76Nyre07q94Ved6awKHu/qPsKioPG+1hdnhamTrmVKZXM8Ur3q2ZR4/3dfkY8pwogvR+5dZikn0Pq79VFzXOh4x66zcv09Z5+Bup9L39cJjWep3koagAAAAAsL4oaDApFDQDf6PqfZz4XZCbb/2Dura/Lrz5Tg0wzVM1GD4qD97/7Y+KrNQbedYfiFDUrKh4nr98Zsb/5nBjf+ZbYu/m15Bz/i1x2rxwVeze+nnvd55Y2xU+m6NHFwVs/kpznufdNcamQLR+8qG2qWb40WTaUyseb/cvEKSLM8cvtY0Ex8/9v79+DLqsLO9G7a/6ySmtyikxR8GKsUGEcTTjVcgiDOEbKLjtC58DpUD0jB8ZBJcoBpk+CvCpd4ItEzRlOjNEAYzAaESIjDmCQNAJCEtGooKKiAYPaCS13hNbm0rfneX7vXpf9PGut/Vtrr/1c917786l8K/Tea6/73i2/L2utUcrb+ZTm1aKoiWzTsOWVrhiq/Aam7420rks4HtEoagAAgPGlqKFTFDVA1ey+R0u/C/3se/r2fIp2hhc1/f9CviHpAGsyQFoZgKz5r8ejg7Kx+VajqJl6a/WMmlhalQk7e9+Ly5JzPVZw5t+tgXlkZUOsDE2Tb0f0OxLNShU1/fW8Kdu25JktyfKK21NXTJR+G6r7Jrav2iZbp+L2z89nfpnV+WefqT0v0s8V31/C+tbtjyVFUQMAAIwvRQ2doqgBYg7s/k7pt6GfZ3/y/wsvPPqXYf/P/yHM7PmXMLv/yTA383z+qbJRr6jplyrVQcnsvzgvD3ZWC5m616MD3qWB3JaD4r0oarptWYqa9HkngwXiqGl7TmaJD+Zn35vKugwbzG8sTyoZZdpYmj7fW89sewrblu/j/vc7un391wu/Adl0+XJKy8zm3S9doin9xhRLl/I+Ly6ztPxkf5fmUUi+PeXjFjmW+XRDS0BFDQAAMGUUNXSKogaoU1fWjJr4AGAx/QHTk8Ml/YHT+cHNhf+KfaCoiQxkVwdp2xQ1bXPg+QfDvmf+flHp74sXHvlEvncZN8tR1PRvQ5aew62LlsEsR1FTLiWypPOtKw6S9LejdZZQDLQqICrblnwmXf/8d6HFb0Ca4nbNf6Zmv+UZmE9pf5Y/W/o9mt+ubJro9uXTDC67Zp3S36wh+2qRv2vNUdQAAADjS1FDpyhqgCZJWfPsTy4u/U6MmvgAYJ7+AGo6ILowSDk/oJwMPl52U/rn4uBl9c/9RIuaZP5tMmRgfM8Tn49u3yh5bscf5nuWcbOstz7rn9fF1yrTDpx/o6RURNQVDtXXs3Ij9r2ZT7puLcuXUaaNpsX61Gxb+j2vWXa0qOm/nuy7FShqYr9Pg8cpT166xH9vGtYp/1zr9V2WKGoAAIDxpaihUxQ1wDBzs/vC/l13hecf+nDp96Jt4gOAveQD1gsD2YODn/33yoOQxVsQldOf7rZ84DRa6CzyvzxX1HTbijyjpj8oP+IAejrQP6Q4XEj94H46n/6y03UZUqzk25Guc6sspaiprF80kW3rr2PN/kl/A6rvzR+f/EqcdJkNpUgvA8VH6Xej+NnI71H/uEd+Z0rHtuX+nl/HfL6Dv33Z+rQ/Z9pGUQMAAIwvRQ2doqgBRjGz56Gw96mbw57HPhNeePhj4bl/+X/Dsz+5qPQ7Uk18ALCS2gHIPOmAZj7omf7z4ABxOrCaD2xm86kZiC0NuLbP8tz67C/yPcm4WZGiJs3og+jLVdQUM7wU6aXmuxXNKNPWZeg8qtuWFy2139/YVTrV/d+f5qbG/VYtasrHpLBeld+T7Hco+XO+3JF+a9ody4E0nn9LiaIGAAAYX4oaOkVRA6yUudk9kYG/YvqDrnUpDuAu/FfrA/+le2Fws/xe9vrA4OUii5rZfU/mWza63Q+el/7G7nnsr/JXGDcrV9SMnsUWNcWysm36z1KJvTdSRiiiimne1mJx0f+9KP4uRNY98tsQL6habPf85xZ+f4qfLZc9sWX1l9G20OrPd7SiplUJt6goagAAgPGlqKFTFDXAShle1GSJDjJGypRsupPTAfG6gcxyUZMMriYDpMMKoV5aDDIrarqtC0VN/P0xT+O+K2zb3b3pet//Ua7gGSx1i2neb6XP7uxNe1nx9yj/bO+1S9JpWsyrVVnTPJ9oVuxqmiSKGgAAYHwpaugURQ2wUloVNfkgY3lQOhusHBio7k/bcDVMeXA1mT6Ztvpfw5fTdlBcUdNts/ufiR53WYXktz6c2LJp2TJiUZP/Jq7Yftv7aP7tAAAAGD+KGjpFUQOslHZFzbfD99P/2rxQwKSDtpH/+ny+qKn/L9OLRU36z2kBo6hhuLmZZ6PHXWRaM7vvqfzbAQAAMH4UNXSKogZYKW1vfdZPWpikRUzsvxDPb1922RXZ1TY1tzNaKGqy/zI9K2cUNQw3N7c/etxFpjVzB3bn3w4AAIDxo6ihUxQ1wEoZraipPkemeHuz/L3SLc3it/uZL2pKz7ipzjsSRQ09s/ueiB57kWlMmJvJvxkAAADjR1FDpyhqgJXSrqgplCjFsqRftPRvd1a9gqZS1hSvxrnq7uLVNElcUUM7czMvRI+9yLQleWYTAADAOFPU0CmKGmClDC1q+iVMbUmSFSy1D8pOP1//vJrljqJmOszufzp6/EWmJnsf630T5rIvBAAAwJhS1NApihpgpczN7osPAk5okgH8xVLUTJaklIudAyKdz95H0t9uAACAcaeooVMUNcDKmYsPBE5olvJgbUXN5HFljUxbZvc9Hubm9uffAAAAgPGmqKFTFDXASurSw9mX8l+ZK2om09zM82F272PR80GkO3k4zB74eX7WAwAATAZFDZ2iqAFW0tzMc5FBwclLUjgthaJmss3N7g2zB34RZvf/LL0tmsjEZ/9TvXN6V1pGAgAATKJFFzWPff3b4e4P/Fm486xt4eb/4/fCjRtPE2nMF0/bGr583iXhHz/1ufDcI4/nZ9LyUtQAKy25nU6s/JikzM2+kG/N4ihqAAAAAJbPyEXNff/96nDNkW8IV/6b9SJLyi3/6ezw6Ne+nZ9Zy0NRA6y05JZhsfJjUjK7f1e+JYunqAEAAABYPq2Lmke++s1w3av/j+iAu8hS8ve/f3F+li2dogZYDXMzL0RLkHFPcqur5aCoAQAAAFg+rYqaH/7V56MD7CLLlS+cfGZ47tGlPTMhoagBVsvc7J4ws/fRaCEyjkme37BcFDUAAAAAy2doUbPj5juiA+siy52bfuct+Vm3eIoaYLXNHfhFmNn7SLQcGYckD9lOHh6/nBQ1AAAAAMunsah55oc/Dp982aujg+oiK5G/O/ei/OxbHEUNsFaSMmRu5tn0ypXZ/c+sYXal5dHczPPJPdrytVteihoAAACA5dNY1Nzxe++ODqaLrGR23vHV/AwcnaIGYOUpagAAAACWT21R88hX7okOoousdG7639+an4WjU9QArDxFDQAAAMDyqS1qvvKuD0YH0UVWIz/7wT/lZ+JoFDUAK09RAwAAALB8aouaz7zqjdEBdJHVyL1/+on8TByNogZg5SlqAAAAAJZPtKjZvfOR6OC5yGrl1tP/7/xsHI2iBmDlKWqANTN3oPd/u8PsvqfC7N7HwszeR0VEpOOZ3fdk77f/F2Fubn/+lwEAdE+0qHn8nu9GB89FVis3vuH/zM/G0ShqAFaeogZYfbNhdv8zYWbPThERmeLM7v9ZWtoDQNdEi5odf3NHdPBcZLXyV//rxvxsHI2iBmDlKWqA1TQ3uy/7r6ojA3YiIjKNeTjMzbyQ/y0BAN2gqJGxjKIGYHwpaoDVkpY0ex6uDNCJiIjsVNYA0CmKGhnLKGoAxpeiBlgdc66kERGRhvzUbdAA6AxFjYxlFDUA40tRA6yG2QO7IoNyIiIiC5nd/1T+twYATDZFjYxlFDUA40tRA6y4udnogJyIiEg1yW0yAWDSKWpkLKOoARhfihpgpc3NPBcdjBMREalm9sDP8789AGByKWpkLKOoARhfihpgpc3ufzo6GCciIlLN7L4n8r89AGByKWpkLKOoARhfihpgpc3uezw6GCciIjKYn+Z/ewDA5FLUyFhGUQMwvhQ1wEqb2ftoZCBOREQkHgCYdIoaGcsoagDG16oXNXMzYW5u/5onWY9OGZP9KquTkGY2P/jjT1HT0dy9Lbz5spvi7+V57MaTh07TTzrtO68Ij0Xem9nz7XDbO1/U8P405KZw1UkvClfdHXuvl51XhEumev9IlwIAk05RI2MZRQ3A+FqNomZudm/2jIq9j0T/ZXzNsvfh3nr9rLd+e/I1nSxzMy/01v+p3rY8PLhtMh3Z+2jvHHimdw7vy8+K8TRqUZMO2J+0LXw/8l67DBnQLuT7l72ot6yFzH+mRQkxynLiycuHlkXG8iZb9iU3fnvwvWTbW+z/x3rTXXLSyeG2nfH306TzarOPsn0ZXZ8kSQmxpH09BhlSpHz/siH7sk1R07QPY2l5rKPTJa8NO3fbzn8Zk32n48vMfluG7ed+kv09bN3bTJOnbl+kx63FOjUe3+zcGO23ZDGfyZLs46HfxSUeewCYdIoaGcsoagDG14oWNXOzaRES+xfwcUtSeEzKVTZzs/vTB+3GtkOmN0lhM65GK2oaCoTWqQxopwOGWRFTzbBB7+bByMpyFpN83Za2vYtI0+DwCAOszVfBJGlXRmUD6IPHJ03vs9VCrZQVuoqkcZ2iGTbYXr8v+stqPg+Gn2/ZfIYcu/T45uva9lhHp4usT/W8qn4uOp98v8zvx/YZ2BeN39t25+J8dva2L12v+uPaPy9b/QbU7eum72Ih6bLqzvV03sPnUUy27qN9pp/259mQaRoCAJNOUSNjGUUNwPhaqaImuT3T2F1BMyx7H06v/hlnyVU00XUX6SUp8MaxcBypqEkH97LBzzZp+q/LmwZP00HKNuVBf2B0xPUqDqiOPuBfzOIHOmNpWpf5fTnSAGu2r9PPjrqP+vu/MLhe2uf9pPPNBpSj769Qsn3Vcj8U1jH6fj+x6fLtH17WVc7r/HPRfVtJcd6lAf+GY136jtRMN7CPqqVD9XPR+dSXs/XHu/odz/4c2/byNkTeTxPfBwvzjRzbfH7R35kRjk19Cud8w/vDiq7oedW4L/qp2ydJyscsK33aZ/i5rqgBYPIpamQso6gBGF8rUtTMHZi8kqafpKxJnv8xhpJbtEXXWaSQ2X2PJ2dLdtKMifZFTXXwtSmRwd2awdHY/NoUNf31qR9UbLe+q1kutEvNlQWLGsjOtm9wH1WPT92+GtzH6f6aX7fB45wcu/pjsnzJBsibBqsLSfddeTC/foC9fdLtjB6X3rLurpQi0VT2X5sCIT9X2xQ12fErrMMaFzXV82thG4Yso+k4J9v0zm29/V38bLa84b8hhdTtw+o+qyS6D4qfaTw2kW3unwN1657OL76vSkmnazj/aterXQBg0ilqZCyjqAEYXytR1MzuezL6L92TkvSqhLEzN9pVCTLVSZ4JNU7anrvtypN+6gde6wZti2m7rGSQtH7AcvhykgwOtNZ9rmmbljP95dcsrzrAuqgB1+q849uc7puG4xAdpF6lpMtuu93DBq2XJZV9WBrgT/b3wrouPO+mfBzS8764PxuObX1Rk61HtODplwCNqS6v/ryvP/7V8yl+fs1vQ8N2Dh7nmu1rk6bflLp1WFJRU7/v+ttReq9/fOq+U/n78flVkyy74Zxv2OdtAgCTTlEjYxlFDcD4Wu6iZm7m+ei/cE9a5maezbdoPMwe+Hl0PUXqMk638WtV1KSDepVBz2pKg6CRQcjKe9mgbTaQGZ1fNPUDi9mAbuwzlVQGQbOB1m358y5GTN2A6lIyP4BaM8hbHWBd1IBrdd7xgfQ0bY59XVZi/+RpfbznMzhoPWwe/f1RLg7r9lX9PswKmN4xysuZx25M9ml1fW7qHZNt5dcajm19UbOEROdTXzZES4o01X0R3zfZNlxRO/8k2TFquW3p+jeUE02p24dLKWrS41y37tk+md/ufkmzqAzb5va/s3XHoRoAmHSKGhnLKGoAxtezP3pXXtRcnb+yNF15yP3s3sfyLRoPM3seHlhHkabM7v9ZfvasvaFFTT6AeNWN9QOW5YHsJJVByFLqB7T7GZxfIemAan9gcWF9BgdMB5cTG1Rt87ks9QPWy5lsUD9Zn/jyBtY3NsBcGvRd2Ef18+5v82jbGB2kXqWky17iAH79+pfPgfL5WHd+xF+vW8/s9cI6lc7rIemtS2mdSudAPijff29I0TA8+fxi6zEkC/sivm9K25Cs5/w+XshI51jNcV7JRNevss8XrqAqprhPFo7Zwne0PH3tfhhY1sL+X5g+8r0e+N0Y7bsPAJNOUSNjGUUNwPh69ifvTX9jX3j4yvyVJZibif7L9qRmXJ5VMzf7QnT9RJrz0/wMWnvDippk4C8dvGsY8C0NuKbJBiHjg351A90LGZxfJJX1GRzIHFxObLCz7nPFAedi2g5kLi7FwdL4wOnA+g4MuBZS2kfFY1Kd98K+ygZ62xUgtYPHq5B02S3Xs24Av379y+dO+XwcPK/qXs/WMf6dWXi/YRsajm1pnSrTlbar/156Liycx8OysB31A/ht91/dPittQ75+Q8/3ptQc52jSaQe3u00GjnF1/Urfu2/3tjN2nBv2SWR7a/dD5Xewn/L0kWM4cG7VH+dYAGDSKWpkLKOoARhfz/3zH6W/sc/v/Ej+yuLNzXSrUJibeS7fsrXltmey2MzN7svPorXV+vlKNQOCScoD2UnqBrMX3osNevYzOL9IKuuTDkwW5lubymDn4ABo3bqPNpC5qOSD1dH1zvfHwPoODLgWUtxHpUHs6jYW/pyvQ/LP6XHoL3/RqVm3JSY73i3nXTOAP+yc6e+f8vlYd36Uz+tLLttW+30pJpl37TnVcGxL61SdrvDnwfO7kIbv9EKWr6gp7tv5FL/nkePUuP7V1Bznthn6uxPZX/XnUHG6bB+W5x0/j9J1iGxv7X6oOYbl6fPlD6zjYBQ1AEwLRY2MZRQ1AOMrKWiS39hnf7wtf2Xx5mZ2R/9le1Izd+AX+ZatreTB8LH1ExmW5GqscTBaURMf3EszbBAyHURdmH5woHshQwdMk1QGKOsGJovLiQ121g6ArnniA+QD+6Y6SF/M/D6qDBQPDO4Wj1dsULldVnNfpstajqImur7l87e8zyvndsN5nX6u8F40peVn845ON59sm0vrVD0HCse36Zi0+p7VnIdJ2u6/wT9niS0/fa0wz/Iy2uyfIWnY3qH7Y+B7U7MPItNlr7XcJ8X1bZVh53blGObrUv7+1B/nWABg0ilqxjw3v++z4UfX3ZLlT983OM3p7wtffkPltQ5EUQMwvvY8/j/mf2dn9z2Zv7o4SbER+5ftSU1yJcs4SJ41Els/kWGZm3k+P4vW1nJcUTOQgUHJYqoDlHkxMD/oWJM2g6Fp+kXDtoVB3epnC5kfnK0MuDemYX7Ll/jA6cBgcpui5u7Kvhr4TOWYNM2zIU2lwHInXVb1uDRm2GB2MeX9Ud7n8QH2+tcXMnz/DDkOhT+X1qnheBanS/+59/qwlM+5+gH8tvuvbt8MnMtJKr8d7c+pbBkrekVN5HsRXb+a36Z0/vPTNuyTyPbW7oeaZTVP31tu7/cxfrzbBQAmnaJmzPP1r+zOj0rPgzeW3z/mT8IjT/deP7A7PPWXF4Rri+9NeBQ1AOPrwO5vz//O7nv6S/mri6OoWRmrX9TEB3fmkwzCxAZnZOzS5aImHSSMDSinqZ7Dw/9L7taDofkgZLa8heWk61DzvUneKy47W/f4djbNZ/lTLrCydYzsq8Lg8cB+qjlmw49J+fX+OiwmixkEbpPiORZ7v5R0H9UMZkfWuZ/+/ijvr+Z91XRuRM/jUirzqBYDhT+X1mmgQOifJzeVzpfiZxb+uXhOxb6Liz8HFvZFfN8MnodZ0v00sJ7laarJjmXvGN/Y2xeL/Dtw6LIG9nPNMa39rUz2Q/5603czsv61507NfGLTZ/soPw7z29I/vuXtGhYAmHSdKmru+ZsdYdf9a5E7wj2R9VmO1Bc1bw4/+P7e/I3MzI47wlc7cnWNogZgfCXlSv939rmfXJy8kr2xCO2LmviASjH9f9lf1ABcOjjQPP82UdTE3uslH6ge6djUDipVEp0uWZ9hAzzDz6nRExtQ7GfY8rL3F3X+LmM6VdTk3+uFLEw3OPhZPT5NxzJLm8HQ0iBkOk1lOfl3ozyfmnOlvz399Z7fvtEGM0dNuq/S5SyktF9ix2B+wDWyr2PTR4/jsO9Mnt6yRj5OK5TseLc8Huk+qm5z0/qW90d5v9btq+H7cPj+qcyjcGyjf254PVvn7Kqy2HYs/POQoib/3sS2q+3+q9s3A+drJG2m6a9jf71bfSaSYZ+LbW90H0S/Y5XUTJOuQ29bRsuwczs7rk3nUjp9b15N3+9iAGDSdaqoeeDBfANW3Y7wQGR9liONV9S84bLw0CPlsibsfTg89P+8qTzdBEZRAzDeXnj4z+d/a/c9fUf+6uhaFzXDBhj6AyLvTP6lPjJg1E/NwFj2emTQJ59vbDAolsktarIBq7rBleFpORjYdGySFPf3sGPeT810g4Nb1cG+doN2o6VpcL/F/OvOz0IWN2DWfrs6feuz+WTHonycqsen6VhmGTYYmh2r6jkfPw9K52tkgHsh2eez4zp8u5P5th3kbJfB/RLdD4VtGPguDhyzfJuqg9Etvg9JHutN1/Q7HV2/geSDxkOna06r37l+aravfn3j507ze02fyTJ8/1TmUT0/q38e9nrl+BfPj4V/Lp5nke9izb5L0n7/xffNwPkaydBp0m2sTpOfY0PmXU3zsuLzjO6DNr+V0Wki+z9P7b6uWdbC9Nm+H9iu6Dkz/BzuBwAmXaeKmh98Z2+YeW4ROZBveGJv5P2heSD8ILI+y5HGoibNm8I9dzwVZvJJMnvD7hsiz7OZoChqAMbbzN6fLvzePvgH6Z8Xo3VRUzfgk6Y4UFE/oJCmbnAnfT0yEJAPtrQZIEgyOUVNPkhSzIiDR+VUBlL6g1QtMjDg2z/ODYNKpcGhuukGjl313KgO/lT+nJ8TsdSeX43n3/Lso3TQLjoIWZOB/dCciStq8v1af0wiif4OVM+HIb8lvQwOUmbzqB6zcqrLqab4e1Z4vXI+XnX3wrKyPxemnc+3w2Ppc2BG3D+NiX+PBuafrm/yXY5Pn653vo2D3+eF7Wq93g3n+eBxiqVmO0ZM6TdsWKLnYcP6ptsY/02s3/5h51ub/VOZR//YFs7J2H6r3RfFY9xb7m2FIqJdUZN/R2rWuX57qvsivm+GFzXV9Skn2+669/N1b3uO9FJen2yd+/u9vw+r2xrdB03nTz/z39vCaw2fq93Xsc/Mny8N6xBb/ggBgEnnGTW9LJQhu8MjF8WnWasML2qyfPGy74Xn+4XT3ofDjndtik43KVHUAIy/vU/eOP97++yPLwgzz/8wf6e9oUVNcUCnlP6/yEcGbPLPRAem0kGAyCBBPoAw8JmmeUUymVfUxAer+oNN8eT7cH7gpfJe9SHh0VQHuyIDUAPJjntpcKhhECkZ4KoO7lWXt7Dd8f1QTvMAXfT9mnN4fjm9fRidX7JvIwNgippIoudhcwb3R/X4578tlc8NZP5Y5OdvMqDaP+aNg701ST9bOM8HlhNPel70p40OtDadt6OkfI7Xn4/F73Pl9zrdLwvvtz03hyY5DyL7vDzQXZMRvyd1af7djGXwt6s6+F06tsV93T/PYu/Np3heF49Jm1TOo37S71v8ver2z59z1XUtfL54fBb+uXieVX5X8+973bGq7r+FFPfFwp8X1qmQpvOl7lyZ/x2q2W/F9KeNrmc5rc7fSurPw+a/l9NlVdapfn82vJfuo8KyCsesv251x28pAYBJp6jppQtFTZJr33VH2P3cU+GR9012SZNEUQMwGZ7f+dHS7+6ex68Lcwd25e8O1+6KmsogTeX12CBBNhAQGZBIBwvqXo8MHIw4eNe5oqbNAEyayjxK0yTHqTgoV3x94bhmx6wwwBVdTpbSulWmKw1qzid5Pz9fBt4rZ2E/JNNXl7+wnfHlVFLafzX7ubf+g69n015y2U0D+z82kNaYdP8MLrcuE1nULCX5/hk8XuXzM5bSeZj8hpQGU9udb+W0GOBdbBq+T6OluF++3Tsft7WfZ7IO1XO3P2DdOsP3UfZbspjPLH3/jzSfur+PliXZb0jb7V/LNBURxWPZ/w1LX2soLtL3i9/L+f3QS+n8i/8mV9cn+ltfXP78b8jo+3l++6rfi0Ka9k9dSvugn+pvQPG3bz7xv/Pqfgejy+m/XtgfyTaU9nN02UPSYh8AwKTrRFGzds+mGbTr2sK6bf2L8KPrbllSHnqw8AyaJ74XnWaU3Lu1sH5jHEUNwGSYm90bXnjkk6Xf3iQvPPLxsO/p28OB538YZvc9FuZmnss/UdaqqKkOLqTJB6HeeXLNv+yfHK66LBkoqHyubmAsH8wZGMzOBxPaDnJPTFEzbHD0sptqB2CajkdsP6WDTElRk07/7d58Y8cgGfDtHbOBgZzIseqltG4N042W6jZk61TaB+l+axqMaxrcr99H6XznB6HyAf6aQalsf0aOS11GPIenrqgR6WUxg+EinU/yd1PLv2/S71Dyvx/yNJXcKxUAmHSKmmVWKmqu3ZG/Oj5K6zfGUdQATJb9u74anv3xttJvcNs8+5NLov/CPZ/+QMH8gEHzf+FZSjqwXhjEr/65NF1kMHvEQe69T90c3cY0D75zZRJbVi8vPPzn0XUcSM22L0dRU/2vasuvF+aR7+fiIE9teuv0/YaiprzM4VdFNKdcmpT3SW+bB/ZP26Im++fo9kVT/i+To8elLiOew3sixet8YuffciS2rF72PHFDdB1FRESqAYBJ17mi5vlvxq8kacrCVSt7w6474tM05fEn8o/3KGqWJ4oagMkzN7cv7HvmzvDcv/y30m/xsAwraub/S+f5oiZ5PR9ALw5mDwxeR8qDvJQYNW0HuRuLmlVOu6JmYT9GS5ZYIdCyqBkoYyopFyqRRJeTpbRu1elKf+6vV+R8aUrxv6zPi45LbsxuUTZfwuzszXuglGlb1Aymdn9XsqZFzSpHUSMiIm0DAJOuc0XNYoqIpT6jpnb5bzg33HnOBUvK975ZeEbNjjui04ySL76hsH5jHEUNwOSb3ftwOLD7O2Hf07eFPY9dE57/6Z+F53dW8tCfhhce/nj0X7izFAa3I0XN/OBz4b1kIDt7vXlgvJSaq0pGHeTuFzV7HvurNU2yDq2Kmnz70m2/rPxQ+8UUNf2i45JkXg0lTT/JsYqXGr1El5OlsagpHveGeTSXKuVkpVKybZV5Dcy/RVFzY+8zA/s1e6/NuqxWURM7r1Yz6TooakREpGUAYNJ1tqi5+X2fjV79UswP3vf2dNrBoubt4et/Gf/MQj4bvr6lfvnLlYV163nwxug0XYyiBmA6DH1GTT7I3C8A5nPZFatT1IyYiXlGTZ6s8Cg/56e/D1oVNfl+q342SVooFN6LpjT/Nle9ZMttLmoKZcnAe4Wk6970vJli+us2OH25OKkragpFVmyfputSs56VrHRR4xk1IiIyiQGASdfZoqZUcNTY95U/qUzbL2r+JDwydJxl4eqbkYqaYy4IX7/g3Ph7kSylqLnhDW+Kvj4JUdQATIehRU0xhTImOqifv1df1OSfiT0wuqGoGWVgfLKKmv7+WdhPWbkSKUOKiZYfw0ux2vnNp1JyVJdT+HNzUZNvR/92ef1yJT/GQxNbx+JnB86fZNv7y48UNfPrUNhHeXlSWm5TCuukqBERERkMAEy6zhY1d179vbDr/h2NefzqC9JpB4uaC8ID34h/ZiHfCw+cU7/8aN5wWXgkfZ7N7vD4Ze3KmnLh9HD4UX4Vz7Bc+767w74De8Pum/4oXBt5f9yjqAGYDkstauYHnwvvKWraFTULZUd5PyXbmxQNk1zU9N//fnG6+cKk/M/FecXXceG8Sd9v3M5IUTOf+D6Kn1/181HUtEx6jKvn6eomO1+Wex0afsdERKY4ADDpOlHULDWDRc1K5H1hxyP5YlK9Zb1vU2S6cspFzcJVQI05/cawa2/+gZ7nv/Hp8MXYdGMcRQ3AdBi5qDnpRVnyW5/N/zlJPnitqGlR1JQG7+MFQry06CVSjKx2UVP6XOz1vIi5Kjl2/eNdKGeK/1xcr9g6ZoPt+ed6Sc+Hwp/LGa2oyeZds+9rlqGoaZv8+157rFY4+X5fkUIl/72Kn2ciItMZAJh0nS1qrt38zujD9Iu5fXNWlAwWNZvCzW+Lf2Yh7ww3HzO43MZUCpQ2ZU21qAkHdoQHmq6qSa7aeTqfNjez447w1VHXdY2TFDUz37525Oy/+6Phhb/9v+aT/BmA8TW0qMkHJOczP0CdDcLODz4n0+XvKWpaFjXz+6GDRU2ayvwK5Uzxn4vrNbCO6byr25Vsa2x5SSrLLKVuH+XnZe+9JJe8Mylp6uavqCkn26fzvw8jZuWKjvIxrUvT8rOyLv654VmjckpEZA0DAJOus0XNQMERsVzPqBkl6S3J8jmk9u4ID5wenzZJbDtmvvkX8duZHdNb7w6UNEmSomb/Jf9xyTnwP9+V7wkAxtFK3Pps4TPVgfF88FRRU0m8QGgeKK4WCXUlxEIWXdTcnRUN6XJrj119UTO/vjculDPtippsm0YbzG/6zJB9lBcq/X1ct9z0fCxM1zZNx6aYSSxq2m7baiU7RnVlW/+8bC5Thn9fRESkGACYdIqa0rQrX9Qk+eK1O8JMPpdUQ1kT346nwkNbK9MmJU36/JsFMw/eEu6cwJImiaIGYDqsaFEzcCVBceB+xLQcMO1cURPb7n6BUlvUZP8c3Y/R1AxYR5eTJy/W5jNf4Awe49I5MkJRkw62x4qhSgaKk9pzpWE/55+df69Q2lQLm1GKwzQD34PmTHpRU3veFo//CqZ/PtTt7+z94esxuB3x86d/zo9WKIqIdC8AMOk8o6aXm9/32fCj627p5bPh6y0f1r+0bBosYJ6+O3w9UqrUFk4771h47kzsdmf33zhxz6UpRlEDMB2WXNTcODigXRo4H2VAuyajDIxPX1FTLGVWfhB8SWkaqC8UI23KmZFSnHexHMpfax5gz/dvYZ0UNcXk5+5lybHt7+P2abtP2qb02zNqKudd9v3bFq5aTLm8DL97IiKTFgCYdIqaNcu54YEHiw+s2R0ev+zNA9OVipqdO8KuA/k/9+y+6dxw5emfDU9VxoT2ffPTE13SJEmKmqRkWUwUNQCTY27m2ei/bE9q5g7U/AcWq2x2/zPR9RMZlrnZPflZtLYm7oqadP4nz9+qb7AEiheiSdKCJ1rUFLej7vOuqBERSQIAk27Ci5o/Cg/t3Btmnhuv7L71jyLrGkn/mTJ7Hw473rUpOk2pqHnwxvDlW5/K/5DoLa/Y9fT+/PytfxJ/fs2EJSlqFmPmr/+fUlGT/BmA8TU32/u7LPIv25OauZkX8i1bW0lhFFs/kWHpnTz5WbS2llTU9F6LZxWu+qq9gml5ipr4dilqREQAYNJNeFHT5lkyq6//7JtWOf194ctviLz+b94UvnrdjrCv+O/KD97Yez0vdwbsDbuuu6ATJU0SRQ3AtJjr/cv1Twf+ZXtSE+Zm8+1aW3Oz+6LrJ9KYvY/mZ9Dam9Rn1Kx0UTP4eVfUiIgkAYBJN+FFzQXhgW/sCLvuX0IeKVyS8txT8WlGzONXXxBZ17bZFO782N1hd+lKmVxa1KwP177v7rAvfymzOzx12bmV+Ux2FDUA02N2/9PRf+GetMzuK171uvZm9z0eXU+RuozLM5YSiy1q1jylZxKNkKFFjYiINAUAJt3UP6Pmq3+3cGux529dSsGy1GwKN7/vlrCr6d+P86ImmbZ0S7Sefd//7MQ/l6YYRQ3A9OjK1R/JbdzGydzMc9H1FInnp8lJk589a69VUZOWIieH23ZmV5VEC5BIVrTYWaYrauZfS68EKq9/bRQ7IjLFAYBJN+VFzabwox35Rofd4ZGLYtOsfG644Jbw1BPxwZ3SM2jmi5ok54YHHix/Zt9XLgs3FOY7yVHUAEyX5L/kj/1L96Rkdv+ufEvGy+z+n0XXV6SauZln87NmPLQvaoq3M8vKkGrpsTDtKpQZy1jUFG9nlj17JymlFqbpJ/18zbxFRKYlADDpulXUbP2L8KPrbhkhXwm7nss3+sDD4fHoNG3y2fD1LZH1GZIbLrgxPL4zXtDse/Ar4XvvqFw5Uypqejlm8Hk1+7756U5cWaOoAZg+k1oqjNstz8rm3AJNhmb2wPgVjW2KmvjtwfpX1/RLjYWrbVblOS79QmjUlIqamlKnf3VNf9r5q21W4dk7IiJjHgCYdN0qaq6dvzxmlY12Nc4NWz8bHqkpaGZ23h1+sPVN89M2FjVJTr8x7KrMaub+W8Kdx1Smm7AoagCm0+z+Z6L/8j2uSZ6vM/5mw+y+J6PrLzJOz6UpGl7UND9EP7sCJVaCRDJwZc4SkpYnsXmNcEVN7TyS5FcNpYlfYSMiMo0BgEnX3aLmwN4w81w885Y4zcyBfJqWRU3TFTQzTzwQfnTBQkHTz9Cippdr3/eV8Hx1tk98L3zv9MFpJyWKGoDpNTfzfJjZ+1j0X8LHJnsfTZ8BM0nmDuzurffD8e2RqUtypdXc7J787Bg/Q4uatMyoFhWVZ9W884rw/WJhU3fbs+QZN+ntw5Ze1sRuY5albVGTb0N1HvNXz2S56u5iYeO2ZyIiADDpOlvU7PvKn8Sn+Tc3hvmbO9QUH+2mWR8eeDCfprGo2RRufl99QRN+viP86H1vD9dGP9uuqEkSLWsOPBUe/9gFtfMe5yhqAEgGkZNbMiVXg8zufWzts++J9IqfudkX8jWcTEkRlmxHuj2x7ZTuJvkuHfh57xyu+d+lY2RYUbPwDJcRCovKbcmqV+Nkz3pZSllTX8a0LmoKV/eUrgoa8mydbN37WXrhJCIyaQGASaeoWfQ0w4qaTeHOD90RdtXdEWXvw+GRFiVK26ImybXvuGXgNmiJffffEr76hvhnxjWKGgCA6dXmGTUrkfLVLaMlK1aab1k2WNRkr6/K83NERDocAJh0ippFTzO8qLn3m5HW5MDusOu6Pwo3lKatzyhFTZrTPx0efyKfvihZ7t/8xcQ8u0ZRAwAwvcb+9ocDyW5Z1uoWZJUre1wBIyKy1Pw0/9sDACaXombR07S49dmWW3rv9O0Nu7/y6ZGLkpGLmiTHXBC+942n8g+VzXz/s+GvY58ZsyhqAACmV3KbtvhgnIiISCV7H83/9gCAyaWoWfQ07Z5R8/WvPLWkW489cH++iETboibPFy+7u/zcmqfvDl93RQ0AAGMueT5VdDBORESkktl98f9QFQAmiaJm0dO0K2qWlGM+G546kC8icf9oRU2aN/xR+NH9yVU5D4cdp0feH9MoagAAptfc7AvRwTgREZFq5maezf/2AIDJpahpM80xbw+3v+3tpQf/Jw/u3z1foiyhqDnvxvD4/TvCrvu/Fx667pbwo37u+F7Y/fN89rnnb70gPo8WueENb4q+Pq5R1AAATLfkVjaxATkREZGF/DRp9/O/OQBgcilqWk3z6fKVLQN2hAcWfUuxYfPueyo8tDX2+W5GUQMAMN3mZp6LDMiJiIgsZPZA5b9wBYAJpahpNc0F4aEn8j9HJMsqXm0zWprnndkbdl17buSz3Y2iBgCA2f1PRwfmREREZvcNHUwBgIkxhUXN4vKD7+wNM89V8vTD4fHr/ijcEJl+lNzzNzvCrp27B+a/b+eO8NRXbgn3vmNT9HNdjqIGAIBE8pDo2ACdiIhMb2b3PZ5cepn/TQEAk69bRY10JooaAAD6Zvc/Ex2oExGR6cvs/p8lfzNkf0EAQEcoamQso6gBAKBobnZPmN33ZHTQTkREup/kKpq5mefzvxUAoFsUNTKWUdQAABA1N5MO1M0d+EX6EGkREelukt/6uZnner/9+/O/BACgmxQ1MpZR1AAAAAAAMA0UNTKWUdQAAAAAADANFDUyllHUAAAAAAAwDRQ1MpZR1AAAAAAAMA0UNTKWUdQAAAAAADANFDUyllHUAAAAAAAwDRQ1MpZR1AAAAAAAMA0UNTKWUdQAAAAAADANFDUyllHUAAAAAAAwDRQ1MpZR1AAAAAAAMA0UNTKWUdQAAAAAADANFDUyllHUAAAAAAAwDRQ1MpZR1AAAAAAAMA0UNTKWUdQAAAAAADANokXNo//wzejguchq5X8e/x/zs3E0ihoAAAAAACZJtKj5+Y//JTp4LrJaueU/nZ2fjaNR1AAAAAAAMEmiRU3iL3/1uOgAushq5OsXfzg/E0ejqAEAAAAAYJLUFjV3vP090QF0kdXIo1/9Zn4mjkZRAwAAAADAJKktan584xejA+giK51r/7dN+Vk4OkUNAAAAAACTpLaoSdz0O2dEB9JFVjIPXHNDfgaOTlEDAAAAAMAkaSxqdn7pK9GBdJGVyl9vOiM/+xZHUQMAAAAAwCRpLGoS3/noX0YH1EWWO1e/ckP4xY6d+Zm3OIoaAAAAAAAmydCiJvG1C//f6MC6yHLlqn/7uvDwl7+Rn3GLp6gBAAAAAGCStCpqEt//i2ujA+wiS82NG08Lux7ckZ9pS6OoAQAAAABgkrQuahLPPPDjcOdZF0QH20VGzadffny472PX5GfX8lDUAAAAAAAwSUYqavp2/dNPwncvvyrcvPn3wrX/24nhE/+fY6ID8SLFXHXEb4XPvfaU8Hf/9b3hJzfdHmb3H8jPqOWjqAEAAAAAYJIsqqiJSQbdRZqyGhQ1AAAAAABMkmUramAcKGoAAAAAAJgkiho6RVEDAAAAAMAkUdTQKYoaAAAAAAAmiaKGTlHUAAAAAAAwSRQ1dIqiBgAAAACASaKooVMUNQAAAAAATBJFDZ2iqAEAAAAAYJIoaugURQ0AAAAAAJNEUUOnKGoAAAAAAJgkiho6RVEDAAAAAMAkUdTQKYoaAAAAAAAmiaKGTlHUAAAAAAAwSRQ1dIqiBgAAAACASaKooVMUNQAAAAAATBJFDZ2iqAEAAAAAYJIoaugURQ0AAAAAAJNEUUOnKGoAAAAAAJgkiho6RVEDAAAAAMAkUdTQKVNT1DzzYAgP3hjCt/40hLu2hfD37wrhb9/Z+//vFpGVzLf/LISf/E0Izz6cfxkBAAAAYGkUNXRK54uaZ34UwrcvC+FvzxORtc4/XhPC3p/nX04AAAAAWBxFDZ3S6aJm59/FB4tFZO3y1feG8Mw/5V9SAAAAABidooZO6WxR89Cd8UFiEVn7/N35Iez6Uf5lBQAAAIDRKGrolE4WNT+7Pz44LCLjk6/9YQgH9uRfWgAAAABoT1FDp3SyqLnnj+MDwyIyXnnwxvxLCwAAAADtKWrolM4VNU98Jz4gLCLjmf3P5V9eAAAAAGhHUUOndK6o+cGn44PBIjKeeeTr+ZcXAAAAANpR1NApnStq/uF98cFgERnPPPA/8i8vAAAAALSjqKFTOlXUzOyNDwSLyPjm25flX2AAAAAAaEdRQ6d0qqjZ+4v4QLCIjG/u+eP8CwwAAAAA7Shq6BRFjYisaRQ1AAAAAIxIUUOnKGpEZE2jqAEAAABgRIoaOkVRIyJrGkUNAAAAACNS1NApihoRWdMoagAAAAAYkaKGTlHUiMiaRlEDAAAAwIgUNXTKzM1/Wi5qrr84f2cCKWpEJi+KGgAAAABGpKihU2ZuvbJc1PyP/2/+zgRS1IhMXhQ1AAAAAIxIUUOnzNzx6XJRc83Z+TsTaA2Lmj1fOCfs2h5/L8323vtf2Bp/b6Rs7c2nZlnLtowl5Etbw54vRV4fOb353Bp7fbqSnldrfUxXOooaAAAAAEakqKFTZv7+c+Wi5lNnhrBnV/7uhFmzoubU8IF168K6t54aeS/L197ae3/da8LXIu8Vs+fyE8NnrmoYmL/uxHBKzbLaLmPxOT186IhfCseddWrYE3v/upPCmYetC0eddfrgeyNmz4ePDYese3E47aJ3RN8fObduCeev6637ho3h/tj7208Plx/fe7+3X6PbtkzZ9bGTwvZr4+8NJj+vjj8xPBZ9vyNR1AAAAAAwIkUNnRItap76fv7uhFmNouZLbwuf2fhLYdM5pxcG9JepqLm1N5/Dk+kODed+8G3xadayqLlmY9jQW/YpteXJ1nDnm17cW4cjww2fj73fNueEG07obctB68P2Jc2nkMtfEw7prfshtccoOa7JuiflUM2+X2o+f1I486Bku34lXPjH5yy8fmty1Uwsm8OFybF+7cZwf/T9JHmpVzuPLHv65+gI+cDl+fqtdBQ1AAAAAIxIUUOnRIuab344f3fCrFZRc8IvpQPZx/3u5rAjfb1Q1HwpvzVZJdtPSwa/jw3bI++Vbm31+S3hwl9Ppn1xWgbtuHxj+NBZr1vIaa8IRyXL+vfry6/3cu6/Tz53eDi38vr2a/J5LzE73n14b/5HhM98/NTwicoy5nNyMs26cNTGY+Pv9/KJywslRSwff104LpnHMlyZ08/X3pqUMAeHD308/n6a604KpyVFyrpDwwc+tkK3G7v2pHBufnxPO/+MtOx77KIj0n22qORX2zTPo3fMrsvP0cp5Ez1n8mOoqAEAAABgXClq6JRoUZMMnv7zrfkUE2TVbn32trD9dw9NB7MPf9OWhasVkqLm8tfkg+MjpHprq+29+b0qu2rn/qUM4udZngH3t4VPJIP6ybpevzmcf/SvhA2LzPkf7F+Rc3q4PPL+hsOTUqW3b3898l5TtmyO3yLs1i3hwqSAOeJ14d7Y+4Xs+uDR4bStp4ddkfeWLV9Ijm//6p3evliGK2r2XHd6uPPDW9Lc8OZf6c37V8KFF2d/vvPDp4fHkqu1knlVriiKXoWVn8OKGgAAAADGlaKGTqktapJMmlV9Rs3bwg1v3RDuTR/qf2o2oJ4Mgn/+jPkB82Iu/51kQPzIcHnkvTs/9o7B56LUPZB/rW59ds3GsKm33DP/cMjVMCMlLw+WKzXPctnzx0en729699sW9t8is2zlxfbTwyfevfA8nD3REmZ4URN7nk52dU1yFU3xdUUNAAAAAN2hqKFTGouar743hN0/zaecAKta1GR57MOvC6flV4DEypN+lq1E6V/NsnXwtmD3bk2uLNkw9KqRxeTesw7urf/R4c5bC6+PdGVNm/XaGu48LdmX1ZKhX2Qs5nZk7wifOT7Z9/lzc77QcNu2Flmu28iV01/HUTO4n5I0FjW/s6FUEkYLxD84Mp2/ogYAAACAcaWooVMai5p+fvi5yShsVrGo2fXJk8IHjs+eVbPusF8Khyf/f6lFzbW9eVZuu7Wr+oyaRaS2XEivnIgP9pfSv3VYdf3zq1PO/IPCIH8k2a24WpRU+VU7R/X2Y/lKkbxkqLlipjEff132TJ/lKMkak5ctDefAjouOrL2t2qpdUTNCFDUAAAAAjCtFDZ0yUNT8zwvjg6lJvv7BEL57ZQj/dH0ID381hF0/Gq88+d34ei9j9ly3JXxow0HhkHQw+5fCKWdtCY99qXxbqVi5Uveg/w+dtTF87QvJvM8JN/xO/myWEzaG+9Nbqp0XHvvg0YNXp6RX8PxSOK742quydTo88lyXyz9W3ob5tCxqdrw7e7h8XVEzbEA/Kw6GFSVbw51vil9Ns/iiprdPT0jWe3Ddd338xPCBE44N29N935BrNoYNhx0aznxr7zjH3p/PkKLmS2eEy4/Lju8hx70u3Ntfbs2t8rJsCGcm6370seGG6PtJkufPFJbTS2NRc9rmUtGz/bRk3yT7oVAA/bdj0/VU1AAAAAAwrhQ1dMpAUdP7c/jBVfEB1anP1vC1tya3AHtx2LDlxHD//CB/uajJBsqTAfA2KQ6ovy1s/91D09cPedWx4c7kVl3zy15ItPhoWZqU0qao2b4lnJ9eTZMkvszDhz30Py2WhhQ1H39dOK43r8GraZIsrqjZ09u+7GqawXXf9YfZ7b2GPXOnfyyPOmvwVnPlDL+iJimO7nzzr2Ql30GHhw99rLfs/Hkwi8/g8Wssairr5xk1AAAAAEwiRQ2dEi1qEv9yRwh3XxofWJ3mfP70cOcnq4P7lUHwL5wRPrPl2LC9pmhpzjnha7+XDOa/OJx28Tsi79cUNdeuTFFz7zlJcXR4OP9N9eXQppOrVwmVc+HGpNxqKmrykuOg9TX7bDFFzdvCJ/KrmDal/7+y/C9sDucm8zzhpOityLKcE7afnHz24PChj8feL6ZNUZMluQXa4esO7R2rxTxzpyaNhU+y7YoaAAAAALpDUUOn1BY1ibnZEB67J4Tvfiw+wCrzSZ8xkt+urP+slUM2njT6M1XSbA33X35GfmXJO8L2LbErVCq3Pvv17Hk5A1e3bF24EqTtlT7zA/SFZ8bsiJVDvfVMbpW150vF1yK5NbmlVkMpkRc+6w46qLzu8zk0ewZQ7fuDt3frb+txv3d6uDP6fKB+CXNkuKGuULt1Szg/We4Rrwv3DryfFx/DUlMu7bq+XPbt+GC85GrKJy4vzOOazfOvZ8XYweG00/rTbg47+ut72KGl/XbcYcl6xs8lRQ0AAAAA40pRQ6c0FjVFB14I4fknQtj1kxCe/F72jJp/vnW88uOb4gPBy5Vb3xHujT4nZDCXJ89GedXR4TOR9wbysXdEHwqfJb9S44hXhAvzgfjo825Ozp4js3B1y/q0ZCleQbHnutPLy/2D5PZfvxIuvLjwWi/394uLz58UzsyvcilexZNdhbGEVK86uX5zOL9YFAxk9KJmz4ePDYcccWz42vaaq0Z62fXB9en61N7+7PLXpLcpi9/27Jxwf2Gf3fnhk8KFR/eW8zsbCq/10nhsF5KtY6UwqUv+PKJTLmq64qrm1meKGgAAAAA6QFFDp7QuaibB3l/EB4KXK/0rP5Y71asutp8Tds1fpZIXNYVp0kH9ylUee/746N68jgifubb/WvxWV6UMvfXZ1rDj2qzEGChqGh9wX5e8zGhap2jybRnp1mdnhHs/nl3FU1fUpEVUMt+a25/de052Zcrw254laX/rs6Tw23Fd+Qqj2nWMJT8PRytq3ha2JwXeB99WeK1mufnVOduvKby2klHUAAAAADAiRQ2doqgZJdmtvpqy4w+PDq9MBv+THLch3Pv5+HS7Pv+O8Nj8e+VB+x3bjkivfPjQR5PXq0XN28JnXtv789GvC/f2b7XWS1YqrA/b519bjqJmIQNFzUilST8jlBmlLKaoWUh9CZKvT/T2Z6eHDx3Rey9627NY2m9bVqqtCxv+4Iz517J1rFwlVZfTXhGO6n1+tKImnpEKopWKogYAAACAESlq6BRFzXLlnHD/u5OHxCfPptkYvvbBY8NR614cTruofAVDUvY89uHXhVMOqxto3xrufFMyeP4r4RPpFQ2VoqZ/FUiynFe9Jr2110LhsC4c97vJ80iS11auqEmfp/LuU8OOyzfGi4SabL/mnPC1d/f+uXJVx/CsVFHT36514dwPVm5/ds3GsCHZx61LpfZFTVaqvbh0a7FsHVfw1mdfipeM209Llnts2B55b/6ZSysdRQ0AAAAAI1LU0CmKmqVnz3VbwgeOSx7w/+Kw4c1b8ttobQ1fe3MyIH9o+MDlyZUxSUGzIZz5qmS6dWHdYYeHc//g9Mgtt/IrOQ56TX4lR7mo2fHu5Fk0h4cPvfs14bikSHjV68K9n8we+r/phCPT145766m9+bYoakZIsaiZf+2DR0eLhOhzT3opP0em+oyXpvT2W7ItbW63dtXg82YarxrJC5l1J28uHYtsP5fLlOVJfkXUuqPDnbcuvD7SlS2LufVZWsolyxghy3TuDI2iBgAAAIARKWroFEXNEnL9qeETW34lvbohGdjesHXhVlZptp8aPpAUMwcdFI47PCtoDv/3R4dPXN7wgPlr8+fgvGlLPk2hqPn85nDuQevCIXmpsOfy14Tzt50etr8pmXd2+64dF70iXZ/j3vqacG4ynxUsaurSrnTIi6TlTmR7m9cnL8ZKxcnbwif+fe+1g1oWJ6PkC71jmKxn5eqgbB2X+dZn1yRl2InhQye/Jmy/5oxosXX57yTLPTJcHnkvVnqtSBQ1AAAAAIxIUUOnKGpGzdbw2OUnhg9syG4/lVw5csqW9elVGdGB8+2nhw+lV9usC6/cuDHc+4XK+5Xs+uD6dNrTLu7PKy9qjl4fzk3mc9ArwmeuXZh+vpg55/T8ta3ha289NBz3u+uzwmdsi5oxuaKml13XnBF2Fa5uSa6ySa5Qan/bs/aZfz7N+bGH+i/x1mdf6p2bV50aPvOm5EquZH79HFE6Z4ppd6xWOIoaAAAAAEakqKFTFDUj5PObw5kH9Qe/fylsetPG8LXre69HbkW15/NnhDsvel049/zTQ/jSO8L2N/evvOl97uQNYftV50Suquk/n+bg8KGP91/rFzWvCKf9ev82avl7+XIP2Xhi/lyaPF/a2pv3yt/6rC7LP/i/cs+oiWXlbnuWrEtS2g3Oe6R1HDjfeufNaf3iMM9hh4ZTTn5d+MyHKyVUJYoaAAAAACaRooZOUdSMlh3b1odzt24OO4pXxuS3K9vw5hPDZ85aHzbltzlLUyhKdn3ypPCB439p4b2DDgobjl8fLjw/eaZMMs2p4QNpEXRsYeB84dZnO77Uf20hez6+Jdwbe+j79SdlV6GsRlFza6E8+tIZ4fL8tmHZM3aWI8tX1NQ9V6eYV6bH4MXhla+KvL+1f+XSYhK7zVqWUQqTPR89duDWZ8mVWIf/+pHh/HefFO69tnA8kveuilx5lKfx1mdJVuP2Z4oaAAAAAEakqKFTFDVLT1ZiJAPeWeoGzPvZc92phULn0IWrZz7+unQAvvxg+8IzauZfi2fHtmw9Dv/1Q8Ph6bq8OFz44fg6jJqmouaxi1+RLreYQ07rP2NnObK6RU1jllLU9I9vZDvqi5p3hBs2Zvu0nOJVV83J5r3IrMDt3waiqAEAAABgRIoaOkVRswxJrqg57PD0Spv7Px95vynFq1E+f0bYftHrwgf+sPj8kvZFTbhmc7jw5COyQuGEo8Plf3jGspUljVfU9JZbfNj95RedXiialiOre+uzFcsX3pbeDu/8bWcMvHfv1qQI2hC9CmnHBxf2bZYN4TMfG+FKl+3nhF1fWGRiV2stdxQ1AAAAAIxIUUOnKGpEZE2jqAEAAABgRIoaOkVRIyJrGkUNAAAAACNS1NApihoRWdMoagAAAAAYkaKGTlHUiMiaRlEDAAAAwIgUNXSKokZE1jSKGgAAAABGpKihUxQ1IrKmUdQAAAAAMCJFDZ3SqaJm//PxgWARGd9880/yLzAAAAAAtKOooVM6VdQkvrwtPhgsIuOZH1yVf3kBAAAAoB1FDZ3SuaLmO/89PhgsIuOZh+7Mv7wAAAAA0I6ihk7pXFHz0y/HB4NFZDzz3KP5lxcAAAAA2lHU0CmdK2oO7AnhyxfEB4RFZLzyvb/Iv7gAAAAA0J6ihk7pXFGT2Pn38UFhERmv/OKh/EsLAAAAAO0pauiUThY1iX+8Jj4wLCLjkZ/elX9ZAQAAAGA0iho6pbNFTeIHn44PEIvI2uZf7si/pAAAAAAwOkUNndLpoibxz7fHB4pFZPXzD5eE8MR38i8nAAAAACyOooZO6XxRk9jzTAg/2R7C3f8tPngsIiubb344hJ1/F8LcbP6lBAAAAIDFU9TQKVNR1BTtfy6E3T8NYddPRGSlk3zXDuzJv3wAAAAAsDwUNXTK1BU1AAAAAABMNEUNnaKoAQAAAABgkihq6BRFDQAAAAAAk0RRQ6coagAAAAAAmCSKGjpFUQMAAAAAwCRR1NApihoAAAAAACaJooZOUdQAAAAAADBJFDV0iqIGAAAAAIBJoqihUxQ1AAAAAABMEkUNnaKoAQAAAABgkihq6BRFDQAAAAAAk0RRQ6coagAAAAAAmCSKGjpFUQMAAAAAwCRR1NApihoAAAAAACaJooZOUdQAAAAAADBJFDV0iqIGAAAAAIBJoqihUxQ1AAAAAABMEkUNnaKoAQAAAABgkihq6BRFDQAAAAAAk0RRQ6coagAAAAAAmCSKGjpFUQMAAAAAwCRR1NApihoAAAAAACaJooZOUdQAAAAAADBJFDV0iqIGAAAAAIBJoqihUxQ1AAAAAABMEkUNnaKoAQAAAABgkihq6BRFDQAAAAAAk0RRQ6coagAAAAAAmCSKGjpFUQMAAAAAwCRR1NApihoAAAAAACaJooZOUdQAAAAAADBJFDV0iqIGAAAAAIBJoqihUxQ1AAAAAABMEkUNnaKoAQAAAABgkihq6BRFDQAAAAAAk0RRQ6coagAAAAAAmCSKGjpFUQMAAAAAwCRR1NApihoAAAAAACaJooZOUdQAAAAAADBJFDV0iqIGAAAAAIBJoqihUxQ1AAAAAABMEkUNnaKoAQAAAABgkihq6BRFDQAAAAAAk0RRQ6coagAAAAAAmCSKGjpFUQMTYG42hP17Q9j3goiITGX2hHBgX/6XAgAAAIoaOkVRA2Nqbi6E534e5p56OMw9+hMREZEw99iOMPfM4yHseS7/ywIAAGA6KWroFEUNjKEXdoe5x/8lPkgnIiKS5OnHev9D7kD+FwcAAMB0UdTQKdNU1Mz95L4w+5UbwswX/jzMXP+nYeaGj0hX89dXhJm//WyYfeDu7JZhE2Ru99PxATkREZFqHv/n7LZoAAAAU0ZRQ6dMQ1Eze9f1Yf+fvL20nTJFef+pYeaWT4S53c/kZ8QYe/aZ+ECciIhIXZKy5sD+/C8SAACA6aCooVO6XNTMPfyjcOBj55e2T6Y4/+2/hNnvfzU/O8bQ3hfiA3AiIiLD8rNH879MAAAApoOihk7palEz988/CPs/eHpp20SSzH7r9vwsGS9zP3skPvgmIiLSIsnzzQAAAKaFooZO6WJRM/eLnylppDFzP/pOfraMiX17ooNuIiIirfOzR/K/VAAAALpPUUOndLGombnuQ6VtEqnmwGVb87NlPCTlYnTQTUREZISEmQP53ywAAADdpqihU7pW1KS3PCtsj0hdZr9+c37WrD23PRMRkeVI2PN8/jcLAABAtylq6JSuFTUzX/jz0vaI1OXAle/Oz5q1N/fEQ9EBNxERkVESnvtF/jcLAABAtylq6JSuFTUH/uzc0vaINCU8uys/c9aWokZERJYj4bmf53+zAAAAdJuihk7pVFGzf29pW0SGZe5f/jE/edaWokZERJYjihoAAGBaKGrolC4VNXO7nylti8iwzP7wnvzsWVujFTXXhyte+q/CFbfH3svz3Y+Ei156Qrj5u5H3Jj7Z9l/0qW9E3luF3H5+OLNu/6f7vc26fSPcfEbTMczeH2kb0/U6P3xr4L1FzGuReeRTJ4Qzz/hIeCTy3nxq13Mw33r/vwpnvv/66Hurnxb7cUnfu+y8XrPtHeG41Kd+H6XHMj83kn9ejfMxSfwciq3n6N+T5Hxfre0YJYoaAABgWihq6BRFjUxzprKoycuEpGwYNY3LXLWMXtSkg7WVbRme+tKjbjA9LSpaDXZn82kqah65fcigf3Ici6XIOBQ1370+2z/5emf7o7hPm1Ndx+oge6vjOKwoWnRi+zE5Fwv7vPq9qx6jxoxZUdP6d6J4jtada5XfrOp+WsGsVFHTP7cv6s17Zc63xUdRAwAATAtFDZ2iqJFpzuQUNfkg7qLTpjwYpWjIkw7ulpcVG/ysTlPM6OVPm32x/IPA9SVBf381r1d5O7P9svDaCMe3P+j83d5n0n2bb2t/oL31APsIx3nEpOdRXeEwwpUb8UH2+qTLXc2i5rvfCN9KvzP5MSgWEPlxaH9+5+fACNu7rGl5XLLfiLrvV7zsiB2XUY/tYlNaTuvvRpL635BsH8SObbL99Z9brShqAACAaaGooVMUNTLNceuzcrIByJYD+HlJUxqUjb2WpD9AWh2YzacfbXA92/6BZaxwogPLhcHt2pKgNGAfK2SS45S8Pvx4xdYheS3dF7UD7fHB89VJbHvrkq977WB6yxJhNYuaPOlyk+NS+N4lx6V9SZMk31fVc2wlU7uve6lZj+w3ou5cje2jlufAMh+39LtSXcb8NsXWs933JJtv/fZ/6/3J/hn12C9vFDUAAMC0UNTQKYoameZMclEzMAg5kOED/9WMVNQUBqUXXs/XrTro2h8Qjg3+9sua1gPU2TJWu3iIlSQL5Ui2TtHB2Xzby+9lg8ILryWf7+/L3j8Xl9P7/BX5tkbXof96sg/HrqiJpLZQGkzd9tZlZYqa/Jwupea7Ff1OtE2+nBG2d1nT8rhEi5r+97ua3rHIrjiqnH9L2k+jJX4OLXwnsu1J/jm7bV/99yT7TKvf1fw3ba3KGkUNAAAwLRQ1dIqiRqY5rqgpZ6SiJpp8sHmUoqZhALQ/iDpSVmigu6mouTlZz7qCIN/25qKmn34psLAv5vdBZLsWBpm/0YYxetwAABx3SURBVDDQvkpFTXX5dYP3Tansw/Eoavqp7MdRtq/VOk1wUTOf6rnWP58r598if58Wk8ZzKC9ULjoj2aaGbe8f6+hx7P9+xbPi37tIFDUAAMC0UNTQKbN3f7E0cD3zxU/m70weRY2MGlfUlJMNwi6hqOkPfFYHJ/sDnTUDpulgau/9anEx6sD7qAP7o6SpqMn2VzJgG9l30UHpbHC3tL3zA/+ReeT7dWFf5IPDxfUprEu/wGnKcg8gf+v2jywMWC/TMRjroqaSZF2v+FR2rK94fy81RWqbY1OXunkuS0rncn2y9W9X1KTHr/edSJ6lVNpv41DU9L9T6XuR71M/89/LujRsR/7Z5f6uDYuiBgAAmBaKGjpl7sffLQ1cH/irD+TvTB5FjYyaabuiJh20LA0yLiJ1A+dNg5L9wc6az/YHr6ufHXXgfWBQtj8Yu5Tk84sO+JYGt/PB3ur6Ro9FNm3/GM4P3jdta38f1k1TXJfkn+uO00onXY/lGYTP9nm/AOptW38fNGVVi5r8mPeWmx7LwrHOvmuj7IcxuqIm3Y54adO+qEm2J5luYR81ZaVKqNI5lO/b6PctP7eWu1RJlnVRb7krc07Go6gBAACmhaKGTpn72aOlgesDHz0nf2fydLao2bY5PHlx5HVZctz6rJxsADM+QFubdIC3P+Bas8z+AHvNIHR/4HTZi5q6DFmfWLKB91iK+ys7NqXtiB6LfFA+TTaY/a3bs2dkDM4/S1YEXB++1eKYPtI7Jsn2rdTgd/sUt7M5dQXIKGXHqOfLaOmXEB/pbdP54YpYETNwrPvb0eY7le+rEc7JZU3xe9ywD7Pvat0xKRY1Da8t8vdp5BS2KfsuFM/HyDHJp1/7783SoqgBAACmhaKGbpk5EPZ/4P8sDV6H53fnb06WNSlq3nt82PbSw8Mlp20Ku2PvLzknhat/Y11Y95KXhavPj72/DHnPa8OlG14T7tu28Nrus44KJx60Lrz11M3ladvkPSeFndFiKd+W3zg27Bx4L8nmsPM9sddXLpNS1PSLjKWkWoLEki1nxKKmkPn1rA42j1VRM8rg+UKi804HdivzSV8rDEKXBqWrxcWwwer+ulYHj9sXIPVZhYHyfD2bB74rA/mF/de6eMsz6vnSPgvHoe68yYq8xX931qyo6X83G7atmOy7WnfuREqZ2GurUNRkx+OEcFFy3NJ9uvCdycq2/jaXc8X7s7Jm4PeyUPq0zVoVPooaAABgWihq6JwD//2dpcHruZ0/zN+ZLGtR1Dx56uFh3bp14cTNmwbff+/m8GRyNUwvD559fLjtLb3852PDR397fbj0t18e3vprB4fXH/OamtIiy87/9LJwSG/+rz5hY/T9peeUcNt/eFFvG14Uzvsvpyy8/t4N4ZJD1oV1hxwZ7npvcfohee/GcMlL14VDDn9luOld1fcbipoL3xiuXN9bj5ceEW5aqUIqksm8oqaXahnQ9r0hyQZhlzLYvDBAWlr+kKIm+8zgwGa/wBkpwwa68wHXUQdRo6VBOq/q/soH9fvTlgalk/eS6bNpmtZhfttHLR7mB5RXdiC8NqV9soiippDoPm/IihQ188evvJ79c7Zd2nyn1qCoKR6r6Lk8mEkpavoZ9RzKkh2L0jq33D9Z2pz3KxdFDQAAMC0UNXTOzE1XlAavZz73ofydybL6RU1ePKw7PHzuPf8x7DztiPCKlyR/HiVHhrui8+7lvGPDqSPPL8vmLSfF51nJk711ToqgQ455bXiy8t7OLYel8zrx5EgJ1ZAnz1ofTkzW+yUHh23/pXhFTk1Rc95rwtkvTdb7ReHEEzYOrMdKZhKLmmyAuDxgODgYGRlobJHlKGr6BUNpkLKxqMkGcmODv6MOvA8flK0bDK8vC/qJzrtu8Dbd3vz16DTZ8uIDuf39MfpAb3Zu5PsxWYfqvsuPw6jnxShJ12F+ufn+bpHYOg0/nuWsSFEzn5pzJN+n5WM1/HwaTN25uUpZ4aImdsyLWalSY+AcSrdzcPmlxM4hRQ0AAMDYUdTQOXM//s7gAPY/fi1/d3KselFz9vrw6qTk+K3js9uenXVUeH1ylUyS3zgibEuvnFkftq3/X9LC4/XHvybctfWk/CqbwtUrsVy4Ib0yJSteDg2XnJZfkdOUU48MJ6bT/3LY9pYWtyzrF0EveVn4XPQqlo3h0nQdfjlcenbs/Ya8J7klXPLZF4XNJ78xf32wqHnwtJeH16frcGi49KxF3GZtiZmooqZfdpzxkXBzOiA/JMWHsMfmF8koRU06bWRQuVQW9F/vr3tsELo/cLoKA9TZusW27xu97cnWo25wPVoatBm8jU6TDV4PDuT2i434PGuLiPnB58p+T16fPw/q57t8qQ7Utxmwri81xr+oqTlebc6LgXSsqEnnl0wX2W/p70HdPJY38aKmfjubv2Ntj6miBgAAYDUoauikA395UWkA+8CfnpW/MzlWt6g5Jdz2W8ktw4aXGP0rU9pe5ZKWNIdn875ky29mZcpLjwx3FZ4hU83urcfOX5Vy6pYWV8DMF0EvCmef1lCQ5GXUupe+Mtw26vNjLtwYLj26t94X9l+LXFFz3rHhrb/Rm2aVn03Tz6QUNdHyo/p+3QBvU0lSSTYI224wMjpgmw5mRpZVsw7ZPHqvRwfXswHe/mDnwLrNDwT3p8/2Q2zAP02+bk2Dp/31aV0atBm8jU5T3rYs+UB9Q9GQrl/x/f7+7meRA8yN+22U5Md5YbvWuKhJ16fd+Tw8scLhG+my5s/jZFs/Vd0HbTNaUZMuc4R9MzRtzuVesm2N/xalxyvfDwvrNmpRk+yH+t+6UTNwDg3ZzoFzqJ+W+ydLzXm/rOdjfRQ1AADAtFDU0Emzd98yMIg984U/z9+dDKta1Pz+b2ZXr7zy2PBg7P1CRipqti2UNP3bhu0+O7+V2EGHhyu3Vq/E2Rzu23x4+NVkXQZuNVaXTeHq5Hkwvc+8esOG7Gqghjy4JXtOTmNZ9J43xq/yKeU1Yduv9ebza68Mn4u+X859q1DeTOwzaioZdUC7LtkgbPuBxNLAbJ7y4GQ2SFudppi6Ae3+uiT/RX72Wjb4uTDgm897YBC2boC0Mm1NsuUOFgfRfdxi8DY+8Jute3E92+z7+XXob09hQLu8nOqgf/7n6AD4N8Ijt2fzi5Ulo2RwG/rLHZ7BZUcG+IdkYF8nV3Ok5+hyDI4PW5/KtrY418qpHrPmPNI7B0aZfmhGKmoq0+Xfu/i+iey3pqKmd8y+lS5jecqa8SpqlvN8rI+iBgAAmBaKGrqp9y/2B/77efHB7G9/KZ9ovK1eUdN/AP+6+IPxK2ld1Jz/2vyqmF8OZ59WuSomufLkoOS9F4fNv3182HnhKWHnW9aHUw/O1iP+8P5YNoWbjv3l7DPrh5dMWU4Jd23IPhMvi3p5+5HZ+8uYS95eWcYKZJKKmmyANBnkGz21g8v5AGuraVcz+XpVBzrTQdfCIGps0Lg6zShlQTXFfZHONzJN86BrNkg9OJg+OJCbbUvD4HTjYHj1/Khbp3x9YtPk5c/ij38+78i+HxiwLiX73MI0xeNV2B+RczWayCB7duyWOjheN/jeL816KRzn+fMl9toSUj4++b5adFlTPB9q5rPk34jKMmpTPj5Dvw8tk+7z4na1OY9qi5rItA2pO++X53ysj6IGAACYFooaOmvuyZ/WljUHPv6eMPPXl4fZL1+fPr8mmXbcrFpR078dWJLlLGou2RzuesPLwiVn1lwVc+Ebw9XHZM+7mc9Bh4bztryx3QP4L94Urj7qxennDvl368M987cka5NTeut2cHZlzboXh7dubrnMJNs2hkv/3YvCupe+LJyaXFHT22f3bN0Ydr43Mu0qZ6yKmkd+HB10m8YMDK72kw6WFgZvo/9lfjJ4vfQB3mSg+KLeOvQHbKPrlK5PYcA1OphbHJBtKEpKBUVNYvskT+0+GyVNVzoMS7ToiZcb5VIpyfIMWqfzjQ2y97L4/VM4LvPzLh6r5nVPl1uzTsuT+D4en2Tn/GIKwKbjOSzFc6y0b6rf2Upqlznkc+UMPybL8n2tiaIGAACYFooaOq2prJEkm8KV/7ZQlCxrUVOT924O973l2HDpMYdmtzir5Ff/7RFh2+bXhHvO2xx2Xxz5fJJ3vTZsS2+ptpiSpp9TFm6zlszn8MPDR9/edKu13npveXl4/Ut663jUb4b7LsyfUfPSQ8OJByfzeHE48Zijwk1b29yubWVy4BPboq+vRWbu+Ex00E1ERKRtFDUAAMC0UNTQeUlZM3PdH0cHk6c9D56SlS6vPmF92JYUFitR1Fy4OTx49mvD1ZteHt56+L/Or2JZKDY+d/ZJ6XNldp+/IVy94WXhFcnza+anWRd+9aUHh9cf9fJw6W+vDx/d8tpw1+9vDk+eeWR6FdCvHnVsuO89vT9vW1zS5W49NpyXlD4veVm4+rzI+l+S3JbtqN66J8XQi8PmTRvzq2/yoibdZ71p3n5suOQ38it8Dn5ZuGTLhlW/ykZRIyIiXYqiBgAAmBaKGqbG3MMPhplbPhn2X/qW6MDy1OX3fzOcmJQhLz0y3PPeDeGS5J/7Rc1ZR4XX/9rB8fSfI3Nw5L00R4V70gf8HzxQuhxy8KHh7ON/M3zu7E1h97mvTcuXKweuYjklPLl1Q/jc5peHt/7aL5evunnJEeGm/KH8D56b3K4sL0uK07TOYeHq8/NlXnxSuO+88rNqdr/njeGmTUeEE9Nn6awLv/ob68NtpefmFIuawufSwumwfL1fHDZvODbcdX7kOTgrEEWNiIh0KYoaAABgWihqmDpzP38qfS7N7Ff/OszcfGU4cM0fhgN/9l+jg82dzrbXhrPX/XK49Ozkz5WiZkkP0z8y3NWbx+6z1ofNv3FE2Lbp2HDT298YdlZvT5Yv4+zTht8qbPe2k8J9bz8+3FUpU9KrXc46Ptz2loV87viD0/m+9X8vv17MR49O1rNQ1JSyOdx03L/OtyW5FdvLw5Vvj1899OR5m8KDyS3aIu/tf+9J4bZi0fMfjo9Pt4ypFjUHPvyOVU1x2YoaERFZahQ1AADAtFDUwJia2/1MaeB7+XNKeHDrpvyfK0VNQ0a99dnuyC3Hktx3cjafbf85/n4xtc+qiaR/O7dL3h5/P8ldG5Ly5OXhtrpbk124IVz528OuhNkYLkmuGBq2zy7eHO7ZcmS4Mi3EVjazP7wnP3vW1twTD0UH3EREREaJogYAAJgWihoYUytf1BSzUkVNPt8lpql0qeau45PP1F0tk+Sk8Ln1yTTZlT+xaXafvzF6JU4ppx6Z3Tru6KPi71dyzyrc/kxRs/Q88qkTwplnfCQ8Enlv7tFvhJvP+FcN74uIyHJGUQMAAEwLRQ2MqW4UNZvDfZHS4ra3/GY479/0lnfIy8PV0fezZLcxO6zmIf+xbAyXHpLMd324J/p+kv5zbeqLmv42LmfaXoG0lExsUXP7+eHM918ff2/RyUqViz71jch7dbk+XPHShs989yPhot77V9weeS+WUadvSrKPXnpCuPm7kfda5lvv/1e9eZwfvhV5Ly2oFjH/5HPF/ZUuYwnHsrkoE5Fpi6IGAACYFooaGFPdKGpqcvb68OrePA7ZsCH+fp4HT86LmtqrYyrpzfdVyXx/q+l5MHlR85Ij68uc98ZvwbaQN4Yr/9eFEuYVx702PBidrpC626wtYyazqMnLkfdfnw7OZ4VBUig0pNVA/uhFTeOye+uXFR01iaxTNr94MZIl2/bifOLrm0+3lAKjsTTKrxQatWDJ51la59aFUrbM6vrUFTXp68te5onIuEdRAwAATAtFDYyp7hY1m/IrWg4NV/5+7P2FZM+SOSLctC3+fjmnhNv+w4t60/8v4dLG58HkV9202Na67H77kVnR9FvHh3tOPrS3zBeFU0/pP+9n7TKJRU1afqzIFRQjFjWFIiNaFhQKiLoyoZzi8gcLmSztC43Bz9alWgzVLbuXfvGRblvk/TR1RVNduZO/Pmz/fPf6cPP7kyKrvIyBfZsfl3Rf3f6NFThPRGSco6gBAACmhaIGxlQ3i5rN4a4Nv5x+/tVv2Nhw1UuSzeGmY5Kipv4WZcU8uOVl4ZBW27AhbGu5rbHs3vqb4dSX9D7/kpeH2y5MXtsUrl6fFEQvCieesDE8GfnMamXSiprlKmkar3SpSbnAya/qKbxWvoJjsPRJltlYAqUFQ0MR0/LKk9K2NVxRkq7vwHYlybateuVKOt90foPb1k82z6ZbpdWUOLErbWpT3vfloqauDBKRaYmiBgAAmBaKGhhTnStqktuFHfXi9LOHrD82PBibppRN4cpf663TK4dP++R/eWV6hcu6l7xs6PNskqth0tujvWFj9P36bA73bTlifjlXbj1l4b2LN4Wr+9t2+MvD1eduLnxu9TJJRU1WQPQH+pPB+rorNxab+gKimnIpU/P+iIXSQhESf394UZOXFPPT5H8eWI/+dHW3NRtS1KTrMVoZk70+pGTKr9KJr1N9FrOvRaS7UdQAAADTQlEDY2pti5r8z4tJ9bkzF28O92x5eXh9chVK7/1XH/vacvHy3pPCg+cVnuVy4Slh97aTwj0nZ1fIvOq3GwqVbW8MVx93cHYlzUsODpe8vVCevOv4cPWpx4fb3lLIqevD5oOS9Rh2e7SF7H7PG8NNm44IJ6afS4qYV4ab3hWbdnO4b/Ph4VeTdenlV//tEeHSLceH+95TWKcVzsQUNckgfmEwvtXA/8hpX9SkyYuFRaVaLPRv17WEoqausOhfYZNsV/+fm4uNpqLmI437KFrUjFLA5NOW55+tT7rei0zrYyoiEx9FDQAAMC0UNTCm1rao2RRu+u314dLF5LT8WS3v2Riu3vCy8Iq8oFl30GHh0rfErsLJb0UWy0uPDHeltxer5OLe+hXmnVzF8rnqlTTbXhvOrs4vTXaLsvrbrm0O92xeH7Ydc1h4/cHJLc2yzx1y8MvCJae+cfitzba9MXxuw2HzhU2al/zr8Pp/98pw03si0y9jJvEZNXVFwtIzYlHTkFGv8pgvUJZ0RU088/MupHnfDbmiJvlzUixF1rW63VlxM+Kxmn/GzJArptLpzg83j7ivRaTbUdQAAADTQlEDY2pcb33WPpvC1b/RLzg2hicvjk2TZHO4a/Ng4XNl7zM7az/zH8OT//nl4VUHHRrO21JXnmwO9xWvpkmzIdzXoix58rQj0qt0Djn40HD28b8Zbtq6iFuZXZws/9hw6TGHhVcf9KJw9mkrfzu0SSxqioVBvwholWQwf74EWGzaFSUjFTVpAXN+uKJYhMQyQlFTKmeq86zsg8ESpWVR05umWmqVtnuRxVI/2TZEPt9f/3w52TJPmN+mkUohEelcFDUAAMC0UNTAmFrdomaF8t4Vvu1XQ5GztJwSdr839vp4Z9KKmn4xM/Sql3wwf9RB+7YFS6kIWXSSK0YWruJZKEIWniHTNlfcXv5M++0u31Ys268Ntxorlj6RIia6/0Ytx2rKqoV9Xr7SJjsneq9Fl7P4okhEJjOKGgAAYFooamBMdaKokVXNRBU1hYH4ZSlq8itZBgb9214JM0Jq55usZ15MlK5YiWWxV6ik+2LIbcRKaXFFTfG1wnYN339Nt5fLy6bqPki3u7yctpkvd5r2q4h0KooaAABgWihqYEwpamTUTExRkxcvF33q+oaB/kJaFDWxUmHVi5pClqOoSZeTFBMjpVritC9qqvu5bVETPy7Zcoce20pW6piJyGRGUQMAAEwLRQ2MKUWNjJpJKWqSwfhsAL/pioxChhY18fk0Fh2lkqLh9mAtU132chQ1sTTON5nnQMkxQlHTS7rP8teHbkN6XOq2oa6oWfq+blwnEelUFDUAAMC0UNTAmFLUyKiZtGfULFtRU/P+oq/OuP38xnVqM98VKWqGfCa+XqMVNcUMm6Z5P9QVNQ3Jj2NSxoz0ORHpbBQ1AADAtFDUwJhS1MiomdaiJi0U0gH+comx2KLmkaSoaVjeWhQ16TIb1ilJOs3AMleoqFlkeVaf7FxI92v62RFLLBHpZBQ1AADAtFDUwLh6VlEjo2X2h9/MT561tapFTWFQv19m9Oe32KImTcMyV7WoSafrzWvg2TPVNN9qbPSipunYZPNs+nw6/xHKloHpRyyyRKSbUdQAAADTQlED42pmf3QwXqQucw89kJ88a2vZi5q8rBgsTfKrMEqFQf5aWm4MT+Oyk+VGyojhJUd5mn6B1C55IdMvaOoKofkCp5DotHmpEkvTNtQVVf3llj4bX0a0WBtI/7ORUia6LBGZpihqAACAaaGogTF24PLfjw7Ii8QSnt+dnzlra+lFTWTgP1ZCJAP5i71iZoQMFi3Drm5pV+asTrJ9OeyKmuyKlkpK698vwJbpKpdi0dS4nwrF2yocaxEZryhqAACAaaGogTE2c8snowPyItUc+OSF+Vmz9toXNTJ1KRQ07a64WchCYTa8KBORbiQ8/4v8bxYAAIBuU9TAGJt7+EfRQXmRama/dXt+1qy9uZ89Gh1wExERGSVh7/P53ywAAADdpqiBMTfz15dHB+ZF+jlw5bvzs2U8zP3i6eiAm4iIyCgJszP53ywAAADdpqiBcbfnuXDg8v87OkAvkmRu5wP5yTIm9u2JDriJiIi0ztOP5n+pAAAAdJ+iBibA3GP/HA58+B3RQXqZ7sz+4B/ys2S8uP2ZiIgsJcl/qAIAADAtFDUwIeaeeTwc+PQl0cF6mb4c+LP/GuZ+8r387BhDrqoREZHFpve/eQAAAKaJogYmzOy3vxQOXPmu6OC9dD8H/vT/CrNf/p+Tcd/+534eH4ATERGpyxM7PZsGAACYOooamFDJQMbsd/42zPzdZ8PMbZ+WLufOz4TZe24Ncz/9p/zoTxBljYiItM2TPw3hwP78LxAAAIDpoagBYGXtfT4dfIsOyomIiCT5+ZMhzM3mf3EAAABMF0UNAKvjhWfT5w7MPf7P8UE6ERGZrjzxUJj7+VMh7N+b/0UBAAAwnRQ1AKy+5PkDye1tRERkOjPr6hkAAIA+RQ0AAAAAAMAaUdQAAAAAAACsEUUNAAAAAADAGlHUAAAAAAAArBFFDQAAAAAAwBpR1AAAAAAAAKwRRQ0AAAAAAMAaUdQAAAAAAACsEUUNAAAAAADAGlHUAAAAAAAArBFFDQAAAAAAwBpR1AAAAAAAAKwRRQ0AAAAAAMAaUdQAAAAAAACsEUUNAAAAAADAGlHUAAAAAAAArBFFDQAAAAAAwBpR1AAAAAAAAKwRRQ0AAAAAAMAaUdQAAAAAAACsEUUNAAAAAADAGlHUAAAAAAAArBFFDQAAAAAAwBpR1AAAAAAAAKwRRQ0AAAAAAMAaUdQAAAAAAACsEUUNAAAAAADAGlHUAAAAAAAArBFFDQAAAAAAwBpR1AAAAAAAAKwRRQ0AAAAAAMAaUdQAAAAAAACsEUUNAAAAAADAGlHUAAAAAAAArBFFDQAAAAAAwBpR1AAAAAAAAKwRRQ0AAAAAAMAaUdQAAAAAAACsEUUNAAAAAADAGlHUAAAAAAAArBFFDQAAAAAAwBpR1AAAAAAAAKwRRQ0AAAAAAMAaUdQAAAAAAACsEUUNAAAAAADAGlHUAAAAAAAArBFFDQAAAAAAwBpR1AAAAAAAAKwRRQ0AAAAAAMAaUdQAAAAAAACsEUUNAAAAAADAGlHUAAAAAAAArBFFDQAAAAAAwBpR1AAAAAAAAKyJEP7/NvfTtaIwwA8AAAAASUVORK5CYII=;" vertex="1" parent="1">
          <mxGeometry y="60" width="1727.46" height="950" as="geometry" />
        </mxCell>
      </root>
    </mxGraphModel>
  </diagram>
</mxfile>
